<?xml version="1.0" encoding="utf-8"?>
<!-- Generator: Adobe Illustrator 20.0.0, SVG Export Plug-In . SVG Version: 6.00 Build 0)  -->
<svg version="1.1" id="Layer_1" xmlns="http://www.w3.org/2000/svg" xmlns:xlink="http://www.w3.org/1999/xlink" x="0px" y="0px"
	 viewBox="0 0 800 800" style="enable-background:new 0 0 800 800;" xml:space="preserve">
<style type="text/css">
	.st0{fill:none;stroke:#FFFFFF;stroke-width:6;stroke-linecap:round;stroke-linejoin:round;stroke-miterlimit:10;}
	.st1{fill:#FFFFFF;}
	
		.st2{clip-path:url(#XMLID_4_);fill:none;stroke:#FFFFFF;stroke-width:6;stroke-linecap:round;stroke-linejoin:round;stroke-miterlimit:10;}
	.st3{fill:none;stroke:#FFFFFF;stroke-width:6;stroke-miterlimit:10;}
	.st4{fill:none;stroke:#FFFFFF;stroke-width:6;stroke-linecap:round;stroke-miterlimit:10;}
	.st5{fill:none;stroke:#FFFFFF;stroke-width:6;stroke-linejoin:round;stroke-miterlimit:10;}
	
		.st6{clip-path:url(#XMLID_5_);fill:none;stroke:#FFFFFF;stroke-width:6;stroke-linecap:round;stroke-linejoin:round;stroke-miterlimit:10;}
</style>
<g>
	<line class="st0" x1="600.4" y1="304.7" x2="600.4" y2="304.7"/>
	<g>
		<path class="st0" d="M424.4,255.8c7.9,18.2,13,45.1,13,75.1c0,54.8-16.7,99.2-37.3,99.2c-20.6,0-37.4-44.4-37.4-99.2
			c0-30,5-56.9,13-75.1c-31.5,18.5-54.3,71.9-54.3,134.9c0,44,11.1,83.4,28.6,109.4c4.3-6,11.4-9.9,19.4-9.9
			c13.2,0,23.9,10.7,23.9,23.9c0,8.1-4,15.2-10.1,19.5l16.9,73.7l16.9-73.7c-6.1-4.3-10.1-11.4-10.1-19.5
			c0-13.2,10.7-23.9,23.9-23.9c8,0,15,3.9,19.4,9.9c17.5-26,28.6-65.4,28.6-109.4C478.7,327.7,455.9,274.4,424.4,255.8z"/>
		<path class="st0" d="M450,500.1L450,500.1C450.1,500.1,450.1,500.1,450,500.1C450.1,500.1,450.1,500.1,450,500.1z"/>
		<path class="st0" d="M350,500.1C349.9,500.1,349.9,500.1,350,500.1C349.9,500.1,349.9,500.1,350,500.1L350,500.1z"/>
	</g>
	<line class="st0" x1="321.7" y1="376.4" x2="351.9" y2="416.4"/>
	<line class="st0" x1="325" y1="433.5" x2="351.9" y2="447.3"/>
	<line class="st0" x1="336.8" y1="475.2" x2="359.2" y2="475.2"/>
	<line class="st0" x1="478.3" y1="376.4" x2="448.1" y2="416.4"/>
	<line class="st0" x1="475" y1="433.5" x2="448.1" y2="447.3"/>
	<line class="st0" x1="463.2" y1="475.2" x2="440.8" y2="475.2"/>
	<ellipse class="st0" cx="379.7" cy="457.4" rx="10.8" ry="10.6"/>
	<ellipse class="st0" cx="368.9" cy="513.6" rx="10.8" ry="10.6"/>
	<ellipse class="st0" cx="431.1" cy="513.6" rx="10.8" ry="10.6"/>
	<ellipse class="st0" cx="420.3" cy="457.4" rx="10.8" ry="10.6"/>
	<polyline class="st0" points="382.5,418.3 400,378.5 417.5,418.3 	"/>
	<path class="st0" d="M400,85.4C346.7,167.7,367.7,208,367.7,208l0,0c5.5,13.4,17.8,22.7,32.3,22.7c14.4,0,26.8-9.3,32.3-22.7l0,0
		C432.3,208,453.3,167.7,400,85.4z"/>
	<path class="st0" d="M400,52.6c-79.9,111.9-48.4,166.6-48.4,166.6l0,0c8.2,18.2,26.8,30.8,48.4,30.8c21.6,0,40.2-12.7,48.4-30.8
		l0,0C448.4,219.3,479.9,164.5,400,52.6z"/>
	<path class="st0" d="M446.3,276.1c0,0,73.2,47.4,51.4,162.1c17.8-5.3,28.2-15.9,40.1-29.9c-6.5,36.3-25.1,69.1-58.3,86.1
		c18.9-0.4,35.7-6.3,51.3-16.8c-1.7,19.4-18.9,35.4-32.4,49.7c-35.9,37.9-67.3,69.5-98.4,163.5c-31.1-94-62.5-125.6-98.4-163.5
		c-13.5-14.3-30.7-30.3-32.4-49.7c15.6,10.5,32.4,16.4,51.3,16.8c-33.3-17.1-51.9-49.8-58.3-86.1c11.9,14.1,22.3,24.6,40.1,29.9
		c-21.8-114.8,51.4-162.1,51.4-162.1"/>
	<line class="st0" x1="400" y1="378.5" x2="400" y2="301.6"/>
	<path class="st0" d="M382.5,418.3l-5.6,13.3c0,0-17.1,6.6-8,25.9"/>
	<path class="st0" d="M417.5,418.3l5.6,13.3c0,0,17.1,6.6,8,25.9"/>
	<line class="st0" x1="400" y1="607.3" x2="400" y2="690.8"/>
	<path class="st0" d="M223.6,353.2c0,0,12.5,33.3,22.8,42.1c0,0,0-16.1,6.5-25.3C252.9,370,231.8,360.8,223.6,353.2z"/>
	<path class="st0" d="M264.3,385.2c0,0,9.8,16.8,16.8,21.7c0,0-2.2-28.8,5.4-56.4C286.6,350.5,264.9,372.2,264.3,385.2z"/>
	<path class="st0" d="M239.4,311.4c0,0,0.5,25.5,8.1,39.1l11.4,7.1L270,345C270,345,254.7,331.4,239.4,311.4z"/>
	<path class="st0" d="M276.5,263.7c0,0-8.9,30.9-10.6,53.5L280,336l16.3-6.5C296.3,329.5,282,301.6,276.5,263.7z"/>
	<path class="st0" d="M308.6,199.7c-13.4,19-20.3,41.2-20.3,41.2s2.2,23.5,17.4,68.7l20.4-29.1C303.7,244,308.6,199.7,308.6,199.7z"
		/>
	<path class="st0" d="M400,115.4c-29.7,55.5-18,82.7-18,82.7l0,0c3,9,10,15.3,18,15.3c8,0,15-6.3,18-15.3l0,0
		C418,198.1,429.7,170.9,400,115.4z"/>
	<path class="st0" d="M259.4,452.4c-9.6-13.7-13.5-32.9-13.5-32.9l-24.5,3.1c0,0,10.8,42.9,33.6,67.8
		C255.1,490.4,251.1,466.9,259.4,452.4z"/>
	<path class="st0" d="M576.4,353.2c0,0-12.5,33.3-22.8,42.1c0,0,0-16.1-6.5-25.3C547.1,370,568.2,360.8,576.4,353.2z"/>
	<path class="st0" d="M535.7,385.2c0,0-9.8,16.8-16.8,21.7c0,0,2.2-28.8-5.4-56.4C513.4,350.5,535.1,372.2,535.7,385.2z"/>
	<path class="st0" d="M560.6,311.4c0,0-0.5,25.5-8.1,39.1l-11.4,7.1L530,345C530,345,545.3,331.4,560.6,311.4z"/>
	<path class="st0" d="M523.5,263.7c0,0,8.9,30.9,10.6,53.5L520,336l-16.3-6.5C503.7,329.5,518,301.6,523.5,263.7z"/>
	<path class="st0" d="M491.4,199.7c13.4,19,20.3,41.2,20.3,41.2s-2.2,23.5-17.4,68.7l-20.4-29.1C496.3,244,491.4,199.7,491.4,199.7z
		"/>
	<path class="st0" d="M540.6,452.4c9.6-13.7,13.5-32.9,13.5-32.9l24.5,3.1c0,0-10.8,42.9-33.6,67.8
		C544.9,490.4,548.9,466.9,540.6,452.4z"/>
	<g>
		<path class="st0" d="M363.9,653.5c-5.3-9.6-10.5-13.7-17.6-14.2s-14.8,4-16.3,10.9c-1.7,7.7,4,15.1,10.1,20
			c6.1,5,13.4,9.2,16.8,16.3c2.9,6.1,2.4,13.7-1.4,19.3s-10.7,9-17.4,8.5c-4.5-0.3-9.1-2.4-11.5-6.2c-2.4-3.8-2.2-9.4,1.2-12.4
			c3.4-3,9.7-2.2,11.5,2"/>
		<path class="st0" d="M348,626.3c-11,1.8-23.8-5.8-31.9-13.5c-8.1-7.7-15.4-16.9-25.7-21.2c-8.5-3.6-18.6-3.4-26.6,1
			c-8.1,4.4-13.7,13.1-14,22.3c-0.2,9.2,5.3,18.4,13.8,22c15.1,6.5,33.3-5.1,48.6,1c-2.7-9.9-11.7-19.5-21.8-21.2
			c-5-0.9-10.2-0.3-15.3-0.4c-5.1-0.2-10.5-1.2-14.2-4.7c-3.7-3.5-6.5-11-2.9-14.6"/>
		<path class="st0" d="M238.3,625.8c0,0-2.4-17.5-11.9-19.4c-2.8-0.7-5.8,0.2-7.8,2.5c-2,2.3-2.4,5.5-1.3,8.1
			C220.6,626,238.3,625.8,238.3,625.8z"/>
		<path class="st0" d="M165.3,498.5c0,0-17.2,4.3-18.1,13.9c-0.4,2.8,0.8,5.8,3.3,7.5c2.5,1.7,5.7,1.8,8.2,0.5
			C167.4,516.1,165.3,498.5,165.3,498.5z"/>
		<path class="st0" d="M259.3,655c-2.8,6.6-10.1,10.4-18.1,11.2c-8.1,0.7-16.8-1.4-25-4.9c-8.2-3.4-15.9-8.1-23.6-12.8
			c6.7-8.5,19.9-12.7,32.8-11.1S250.9,644.6,259.3,655z"/>
		<path class="st0" d="M97.3,437.7c4.4-1.9,7-6.7,7.4-12.1s-1-11.2-3.3-16.7c-2.3-5.5-5.4-10.6-8.6-15.8c-5.7,4.5-8.4,13.3-7.4,21.9
			C86.6,423.5,90.4,432.1,97.3,437.7z"/>
		<path class="st0" d="M329.7,652.5c-8.1-2.2-16.6-2.9-24.8-1c-8.1,1.9-15.8,6.5-20.4,13.5c-4.6,7-5.8,16.3-2.3,23.8
			c2.2,4.6,6.1,8.4,10.9,10.1c4.8,1.6,10.4,0.9,14.4-2.2c4-3.2,5.9-8.8,4.4-13.6c-1.5-4.8-6.6-8.4-11.6-7.8s-9.1,5.8-8.4,10.8"/>
		<path class="st0" d="M284.4,663.1c-7.6-5.7-15.5-8.9-25-8.3"/>
		<g>
			<g>
				<path class="st1" d="M372.4,704c-2.1,0-3.8,1.7-3.8,3.8s1.7,3.8,3.8,3.8c2.1,0,3.8-1.7,3.8-3.8S374.5,704,372.4,704L372.4,704z"
					/>
			</g>
			<g>
				<path class="st1" d="M377.8,715.3c-2.1,0-3.8,1.7-3.8,3.8s1.7,3.8,3.8,3.8s3.8-1.7,3.8-3.8S379.9,715.3,377.8,715.3L377.8,715.3
					z"/>
			</g>
			<g>
				<path class="st1" d="M364.9,713.4c-2.1,0-3.8,1.7-3.8,3.8s1.7,3.8,3.8,3.8s3.8-1.7,3.8-3.8S366.9,713.4,364.9,713.4L364.9,713.4
					z"/>
			</g>
		</g>
		<g>
			<g>
				<path class="st1" d="M262.3,672.8c-1.5,0-2.9,0.9-3.5,2.3c-0.8,1.9,0.1,4.1,2,5c0.5,0.2,1,0.3,1.5,0.3c1.5,0,2.9-0.9,3.5-2.3
					c0.8-1.9-0.1-4.1-2-5C263.3,672.9,262.8,672.8,262.3,672.8L262.3,672.8z"/>
			</g>
			<g>
				<path class="st1" d="M262.9,685.3c-1.5,0-2.9,0.9-3.5,2.3c-0.8,1.9,0.1,4.1,2,5c0.5,0.2,1,0.3,1.5,0.3c1.5,0,2.9-0.9,3.5-2.3
					c0.8-1.9-0.1-4.1-2-5C263.9,685.4,263.4,685.3,262.9,685.3L262.9,685.3z"/>
			</g>
			<g>
				<path class="st1" d="M251.7,678.5c-1.5,0-2.9,0.9-3.5,2.3c-0.8,1.9,0.1,4.1,2,5c0.5,0.2,1,0.3,1.5,0.3c1.5,0,2.9-0.9,3.5-2.3
					c0.8-1.9-0.1-4.1-2-5C252.7,678.6,252.2,678.5,251.7,678.5L251.7,678.5z"/>
			</g>
		</g>
		<g>
			<g>
				<path class="st1" d="M246.9,555c-1.1,0-2.2,0.5-3,1.4c-1.3,1.6-1,4,0.6,5.3c0.7,0.5,1.5,0.8,2.3,0.8c1.1,0,2.2-0.5,3-1.4
					c1.3-1.6,1-4-0.6-5.3C248.5,555.2,247.7,555,246.9,555L246.9,555z"/>
			</g>
			<g>
				<path class="st1" d="M235.1,553.6c-1.1,0-2.2,0.5-3,1.4c-1.3,1.6-1,4,0.6,5.3c0.7,0.5,1.5,0.8,2.3,0.8c1.1,0,2.2-0.5,3-1.4
					c1.3-1.6,1-4-0.6-5.3C236.8,553.9,236,553.6,235.1,553.6L235.1,553.6z"/>
			</g>
			<g>
				<path class="st1" d="M225.4,560.4c-1.1,0-2.2,0.5-3,1.4c-1.3,1.6-1,4,0.6,5.3c0.7,0.5,1.5,0.8,2.3,0.8c1.1,0,2.2-0.5,3-1.4
					c1.3-1.6,1-4-0.6-5.3C227,560.7,226.2,560.4,225.4,560.4L225.4,560.4z"/>
			</g>
		</g>
		<g>
			<g>
				<path class="st1" d="M199.9,445.2c-1.3,0-2.6,0.7-3.3,1.9c-1,1.8-0.4,4.1,1.4,5.2c0.6,0.3,1.2,0.5,1.9,0.5
					c1.3,0,2.6-0.7,3.3-1.9c1-1.8,0.4-4.1-1.4-5.2C201.2,445.4,200.6,445.2,199.9,445.2L199.9,445.2z"/>
			</g>
			<g>
				<path class="st1" d="M200.3,457c-1.3,0-2.6,0.7-3.3,1.9c-1,1.8-0.4,4.1,1.4,5.2c0.6,0.3,1.2,0.5,1.9,0.5c1.3,0,2.6-0.7,3.3-1.9
					c1-1.8,0.4-4.1-1.4-5.2C201.6,457.2,200.9,457,200.3,457L200.3,457z"/>
			</g>
			<g>
				<path class="st1" d="M208.5,465.7c-1.3,0-2.6,0.7-3.3,1.9c-1,1.8-0.4,4.1,1.4,5.2c0.6,0.3,1.2,0.5,1.9,0.5
					c1.3,0,2.6-0.7,3.3-1.9c1-1.8,0.4-4.1-1.4-5.2C209.8,465.9,209.1,465.7,208.5,465.7L208.5,465.7z"/>
			</g>
		</g>
		<path class="st0" d="M266.5,591.3c-3.8-7.9-12.5-12.3-21.1-14c-6.4-1.3-13.1-1.3-19.2,1c-6.1,2.3-11.4,7.2-13.1,13.4
			c-1.8,6.2-0.1,13.8,5.5,17.1"/>
		<path class="st0" d="M300.1,563.1c-1.9,7.7-8.8,11.2-16.7,11.7c-8.8,0.6-17.7-4.9-21.1-13.1c-1.9-4.7-2.1-10-3.4-14.9
			c-2.2-8.5-8-15.9-15.5-20.3c-7.6-4.4-16.9-5.6-25.4-3.3"/>
		<path class="st0" d="M211.3,495c-5-5.6-9.3-8.9-14.6-14c-5.2-5-9.1-10.2-11-22.5c-3.4,17.5-0.6,37.4,7,51.3
			c-5.2,1.8-10.9,0.5-15.6-3.6c4.2,10.5,11.1,18.3,18.8,21.5c6.1,2.5,17.7,4,21.9-5.6C221.9,512.9,216.1,500.3,211.3,495z"/>
		<path class="st0" d="M209.1,560.9c-10,9.7-25.4,13.5-38.8,9.6c-4.7-1.4-9.3-3.7-12.6-7.3c-3.3-3.6-5.3-8.7-4.5-13.5
			c0.8-4.9,4.6-9.3,9.5-10.1s10.2,2.7,10.8,7.6c0.6,4.9-4.5,9.8-9.2,8.5"/>
		<path class="st0" d="M199.1,567.9c-9.3,8.5-23.8,15.4-34.8,17.1s-23.3-1-30.5-9.5c-8.7-10.2-8.8-25.2-7.3-38.6
			c2.1-19.4,5.6-31.6,17.5-43.4c7.9-7.9,17.7-14.4,22.6-24.5c4-8.3,4.7-13.9,0.7-22.2s-14.7-13.9-23.9-14.6
			c-9.2-0.7-18.7,4.3-22.7,12.6c-7.3,14.7,3.3,33.6-3.6,48.5c10-2.1,20.1-10.7,22.3-20.6c1.1-5,0.8-10.2,1.3-15.3s1.8-10.4,5.5-14
			c3.7-3.5,14.1-5.5,17.6-1.7"/>
		<path class="st0" d="M150.5,519.8c0.4,4-2.1,7.7-4.9,10.5c-5,5.1-11.5,8.7-18.5,10.3"/>
		<path class="st0" d="M147.1,583.9c0,0-13.3-8.4-5.9-25.2"/>
		<path class="st0" d="M221.6,548.3c0,0-19.3,8.4-31-2.4"/>
		<path class="st0" d="M258.5,545.9c0,0-32.7-12.5-49.4,15.1c-8.8,14.6-15.7,25.2-13.6,43.7c0.6,5.2,0.7,10.8-2.4,15
			c-3.7,5.1-11.3,6.6-17,4c-5.7-2.6-9.5-8.7-10-15c-0.3-3.1,0.3-6.5,2.3-8.9c2-2.4,5.7-3.6,8.4-2.1s3.5,6,1,7.9"/>
		<path class="st0" d="M133.7,507.3c-6.6,3.6-13.9,6.4-21.4,6.2c-7.5-0.2-15.3-4.1-18.4-11c-3-6.5-1.3-14.2,1.4-20.9
			c2.7-6.6,6.5-12.9,7.9-20c1.6-8.7-0.9-18.1-6.6-24.9"/>
		<line class="st0" x1="347.6" y1="119.5" x2="341.4" y2="85.7"/>
		<line class="st0" x1="316.3" y1="98.4" x2="314.5" y2="91.9"/>
		<line class="st0" x1="327.3" y1="138.6" x2="318.9" y2="108.2"/>
		<line class="st0" x1="302.2" y1="138.6" x2="288.1" y2="100.3"/>
		<line class="st0" x1="309.4" y1="158" x2="305.8" y2="148.3"/>
		<line class="st0" x1="267.9" y1="122.3" x2="262.6" y2="111"/>
		<line class="st0" x1="293.7" y1="177.3" x2="272.9" y2="132.8"/>
		<line class="st0" x1="242.4" y1="131.2" x2="238.1" y2="123.8"/>
		<line class="st0" x1="268.8" y1="176.8" x2="248.6" y2="141.9"/>
		<line class="st0" x1="280.2" y1="196.6" x2="274.5" y2="186.7"/>
		<line class="st0" x1="232.1" y1="163.5" x2="214.8" y2="138.6"/>
		<line class="st0" x1="270" y1="217.7" x2="239.4" y2="173.9"/>
		<line class="st0" x1="200.3" y1="164.4" x2="192.8" y2="155.4"/>
		<line class="st0" x1="235.1" y1="206.2" x2="206.8" y2="172.2"/>
		<line class="st0" x1="259.4" y1="235.3" x2="242.4" y2="214.9"/>
		<line class="st0" x1="177.9" y1="179.6" x2="172.3" y2="174"/>
		<line class="st0" x1="224.8" y1="227" x2="187.4" y2="189.2"/>
		<line class="st0" x1="253.1" y1="255.6" x2="244" y2="246.4"/>
		<line class="st0" x1="192.8" y1="227.7" x2="153.5" y2="194.2"/>
		<line class="st0" x1="214.8" y1="246.4" x2="201.8" y2="235.3"/>
		<line class="st0" x1="156.8" y1="230.5" x2="136.5" y2="216.1"/>
		<line class="st0" x1="212.3" y1="270.1" x2="164.8" y2="236.2"/>
		<line class="st0" x1="129.2" y1="243.8" x2="121.4" y2="239.2"/>
		<line class="st0" x1="172.3" y1="269.3" x2="139.8" y2="250.1"/>
		<line class="st0" x1="210.3" y1="291.8" x2="183.8" y2="276.1"/>
		<line class="st0" x1="127.1" y1="272.6" x2="108.4" y2="263.6"/>
		<line class="st0" x1="187.4" y1="301.6" x2="137.5" y2="277.6"/>
		<line class="st0" x1="102.8" y1="291" x2="97.5" y2="289"/>
		<line class="st0" x1="136.5" y1="303.9" x2="113" y2="294.9"/>
		<line class="st0" x1="187.4" y1="323.2" x2="147.1" y2="307.9"/>
		<line class="st0" x1="113" y1="322.2" x2="88.8" y2="315.3"/>
		<line class="st0" x1="190.6" y1="344.3" x2="122.9" y2="325"/>
		<line class="st0" x1="90" y1="343.6" x2="82.3" y2="342.2"/>
		<line class="st0" x1="194.4" y1="363.3" x2="100.7" y2="345.7"/>
		<line class="st0" x1="133.7" y1="375.4" x2="78.2" y2="369.5"/>
		<line class="st0" x1="182.4" y1="380.7" x2="147.1" y2="376.9"/>
		<line class="st0" x1="156.8" y1="398.8" x2="109.7" y2="397.8"/>
		<line class="st0" x1="182.4" y1="399.3" x2="169.6" y2="399.1"/>
		<line class="st0" x1="184.8" y1="417.3" x2="127.3" y2="418.4"/>
		<line class="st0" x1="189.6" y1="434.2" x2="174.3" y2="436.7"/>
		<path class="st0" d="M366.2,658c-2.6-3.3-7.8-3.8-10.6-3.9c-4.7-0.1-9.5,1.7-12.5,5.2s-3.4,9-0.3,13.1"/>
	</g>
	<g>
		<path class="st0" d="M436.1,653.5c5.3-9.6,10.5-13.7,17.6-14.2s14.8,4,16.3,10.9c1.7,7.7-4,15.1-10.1,20
			c-6.1,5-13.4,9.2-16.8,16.3c-2.9,6.1-2.4,13.7,1.4,19.3s10.7,9,17.4,8.5c4.5-0.3,9.1-2.4,11.5-6.2c2.4-3.8,2.2-9.4-1.2-12.4
			c-3.4-3-9.7-2.2-11.5,2"/>
		<path class="st0" d="M452,626.3c11,1.8,23.8-5.8,31.9-13.5c8.1-7.7,15.4-16.9,25.7-21.2c8.5-3.6,18.6-3.4,26.6,1
			c8.1,4.4,13.7,13.1,14,22.3c0.2,9.2-5.3,18.4-13.8,22c-15.1,6.5-33.3-5.1-48.6,1c2.7-9.9,11.7-19.5,21.8-21.2
			c5-0.9,10.2-0.3,15.3-0.4c5.1-0.2,10.5-1.2,14.2-4.7c3.7-3.5,6.5-11,2.9-14.6"/>
		<path class="st0" d="M561.7,625.8c0,0,2.4-17.5,11.9-19.4c2.8-0.7,5.8,0.2,7.8,2.5c2,2.3,2.4,5.5,1.3,8.1
			C579.4,626,561.7,625.8,561.7,625.8z"/>
		<path class="st0" d="M634.7,498.5c0,0,17.2,4.3,18.1,13.9c0.4,2.8-0.8,5.8-3.3,7.5c-2.5,1.7-5.7,1.8-8.2,0.5
			C632.6,516.1,634.7,498.5,634.7,498.5z"/>
		<path class="st0" d="M540.7,655c2.8,6.6,10.1,10.4,18.1,11.2c8.1,0.7,16.8-1.4,25-4.9c8.2-3.4,15.9-8.1,23.6-12.8
			c-6.7-8.5-19.9-12.7-32.8-11.1C561.9,639,549.1,644.6,540.7,655z"/>
		<path class="st0" d="M702.7,437.7c-4.4-1.9-7-6.7-7.4-12.1s1-11.2,3.3-16.7c2.3-5.5,5.4-10.6,8.6-15.8c5.7,4.5,8.4,13.3,7.4,21.9
			C713.4,423.5,709.6,432.1,702.7,437.7z"/>
		<path class="st0" d="M470.3,652.5c8.1-2.2,16.6-2.9,24.8-1c8.1,1.9,15.8,6.5,20.4,13.5s5.8,16.3,2.3,23.8
			c-2.2,4.6-6.1,8.4-10.9,10.1c-4.8,1.6-10.4,0.9-14.4-2.2c-4-3.2-5.9-8.8-4.4-13.6c1.5-4.8,6.6-8.4,11.6-7.8s9.1,5.8,8.4,10.8"/>
		<path class="st0" d="M515.6,663.1c7.6-5.7,15.5-8.9,25-8.3"/>
		<g>
			<g>
				<path class="st1" d="M427.6,704c-2.1,0-3.8,1.7-3.8,3.8s1.7,3.8,3.8,3.8s3.8-1.7,3.8-3.8S429.7,704,427.6,704L427.6,704z"/>
			</g>
			<g>
				<path class="st1" d="M422.2,715.3c-2.1,0-3.8,1.7-3.8,3.8s1.7,3.8,3.8,3.8s3.8-1.7,3.8-3.8S424.2,715.3,422.2,715.3L422.2,715.3
					z"/>
			</g>
			<g>
				<path class="st1" d="M435.1,713.4c-2.1,0-3.8,1.7-3.8,3.8s1.7,3.8,3.8,3.8s3.8-1.7,3.8-3.8S437.2,713.4,435.1,713.4L435.1,713.4
					z"/>
			</g>
		</g>
		<g>
			<g>
				<path class="st1" d="M537.7,672.8c-0.5,0-1,0.1-1.5,0.3c-1.9,0.8-2.8,3-2,5c0.6,1.4,2,2.3,3.5,2.3c0.5,0,1-0.1,1.5-0.3
					c1.9-0.8,2.8-3,2-5C540.6,673.7,539.2,672.8,537.7,672.8L537.7,672.8z"/>
			</g>
			<g>
				<path class="st1" d="M537.1,685.3c-0.5,0-1,0.1-1.5,0.3c-1.9,0.8-2.8,3-2,5c0.6,1.4,2,2.3,3.5,2.3c0.5,0,1-0.1,1.5-0.3
					c1.9-0.8,2.8-3,2-5C540,686.2,538.6,685.3,537.1,685.3L537.1,685.3z"/>
			</g>
			<g>
				<path class="st1" d="M548.3,678.5c-0.5,0-1,0.1-1.5,0.3c-1.9,0.8-2.8,3-2,5c0.6,1.4,2,2.3,3.5,2.3c0.5,0,1-0.1,1.5-0.3
					c1.9-0.8,2.8-3,2-5C551.2,679.3,549.8,678.5,548.3,678.5L548.3,678.5z"/>
			</g>
		</g>
		<g>
			<g>
				<path class="st1" d="M553.1,555c-0.8,0-1.6,0.3-2.3,0.8c-1.6,1.3-1.9,3.7-0.6,5.3c0.7,0.9,1.9,1.4,3,1.4c0.8,0,1.6-0.3,2.3-0.8
					c1.6-1.3,1.9-3.7,0.6-5.3C555.3,555.4,554.2,555,553.1,555L553.1,555z"/>
			</g>
			<g>
				<path class="st1" d="M564.9,553.6c-0.8,0-1.6,0.3-2.3,0.8c-1.6,1.3-1.9,3.7-0.6,5.3c0.7,0.9,1.9,1.4,3,1.4
					c0.8,0,1.6-0.3,2.3-0.8c1.6-1.3,1.9-3.7,0.6-5.3C567.1,554.1,566,553.6,564.9,553.6L564.9,553.6z"/>
			</g>
			<g>
				<path class="st1" d="M574.6,560.4c-0.8,0-1.6,0.3-2.3,0.8c-1.6,1.3-1.9,3.7-0.6,5.3c0.7,0.9,1.9,1.4,3,1.4
					c0.8,0,1.6-0.3,2.3-0.8c1.6-1.3,1.9-3.7,0.6-5.3C576.9,560.9,575.8,560.4,574.6,560.4L574.6,560.4z"/>
			</g>
		</g>
		<g>
			<g>
				<path class="st1" d="M600.1,445.2c-0.6,0-1.3,0.2-1.9,0.5c-1.8,1-2.4,3.4-1.4,5.2c0.7,1.2,2,1.9,3.3,1.9c0.6,0,1.3-0.2,1.9-0.5
					c1.8-1,2.4-3.4,1.4-5.2C602.7,445.9,601.4,445.2,600.1,445.2L600.1,445.2z"/>
			</g>
			<g>
				<path class="st1" d="M599.7,457c-0.6,0-1.3,0.2-1.9,0.5c-1.8,1-2.4,3.4-1.4,5.2c0.7,1.2,2,1.9,3.3,1.9c0.6,0,1.3-0.2,1.9-0.5
					c1.8-1,2.4-3.4,1.4-5.2C602.3,457.7,601,457,599.7,457L599.7,457z"/>
			</g>
			<g>
				<path class="st1" d="M591.5,465.7c-0.6,0-1.3,0.2-1.9,0.5c-1.8,1-2.4,3.4-1.4,5.2c0.7,1.2,2,1.9,3.3,1.9c0.6,0,1.3-0.2,1.9-0.5
					c1.8-1,2.4-3.4,1.4-5.2C594.1,466.4,592.8,465.7,591.5,465.7L591.5,465.7z"/>
			</g>
		</g>
		<path class="st0" d="M533.5,591.3c3.8-7.9,12.5-12.3,21.1-14c6.4-1.3,13.1-1.3,19.2,1c6.1,2.3,11.4,7.2,13.1,13.4
			s0.1,13.8-5.5,17.1"/>
		<path class="st0" d="M499.9,563.1c1.9,7.7,8.8,11.2,16.7,11.7c8.8,0.6,17.7-4.9,21.1-13.1c1.9-4.7,2.1-10,3.4-14.9
			c2.2-8.5,8-15.9,15.5-20.3s16.9-5.6,25.4-3.3"/>
		<path class="st0" d="M588.7,495c5-5.6,9.3-8.9,14.6-14c5.2-5,9.1-10.2,11-22.5c3.4,17.5,0.6,37.4-7,51.3
			c5.2,1.8,10.9,0.5,15.6-3.6c-4.2,10.5-11.1,18.3-18.8,21.5c-6.1,2.5-17.7,4-21.9-5.6C578.1,512.9,583.9,500.3,588.7,495z"/>
		<path class="st0" d="M590.9,560.9c10,9.7,25.4,13.5,38.8,9.6c4.7-1.4,9.3-3.7,12.6-7.3c3.3-3.6,5.3-8.7,4.5-13.5
			c-0.8-4.9-4.6-9.3-9.5-10.1c-4.9-0.8-10.2,2.7-10.8,7.6c-0.6,4.9,4.5,9.8,9.2,8.5"/>
		<path class="st0" d="M600.9,567.9c9.3,8.5,23.8,15.4,34.8,17.1s23.3-1,30.5-9.5c8.7-10.2,8.8-25.2,7.3-38.6
			c-2.1-19.4-5.6-31.6-17.5-43.4c-7.9-7.9-17.7-14.4-22.6-24.5c-4-8.3-4.7-13.9-0.7-22.2s14.7-13.9,23.9-14.6s18.7,4.3,22.7,12.6
			c7.3,14.7-3.3,33.6,3.6,48.5c-10-2.1-20.1-10.7-22.3-20.6c-1.1-5-0.8-10.2-1.3-15.3c-0.4-5.1-1.8-10.4-5.5-14
			c-3.7-3.5-14.1-5.5-17.6-1.7"/>
		<path class="st0" d="M649.5,519.8c-0.4,4,2.1,7.7,4.9,10.5c5,5.1,11.5,8.7,18.5,10.3"/>
		<path class="st0" d="M652.9,583.9c0,0,13.3-8.4,5.9-25.2"/>
		<path class="st0" d="M578.4,548.3c0,0,19.3,8.4,31-2.4"/>
		<path class="st0" d="M541.5,545.9c0,0,32.7-12.5,49.4,15.1c8.8,14.6,15.7,25.2,13.6,43.7c-0.6,5.2-0.7,10.8,2.4,15
			c3.7,5.1,11.3,6.6,17,4c5.7-2.6,9.5-8.7,10-15c0.3-3.1-0.3-6.5-2.3-8.9c-2-2.4-5.7-3.6-8.4-2.1s-3.5,6-1,7.9"/>
		<path class="st0" d="M666.3,507.3c6.6,3.6,13.9,6.4,21.4,6.2c7.5-0.2,15.3-4.1,18.4-11c3-6.5,1.3-14.2-1.4-20.9
			c-2.7-6.6-6.5-12.9-7.9-20c-1.6-8.7,0.9-18.1,6.6-24.9"/>
		<line class="st0" x1="452.4" y1="119.5" x2="458.6" y2="85.7"/>
		<line class="st0" x1="483.7" y1="98.4" x2="485.5" y2="91.9"/>
		<line class="st0" x1="472.7" y1="138.6" x2="481.1" y2="108.2"/>
		<line class="st0" x1="497.8" y1="138.6" x2="511.9" y2="100.3"/>
		<line class="st0" x1="490.6" y1="158" x2="494.2" y2="148.3"/>
		<line class="st0" x1="532.1" y1="122.3" x2="537.4" y2="111"/>
		<line class="st0" x1="506.3" y1="177.3" x2="527.1" y2="132.8"/>
		<line class="st0" x1="557.6" y1="131.2" x2="561.9" y2="123.8"/>
		<line class="st0" x1="531.2" y1="176.8" x2="551.4" y2="141.9"/>
		<line class="st0" x1="519.8" y1="196.6" x2="525.5" y2="186.7"/>
		<line class="st0" x1="567.9" y1="163.5" x2="585.2" y2="138.6"/>
		<line class="st0" x1="530" y1="217.7" x2="560.6" y2="173.9"/>
		<line class="st0" x1="599.7" y1="164.4" x2="607.2" y2="155.4"/>
		<line class="st0" x1="564.9" y1="206.2" x2="593.2" y2="172.2"/>
		<line class="st0" x1="540.6" y1="235.3" x2="557.6" y2="214.9"/>
		<line class="st0" x1="622.1" y1="179.6" x2="627.7" y2="174"/>
		<line class="st0" x1="575.2" y1="227" x2="612.6" y2="189.2"/>
		<line class="st0" x1="546.9" y1="255.6" x2="556" y2="246.4"/>
		<line class="st0" x1="607.2" y1="227.7" x2="646.5" y2="194.2"/>
		<line class="st0" x1="585.2" y1="246.4" x2="598.2" y2="235.3"/>
		<line class="st0" x1="643.2" y1="230.5" x2="663.5" y2="216.1"/>
		<line class="st0" x1="587.7" y1="270.1" x2="635.2" y2="236.2"/>
		<line class="st0" x1="670.8" y1="243.8" x2="678.6" y2="239.2"/>
		<line class="st0" x1="627.7" y1="269.3" x2="660.2" y2="250.1"/>
		<line class="st0" x1="589.7" y1="291.8" x2="616.2" y2="276.1"/>
		<line class="st0" x1="672.9" y1="272.6" x2="691.6" y2="263.6"/>
		<line class="st0" x1="612.6" y1="301.6" x2="662.5" y2="277.6"/>
		<line class="st0" x1="697.2" y1="291" x2="702.5" y2="289"/>
		<line class="st0" x1="663.5" y1="303.9" x2="687" y2="294.9"/>
		<line class="st0" x1="612.6" y1="323.2" x2="652.9" y2="307.9"/>
		<line class="st0" x1="687" y1="322.2" x2="711.2" y2="315.3"/>
		<line class="st0" x1="609.4" y1="344.3" x2="677.1" y2="325"/>
		<line class="st0" x1="710" y1="343.6" x2="717.7" y2="342.2"/>
		<line class="st0" x1="605.6" y1="363.3" x2="699.3" y2="345.7"/>
		<line class="st0" x1="666.3" y1="375.4" x2="721.8" y2="369.5"/>
		<line class="st0" x1="617.6" y1="380.7" x2="652.9" y2="376.9"/>
		<line class="st0" x1="643.2" y1="398.8" x2="690.3" y2="397.8"/>
		<line class="st0" x1="617.6" y1="399.3" x2="630.4" y2="399.1"/>
		<line class="st0" x1="615.2" y1="417.3" x2="672.7" y2="418.4"/>
		<line class="st0" x1="610.4" y1="434.2" x2="625.7" y2="436.7"/>
		<path class="st0" d="M433.8,658c2.6-3.3,7.8-3.8,10.6-3.9c4.7-0.1,9.5,1.7,12.5,5.2s3.4,9,0.3,13.1"/>
	</g>
	<path class="st0" d="M370.3,259.3c-9.9-6.1-17.8-15.2-22.4-26.1c0.3,13,5.3,24.9,13.5,33.9"/>
	<path class="st0" d="M426.5,261.1c-7.9,4.2-16.9,6.6-26.5,6.6c-9.6,0-18.6-2.4-26.5-6.6"/>
	<path class="st0" d="M438.6,267.1c8.2-9,13.2-20.8,13.5-33.9c-4.6,10.8-12.5,19.9-22.4,26.1"/>
	<path class="st0" d="M369.3,274.3c8.6,6.3,19.2,10,30.7,10c11.5,0,22.1-3.7,30.7-10"/>
	<path class="st0" d="M448.6,279.4c7.1-7.7,12.8-17,16.8-27.5c0,0,15.6-32.5,3.9-98.2c0,0,59.9,45.7,77.3,147.5
		c0,0,13.6-21.3,23.3-59.3c0,0,14.2,62.8,3.2,96.5c0,0,17.5-12.1,27.2-33.6c0,0-1.3,59.7-31.7,101.5c0,0,25.2-14,35-29.9
		c0,0,3.8,80.9-84.6,166.9c-98.8,96.1-119,204-119,204s-20.3-107.9-119-204c-88.4-86-84.6-166.9-84.6-166.9
		c9.7,15.8,35,29.9,35,29.9c-30.4-41.9-31.7-101.5-31.7-101.5c9.7,21.6,27.2,33.6,27.2,33.6c-11-33.6,3.2-96.5,3.2-96.5
		c9.7,38.1,23.3,59.3,23.3,59.3c17.5-101.9,77.7-149.4,77.7-149.4"/>
	<path class="st0" d="M365.7,291.4c10.2,6.5,21.9,10.2,34.3,10.2c12.4,0,24.1-3.7,34.3-10.2"/>
	<path class="st0" d="M331.1,151.9c-12.4,67,3.6,100.1,3.6,100.1c3.9,10.4,9.7,19.7,16.7,27.4"/>
</g>
</svg>
