<?xml version="1.0" encoding="utf-8"?>
<!-- Generator: Adobe Illustrator 20.0.0, SVG Export Plug-In . SVG Version: 6.00 Build 0)  -->
<svg version="1.1" id="Layer_1" xmlns="http://www.w3.org/2000/svg" xmlns:xlink="http://www.w3.org/1999/xlink" x="0px" y="0px"
	 viewBox="0 0 800 800" style="enable-background:new 0 0 800 800;" xml:space="preserve">
<style type="text/css">
	.st0{fill:none;stroke:#FFFFFF;stroke-width:6;stroke-linecap:round;stroke-linejoin:round;stroke-miterlimit:10;}
	.st1{fill:#FFFFFF;}
	
		.st2{clip-path:url(#XMLID_4_);fill:none;stroke:#FFFFFF;stroke-width:6;stroke-linecap:round;stroke-linejoin:round;stroke-miterlimit:10;}
	.st3{fill:none;stroke:#FFFFFF;stroke-width:6;stroke-miterlimit:10;}
	.st4{fill:none;stroke:#FFFFFF;stroke-width:6;stroke-linecap:round;stroke-miterlimit:10;}
	.st5{fill:none;stroke:#FFFFFF;stroke-width:6;stroke-linejoin:round;stroke-miterlimit:10;}
	
		.st6{clip-path:url(#XMLID_5_);fill:none;stroke:#FFFFFF;stroke-width:6;stroke-linecap:round;stroke-linejoin:round;stroke-miterlimit:10;}
</style>
<g>
	<path class="st0" d="M273.1,548.9c-20.2-14.6-37.7-33.7-50.7-56.9c-0.8-1.4-1.6-2.9-2.3-4.3"/>
	<line class="st0" x1="207.6" y1="528.7" x2="234" y2="510.2"/>
	<line class="st0" x1="230.4" y1="555.1" x2="253" y2="532.9"/>
	<polygon class="st0" points="241.7,466.3 260.5,478.2 265,457.6 	"/>
	<path class="st0" d="M597.9,427.1c-3.8,24.7-12.8,48.9-27.5,71.1c-0.9,1.4-1.8,2.7-2.8,4"/>
	<line class="st0" x1="609.8" y1="494.6" x2="581.2" y2="479.6"/>
	<line class="st0" x1="622.8" y1="462.2" x2="592.7" y2="452.3"/>
	<polygon class="st0" points="538.6,492.7 540.6,470.6 520.3,476 	"/>
	<path class="st0" d="M557.5,320c10.1,22.8,15.5,48.1,15,74.7c0,1.6-0.1,3.3-0.2,4.9"/>
	<line class="st0" x1="603.9" y1="370.5" x2="571.7" y2="373.2"/>
	<line class="st0" x1="597.5" y1="336.2" x2="566.8" y2="344"/>
	<path class="st0" d="M122.3,334.7c0.7-3.5,1.5-6.9,2.3-10.3"/>
	<path class="st0" d="M116.7,406.4c-0.2-4.5-0.3-9-0.3-13.6c0-15.7,1.3-31.1,3.7-46.1"/>
	<path class="st0" d="M125.7,465.3c-1.3-4.8-2.4-9.6-3.4-14.4"/>
	<path class="st0" d="M153.2,532.5c-9.6-16.9-17.5-34.9-23.5-53.8"/>
	<path class="st0" d="M168.3,556.4c-2.8-4-5.5-8-8.1-12.1"/>
	<path class="st0" d="M209.4,602.8c-2.3-2.1-4.6-4.3-6.9-6.5"/>
	<path class="st0" d="M285.1,652.1c-23.5-10.4-45.4-24-65-40.1"/>
	<path class="st0" d="M309,661.5c-3.9-1.3-7.8-2.7-11.7-4.2"/>
	<path class="st0" d="M572.8,617.6c-25,19.2-53.2,34.4-83.8,44.5"/>
	<path class="st0" d="M646.8,532.5c-10.7,18.9-23.5,36.4-38.1,52.2"/>
	<path class="st0" d="M657.4,511.8c-1.6,3.4-3.2,6.8-5,10.2"/>
	<path class="st0" d="M599.1,594.7c-2.7,2.6-5.4,5.2-8.2,7.8"/>
	<path class="st0" d="M679.1,443.3c-0.9,4.9-1.9,9.7-3,14.5"/>
	<path class="st0" d="M679.7,346c2.5,15.2,3.8,30.8,3.8,46.7c0,12.5-0.8,24.7-2.4,36.7"/>
	<path class="st0" d="M675.7,326.1c0.7,2.9,1.4,5.9,2,8.8"/>
	<path class="st0" d="M581.2,174.6c2.7,2.2,5.3,4.5,7.9,6.8"/>
	<path class="st0" d="M518.3,135c17.4,8,33.9,17.8,49.2,29"/>
	<path class="st0" d="M490.7,124c4.6,1.6,9.2,3.2,13.7,5"/>
	<path class="st0" d="M432.1,111c16.2,1.8,32,5,47.3,9.5"/>
	<path class="st0" d="M300.3,127.2c3-1.1,5.9-2.2,8.9-3.2"/>
	<path class="st0" d="M209.7,182.5c22.2-20.1,47.7-36.8,75.4-49.1"/>
	<path class="st0" d="M143.9,431.8c-1.9-12.7-2.9-25.8-2.9-39.1c0-25.9,3.8-50.9,10.9-74.4"/>
	<path class="st0" d="M149.6,459.3c-1.2-4.5-2.2-8.9-3.2-13.5"/>
	<path class="st0" d="M168.8,509.7c-1.6-3.1-3.1-6.3-4.6-9.5"/>
	<path class="st0" d="M209.4,568.2c-12.7-13.8-23.9-28.9-33.4-45.2"/>
	<path class="st0" d="M218.5,577.6c-3.1-3.1-6.1-6.2-9.1-9.4"/>
	<path class="st0" d="M258.3,609.6c-9.6-6.3-18.7-13.1-27.3-20.6"/>
	<path class="st0" d="M336.3,643.9c-22.6-5.7-44-14.4-63.7-25.6"/>
	<path class="st0" d="M531,616.2c-20.8,12.2-43.4,21.6-67.3,27.6"/>
	<path class="st0" d="M595.5,562.7c-14.7,16.9-31.6,31.9-50.1,44.5"/>
	<path class="st0" d="M616.4,535c-1.6,2.4-3.2,4.8-4.9,7.1"/>
	<path class="st0" d="M654.1,443.3c-5.7,28.8-16.2,56-30.6,80.5"/>
	<path class="st0" d="M657.4,419.8c-0.4,3.8-0.9,7.6-1.5,11.3"/>
	<path class="st0" d="M658.9,384.8c0,1.7,0,3.3,0,5c0,1.4,0,2.8,0,4.2"/>
	<path class="st0" d="M646.5,313.1c6,18.7,10,38.4,11.6,58.7"/>
	<path class="st0" d="M543.5,177.2c14.3,9.5,27.5,20.4,39.6,32.5"/>
	<path class="st0" d="M475,144.8c20,6,38.9,14.4,56.5,24.8"/>
	<path class="st0" d="M229.3,197.9c11.4-10,23.7-19,36.7-26.9"/>
	<path class="st0" d="M216.6,209.8c1.3-1.4,2.7-2.7,4.1-4"/>
	<path class="st0" d="M91.7,387.8c0.3-21.1,2.8-41.7,7.2-61.6"/>
	<path class="st0" d="M92.7,418.6c-0.5-6.4-0.9-12.9-1-19.4"/>
	<path class="st0" d="M116.7,514.8c-1.6-3.7-3.2-7.5-4.6-11.3"/>
	<path class="st0" d="M147.3,569.5c-9.2-13.1-17.4-27-24.5-41.6"/>
	<path class="st0" d="M165.3,592.7c-2.6-3-5.1-6.1-7.6-9.3"/>
	<path class="st0" d="M231.9,651.3c-4-2.6-8-5.3-11.9-8.1"/>
	<path class="st0" d="M302.1,685.2c-20.7-6.9-40.5-16-59-27"/>
	<path class="st0" d="M504.6,682.9c-3,1.1-6,2.1-9,3.1"/>
	<path class="st0" d="M556.9,658.3c-13,7.7-26.5,14.4-40.6,20.2"/>
	<path class="st0" d="M578.9,643.9c-4,2.8-8,5.6-12.1,8.2"/>
	<path class="st0" d="M649.7,573.6c-1,1.3-1.9,2.7-2.9,4"/>
	<path class="st0" d="M682.6,516.3c-7.4,16.9-16.3,33.1-26.5,48.2"/>
	<path class="st0" d="M689.4,499.4c-0.9,2.4-1.8,4.7-2.7,7"/>
	<path class="st0" d="M708.3,390.8c0,0.7,0,1.3,0,2c0,5.5-0.1,10.9-0.4,16.3"/>
	<path class="st0" d="M700.7,324.4c3.6,15.8,6,32.1,7,48.8"/>
	<path class="st0" d="M556.7,127.2c15.3,9.1,29.8,19.4,43.2,30.9"/>
	<path class="st0" d="M534.5,115.3c3.4,1.7,6.8,3.4,10.2,5.2"/>
	<path class="st0" d="M481.1,95.2c5.2,1.4,10.3,2.9,15.4,4.6"/>
	<path class="st0" d="M453.9,89.2c5.4,1,10.8,2.1,16.1,3.3"/>
	<path class="st0" d="M289.2,105c5.1-2,10.3-3.8,15.5-5.5"/>
	<path class="st0" d="M258.3,118.8c4.9-2.5,9.8-4.9,14.8-7.2"/>
	<path class="st0" d="M200,158.1c14.1-12,29.3-22.8,45.4-32.2"/>
	<path class="st0" d="M340.5,619.5c-25.9-6.6-51.9-18.6-72.5-32.7"/>
	<path class="st0" d="M383.1,626.9c-3-0.2-6-0.5-8.9-0.8"/>
	<path class="st0" d="M484,612c-26.1,10-54.4,15.5-84,15.5"/>
	<path class="st0" d="M506.9,601.8c-3.7,1.9-7.5,3.7-11.3,5.4"/>
	<path class="st0" d="M586.7,535c-10.9,14.2-23.3,27.2-37.1,38.6"/>
	<path class="st0" d="M632,357.3c1.8,11.6,2.7,23.4,2.7,35.5c0,8.7-0.5,17.4-1.4,25.9"/>
	<path class="st0" d="M627.5,334.7c0.9,3.7,1.8,7.5,2.6,11.2"/>
	<path class="st0" d="M590.7,256c14.1,19.6,25.2,41.4,32.7,64.8"/>
	<path class="st0" d="M518.3,190c3,1.8,5.9,3.6,8.8,5.4"/>
	<path class="st0" d="M273.1,195.3c2.8-1.8,5.6-3.6,8.5-5.2"/>
	<path class="st0" d="M237.4,223.5c2.1-2.1,4.3-4.1,6.5-6"/>
	<path class="st0" d="M198.7,271.9c8.7-14.5,19-28.1,30.6-40.3"/>
	<path class="st0" d="M188.1,291.7c1.7-3.5,3.4-6.9,5.2-10.2"/>
	<path class="st0" d="M178.9,313.9c1.4-4,2.9-7.9,4.6-11.7"/>
	<path class="st0" d="M166.6,367.4c1.6-14.8,4.6-29.2,8.8-43"/>
	<path class="st0" d="M165.3,389.4c0-3.5,0.2-6.9,0.4-10.4"/>
	<path class="st0" d="M184.2,485.3c-11.1-25.9-17.7-54.2-18.8-83.9"/>
	<g>
		<path class="st0" d="M454.1,329l9.7-15.3c-17.7-21.5-25.1-47.3-25.1-75.1v-86.8L411,124v184.2l3.6,2.2
			C429.5,313,443,319.6,454.1,329z"/>
		<path class="st0" d="M519,371.5L519,371.5c7.3-11.7,11.5-25.4,11.5-40.2c0-38.8-29.2-70.8-66.8-75.3v22.5
			c14.5,6.5,24.6,21.1,24.6,38c0,12.1-7.8,25.6-16.5,33.6c7.4,12.5,11.7,27.1,11.7,42.7c0,37.1-24.2,68.6-57.7,79.5v107.3l18.5,30.7
			l6.9-69.7c5.6-46.3,25.8-79.2,56.8-108.7l36.4-34.7L519,371.5z"/>
		<path class="st0" d="M385.4,310.4l3.6-2.2V94l-27.7,27.7v116.8c0,27.8-7.4,53.6-25.1,75.1l9.7,15.3
			C356.9,319.6,370.5,313,385.4,310.4z"/>
		<path class="st0" d="M291.7,431.9c31.1,29.6,50.4,69.3,54.5,112l9.2,86.6L374,600V472.3c-33.5-10.9-57.7-42.4-57.7-79.5
			c0-15.6,4.3-30.2,11.7-42.7c-8.7-8-16.5-21.5-16.5-33.6c0-16.9,10.1-31.5,24.6-38V256c-37.6,4.5-66.8,36.5-66.8,75.3
			c0,14.8,4.2,28.5,11.5,40.2l0,0l-25.7,25.7L291.7,431.9"/>
	</g>
	<g>
		<g>
			<polygon class="st0" points="430.6,441.9 430.6,355.7 400,319 369.3,355.7 369.3,441.9 400,478.5 			"/>
			<polyline class="st0" points="400,319 410.1,375.5 430.6,355.7 			"/>
			<polyline class="st0" points="369.3,355.7 399.1,407.4 410.1,375.5 			"/>
			<polyline class="st0" points="430.6,441.9 399.1,407.4 369.3,441.9 			"/>
		</g>
		<line class="st0" x1="399.1" y1="407.4" x2="400" y2="478.5"/>
	</g>
	<g>
		<polygon class="st0" points="445.6,646 354.4,646 315.6,678.4 354.4,710.8 445.6,710.8 484.3,678.4 		"/>
		<polyline class="st0" points="315.6,678.4 379.8,672.2 354.4,646 		"/>
		<polyline class="st0" points="354.4,710.8 411.8,687.4 379.8,672.2 		"/>
		<polyline class="st0" points="445.6,646 411.8,687.4 445.6,710.8 		"/>
	</g>
	<g>
		<polygon class="st0" points="157.7,299.5 204.4,221.2 196.4,171.3 148.7,188 102,266.3 110,316.2 		"/>
		<polyline class="st0" points="196.4,171.3 168.8,229.7 204.4,221.2 		"/>
		<polyline class="st0" points="148.7,188 139.4,249.3 168.8,229.7 		"/>
		<polyline class="st0" points="157.7,299.5 139.4,249.3 102,266.3 		"/>
	</g>
	<g>
		<polygon class="st0" points="642.3,299.5 595.6,221.2 603.6,171.3 651.3,188 698,266.3 690,316.2 		"/>
		<polyline class="st0" points="603.6,171.3 631.1,229.7 595.6,221.2 		"/>
		<polyline class="st0" points="651.3,188 660.5,249.3 631.1,229.7 		"/>
		<polyline class="st0" points="642.3,299.5 660.5,249.3 698,266.3 		"/>
	</g>
	<line class="st0" x1="226" y1="423.7" x2="194.2" y2="429.3"/>
	<line class="st0" x1="223.3" y1="393.9" x2="191" y2="394.1"/>
	<line class="st0" x1="225.6" y1="364" x2="193.7" y2="358.8"/>
	<line class="st0" x1="233" y1="335" x2="202.4" y2="324.4"/>
	<line class="st0" x1="245.1" y1="307.6" x2="216.8" y2="292.1"/>
	<line class="st0" x1="261.7" y1="282.7" x2="236.5" y2="262.6"/>
	<line class="st0" x1="340.1" y1="226.5" x2="329.2" y2="196.1"/>
	<line class="st0" x1="461.2" y1="227" x2="472.4" y2="196.7"/>
	<line class="st0" x1="334.3" y1="556.9" x2="322.3" y2="586.9"/>
	<line class="st0" x1="402.5" y1="569.5" x2="402.9" y2="601.8"/>
	<path class="st0" d="M523.3,229.7c0,0,23,10.7,34.1,31.7"/>
	<line class="st0" x1="562.1" y1="222.7" x2="542.4" y2="242.8"/>
	<line class="st0" x1="477.6" y1="586.9" x2="465.6" y2="556.9"/>
	<polygon class="st0" points="278.3,208.8 258.6,203.8 255,227.7 274.4,227.6 	"/>
	<polygon class="st0" points="514,566.1 504.6,585.4 527,597.8 533.2,575.4 	"/>
	<polygon class="st0" points="549.1,285.9 568.8,276 588.7,286.6 545.1,307.8 	"/>
	<path class="st0" d="M526.3,414.7l103.4,17.9c-4.5,29-15.2,57.4-32.5,83.4c-1.2,1.8-2.4,3.5-3.6,5.3l-40.1-29.5l3.9-39.3L514.2,463
		l-21-15.4"/>
	<path class="st0" d="M326.5,478l-72.8,96.7c-23.7-17.2-44.2-39.7-59.4-67c-1-1.9-2.1-3.8-3-5.6l44.5-22.2l33.2,21.4l10.4-43.2
		l25.3-12.6"/>
	<path class="st0" d="M514.6,286.6l66.9-39.3c-0.7-1.1-1.4-2.3-2.1-3.4c-10.6-16.3-24.3-29.4-39.8-39.2l-41.8,64.1"/>
	<path class="st0" d="M544.6,397.8l60,3.9c0.1-2.1,0.2-4.3,0.2-6.4c0.6-31.2-5.7-61-17.5-87.8l-56.8,23.8"/>
	<path class="st0" d="M393.8,326.4c-33.9,3.1-60.5,31.6-60.5,66.4c0,18.4,7.5,35.1,19.5,47.1c-5.8-8.8-9.2-19.4-9.2-30.8
		c0-19.8,10.2-37.1,25.6-47.2"/>
	<path class="st0" d="M430.6,362c15.4,10,25.6,27.4,25.6,47.2c0,11.4-3.4,21.9-9.2,30.8c12.1-12.1,19.5-28.7,19.5-47.1
		c0-34.7-26.6-63.2-60.5-66.4"/>
	<path class="st0" d="M389,109.4c3.6-0.1,7.3-0.2,11-0.2c5.1,0,10.2,0.1,15.3,0.4"/>
	<path class="st0" d="M326.3,118.8c14.9-4,30.4-6.8,46.2-8.3"/>
	<path class="st0" d="M281,162.7c24.7-12.8,51.7-21.7,80.3-26"/>
	<path class="st0" d="M438.7,161.2c23.2,3.9,45.3,11.1,65.7,21.3"/>
	<path class="st0" d="M389,158.3c3.6-0.2,7.3-0.3,11-0.3c3.7,0,7.3,0.1,11,0.3"/>
	<path class="st0" d="M293.1,183.8c21.1-10.8,44-18.5,68.2-22.5"/>
	<path class="st0" d="M361.3,187.4c-24.6,4.6-47.7,13.5-68.4,25.9l-7.5,28.5l-29.9,0.1c-39.7,38-64.4,91.6-64.4,150.9
		c0,25.2,4.5,49.3,12.6,71.6l0.1,0l88.2-32.2"/>
	<path class="st0" d="M410.9,184.1c-3.6-0.2-7.3-0.3-10.9-0.3c-3.7,0-7.3,0.1-11,0.3"/>
	<path class="st0" d="M477.4,259.2l28.2-46.8c-20.3-11.9-42.8-20.5-66.7-25"/>
	<path class="st0" d="M438.7,220.4c17.9,4,34.8,10.7,50.2,19.7"/>
	<path class="st0" d="M389,216.4c3.6-0.2,7.3-0.3,11-0.3c3.7,0,7.4,0.1,11,0.3"/>
	<path class="st0" d="M234,453.3c-6.9-18.9-10.7-39.3-10.7-60.6c0-84.3,59-154.8,137.9-172.4"/>
	<path class="st0" d="M348.2,561.7c-13.8-4.2-27-10.1-39.1-17.5"/>
	<path class="st0" d="M426,567.6c-8.5,1.3-17.2,1.9-26,1.9c-8.8,0-17.5-0.6-26-1.9"/>
	<path class="st0" d="M533.2,508.8c-22,25.2-51,44.1-84,53.7"/>
	<path class="st0" d="M445.8,596.7c14.7-3.3,28.8-8.1,42.1-14.3l21.7-36.8l21.2,10.7c10.3-8.1,17.9-16.2,26.5-26l-76.1-67.8"/>
	<path class="st0" d="M374,600.2c8.5,1.1,17.2,1.6,26,1.6c12.7,0,25.2-1.1,37.3-3.3"/>
	<path class="st0" d="M335.7,498.2l-44.5,73l0,0c18.5,11.3,38.9,19.8,60.7,25"/>
	<path class="st0" d="M421.6,134.7c13.8,1.1,27.4,3.4,40.5,6.6"/>
	<path class="st0" d="M389,134c3.6-0.2,7.3-0.2,11-0.2c3.7,0,7.3,0.1,10.9,0.2"/>
</g>
</svg>
