<?xml version="1.0" encoding="utf-8"?>
<!-- Generator: Adobe Illustrator 20.0.0, SVG Export Plug-In . SVG Version: 6.00 Build 0)  -->
<svg version="1.1" id="Layer_1" xmlns="http://www.w3.org/2000/svg" xmlns:xlink="http://www.w3.org/1999/xlink" x="0px" y="0px"
	 viewBox="0 0 800 800" style="enable-background:new 0 0 800 800;" xml:space="preserve">
<style type="text/css">
	.st0{fill:none;stroke:#FFFFFF;stroke-width:6;stroke-linecap:round;stroke-linejoin:round;stroke-miterlimit:10;}
	.st1{fill:#FFFFFF;}
	
		.st2{clip-path:url(#XMLID_4_);fill:none;stroke:#FFFFFF;stroke-width:6;stroke-linecap:round;stroke-linejoin:round;stroke-miterlimit:10;}
	.st3{fill:none;stroke:#FFFFFF;stroke-width:6;stroke-miterlimit:10;}
	.st4{fill:none;stroke:#FFFFFF;stroke-width:6;stroke-linecap:round;stroke-miterlimit:10;}
	.st5{fill:none;stroke:#FFFFFF;stroke-width:6;stroke-linejoin:round;stroke-miterlimit:10;}
	
		.st6{clip-path:url(#XMLID_5_);fill:none;stroke:#FFFFFF;stroke-width:6;stroke-linecap:round;stroke-linejoin:round;stroke-miterlimit:10;}
</style>
<g>
	<line class="st0" x1="353.4" y1="68.8" x2="450.9" y2="68.8"/>
	<line class="st0" x1="367.5" y1="207.9" x2="367.5" y2="173.8"/>
	<line class="st0" x1="433.6" y1="173.8" x2="433.6" y2="207.9"/>
	<line class="st0" x1="433.6" y1="647.3" x2="433.6" y2="685.8"/>
	<line class="st0" x1="367.5" y1="685.8" x2="367.5" y2="647.3"/>
	<line class="st0" x1="356.8" y1="699.9" x2="367.5" y2="685.8"/>
	<line class="st0" x1="433.6" y1="685.8" x2="444.3" y2="699.9"/>
	<polyline class="st0" points="527.2,252.6 591.2,191.1 562.6,191.1 636.1,100.5 509.7,192.4 536.4,192.8 480.7,235.7 	"/>
	<polyline class="st0" points="248.8,420.8 204.3,456.1 239.8,456.1 165.2,544.2 195.7,544.2 113.8,644.2 251.4,542.5 225.8,542.5 
		269.5,500.4 	"/>
	<polyline class="st0" points="273.9,252.6 209.9,191.1 238.4,191.1 165,100.5 291.4,192.4 264.7,192.8 320.3,235.7 	"/>
	<polyline class="st0" points="287.6,420.8 156.2,420.8 61.3,252.6 269.5,252.6 	"/>
	<polyline class="st0" points="531.6,252.6 738.7,252.6 645.1,420.8 513.5,420.8 	"/>
	<line class="st0" x1="532.4" y1="286.3" x2="717.9" y2="286.3"/>
	<line class="st0" x1="83.2" y1="286.3" x2="269.5" y2="286.3"/>
	<line class="st0" x1="531.6" y1="319.9" x2="699.7" y2="319.9"/>
	<line class="st0" x1="101.4" y1="319.9" x2="269.5" y2="319.9"/>
	<line class="st0" x1="531.5" y1="353.5" x2="680.7" y2="353.5"/>
	<line class="st0" x1="120.4" y1="353.5" x2="269.5" y2="353.5"/>
	<line class="st0" x1="531.6" y1="387.2" x2="661.7" y2="387.2"/>
	<line class="st0" x1="139.4" y1="387.2" x2="269.5" y2="387.2"/>
	<polyline class="st0" points="269.5,387.2 245.6,387.2 188.6,286.3 269.5,286.3 	"/>
	<polyline class="st0" points="532.4,286.3 612.5,286.3 555.5,387.2 531.6,387.2 	"/>
	<polyline class="st0" points="443.5,637.4 480.7,637.4 480.7,619.5 498.6,619.5 498.6,602.6 531.5,602.6 531.5,439 513.5,420.9 
		531.5,402.9 531.5,252.6 498.6,252.6 498.6,235.7 480.7,235.7 480.7,217.9 443.5,217.9 	"/>
	<polyline class="st0" points="357.5,217.9 320.3,217.9 320.3,235.7 302.5,235.7 302.5,252.6 269.5,252.6 269.5,402.9 287.6,420.9 
		269.5,439 269.5,602.6 302.5,602.6 302.5,619.5 320.3,619.5 320.3,637.4 357.5,637.4 	"/>
	<g>
		<polyline class="st0" points="491.1,389.9 506.4,389.9 506.4,312.4 473.6,312.4 473.6,260.9 424.4,260.9 424.4,288.8 		"/>
		<polyline class="st0" points="376.7,289 376.7,260.9 327.4,260.9 327.4,312.4 294.7,312.4 294.7,389.9 310,389.9 		"/>
		<polyline class="st0" points="424.4,565.9 424.4,594.3 473.6,594.3 473.6,542.9 506.4,542.9 506.4,451.4 493,451.4 		"/>
		<polyline class="st0" points="308.2,451.4 294.7,451.4 294.7,542.9 327.4,542.9 327.4,594.3 376.7,594.3 376.7,565.7 		"/>
	</g>
	<ellipse class="st0" cx="400.5" cy="427.3" rx="93.8" ry="143.2"/>
	<ellipse class="st0" cx="400.5" cy="427.3" rx="77.5" ry="124.7"/>
	<rect x="288.3" y="561.3" class="st0" width="19.6" height="23.1"/>
	
		<rect x="493.2" y="561.3" transform="matrix(-1 4.488042e-11 -4.488042e-11 -1 1005.9432 1145.7455)" class="st0" width="19.6" height="23.1"/>
	<rect x="288.3" y="270.8" class="st0" width="19.6" height="23.1"/>
	
		<rect x="493.2" y="270.8" transform="matrix(-1 -4.478785e-11 4.478785e-11 -1 1005.9432 564.7432)" class="st0" width="19.6" height="23.1"/>
	
		<rect x="370.1" y="187.5" transform="matrix(0.7071 0.7071 -0.7071 0.7071 271.3807 -219.3959)" class="st0" width="60.8" height="60.8"/>
	
		<rect x="384.3" y="201.6" transform="matrix(0.7071 0.7071 -0.7071 0.7071 271.3807 -219.3959)" class="st0" width="32.5" height="32.5"/>
	
		<rect x="388.1" y="120.2" transform="matrix(0.7071 0.7071 -0.7071 0.7071 211.0629 -244.3803)" class="st0" width="24.8" height="24.8"/>
	
		<rect x="370.1" y="606.9" transform="matrix(0.7071 -0.7071 0.7071 0.7071 -333.3683 469.8911)" class="st0" width="60.8" height="60.8"/>
	
		<rect x="384.3" y="621.1" transform="matrix(0.7071 0.7071 -0.7071 0.7071 567.9902 -96.5362)" class="st0" width="32.5" height="32.5"/>
	<line class="st0" x1="357.8" y1="169" x2="329.9" y2="169"/>
	<line class="st0" x1="329.9" y1="93.2" x2="357.8" y2="93.2"/>
	
		<rect x="443.2" y="93.2" transform="matrix(-1 2.936617e-11 -2.936617e-11 -1 914.3928 262.2157)" class="st0" width="27.9" height="75.8"/>
	<rect x="357.8" y="88.4" class="st0" width="85.4" height="85.4"/>
	<path class="st0" d="M313.5,102.5v56.7c8.1,7.1,16.4,9.8,16.4,9.8V93.2C329.9,93.2,321.6,95.5,313.5,102.5z"/>
	<line class="st0" x1="364.2" y1="68.8" x2="357.8" y2="88.4"/>
	<line class="st0" x1="443.2" y1="88.4" x2="437.9" y2="68.8"/>
	<line class="st0" x1="471.2" y1="93.2" x2="489.7" y2="86.8"/>
	<line class="st0" x1="489.7" y1="174.3" x2="471.2" y2="169"/>
	<g>
		<path class="st1" d="M343.9,107.1c-1.9,0-3.8,1.2-4.5,3.1c-0.9,2.5,0.4,5.2,2.8,6.1c0.5,0.2,1.1,0.3,1.6,0.3
			c1.9,0,3.8-1.2,4.5-3.1c0.9-2.5-0.4-5.2-2.8-6.1C344.9,107.2,344.4,107.1,343.9,107.1L343.9,107.1z"/>
	</g>
	<g>
		<path class="st1" d="M340.2,268.9c-1.9,0-3.8,1.2-4.5,3.1c-0.9,2.5,0.4,5.2,2.8,6.1c0.5,0.2,1.1,0.3,1.6,0.3
			c1.9,0,3.8-1.2,4.5-3.1c0.9-2.5-0.4-5.2-2.8-6.1C341.3,269,340.8,268.9,340.2,268.9L340.2,268.9z"/>
	</g>
	<g>
		<path class="st1" d="M308.2,320.6c-1.9,0-3.8,1.2-4.5,3.1c-0.9,2.5,0.4,5.2,2.8,6.1c0.5,0.2,1.1,0.3,1.6,0.3
			c1.9,0,3.8-1.2,4.5-3.1c0.9-2.5-0.4-5.2-2.8-6.1C309.3,320.7,308.7,320.6,308.2,320.6L308.2,320.6z"/>
	</g>
	<g>
		<path class="st1" d="M492.9,320.6c-0.5,0-1.1,0.1-1.6,0.3c-2.5,0.9-3.7,3.6-2.8,6.1c0.7,1.9,2.5,3.1,4.5,3.1
			c0.5,0,1.1-0.1,1.6-0.3c2.5-0.9,3.7-3.6,2.8-6.1C496.6,321.8,494.8,320.6,492.9,320.6L492.9,320.6z"/>
	</g>
	<g>
		<path class="st1" d="M308.2,525.4c-1.9,0-3.8,1.2-4.5,3.1c-0.9,2.5,0.4,5.2,2.8,6.1c0.5,0.2,1.1,0.3,1.6,0.3
			c1.9,0,3.8-1.2,4.5-3.1c0.9-2.5-0.4-5.2-2.8-6.1C309.3,525.5,308.7,525.4,308.2,525.4L308.2,525.4z"/>
	</g>
	<g>
		<path class="st1" d="M492.9,525.4c-0.5,0-1.1,0.1-1.6,0.3c-2.5,0.9-3.7,3.6-2.8,6.1c0.7,1.9,2.5,3.1,4.5,3.1
			c0.5,0,1.1-0.1,1.6-0.3c2.5-0.9,3.7-3.6,2.8-6.1C496.6,526.6,494.8,525.4,492.9,525.4L492.9,525.4z"/>
	</g>
	<g>
		<path class="st1" d="M362.7,268.9c-1.9,0-3.8,1.2-4.5,3.1c-0.9,2.5,0.4,5.2,2.8,6.1c0.5,0.2,1.1,0.3,1.6,0.3
			c1.9,0,3.8-1.2,4.5-3.1c0.9-2.5-0.4-5.2-2.8-6.1C363.8,269,363.3,268.9,362.7,268.9L362.7,268.9z"/>
	</g>
	<g>
		<path class="st1" d="M460.8,268.9c-0.5,0-1.1,0.1-1.6,0.3c-2.5,0.9-3.7,3.6-2.8,6.1c0.7,1.9,2.5,3.1,4.5,3.1
			c0.5,0,1.1-0.1,1.6-0.3c2.5-0.9,3.7-3.6,2.8-6.1C464.6,270.1,462.7,268.9,460.8,268.9L460.8,268.9z"/>
	</g>
	<g>
		<path class="st1" d="M438.3,268.9c-0.5,0-1.1,0.1-1.6,0.3c-2.5,0.9-3.7,3.6-2.8,6.1c0.7,1.9,2.5,3.1,4.5,3.1
			c0.5,0,1.1-0.1,1.6-0.3c2.5-0.9,3.7-3.6,2.8-6.1C442.1,270.1,440.3,268.9,438.3,268.9L438.3,268.9z"/>
	</g>
	<g>
		<path class="st1" d="M340.2,577.2c-0.5,0-1.1,0.1-1.6,0.3c-2.5,0.9-3.7,3.6-2.8,6.1c0.7,1.9,2.5,3.1,4.5,3.1
			c0.5,0,1.1-0.1,1.6-0.3c2.5-0.9,3.7-3.6,2.8-6.1C344,578.4,342.2,577.2,340.2,577.2L340.2,577.2z"/>
	</g>
	<g>
		<path class="st1" d="M362.7,577.2c-0.5,0-1.1,0.1-1.6,0.3c-2.5,0.9-3.7,3.6-2.8,6.1c0.7,1.9,2.5,3.1,4.5,3.1
			c0.5,0,1.1-0.1,1.6-0.3c2.5-0.9,3.7-3.6,2.8-6.1C366.5,578.4,364.7,577.2,362.7,577.2L362.7,577.2z"/>
	</g>
	<g>
		<path class="st1" d="M460.8,577.2c-1.9,0-3.8,1.2-4.5,3.1c-0.9,2.5,0.4,5.2,2.8,6.1c0.5,0.2,1.1,0.3,1.6,0.3
			c1.9,0,3.8-1.2,4.5-3.1c0.9-2.5-0.4-5.2-2.8-6.1C461.9,577.3,461.3,577.2,460.8,577.2L460.8,577.2z"/>
	</g>
	<g>
		<path class="st1" d="M438.3,577.2c-1.9,0-3.8,1.2-4.5,3.1c-0.9,2.5,0.4,5.2,2.8,6.1c0.5,0.2,1.1,0.3,1.6,0.3
			c1.9,0,3.8-1.2,4.5-3.1c0.9-2.5-0.4-5.2-2.8-6.1C439.4,577.3,438.9,577.2,438.3,577.2L438.3,577.2z"/>
	</g>
	<g>
		<path class="st1" d="M343.9,125.8c-1.9,0-3.8,1.2-4.5,3.1c-0.9,2.5,0.4,5.2,2.8,6.1c0.5,0.2,1.1,0.3,1.6,0.3
			c1.9,0,3.8-1.2,4.5-3.1c0.9-2.5-0.4-5.2-2.8-6.1C344.9,125.9,344.4,125.8,343.9,125.8L343.9,125.8z"/>
	</g>
	<g>
		<path class="st1" d="M343.9,145c-1.9,0-3.8,1.2-4.5,3.1c-0.9,2.5,0.4,5.2,2.8,6.1c0.5,0.2,1.1,0.3,1.6,0.3c1.9,0,3.8-1.2,4.5-3.1
			c0.9-2.5-0.4-5.2-2.8-6.1C344.9,145.1,344.4,145,343.9,145L343.9,145z"/>
	</g>
	<g>
		<path class="st1" d="M457.2,107.1c-1.9,0-3.8,1.2-4.5,3.1c-0.9,2.5,0.4,5.2,2.8,6.1c0.5,0.2,1.1,0.3,1.6,0.3
			c1.9,0,3.8-1.2,4.5-3.1c0.9-2.5-0.4-5.2-2.8-6.1C458.3,107.2,457.7,107.1,457.2,107.1L457.2,107.1z"/>
	</g>
	<g>
		<path class="st1" d="M457.2,125.8c-1.9,0-3.8,1.2-4.5,3.1c-0.9,2.5,0.4,5.2,2.8,6.1c0.5,0.2,1.1,0.3,1.6,0.3
			c1.9,0,3.8-1.2,4.5-3.1c0.9-2.5-0.4-5.2-2.8-6.1C458.3,125.9,457.7,125.8,457.2,125.8L457.2,125.8z"/>
	</g>
	<g>
		<path class="st1" d="M457.2,145c-1.9,0-3.8,1.2-4.5,3.1c-0.9,2.5,0.4,5.2,2.8,6.1c0.5,0.2,1.1,0.3,1.6,0.3c1.9,0,3.8-1.2,4.5-3.1
			c0.9-2.5-0.4-5.2-2.8-6.1C458.3,145.1,457.7,145,457.2,145L457.2,145z"/>
	</g>
	<line class="st0" x1="313.5" y1="159.2" x2="293.6" y2="161.4"/>
	<line class="st0" x1="293.6" y1="100.2" x2="313.5" y2="102.5"/>
	<polyline class="st0" points="293.6,100.2 274.6,129.5 293.6,161.4 	"/>
	<polyline class="st0" points="489.7,185.2 525.6,133 489.7,76 	"/>
	<polyline class="st0" points="371.7,121.9 371.7,102.3 387,102.3 	"/>
	<polyline class="st0" points="429.3,121.9 429.3,102.3 414,102.3 	"/>
	<polyline class="st0" points="429.3,140.4 429.3,159.9 414,159.9 	"/>
	<polyline class="st0" points="371.7,140.4 371.7,159.9 387,159.9 	"/>
	<line class="st0" x1="355.2" y1="685.8" x2="446.3" y2="685.8"/>
	<line class="st0" x1="294.7" y1="92.7" x2="294.7" y2="169.5"/>
	<line class="st0" x1="346.1" y1="699.9" x2="455.5" y2="699.9"/>
	<path class="st0" d="M444.7,700.1c-6.4,18.1-23.6,31.1-43.9,31.1c-20.4,0-37.7-13.1-44-31.3"/>
	<line class="st0" x1="489.7" y1="72" x2="489.7" y2="189.2"/>
	<line class="st0" x1="224.5" y1="602.6" x2="302.5" y2="602.6"/>
	<line class="st0" x1="256.4" y1="619.5" x2="302.5" y2="619.5"/>
	<line class="st0" x1="267.7" y1="637.4" x2="320.3" y2="637.4"/>
	<line class="st0" x1="228.8" y1="637.4" x2="256.4" y2="637.4"/>
	<line class="st0" x1="218.5" y1="619.5" x2="243.6" y2="619.5"/>
	<line class="st0" x1="331" y1="653.4" x2="367.5" y2="653.4"/>
	<line class="st0" x1="288.5" y1="653.4" x2="318.5" y2="653.4"/>
	<line class="st0" x1="256.6" y1="653.4" x2="273.5" y2="653.4"/>
	<line class="st0" x1="325.6" y1="670.3" x2="367.5" y2="670.3"/>
	<line class="st0" x1="297" y1="670.3" x2="313.3" y2="670.3"/>
	<path class="st0" d="M355.6,457c-1.7-9.3-2.6-19.3-2.6-29.7c0-11.8,1.2-23,3.3-33.3"/>
	<path class="st0" d="M440.3,476.8c-8.5,24.8-23.1,41.1-39.8,41.1c-16.7,0-31.3-16.4-39.8-41.1"/>
	<path class="st0" d="M445,395.5c1.9,9.9,3,20.6,3,31.8c0,11.1-1,21.8-3,31.6"/>
	<path class="st0" d="M362.8,372.2c8.7-21.6,22.3-35.5,37.7-35.5c15.4,0,29,13.9,37.7,35.6"/>
	<polyline class="st0" points="144,399.1 156.2,420.8 200.9,420.8 	"/>
	<line class="st0" x1="257.2" y1="236.6" x2="184.1" y2="236.6"/>
	<line class="st0" x1="170.5" y1="221" x2="162.3" y2="221"/>
	<line class="st0" x1="200.6" y1="221" x2="182.9" y2="221"/>
	<line class="st0" x1="240.9" y1="221" x2="214.1" y2="221"/>
	<line class="st0" x1="170.7" y1="236.6" x2="146.3" y2="236.6"/>
	<line class="st0" x1="224.6" y1="205.3" x2="197.2" y2="205.3"/>
	<line class="st0" x1="543.8" y1="236.6" x2="617" y2="236.6"/>
	<line class="st0" x1="630.6" y1="221" x2="638.7" y2="221"/>
	<line class="st0" x1="600.5" y1="221" x2="618.1" y2="221"/>
	<line class="st0" x1="560.1" y1="221" x2="587" y2="221"/>
	<line class="st0" x1="630.4" y1="236.6" x2="654.7" y2="236.6"/>
	<line class="st0" x1="576.4" y1="205.3" x2="603.9" y2="205.3"/>
	<line class="st0" x1="329.8" y1="204.2" x2="281.9" y2="204.2"/>
	<line class="st0" x1="353" y1="204.2" x2="342.1" y2="204.2"/>
	<line class="st0" x1="319.2" y1="189.4" x2="308.5" y2="189.4"/>
	<line class="st0" x1="367.5" y1="189.4" x2="332.5" y2="189.4"/>
	<line class="st0" x1="471.2" y1="205.3" x2="519.1" y2="205.3"/>
	<line class="st0" x1="448" y1="205.3" x2="458.9" y2="205.3"/>
	<line class="st0" x1="433.6" y1="190.4" x2="475" y2="190.4"/>
	<line class="st0" x1="194.7" y1="602.6" x2="211.6" y2="602.6"/>
	<line class="st0" x1="242.7" y1="584.4" x2="269.5" y2="584.4"/>
	<line class="st0" x1="238.3" y1="566.8" x2="269.5" y2="566.8"/>
	<line class="st0" x1="152.3" y1="530.1" x2="177.1" y2="530.1"/>
	<line class="st0" x1="163.3" y1="559.4" x2="181.6" y2="559.4"/>
	<line class="st0" x1="161.4" y1="512.1" x2="192.4" y2="512.1"/>
	<line class="st0" x1="134.8" y1="512.1" x2="148.9" y2="512.1"/>
	<line class="st0" x1="168.1" y1="494.1" x2="207.6" y2="494.1"/>
	<line class="st0" x1="128.3" y1="494.1" x2="156.3" y2="494.1"/>
	<line class="st0" x1="156.3" y1="476" x2="222.9" y2="476"/>
	<line class="st0" x1="134.8" y1="476" x2="144.5" y2="476"/>
	<line class="st0" x1="152" y1="456.1" x2="204" y2="456.1"/>
	<line class="st0" x1="118.7" y1="456.1" x2="140.2" y2="456.1"/>
	<line class="st0" x1="172.2" y1="438.4" x2="224.5" y2="438.4"/>
	<line class="st0" x1="125.7" y1="438.4" x2="158.5" y2="438.4"/>
	<line class="st0" x1="143" y1="420.8" x2="156.2" y2="420.8"/>
	<line class="st0" x1="114.7" y1="420.8" x2="131.2" y2="420.8"/>
	<line class="st0" x1="128.1" y1="403.9" x2="146.7" y2="403.9"/>
	<line class="st0" x1="100.8" y1="403.9" x2="116.2" y2="403.9"/>
	<line class="st0" x1="108.2" y1="385.9" x2="136.5" y2="385.9"/>
	<line class="st0" x1="102.9" y1="366.9" x2="125.7" y2="366.9"/>
	<line class="st0" x1="102" y1="347.2" x2="113.8" y2="347.2"/>
	<line class="st0" x1="259.8" y1="550" x2="269.5" y2="550"/>
	<line class="st0" x1="253.4" y1="531.3" x2="269.5" y2="531.3"/>
	<line class="st0" x1="219.2" y1="584.4" x2="230.8" y2="584.4"/>
	<line class="st0" x1="194.7" y1="619.5" x2="206.3" y2="619.5"/>
	<line class="st0" x1="576.5" y1="602.6" x2="498.6" y2="602.6"/>
	<line class="st0" x1="544.6" y1="619.5" x2="498.6" y2="619.5"/>
	<line class="st0" x1="533.4" y1="637.4" x2="480.7" y2="637.4"/>
	<line class="st0" x1="579.6" y1="637.4" x2="544.6" y2="637.4"/>
	<line class="st0" x1="575.2" y1="619.5" x2="557.4" y2="619.5"/>
	<line class="st0" x1="470.1" y1="653.4" x2="433.6" y2="653.4"/>
	<line class="st0" x1="512.6" y1="653.4" x2="482.6" y2="653.4"/>
	<line class="st0" x1="550.8" y1="653.4" x2="527.5" y2="653.4"/>
	<line class="st0" x1="475.4" y1="670.3" x2="433.6" y2="670.3"/>
	<line class="st0" x1="504" y1="670.3" x2="487.8" y2="670.3"/>
	<polyline class="st0" points="657.1,399.1 644.8,420.8 600.1,420.8 	"/>
	<line class="st0" x1="602.2" y1="602.6" x2="589.4" y2="602.6"/>
	<line class="st0" x1="558.4" y1="584.4" x2="531.5" y2="584.4"/>
	<line class="st0" x1="562.8" y1="566.8" x2="531.5" y2="566.8"/>
	<line class="st0" x1="651.9" y1="530.1" x2="624" y2="530.1"/>
	<line class="st0" x1="637.8" y1="559.4" x2="619.4" y2="559.4"/>
	<line class="st0" x1="647" y1="512.1" x2="608.7" y2="512.1"/>
	<line class="st0" x1="673.6" y1="512.1" x2="659.5" y2="512.1"/>
	<line class="st0" x1="632.9" y1="494.1" x2="593.4" y2="494.1"/>
	<line class="st0" x1="663.3" y1="494.1" x2="644.7" y2="494.1"/>
	<line class="st0" x1="644.7" y1="476" x2="578.1" y2="476"/>
	<line class="st0" x1="666.2" y1="476" x2="656.6" y2="476"/>
	<line class="st0" x1="639.6" y1="456.1" x2="597" y2="456.1"/>
	<line class="st0" x1="672.9" y1="456.1" x2="651.4" y2="456.1"/>
	<line class="st0" x1="628.8" y1="438.4" x2="576.5" y2="438.4"/>
	<line class="st0" x1="684.8" y1="438.4" x2="642.5" y2="438.4"/>
	<line class="st0" x1="670.7" y1="420.8" x2="644.8" y2="420.8"/>
	<line class="st0" x1="691.6" y1="420.8" x2="682.4" y2="420.8"/>
	<line class="st0" x1="673" y1="403.9" x2="654.4" y2="403.9"/>
	<line class="st0" x1="702.4" y1="403.9" x2="684.8" y2="403.9"/>
	<line class="st0" x1="708.6" y1="385.9" x2="664.6" y2="385.9"/>
	<line class="st0" x1="701.2" y1="366.9" x2="675.3" y2="366.9"/>
	<line class="st0" x1="699" y1="347.2" x2="687.2" y2="347.2"/>
	<line class="st0" x1="541.3" y1="550" x2="531.5" y2="550"/>
	<line class="st0" x1="547.7" y1="531.3" x2="531.5" y2="531.3"/>
	<line class="st0" x1="581.8" y1="584.4" x2="570.2" y2="584.4"/>
	<line class="st0" x1="599.1" y1="619.5" x2="587.4" y2="619.5"/>
	<g>
		<polygon class="st0" points="451.4,476.8 348.6,476.8 363.5,434.8 436.5,434.8 		"/>
		<path class="st0" d="M366.7,397.4c-12.8-1.2-22.8-12-22.8-25.2h25.3"/>
		<polygon class="st0" points="454.3,393.2 433.3,398.4 433.3,372.3 454.3,372.3 		"/>
		<line class="st0" x1="379" y1="414.2" x2="373.4" y2="434.8"/>
		<line class="st0" x1="421" y1="414.2" x2="426.6" y2="434.8"/>
		<rect x="366.7" y="372.3" class="st0" width="66.6" height="42"/>
	</g>
	<polyline class="st0" points="552.3,420.8 596.8,456.1 561.3,456.1 635.8,544.2 605.4,544.2 687.3,644.2 549.7,542.5 575.2,542.5 
		531.5,500.4 	"/>
</g>
</svg>
