<?xml version="1.0" encoding="utf-8"?>
<!-- Generator: Adobe Illustrator 20.0.0, SVG Export Plug-In . SVG Version: 6.00 Build 0)  -->
<svg version="1.1" id="Layer_1" xmlns="http://www.w3.org/2000/svg" xmlns:xlink="http://www.w3.org/1999/xlink" x="0px" y="0px"
	 viewBox="0 0 800 800" style="enable-background:new 0 0 800 800;" xml:space="preserve">
<style type="text/css">
	.st0{fill:none;stroke:#FFFFFF;stroke-width:6;stroke-linecap:round;stroke-linejoin:round;stroke-miterlimit:10;}
	.st1{fill:#FFFFFF;}
	
		.st2{clip-path:url(#XMLID_4_);fill:none;stroke:#FFFFFF;stroke-width:6;stroke-linecap:round;stroke-linejoin:round;stroke-miterlimit:10;}
	.st3{fill:none;stroke:#FFFFFF;stroke-width:6;stroke-miterlimit:10;}
	.st4{fill:none;stroke:#FFFFFF;stroke-width:6;stroke-linecap:round;stroke-miterlimit:10;}
	.st5{fill:none;stroke:#FFFFFF;stroke-width:6;stroke-linejoin:round;stroke-miterlimit:10;}
	
		.st6{clip-path:url(#XMLID_5_);fill:none;stroke:#FFFFFF;stroke-width:6;stroke-linecap:round;stroke-linejoin:round;stroke-miterlimit:10;}
</style>
<g>
	<polyline class="st0" points="491.5,400.6 536.3,445.4 491.1,490.6 	"/>
	<rect x="623.6" y="421.9" class="st0" width="47" height="47"/>
	<circle class="st0" cx="647.1" cy="445.4" r="12.3"/>
	
		<rect x="551.2" y="596.6" transform="matrix(0.7071 0.7071 -0.7071 0.7071 606.8152 -224.7521)" class="st0" width="47" height="47"/>
	
		<ellipse transform="matrix(0.7071 -0.7071 0.7071 0.7071 -270.1594 588.0068)" class="st0" cx="574.7" cy="620.1" rx="12.3" ry="12.3"/>
	
		<rect x="201.8" y="596.6" transform="matrix(-0.7071 0.7071 -0.7071 -0.7071 823.0859 899.296)" class="st0" width="47" height="47"/>
	
		<ellipse transform="matrix(0.7071 -0.7071 0.7071 0.7071 -372.5006 340.9333)" class="st0" cx="225.3" cy="620.1" rx="12.3" ry="12.3"/>
	
		<rect x="129.4" y="421.9" transform="matrix(-1 8.993194e-11 -8.993194e-11 -1 305.8529 890.8146)" class="st0" width="47" height="47"/>
	<circle class="st0" cx="152.9" cy="445.4" r="12.3"/>
	<g>
		<path class="st0" d="M361,531.1v54c-15.1,11.7-24.9,30-24.9,50.6c0,0-5.2,42.4,63.9,103.8c69.2-61.3,63.9-103.8,63.9-103.8
			c0-20.6-9.8-38.9-24.9-50.6v-54"/>
		<circle class="st0" cx="400" cy="635.7" r="44.8"/>
		<path class="st0" d="M429.5,686.9c0,0-11.1,18.6-29.5,31.5c-18.5-12.9-29.5-31.5-29.5-31.5c8.7,5,18.8,7.9,29.5,7.9
			C410.2,694.8,421.1,691.5,429.5,686.9z"/>
		<path class="st0" d="M423.4,515.9v60.3l0,0c-14.6-5.7-31.3-6.1-46.8,0l0,0v-60.3"/>
		<polyline class="st0" points="406.9,572.1 406.9,538.4 413.3,532 400,519 386.7,532 393.1,538.4 393.1,572.1 		"/>
		<line class="st0" x1="376.6" y1="565" x2="393.1" y2="552.7"/>
		<line class="st0" x1="423.4" y1="565" x2="406.9" y2="552.7"/>
		<line class="st0" x1="422.8" y1="597.8" x2="362.8" y2="657.8"/>
		<line class="st0" x1="437.2" y1="612.3" x2="377.2" y2="672.3"/>
	</g>
	<path class="st0" d="M451.5,348c-1.4-0.9-3.7-2.8-4.9-4l0,0c-10.1-10.1-10.1-26.7,0-36.9l28.6-28.6l36.9,36.9l-10.7,10.7"/>
	
		<rect x="522.4" y="183.6" transform="matrix(0.7071 -0.7071 0.7071 0.7071 16.9097 454.0465)" class="st0" width="68.2" height="46"/>
	<polygon class="st0" points="548.7,247 566.3,229.3 653.5,316.4 653.5,351.8 	"/>
	<polygon class="st0" points="608,145.8 722.1,260 722.1,283.1 701.7,303.5 564.4,166.2 584.8,145.8 	"/>
	<line class="st0" x1="575.2" y1="177.1" x2="527" y2="225.3"/>
	<line class="st0" x1="586.1" y1="187.9" x2="537.8" y2="236.1"/>
	<polyline class="st0" points="701.7,303.5 666.4,303.5 666.4,268.5 631.9,269.1 632.4,234.9 597.3,234.4 597,198.7 	"/>
	<polyline class="st0" points="653.5,351.8 653.5,316.4 618.4,316.4 618.7,281.7 584.8,282.5 584.4,247.3 548.6,247 	"/>
	<polyline class="st0" points="532.6,294.9 512.1,315.4 475.2,278.6 495.7,258 	"/>
	<line class="st0" x1="579.3" y1="216.4" x2="666.4" y2="303.5"/>
	<line class="st0" x1="678.9" y1="254.6" x2="667.8" y2="232.6"/>
	<path class="st0" d="M263.5,582.3L263.5,582.3c6.6,6.6,17.5,6.6,24.1,0l48.3-48.3c6.6-6.6,6.6-17.5,0-24.1l0,0
		c-6.6-6.6-17.5-6.6-24.1,0l-48.3,48.3C256.9,564.8,256.9,575.7,263.5,582.3z"/>
	<path class="st0" d="M653.5,351.8l-19.8,14.7c-10.2-19.1-30.7-24.8-49-19.1L495.7,258v-23.1l20.4-20.4L653.5,351.8z"/>
	<polyline class="st0" points="459.6,432.5 493.4,398.7 455.9,391.6 444,355.5 413.3,386.2 	"/>
	<polyline class="st0" points="422.4,395.3 437.6,380.2 444.7,402.7 467.3,407.8 451.1,424 	"/>
	<line class="st0" x1="275.6" y1="570.2" x2="323.9" y2="521.9"/>
	<path class="st0" d="M348.5,348c1.4-0.9,3.7-2.8,4.9-4l0,0c10.1-10.1,10.1-26.7,0-36.9l-28.6-28.6l-36.9,36.9l10.7,10.7"/>
	
		<rect x="220.5" y="172.5" transform="matrix(0.7071 -0.7071 0.7071 0.7071 -74.7878 232.6691)" class="st0" width="46" height="68.2"/>
	<polygon class="st0" points="251.3,247 233.7,229.3 146.5,316.4 146.5,351.8 	"/>
	<polygon class="st0" points="192,145.8 77.9,260 77.9,283.1 98.3,303.5 235.6,166.2 215.2,145.8 	"/>
	<line class="st0" x1="224.8" y1="177.1" x2="273" y2="225.3"/>
	<line class="st0" x1="213.9" y1="187.9" x2="262.2" y2="236.1"/>
	<polyline class="st0" points="98.3,303.5 133.6,303.5 133.6,268.5 168.1,269.1 167.6,234.9 202.7,234.4 203,198.7 	"/>
	<polyline class="st0" points="146.5,351.8 146.5,316.4 181.6,316.4 181.3,281.7 215.2,282.5 215.6,247.3 251.4,247 	"/>
	<polyline class="st0" points="267.4,294.9 287.9,315.4 324.8,278.6 304.3,258 	"/>
	<line class="st0" x1="220.7" y1="216.4" x2="133.6" y2="303.5"/>
	<line class="st0" x1="121.1" y1="254.6" x2="132.2" y2="232.6"/>
	<path class="st0" d="M536.5,582.3L536.5,582.3c-6.6,6.6-17.5,6.6-24.1,0L464.1,534c-6.6-6.6-6.6-17.5,0-24.1l0,0
		c6.6-6.6,17.5-6.6,24.1,0l48.3,48.3C543.1,564.8,543.1,575.7,536.5,582.3z"/>
	<path class="st0" d="M146.5,351.8l19.8,14.7c10.2-19.1,30.7-24.8,49-19.1l88.9-89.2v-23.1l-20.4-20.4L146.5,351.8z"/>
	<polyline class="st0" points="340.4,432.5 306.6,398.7 344.1,391.6 356,355.5 386.7,386.2 	"/>
	<polyline class="st0" points="377.6,395.3 362.4,380.2 355.3,402.7 332.7,407.8 348.9,424 	"/>
	<line class="st0" x1="524.4" y1="570.2" x2="476.1" y2="521.9"/>
	<g>
		
			<rect x="348.7" y="394.2" transform="matrix(0.7071 0.7071 -0.7071 0.7071 432.1078 -152.3859)" class="st0" width="102.5" height="102.5"/>
		
			<rect x="364" y="409.4" transform="matrix(0.7071 0.7071 -0.7071 0.7071 432.1078 -152.3859)" class="st0" width="72" height="72"/>
		<circle class="st0" cx="400" cy="445.4" r="23.4"/>
		<line class="st0" x1="410.9" y1="466.1" x2="379.3" y2="434.5"/>
		<line class="st0" x1="389.1" y1="424.7" x2="420.7" y2="456.3"/>
	</g>
	<g>
		<line class="st0" x1="199.7" y1="406.2" x2="175" y2="401.4"/>
		<line class="st0" x1="203" y1="391.9" x2="178.7" y2="385.3"/>
		<line class="st0" x1="207.4" y1="377.8" x2="183.7" y2="369.5"/>
		<line class="st0" x1="199.6" y1="484.2" x2="174.9" y2="489"/>
		<line class="st0" x1="197" y1="466.9" x2="190.4" y2="467.6"/>
		<line class="st0" x1="196" y1="452.4" x2="189.3" y2="452.6"/>
		<line class="st0" x1="195.9" y1="437.9" x2="189.2" y2="437.7"/>
		<line class="st0" x1="196.9" y1="423.5" x2="190.3" y2="422.7"/>
		<line class="st0" x1="203.2" y1="499.7" x2="179" y2="506.4"/>
		<line class="st0" x1="208.1" y1="514.8" x2="184.4" y2="523.4"/>
		<line class="st0" x1="214" y1="529.5" x2="191.1" y2="539.9"/>
		<line class="st0" x1="221.1" y1="543.7" x2="199.1" y2="555.8"/>
		<line class="st0" x1="229.3" y1="557.3" x2="208.2" y2="571.1"/>
		<line class="st0" x1="285.7" y1="614.5" x2="271.6" y2="635.4"/>
		<line class="st0" x1="298.1" y1="622.3" x2="285.6" y2="644.1"/>
		<line class="st0" x1="311.1" y1="629.1" x2="300.2" y2="651.8"/>
		<line class="st0" x1="322.4" y1="638.7" x2="314.6" y2="658.2"/>
		<line class="st0" x1="328.8" y1="660.9" x2="328" y2="663.4"/>
		<line class="st0" x1="211.3" y1="363.6" x2="199" y2="358.2"/>
	</g>
	<g>
		<line class="st0" x1="600.3" y1="406.2" x2="625" y2="401.4"/>
		<line class="st0" x1="597" y1="391.9" x2="621.3" y2="385.3"/>
		<line class="st0" x1="592.6" y1="377.8" x2="616.3" y2="369.5"/>
		<line class="st0" x1="600.4" y1="484.2" x2="625.1" y2="489"/>
		<line class="st0" x1="603" y1="466.9" x2="609.6" y2="467.6"/>
		<line class="st0" x1="604" y1="452.4" x2="610.7" y2="452.6"/>
		<line class="st0" x1="604.1" y1="437.9" x2="610.8" y2="437.7"/>
		<line class="st0" x1="603.1" y1="423.5" x2="609.7" y2="422.7"/>
		<line class="st0" x1="596.8" y1="499.7" x2="621" y2="506.4"/>
		<line class="st0" x1="591.9" y1="514.8" x2="615.6" y2="523.4"/>
		<line class="st0" x1="586" y1="529.5" x2="608.9" y2="539.9"/>
		<line class="st0" x1="578.9" y1="543.7" x2="600.9" y2="555.8"/>
		<line class="st0" x1="570.7" y1="557.3" x2="591.8" y2="571.1"/>
		<line class="st0" x1="514.3" y1="614.5" x2="528.4" y2="635.4"/>
		<line class="st0" x1="501.9" y1="622.3" x2="514.4" y2="644.1"/>
		<line class="st0" x1="488.9" y1="629.1" x2="499.8" y2="651.8"/>
		<line class="st0" x1="477.6" y1="638.7" x2="485.4" y2="658.2"/>
		<line class="st0" x1="471.2" y1="660.9" x2="472" y2="663.4"/>
		<line class="st0" x1="588.7" y1="363.6" x2="601" y2="358.2"/>
	</g>
	<g>
		<polyline class="st0" points="380.9,165.6 358.7,142.3 358.7,101.8 400,60.5 441.3,101.8 441.3,142.3 417.2,167.6 		"/>
		<polygon class="st0" points="375.1,108.2 400,83.2 424.9,108.2 424.9,136 400,163 375.1,136 		"/>
	</g>
	<polygon class="st0" points="342.3,149.3 342.3,111.5 272.9,180.9 400,308.1 527.1,180.9 457.7,111.5 457.7,149.3 417.3,189.8 
		417.2,165.6 380.9,165.6 394,179.4 383.1,190.2 	"/>
	<polyline class="st0" points="367.1,278.6 400.3,245.4 431.5,276.6 	"/>
	<g>
		<circle class="st0" cx="400" cy="223.4" r="20.7"/>
		<line class="st0" x1="409.6" y1="241.7" x2="381.7" y2="213.7"/>
		<line class="st0" x1="390.4" y1="205.1" x2="418.3" y2="233"/>
	</g>
	<line class="st0" x1="400" y1="268" x2="400" y2="286.5"/>
	<line class="st0" x1="390.8" y1="277.2" x2="409.2" y2="277.2"/>
	<line class="st0" x1="272.9" y1="180.9" x2="315.8" y2="180.9"/>
	<line class="st0" x1="308.6" y1="145.2" x2="325.3" y2="162"/>
	<line class="st0" x1="308.7" y1="216.8" x2="326.9" y2="198.6"/>
	<line class="st0" x1="329.7" y1="237.8" x2="347.9" y2="219.6"/>
	<line class="st0" x1="351.8" y1="259.9" x2="366.9" y2="244.7"/>
	<line class="st0" x1="527.1" y1="180.9" x2="484.2" y2="180.9"/>
	<line class="st0" x1="491.4" y1="145.2" x2="474.7" y2="162"/>
	<line class="st0" x1="493.4" y1="214.7" x2="475.2" y2="196.5"/>
	<line class="st0" x1="470.3" y1="237.8" x2="452.1" y2="219.6"/>
	<line class="st0" x1="448.2" y1="259.9" x2="433.1" y2="244.7"/>
	<line class="st0" x1="215.7" y1="397.9" x2="260.8" y2="352.8"/>
	<line class="st0" x1="261.2" y1="538.4" x2="215.7" y2="492.9"/>
	<line class="st0" x1="339.1" y1="616.3" x2="307.4" y2="584.6"/>
	<line class="st0" x1="492.6" y1="584.6" x2="461.1" y2="616.1"/>
	<line class="st0" x1="276.7" y1="521.9" x2="210.1" y2="455.3"/>
	<line class="st0" x1="350.3" y1="595.5" x2="323.4" y2="568.6"/>
	<line class="st0" x1="476.6" y1="568.6" x2="449.7" y2="595.5"/>
	<line class="st0" x1="345.9" y1="299.7" x2="368.8" y2="276.9"/>
	<line class="st0" x1="210.1" y1="435.6" x2="276.2" y2="369.5"/>
	<path class="st0" d="M308.4,216.1c-5.4,2.1-10.6,4.5-15.8,7"/>
	<path class="st0" d="M507.5,223.2c-5.1-2.5-10.4-4.8-15.7-7"/>
	<path class="st0" d="M445.2,688.1c35-6.5,67.3-20.3,95.5-39.9l18.8,18.8v14.9h26.2V667l35.9-35.9h14.9v-26.2h-14.9l-18.8-18.8
		c19.8-28.5,33.7-61.3,40.1-96.7h26.5l10.4,10.4l18.6-18.6L688,470.8V420l10.4-10.4l-18.6-18.6l-10.4,10.4h-26.5
		c-2.2-12-5.2-23.7-9-35.1"/>
	<path class="st0" d="M166.1,366.4c-3.8,11.4-6.9,23.1-9,35.1h-26.5l-10.4-10.4l-18.6,18.6L112,420v50.8l-10.4,10.4l18.6,18.6
		l10.4-10.4h26.5c6.4,35.4,20.3,68.2,40.1,96.7l-18.8,18.8h-14.9v26.2h14.9l35.9,35.9v14.9h26.2V667l18.8-18.8
		c28.2,19.6,60.7,33.5,95.8,39.9"/>
	<path class="st0" d="M245.2,556.1c-22.3-31.2-35.5-69.4-35.5-110.7c0-40.6,12.7-78.3,34.4-109.2"/>
	<path class="st0" d="M336.9,625c-17-6-33-14.3-47.4-24.6"/>
	<path class="st0" d="M510.4,600.4C496,610.7,480.1,619,463,625"/>
	<path class="st0" d="M555.9,336.2c21.7,30.9,34.4,68.6,34.4,109.2c0,41.4-13.2,79.7-35.7,110.9"/>
	<path class="st0" d="M447.1,261c11.7,3,22.9,7,33.6,12"/>
	<path class="st0" d="M319.3,273c10.7-5,21.9-9.1,33.6-12"/>
	<polyline class="st0" points="293.2,506.4 232.2,445.4 292.8,384.9 	"/>
	<line class="st0" x1="361" y1="574.1" x2="339.6" y2="552.8"/>
	<line class="st0" x1="460.8" y1="552.4" x2="439" y2="574.1"/>
	<polyline class="st0" points="507.6,385.3 567.8,445.4 506.8,506.4 	"/>
	<line class="st0" x1="415.2" y1="292.9" x2="440.4" y2="318.1"/>
	<line class="st0" x1="359.8" y1="317.8" x2="384.8" y2="292.9"/>
	<polyline class="st0" points="354.8,354.3 400,309.1 445.2,354.3 	"/>
	<polyline class="st0" points="308.9,490.6 263.7,445.4 308.5,400.6 	"/>
	<polyline class="st0" points="370.5,370.1 400,340.6 429.5,370.1 	"/>
	<line class="st0" x1="432.3" y1="278" x2="454.1" y2="299.7"/>
	<line class="st0" x1="459.6" y1="432.5" x2="564.9" y2="327.2"/>
	<path class="st0" d="M340.9,458.6l-89.7,89.7c-12.7,12.7-12.7,33.5,0,46.3l0,0c12.7,12.7,33.5,12.7,46.3,0l89.2-89.2"/>
	<path class="st0" d="M542,304.3l-31.2,31.2L473.1,298c0,0-8.3,8.3-11.9,27.8c-3.3,17.7-8.3,20.8-8.3,20.8l-39.7,39.7"/>
	<line class="st0" x1="340.4" y1="432.5" x2="235.1" y2="327.2"/>
	<path class="st0" d="M459.1,458.6l89.7,89.7c12.7,12.7,12.7,33.5,0,46.3l0,0c-12.7,12.7-33.5,12.7-46.3,0L412.9,505"/>
	<path class="st0" d="M258,304.3l31.2,31.2l37.6-37.6c0,0,8.3,8.3,11.9,27.8c3.3,17.7,8.3,20.8,8.3,20.8l39.6,39.6"/>
	<polyline class="st0" points="324.7,474.9 295.2,445.4 324.3,416.3 	"/>
	<polyline class="st0" points="475.7,416.3 504.8,445.4 475.3,474.9 	"/>
	<line class="st0" x1="584.3" y1="492.9" x2="538.8" y2="538.4"/>
	<line class="st0" x1="539.2" y1="352.8" x2="584.3" y2="397.9"/>
	<line class="st0" x1="590.1" y1="455.1" x2="522.8" y2="522.4"/>
	<line class="st0" x1="523.2" y1="368.8" x2="590.1" y2="435.7"/>
</g>
</svg>
