<?xml version="1.0" encoding="utf-8"?>
<!-- Generator: Adobe Illustrator 20.0.0, SVG Export Plug-In . SVG Version: 6.00 Build 0)  -->
<svg version="1.1" id="Layer_1" xmlns="http://www.w3.org/2000/svg" xmlns:xlink="http://www.w3.org/1999/xlink" x="0px" y="0px"
	 viewBox="0 0 800 800" style="enable-background:new 0 0 800 800;" xml:space="preserve">
<style type="text/css">
	.st0{fill:none;stroke:#FFFFFF;stroke-width:6;stroke-linecap:round;stroke-linejoin:round;stroke-miterlimit:10;}
	.st1{fill:#FFFFFF;}
	
		.st2{clip-path:url(#XMLID_4_);fill:none;stroke:#FFFFFF;stroke-width:6;stroke-linecap:round;stroke-linejoin:round;stroke-miterlimit:10;}
	.st3{fill:none;stroke:#FFFFFF;stroke-width:6;stroke-miterlimit:10;}
	.st4{fill:none;stroke:#FFFFFF;stroke-width:6;stroke-linecap:round;stroke-miterlimit:10;}
	.st5{fill:none;stroke:#FFFFFF;stroke-width:6;stroke-linejoin:round;stroke-miterlimit:10;}
	
		.st6{clip-path:url(#XMLID_5_);fill:none;stroke:#FFFFFF;stroke-width:6;stroke-linecap:round;stroke-linejoin:round;stroke-miterlimit:10;}
</style>
<g>
	<line class="st0" x1="205.4" y1="436" x2="161.2" y2="423.7"/>
	<g>
		<g>
			<polyline class="st0" points="671.7,442.2 696.4,449.6 711.3,477.3 720.6,446.5 705.6,418.8 680.9,411.4 			"/>
			<polygon class="st0" points="649.9,401.8 633.4,457.7 648.4,485.4 679.2,494.7 664.3,466.9 680.9,411.4 			"/>
			<polyline class="st0" points="711.3,477.3 701.5,482.6 687.9,457.3 697.7,452 			"/>
			<polyline class="st0" points="665.6,469.3 675.4,464 689,489.4 679.2,494.7 			"/>
		</g>
		<polyline class="st0" points="610.5,469.3 633.4,457.7 647.7,409 581,443 		"/>
		<polyline class="st0" points="623.7,421.2 615.9,464.8 606,430.3 		"/>
	</g>
	<g>
		<polyline class="st0" points="189.7,469.3 141.9,456 121.3,419.6 90.9,411.1 119,395.3 149.3,403.7 169.9,440.2 225.7,455.7 		"/>
		<polyline class="st0" points="134,442 111.5,454.7 81.2,446.3 97,474.3 127.3,482.7 163.8,462.1 189.7,469.3 		"/>
		<polyline class="st0" points="118.7,418.8 115.7,429.6 88,421.9 90.9,411.1 		"/>
		<polyline class="st0" points="108.9,454 111.9,443.2 84.2,435.5 81.2,446.3 		"/>
	</g>
	
		<rect x="566.5" y="219.9" transform="matrix(0.766 0.6428 -0.6428 0.766 315.7702 -329.3903)" class="st0" width="87.8" height="98.3"/>
	<polygon class="st0" points="610.1,174.2 687.4,179.9 703.9,252.9 	"/>
	
		<ellipse transform="matrix(0.6428 -0.766 0.766 0.6428 12.2101 563.7846)" class="st0" cx="610.6" cy="268.8" rx="10.4" ry="10.4"/>
	
		<ellipse transform="matrix(0.6428 -0.766 0.766 0.6428 38.6576 552.6226)" class="st0" cx="611.9" cy="234.9" rx="10.4" ry="10.4"/>
	<ellipse transform="matrix(0.6428 -0.766 0.766 0.6428 29.5332 586.675)" class="st0" cx="643.8" cy="261.7" rx="10.4" ry="10.4"/>
	
		<ellipse transform="matrix(0.6428 -0.766 0.766 0.6428 -5.1131 540.8942)" class="st0" cx="577.4" cy="275.9" rx="10.4" ry="10.4"/>
	
		<ellipse transform="matrix(0.6428 -0.766 0.766 0.6428 -14.2374 574.9467)" class="st0" cx="609.4" cy="302.7" rx="10.4" ry="10.4"/>
	<polygon class="st0" points="590.3,334.2 549.7,300.1 551.8,284.1 605.7,329.4 	"/>
	<polyline class="st0" points="565.8,345.7 581.6,326.9 558.5,307.5 539.9,329.6 	"/>
	<polyline class="st0" points="580.4,354.7 532.7,325.2 521.9,338 	"/>
	<polygon class="st0" points="610.1,174.2 608.4,203.2 675.6,259.6 703.9,252.9 	"/>
	<g>
		<path class="st1" d="M625.5,198.5c-1.4,0-2.8,0.8-3.5,2.1c-1,1.9-0.2,4.2,1.7,5.2c0.6,0.3,1.1,0.4,1.7,0.4c1.4,0,2.8-0.8,3.5-2.1
			c1-1.9,0.2-4.2-1.7-5.2C626.7,198.6,626.1,198.5,625.5,198.5L625.5,198.5z"/>
	</g>
	<g>
		<path class="st1" d="M641.5,211.9c-1.4,0-2.8,0.8-3.5,2.1c-1,1.9-0.2,4.2,1.7,5.2c0.6,0.3,1.1,0.4,1.7,0.4c1.4,0,2.8-0.8,3.5-2.1
			c1-1.9,0.2-4.2-1.7-5.2C642.7,212,642.1,211.9,641.5,211.9L641.5,211.9z"/>
	</g>
	<g>
		<path class="st1" d="M657.5,225.3c-1.4,0-2.8,0.8-3.5,2.1c-1,1.9-0.2,4.2,1.7,5.2c0.6,0.3,1.1,0.4,1.7,0.4c1.4,0,2.8-0.8,3.5-2.1
			c1-1.9,0.2-4.2-1.7-5.2C658.6,225.5,658,225.3,657.5,225.3L657.5,225.3z"/>
	</g>
	<g>
		<path class="st1" d="M673.4,238.7c-1.4,0-2.8,0.8-3.5,2.1c-1,1.9-0.2,4.2,1.7,5.2c0.6,0.3,1.1,0.4,1.7,0.4c1.4,0,2.8-0.8,3.5-2.1
			c1-1.9,0.2-4.2-1.7-5.2C674.6,238.9,674,238.7,673.4,238.7L673.4,238.7z"/>
	</g>
	<g>
		
			<ellipse transform="matrix(0.766 -0.6428 0.6428 0.766 -106.3702 148.0168)" class="st0" cx="150.2" cy="220.1" rx="7.4" ry="7.4"/>
		
			<ellipse transform="matrix(0.766 -0.6428 0.6428 0.766 -122.5968 138.6484)" class="st0" cx="129.2" cy="237.7" rx="7.4" ry="7.4"/>
		
			<ellipse transform="matrix(0.766 -0.6428 0.6428 0.766 -90.1437 157.3852)" class="st0" cx="171.1" cy="202.5" rx="7.4" ry="7.4"/>
		
			<rect x="147.6" y="222.2" transform="matrix(0.766 -0.6428 0.6428 0.766 -128.3392 186.0682)" class="st0" width="87.8" height="94.2"/>
		<polygon class="st0" points="250.8,298.8 210.2,332.9 194.7,328 248.7,282.8 		"/>
		<polyline class="st0" points="260.7,328.5 242,306.2 218.9,325.5 235.3,345 		"/>
		<polyline class="st0" points="278.5,336.6 267.8,323.8 220.2,354.9 		"/>
		<path class="st0" d="M127.6,261.5c0,0-13.1-15.6-32.1-17.8l87.4-73.4c-1.2,19.1,11.9,34.7,11.9,34.7"/>
		<polygon class="st0" points="170.4,164.9 92.3,230.5 95.4,243.7 182.9,170.3 		"/>
		
			<rect x="121.7" y="231.7" transform="matrix(0.766 -0.6428 0.6428 0.766 -114.5925 162.2582)" class="st0" width="87.8" height="13.8"/>
		
			<rect x="161" y="278.4" transform="matrix(0.766 -0.6428 0.6428 0.766 -135.4876 198.4496)" class="st0" width="87.8" height="13.9"/>
	</g>
	<g>
		
			<rect x="467.7" y="142" transform="matrix(0.9397 0.342 -0.342 0.9397 100.2158 -162.7555)" class="st0" width="87.8" height="121.7"/>
		<polygon class="st0" points="474.9,124.7 546.9,104.3 590,166.6 		"/>
		<polygon class="st0" points="511.1,281.8 461.3,263.7 457.8,247.9 523.9,272 		"/>
		<line class="st0" x1="472" y1="267.6" x2="467.4" y2="280.3"/>
		<line class="st0" x1="493.9" y1="295.6" x2="500.3" y2="277.9"/>
		<line class="st0" x1="507.7" y1="136.6" x2="466.1" y2="251"/>
		<line class="st0" x1="466.6" y1="232.5" x2="480.9" y2="232.2"/>
		<line class="st0" x1="484.1" y1="184.6" x2="498.4" y2="184.2"/>
		<line class="st0" x1="485.3" y1="220.2" x2="475.1" y2="209.1"/>
		<line class="st0" x1="479.3" y1="197.7" x2="491.8" y2="202.3"/>
		<path class="st0" d="M538.3,215.2L510.5,231c-3.9,2.2-9,0.8-11.2-3.1l-0.3-0.5c-2.2-3.9-0.8-9,3.1-11.2l27.9-15.8
			c3.9-2.2,9-0.8,11.2,3.1l0.3,0.5C543.7,207.9,542.3,213,538.3,215.2z"/>
		<path class="st0" d="M520.7,233.8L504.9,206c-2.2-3.9-0.8-9,3.1-11.2l0.5-0.3c3.9-2.2,9-0.8,11.2,3.1l15.8,27.9
			c2.2,3.9,0.8,9-3.1,11.2l-0.5,0.3C527.9,239.1,522.9,237.7,520.7,233.8z"/>
		<line class="st0" x1="516.2" y1="164.6" x2="524.2" y2="142.6"/>
		<line class="st0" x1="532.7" y1="170.6" x2="540.7" y2="148.6"/>
		<line class="st0" x1="549.2" y1="176.6" x2="557.2" y2="154.6"/>
		<line class="st0" x1="485.7" y1="145.6" x2="568.2" y2="175.7"/>
	</g>
	<g>
		
			<rect x="248.1" y="141.8" transform="matrix(0.9397 -0.342 0.342 0.9397 -51.6739 112.0936)" class="st0" width="87.8" height="121.7"/>
		<polygon class="st0" points="213.7,166.4 255.8,104.3 328.8,124.5 		"/>
		
			<ellipse transform="matrix(0.9397 -0.342 0.342 0.9397 -55.0714 114.0551)" class="st0" cx="295.9" cy="213.2" rx="10.4" ry="10.4"/>
		
			<ellipse transform="matrix(0.9397 -0.342 0.342 0.9397 -50.6304 103.128)" class="st0" cx="267.1" cy="195.1" rx="10.4" ry="10.4"/>
		
			<ellipse transform="matrix(0.9397 -0.342 0.342 0.9397 -43.3878 115.6726)" class="st0" cx="306.3" cy="180.9" rx="10.4" ry="10.4"/>
		
			<ellipse transform="matrix(0.9397 -0.342 0.342 0.9397 -66.7551 112.4376)" class="st0" cx="285.5" cy="245.5" rx="10.4" ry="10.4"/>
		
			<ellipse transform="matrix(0.9397 -0.342 0.342 0.9397 -59.5125 124.9822)" class="st0" cx="324.6" cy="231.2" rx="10.4" ry="10.4"/>
		
			<rect x="232.7" y="156.5" transform="matrix(0.9397 -0.342 0.342 0.9397 -42.1769 92.9333)" class="st0" width="19.6" height="19.1"/>
		
			<rect x="264.7" y="144.8" transform="matrix(0.9397 -0.342 0.342 0.9397 -36.2545 103.1912)" class="st0" width="19.6" height="19.1"/>
		
			<rect x="296.8" y="133.2" transform="matrix(-0.9397 0.342 -0.342 -0.9397 643.4012 172.0221)" class="st0" width="19.6" height="19.1"/>
		<polygon class="st0" points="342.4,263.5 292.6,281.6 279.8,271.8 345.9,247.7 		"/>
		<line class="st0" x1="303.3" y1="277.7" x2="309.2" y2="293.8"/>
		<line class="st0" x1="335.7" y1="278.5" x2="331.6" y2="267.4"/>
	</g>
	<polyline class="st0" points="413.7,253.1 413.7,228.9 386.3,228.9 386.3,253.1 	"/>
	<polyline class="st0" points="374.8,282.1 374.8,253.1 425.2,253.1 425.2,282.1 	"/>
	<line class="st0" x1="241.7" y1="359" x2="291.7" y2="330.1"/>
	<line class="st0" x1="561.7" y1="461.1" x2="561.7" y2="572.7"/>
	<line class="st0" x1="508.3" y1="330.1" x2="559.2" y2="359.5"/>
	<polyline class="st0" points="354.1,294.1 400,267.6 445.9,294.1 	"/>
	<line class="st0" x1="270.9" y1="365.4" x2="301.8" y2="347.6"/>
	<line class="st0" x1="541.5" y1="465.3" x2="541.5" y2="529.8"/>
	<line class="st0" x1="498.2" y1="347.6" x2="531" y2="366.5"/>
	<polyline class="st0" points="364.2,311.6 400,290.9 435.8,311.6 	"/>
	<g>
		<polyline class="st0" points="377.4,334.5 342.7,274.4 280.4,310.4 312.1,365.4 		"/>
		<circle class="st0" cx="328.1" cy="321" r="17.8"/>
		<line class="st0" x1="340.7" y1="333.6" x2="315.5" y2="308.3"/>
	</g>
	<g>
		<polyline class="st0" points="422.6,334.5 457.3,274.4 519.6,310.4 487.9,365.4 		"/>
		<polygon class="st0" points="481.9,338.3 491.9,321 481.9,303.6 461.9,303.6 451.9,321 461.9,338.3 		"/>
		<circle class="st0" cx="471.9" cy="321" r="6.9"/>
	</g>
	<path class="st0" d="M488.8,410.2l34.8,23.8l-7.3,48.1c0,0-60.5,14.6-63.3,84.7L441.5,580L400,556.7L358.5,580L347,566.7
		c-2.7-70-63.3-84.7-63.3-84.7l-7.3-48.1l34.8-23.8l-10.5-36.2c45.8-37.5,99.3-44.8,99.3-44.8s53.5,7.3,99.3,44.8L488.8,410.2z"/>
	<polyline class="st0" points="311.2,410.2 300.7,374.1 122.6,331.6 	"/>
	<polyline class="st0" points="110.7,344.2 238.3,468 280.5,460.6 	"/>
	<polyline class="st0" points="300.7,374.1 76.5,320.5 81,334.2 311.2,410.2 	"/>
	<polyline class="st0" points="157.6,359.5 250.8,440.1 277.7,442.2 	"/>
	<polyline class="st0" points="488.8,410.2 499.3,374.1 677.4,331.6 	"/>
	<polyline class="st0" points="689.3,344.2 554.2,467.9 519.5,460.6 	"/>
	<polyline class="st0" points="499.3,374.1 723.5,320.5 719,334.2 488.8,410.2 	"/>
	<polyline class="st0" points="642.4,359.5 549.2,440.1 522.3,442.2 	"/>
	<polyline class="st0" points="366.1,575.7 380,609.3 420,609.3 433.9,575.7 	"/>
	<polyline class="st0" points="351,458.1 361.6,443.2 381.7,438.6 392,410.2 392,380.7 	"/>
	<polyline class="st0" points="449,458.1 438.4,443.2 418.3,438.6 408,410.2 408,380.4 	"/>
	<path class="st0" d="M367.8,455.1c9.3,8.7,23.7,23.8,29.2,47.8h6c5.5-23.9,19.9-39.1,29.2-47.8"/>
	<polyline class="st0" points="283.8,482.1 319.5,437 316.2,498 351,458.1 338,521.7 375.8,492.1 347,566.7 388.6,528.8 	"/>
	<polyline class="st0" points="516.2,482.1 480.5,437 483.8,498 449,458.1 462,521.7 424.2,492.1 453,566.7 411.4,528.8 	"/>
	<path class="st0" d="M279.2,451.9l40.3-14.9c0,0,56.7,25.4,69.1,91.8h22.9c12.4-66.4,69.1-91.8,69.1-91.8l40.3,14.9"/>
	<polygon class="st0" points="413,583.3 387,583.3 380,609.3 420,609.3 	"/>
	<path class="st0" d="M447.6,166.4c0-26.3-21.3-47.6-47.6-47.6c-26.3,0-47.6,21.3-47.6,47.6c0,14.1,6.1,26.8,15.9,35.5h0
		c0,0,0,0,0.1,0.1c0.7,0.6,1.4,1.2,2.1,1.7c4.2,3.7,13.4,13.1,16,25.2h27.3c2.6-12.2,11.8-21.5,16-25.2c0.7-0.6,1.4-1.1,2.1-1.7
		c0,0,0.1-0.1,0.1-0.1h0C441.5,193.1,447.6,180.5,447.6,166.4z"/>
	<line class="st0" x1="400" y1="228.9" x2="400" y2="153.2"/>
	<line class="st0" x1="378.1" y1="165.5" x2="421.9" y2="165.5"/>
	<line class="st0" x1="400" y1="153.2" x2="400" y2="177"/>
	<line class="st0" x1="421.9" y1="153.2" x2="421.9" y2="177"/>
	<line class="st0" x1="378.1" y1="153.2" x2="378.1" y2="177"/>
	<path class="st0" d="M222.1,468.5c3.4-0.4,7.8-0.6,11.3-0.6c1.6,0,3.3,0,4.9,0.1"/>
	<path class="st0" d="M251.7,576.4c5.2-3.7,9.2-8.8,11.5-14.8l0.3-0.8c6.1-12.6,21.3-17.9,34-11.8s17.9,21.3,11.8,34l-0.8,2.1
		c-2.9,6.3-6.7,12.3-11,17.6"/>
	<path class="st0" d="M238.3,519.1c-1.6-0.2-3.2-0.4-4.9-0.4c-5,0-10.2,1.2-14.4,3.2"/>
	<g>
		<path class="st0" d="M203.1,541.1c10.7,11.5,12.9,29.1,4.3,43.2c-10.4,16.8-32.4,22-49.2,11.6c-16.8-10.4-22-32.4-11.6-49.2
			c1.4-2.2,2.9-4.2,4.7-6"/>
		<path class="st0" d="M151.6,562c1.5,6.3,5.1,12.7,11.1,16.4c12,7.4,27.7,3.7,35.2-8.3c2.7-4.3,4.4-9.1,4.4-13.8"/>
	</g>
	<g>
		<path class="st0" d="M230.8,518.7c-6.5,14.3-22,23.1-38.2,20.5c-19.5-3.1-32.8-21.5-29.6-41s21.5-32.8,41-29.6
			c2.6,0.4,5,1.1,7.3,2"/>
		<path class="st0" d="M196.1,476.3l-5.1,2.8c-5.2,3.8-9,9.6-10.1,16.6c-2.2,13.9,7.2,27,21.2,29.3c5,0.8,9.9,0.1,14.2-1.8
			c0,0,1.1-0.6,2.8-1.3"/>
		<path class="st0" d="M194.8,477c8.4-4.4,17.7-7.3,27.3-8.5"/>
	</g>
	<path class="st0" d="M284,599.4l-41,20.9c-4.7,2.4-10.6,0.5-13-4.2l-1.7-3.3c-2.4-4.7-0.5-10.6,4.2-13l41-20.9
		c4.7-2.4,10.6-0.5,13,4.2l1.7,3.3C290.6,591.2,288.7,597,284,599.4z"/>
	<line class="st0" x1="243.4" y1="594.3" x2="254" y2="614.7"/>
	<line class="st0" x1="273.3" y1="604.9" x2="262.6" y2="584.5"/>
	<g>
		<path class="st0" d="M585.2,576.1c-13.9-7.3-31.5-4.8-42.8,7.3c-13.5,14.4-12.7,37.1,1.8,50.5s37.1,12.7,50.5-1.8
			c1.8-1.9,3.1-3.6,4.3-5.7"/>
		<path class="st0" d="M580.7,631.8c-6.5,0.2-15.6-2.1-20.8-6.9c-10.3-9.6-10.9-25.8-1.3-36.1c2.9-3.2,6.5-5.4,10.3-6.7"/>
	</g>
	<g>
		<path class="st0" d="M596.9,541.1c-10.7,11.5-12.9,29.1-4.3,43.2c10.4,16.8,32.4,22,49.2,11.6c16.8-10.4,22-32.4,11.6-49.2
			c-1.4-2.2-2.9-4.2-4.7-6"/>
		<path class="st0" d="M648.3,562.6c-1.5,6.3-5,12.1-11,15.8c-12,7.4-27.7,3.7-35.2-8.3c-2.7-4.3-4.3-9.7-4.3-14.4"/>
	</g>
	<g>
		<path class="st0" d="M569.2,518.7c6.5,14.3,22,23.1,38.2,20.5c19.5-3.1,32.8-21.5,29.6-41c-3.1-19.5-21.5-32.8-41-29.6
			c-2.6,0.4-5,1.1-7.3,2"/>
		<path class="st0" d="M608.8,479.4c5.2,3.8,9.2,9.4,10.3,16.3c2.2,13.9-7.2,27-21.2,29.3c-5,0.8-10.4,0.2-14.8-1.6"/>
	</g>
	<path class="st0" d="M539.9,567.8c0.6-2.3,0.9-4.8,0.9-7.3c0-16.3-13.2-29.5-29.5-29.5c-16.3,0-29.5,13.2-29.5,29.5
		c0,7.8,3,14.8,7.9,20.1"/>
	<path class="st0" d="M542.6,571.3c3.3-5.7,5.3-12.3,5.3-19.3c0-21-17-38-38-38c-21,0-38,17-38,38c0,14.3,7.9,26.8,19.7,33.3"/>
	<g>
		
			<ellipse transform="matrix(0.7071 -0.7071 0.7071 0.7071 -153.7287 434.9882)" class="st0" cx="448.2" cy="403.1" rx="26.8" ry="26.8"/>
		<line class="st0" x1="437.8" y1="392.6" x2="458.3" y2="413.1"/>
		<line class="st0" x1="433.3" y1="405.5" x2="445.4" y2="417.6"/>
		<line class="st0" x1="450.3" y1="388.6" x2="462.3" y2="400.6"/>
	</g>
	<polygon class="st0" points="334.6,421.4 324.1,403.3 340.7,390.6 368,396 378.5,414.1 361.9,426.8 	"/>
	<line class="st0" x1="324.1" y1="403.3" x2="378.5" y2="414.1"/>
	<path class="st0" d="M429.6,336.6c1.6,3.9,2.6,8.1,2.6,12.6c0,17.8-14.4,32.2-32.2,32.2s-32.2-14.4-32.2-32.2
		c0-4.4,0.9-8.7,2.5-12.5"/>
	<circle class="st0" cx="400" cy="355.5" r="12.5"/>
	<line class="st0" x1="391.1" y1="364.3" x2="408.9" y2="346.6"/>
	<g>
		<path class="st1" d="M317.8,374c-0.3,0-0.7,0-1,0.1c-2.4,0.6-3.9,3-3.3,5.4c0.5,2,2.3,3.4,4.3,3.4c0.3,0,0.7,0,1-0.1
			c2.4-0.6,3.9-3,3.3-5.4C321.6,375.3,319.8,374,317.8,374L317.8,374z"/>
	</g>
	<g>
		<path class="st1" d="M354.6,354c-0.3,0-0.7,0-1,0.1c-2.4,0.6-3.9,3-3.3,5.4c0.5,2,2.3,3.4,4.3,3.4c0.3,0,0.7,0,1-0.1
			c2.4-0.6,3.9-3,3.3-5.4C358.4,355.4,356.6,354,354.6,354L354.6,354z"/>
	</g>
	<g>
		<path class="st1" d="M482.2,374c-2,0-3.8,1.4-4.3,3.4c-0.6,2.4,0.9,4.8,3.3,5.4c0.4,0.1,0.7,0.1,1,0.1c2,0,3.8-1.4,4.3-3.4
			c0.6-2.4-0.9-4.8-3.3-5.4C482.9,374,482.6,374,482.2,374L482.2,374z"/>
	</g>
	<g>
		<path class="st1" d="M445.4,354c-2,0-3.8,1.4-4.3,3.4c-0.6,2.4,0.9,4.8,3.3,5.4c0.4,0.1,0.7,0.1,1,0.1c2,0,3.8-1.4,4.3-3.4
			c0.6-2.4-0.9-4.8-3.3-5.4C446.1,354.1,445.7,354,445.4,354L445.4,354z"/>
	</g>
	<g>
		<path class="st1" d="M267.1,414.8c-2,0-3.8,1.4-4.3,3.4c-0.6,2.4,0.9,4.8,3.3,5.4c0.4,0.1,0.7,0.1,1,0.1c2,0,3.8-1.4,4.3-3.4
			c0.6-2.4-0.9-4.8-3.3-5.4C267.8,414.8,267.4,414.8,267.1,414.8L267.1,414.8z"/>
	</g>
	<g>
		<path class="st1" d="M249.7,407.1c-2,0-3.8,1.4-4.3,3.4c-0.6,2.4,0.9,4.8,3.3,5.4c0.4,0.1,0.7,0.1,1,0.1c2,0,3.8-1.4,4.3-3.4
			c0.6-2.4-0.9-4.8-3.3-5.4C250.4,407.1,250.1,407.1,249.7,407.1L249.7,407.1z"/>
	</g>
	<g>
		<path class="st1" d="M232.3,399.4c-2,0-3.8,1.4-4.3,3.4c-0.6,2.4,0.9,4.8,3.3,5.4c0.4,0.1,0.7,0.1,1,0.1c2,0,3.8-1.4,4.3-3.4
			c0.6-2.4-0.9-4.8-3.3-5.4C233,399.4,232.7,399.4,232.3,399.4L232.3,399.4z"/>
	</g>
	<g>
		<path class="st1" d="M532.9,414.8c-0.3,0-0.7,0-1,0.1c-2.4,0.6-3.9,3-3.3,5.4c0.5,2,2.3,3.4,4.3,3.4c0.3,0,0.7,0,1-0.1
			c2.4-0.6,3.9-3,3.3-5.4C536.7,416.2,534.9,414.8,532.9,414.8L532.9,414.8z"/>
	</g>
	<g>
		<path class="st1" d="M550.3,407.1c-0.3,0-0.7,0-1,0.1c-2.4,0.6-3.9,3-3.3,5.4c0.5,2,2.3,3.4,4.3,3.4c0.3,0,0.7,0,1-0.1
			c2.4-0.6,3.9-3,3.3-5.4C554.1,408.5,552.3,407.1,550.3,407.1L550.3,407.1z"/>
	</g>
	<g>
		<path class="st1" d="M567.7,399.4c-0.3,0-0.7,0-1,0.1c-2.4,0.6-3.9,3-3.3,5.4c0.5,2,2.3,3.4,4.3,3.4c0.3,0,0.7,0,1-0.1
			c2.4-0.6,3.9-3,3.3-5.4C571.5,400.7,569.7,399.4,567.7,399.4L567.7,399.4z"/>
	</g>
	<line class="st0" x1="400" y1="79.8" x2="400" y2="100.8"/>
	<line class="st0" x1="422.8" y1="82.8" x2="417.4" y2="103.1"/>
	<line class="st0" x1="444.1" y1="91.6" x2="433.6" y2="109.8"/>
	<line class="st0" x1="462.4" y1="105.6" x2="447.5" y2="120.5"/>
	<line class="st0" x1="377.2" y1="82.8" x2="382.6" y2="103.1"/>
	<line class="st0" x1="355.9" y1="91.6" x2="366.4" y2="109.8"/>
	<line class="st0" x1="337.6" y1="105.6" x2="352.5" y2="120.5"/>
	<path class="st0" d="M260.1,567.8c-0.6-2.3-0.9-4.8-0.9-7.3c0-16.3,13.2-29.5,29.5-29.5c16.3,0,29.5,13.2,29.5,29.5
		c0,7.8-3,14.8-7.9,20.1"/>
	<path class="st0" d="M258.4,531c6.8-10.3,18.5-17.1,31.7-17.1c21,0,38,17,38,38c0,14.3-7.9,26.8-19.7,33.3"/>
	<path class="st0" d="M257.4,571.3c-3.3-5.7-5.3-12.3-5.3-19.3c0-7.7,2.3-14.9,6.3-20.9"/>
	<polyline class="st0" points="251.8,576.4 238.3,568.6 238.3,468 	"/>
	<polyline class="st0" points="501.8,603.2 400,662 297.4,602.7 	"/>
	<polyline class="st0" points="491.9,585.7 400,638.7 308.2,585.7 	"/>
	<path class="st0" d="M151.6,562c-0.5-3.8-0.8-7.7-0.8-11.6c0-15.5,4.3-30,11.7-42.4"/>
	<path class="st0" d="M297.4,602.7c-15.2,18.5-38.2,30.3-64,30.3c-27.1,0-51.1-13-66.2-33.2"/>
	<path class="st0" d="M211.7,573.7c5.7,5.3,13.3,8.5,21.7,8.5c6.8,0,13.1-2.1,18.3-5.8"/>
	<path class="st0" d="M203.7,539.3c-1.5,3.7-2,7-2,11.2c0,2,0.2,4,0.5,5.9"/>
	<rect x="258.5" y="674.2" transform="matrix(0.866 0.5 -0.5 0.866 384.0821 -64.4227)" class="st0" width="107.4" height="20.6"/>
	<polygon class="st0" points="374.3,678.9 286.1,628 303.4,621.4 371.3,660.6 	"/>
	<polyline class="st0" points="369.7,676.3 354.8,682 293.1,646.4 290.6,630.6 	"/>
	<path class="st0" d="M269,671.4c2.5,16.4,12.1,31.5,27.5,40.4c15.5,8.9,33.4,9.7,48.8,3.6"/>
	<polyline class="st0" points="277.4,652.5 293.1,646.4 354.8,682 357.4,698.7 	"/>
	<polyline class="st0" points="384,652.7 371.3,660.6 303.4,621.4 303.9,606.5 	"/>
	
		<rect x="434" y="674.2" transform="matrix(-0.866 0.5 -0.5 -0.866 1252.3916 1033.4139)" class="st0" width="107.4" height="20.6"/>
	<polygon class="st0" points="425.7,678.9 513.9,628 496.6,621.4 428.7,660.6 	"/>
	<polyline class="st0" points="430.3,676.3 445.2,682 506.9,646.4 509.4,630.6 	"/>
	<path class="st0" d="M531,671.4c-2.5,16.4-12.1,31.5-27.5,40.4s-33.4,9.7-48.8,3.6"/>
	<polyline class="st0" points="522.6,652.5 506.9,646.4 445.2,682 442.6,698.7 	"/>
	<polyline class="st0" points="416,652.7 428.7,660.6 496.6,621.4 496.1,606.5 	"/>
	<line class="st0" x1="259.3" y1="465" x2="259.3" y2="528.8"/>
	<path class="st0" d="M549.7,577.4c-5.9-3.7-10.5-9.2-12.9-15.8l-0.3-0.8c-6.1-12.6-21.3-17.9-34-11.8c-12.6,6.1-17.9,21.3-11.8,34
		l0.8,2.1c9.4,20.2,26.7,36.1,48,43.4"/>
	<path class="st0" d="M588.3,573.7c-5.1,4.8-11.9,7.9-19.3,8.5"/>
	<path class="st0" d="M596.3,539.3c1.3,3.5,2,7.2,2,11.2c0,1.8-0.1,3.6-0.4,5.3"/>
	<path class="st0" d="M561.7,519.1c1.6-0.2,3.2-0.4,4.9-0.4c6.1,0,11.8,1.7,16.6,4.7"/>
	<path class="st0" d="M580.7,631.9c21.2-3.7,39.7-15.4,52.1-32"/>
	<path class="st0" d="M608.8,479.4c-12.4-7.4-26.8-11.6-42.2-11.6c-1.6,0-3.3,0-4.9,0.1"/>
	<path class="st0" d="M648.3,562.6c0.6-4,0.9-8,0.9-12.2c0-15.5-4.3-30-11.7-42.4"/>
</g>
</svg>
