<?xml version="1.0" encoding="utf-8"?>
<!-- Generator: Adobe Illustrator 20.0.0, SVG Export Plug-In . SVG Version: 6.00 Build 0)  -->
<svg version="1.1" id="Layer_1" xmlns="http://www.w3.org/2000/svg" xmlns:xlink="http://www.w3.org/1999/xlink" x="0px" y="0px"
	 viewBox="0 0 800 800" style="enable-background:new 0 0 800 800;" xml:space="preserve">
<style type="text/css">
	.st0{fill:none;stroke:#FFFFFF;stroke-width:6;stroke-linecap:round;stroke-linejoin:round;stroke-miterlimit:10;}
	.st1{fill:#FFFFFF;}
	
		.st2{clip-path:url(#XMLID_4_);fill:none;stroke:#FFFFFF;stroke-width:6;stroke-linecap:round;stroke-linejoin:round;stroke-miterlimit:10;}
	.st3{fill:none;stroke:#FFFFFF;stroke-width:6;stroke-miterlimit:10;}
	.st4{fill:none;stroke:#FFFFFF;stroke-width:6;stroke-linecap:round;stroke-miterlimit:10;}
	.st5{fill:none;stroke:#FFFFFF;stroke-width:6;stroke-linejoin:round;stroke-miterlimit:10;}
	
		.st6{clip-path:url(#XMLID_5_);fill:none;stroke:#FFFFFF;stroke-width:6;stroke-linecap:round;stroke-linejoin:round;stroke-miterlimit:10;}
</style>
<g>
	<polyline class="st0" points="371,643.9 367.4,685.9 432.6,685.9 429,643.9 	"/>
	<polyline class="st0" points="247.6,392.6 225.7,392.6 225.7,411.5 205.5,411.5 205.5,392.6 184.6,392.6 184.6,411.5 169.1,411.5 	
		"/>
	<line class="st0" x1="88.5" y1="487.4" x2="255.1" y2="487.4"/>
	<polygon class="st0" points="133.7,388.5 151,334.5 168.3,388.5 	"/>
	<path class="st0" d="M189,487.4v-27.1c0-10.3,8.5-18.8,18.8-18.8h0c10.3,0,18.8,8.5,18.8,18.8v27.1"/>
	<line class="st0" x1="151" y1="334.5" x2="151" y2="267.8"/>
	<rect x="125.6" y="267.8" class="st0" width="25.3" height="25.3"/>
	<line class="st0" x1="201.3" y1="443.2" x2="201.3" y2="487.4"/>
	<line class="st0" x1="214" y1="443.2" x2="214" y2="487.4"/>
	<polygon class="st0" points="96.2,487.4 119,397.8 141.9,487.4 	"/>
	<line class="st0" x1="119" y1="487.4" x2="119" y2="444.6"/>
	<line class="st0" x1="144.7" y1="414.8" x2="151.4" y2="414.8"/>
	<line class="st0" x1="150.4" y1="425.5" x2="157" y2="425.5"/>
	<line class="st0" x1="144.7" y1="450.5" x2="151.4" y2="450.5"/>
	<line class="st0" x1="150.4" y1="461.3" x2="157" y2="461.3"/>
	<line class="st0" x1="182" y1="423.5" x2="188.6" y2="423.5"/>
	<line class="st0" x1="210.7" y1="423.5" x2="217.4" y2="423.5"/>
	<line class="st0" x1="192.6" y1="431.5" x2="199.3" y2="431.5"/>
	<line class="st0" x1="223.2" y1="431.5" x2="229.9" y2="431.5"/>
	<path class="st0" d="M204.5,487.4c-9.8,0-14.8,3.9-17.8,9.8c-3,6-2.4,13.5,1.4,19c4.9,7,14.2,10.2,18,17.9c2.6,5.2,2,11.5-0.5,16.8
		c-2.5,5.2-6.6,9.5-11,13.3c-16.5,14.1-38.2,22.1-59.9,22.2"/>
	<path class="st0" d="M213.9,487.4c-5.3,1.4-9.1,9.5-8.1,15.2c1,5.7,5.1,9.9,9.6,12.7c4.5,2.8,9.6,4.5,14,7.3
		c10.9,6.9,17.8,20.5,17.6,35.1c-0.2,14.5-10.9,26.1-22.8,38.2"/>
	<line class="st0" x1="117.7" y1="528.8" x2="120.4" y2="538.5"/>
	<line class="st0" x1="131.7" y1="519.5" x2="129.7" y2="539.9"/>
	<line class="st0" x1="142.7" y1="527.5" x2="138.7" y2="538.5"/>
	<line class="st0" x1="229.2" y1="501.6" x2="230.9" y2="508.3"/>
	<line class="st0" x1="241.2" y1="499.3" x2="240.2" y2="510.7"/>
	<line class="st0" x1="143.5" y1="556.3" x2="146.2" y2="566"/>
	<line class="st0" x1="155.5" y1="550" x2="155.5" y2="567.4"/>
	<line class="st0" x1="168.5" y1="556" x2="164.5" y2="566"/>
	<line class="st0" x1="152.4" y1="506.5" x2="154.7" y2="512.5"/>
	<line class="st0" x1="164.4" y1="500.4" x2="163" y2="511.5"/>
	<line class="st0" x1="111.7" y1="506.6" x2="109.4" y2="512.6"/>
	<line class="st0" x1="98.7" y1="501.5" x2="101" y2="514.6"/>
	<line class="st0" x1="132" y1="560.6" x2="136.4" y2="566.7"/>
	<line class="st0" x1="183.2" y1="532.2" x2="180.9" y2="538.2"/>
	<line class="st0" x1="170.2" y1="528.1" x2="171.6" y2="539.2"/>
	<polyline class="st0" points="552.4,392.6 574.3,392.6 574.3,411.5 594.5,411.5 594.5,392.6 615.4,392.6 615.4,411.5 630.9,411.5 	
		"/>
	<line class="st0" x1="711.5" y1="487.4" x2="544.9" y2="487.4"/>
	<polygon class="st0" points="666.3,388.5 649,334.5 631.7,388.5 	"/>
	<path class="st0" d="M611,487.4v-27.1c0-10.3-8.5-18.8-18.8-18.8l0,0c-10.3,0-18.8,8.5-18.8,18.8v27.1"/>
	<line class="st0" x1="649" y1="334.5" x2="649" y2="267.8"/>
	
		<rect x="649" y="267.8" transform="matrix(-1 4.466104e-11 -4.466104e-11 -1 1323.3806 561.027)" class="st0" width="25.3" height="25.3"/>
	<line class="st0" x1="598.7" y1="443.2" x2="598.7" y2="487.4"/>
	<line class="st0" x1="586" y1="443.2" x2="586" y2="487.4"/>
	<polygon class="st0" points="703.8,487.4 681,397.8 658.1,487.4 	"/>
	<line class="st0" x1="681" y1="487.4" x2="681" y2="444.6"/>
	<line class="st0" x1="655.3" y1="414.8" x2="648.6" y2="414.8"/>
	<line class="st0" x1="649.6" y1="425.5" x2="643" y2="425.5"/>
	<line class="st0" x1="655.3" y1="450.5" x2="648.6" y2="450.5"/>
	<line class="st0" x1="649.6" y1="461.3" x2="643" y2="461.3"/>
	<line class="st0" x1="618" y1="423.5" x2="611.4" y2="423.5"/>
	<line class="st0" x1="589.3" y1="423.5" x2="582.6" y2="423.5"/>
	<line class="st0" x1="607.4" y1="431.5" x2="600.7" y2="431.5"/>
	<line class="st0" x1="576.8" y1="431.5" x2="570.1" y2="431.5"/>
	<path class="st0" d="M595.5,487.4c9.8,0,14.8,3.9,17.8,9.8c3,6,2.4,13.5-1.4,19c-4.9,7-14.2,10.2-18,17.9c-2.6,5.2-2,11.5,0.5,16.8
		c2.5,5.2,6.6,9.5,11,13.3c16.5,14.1,38.2,22.1,59.9,22.2"/>
	<path class="st0" d="M586.1,487.4c5.3,1.4,9.1,9.5,8.1,15.2c-1,5.7-5.1,9.9-9.6,12.7c-4.5,2.8-9.6,4.5-14,7.3
		c-10.9,6.9-17.8,20.5-17.6,35.1c0.2,14.5,10.9,26.1,22.8,38.2"/>
	<line class="st0" x1="682.3" y1="528.8" x2="679.6" y2="538.5"/>
	<line class="st0" x1="668.3" y1="519.5" x2="670.3" y2="539.9"/>
	<line class="st0" x1="657.3" y1="527.5" x2="661.3" y2="538.5"/>
	<line class="st0" x1="570.8" y1="501.6" x2="569.1" y2="508.3"/>
	<line class="st0" x1="558.8" y1="499.3" x2="559.8" y2="510.7"/>
	<line class="st0" x1="656.5" y1="556.3" x2="653.8" y2="566"/>
	<line class="st0" x1="644.5" y1="550" x2="644.5" y2="567.4"/>
	<line class="st0" x1="631.5" y1="556" x2="635.5" y2="566"/>
	<line class="st0" x1="647.6" y1="506.5" x2="645.3" y2="512.5"/>
	<line class="st0" x1="635.6" y1="500.4" x2="637" y2="511.5"/>
	<line class="st0" x1="688.3" y1="506.6" x2="690.6" y2="512.6"/>
	<line class="st0" x1="701.3" y1="501.5" x2="699" y2="514.6"/>
	<line class="st0" x1="668" y1="560.6" x2="663.6" y2="566.7"/>
	<line class="st0" x1="616.8" y1="532.2" x2="619.1" y2="538.2"/>
	<line class="st0" x1="629.8" y1="528.1" x2="628.4" y2="539.2"/>
	<line class="st0" x1="168.5" y1="204.1" x2="231.2" y2="266.8"/>
	<line class="st0" x1="200.9" y1="297.1" x2="138.2" y2="234.4"/>
	<line class="st0" x1="262.6" y1="328.5" x2="250" y2="315.9"/>
	<line class="st0" x1="611" y1="676.9" x2="505.2" y2="571.1"/>
	
		<ellipse transform="matrix(0.7071 -0.7071 0.7071 0.7071 -103.4272 156.5207)" class="st0" cx="137.2" cy="203.1" rx="31.3" ry="31.3"/>
	<line class="st0" x1="153" y1="249.1" x2="183.2" y2="218.9"/>
	<line class="st0" x1="162.4" y1="258.5" x2="192.7" y2="228.3"/>
	<line class="st0" x1="171.8" y1="268" x2="202.1" y2="237.7"/>
	<line class="st0" x1="181.3" y1="277.4" x2="211.5" y2="247.1"/>
	<line class="st0" x1="190.7" y1="286.8" x2="220.9" y2="256.6"/>
	
		<ellipse transform="matrix(0.7071 -0.7071 0.7071 0.7071 -103.4272 156.5207)" class="st0" cx="137.2" cy="203.1" rx="15.3" ry="15.3"/>
	<path class="st0" d="M214.4,280.3c-24.7,24.7-33.7,59.3-26.9,91.2l28.4-6.1c-3.7-17.2-0.9-35.4,8.4-50.9l25.7,1.4l-1.5-25.7
		c15.5-9.3,33.8-12.1,50.9-8.4l6.1-28.4C273.7,246.6,239.2,255.6,214.4,280.3z"/>
	<line class="st0" x1="630.7" y1="205" x2="569.5" y2="266.1"/>
	<line class="st0" x1="599.1" y1="297.1" x2="660.9" y2="235.2"/>
	
		<ellipse transform="matrix(0.7071 -0.7071 0.7071 0.7071 50.5036 528.1426)" class="st0" cx="662.8" cy="203.1" rx="31.3" ry="31.3"/>
	<line class="st0" x1="647" y1="249.1" x2="616.8" y2="218.9"/>
	<line class="st0" x1="637.6" y1="258.5" x2="607.3" y2="228.3"/>
	<line class="st0" x1="628.2" y1="268" x2="597.9" y2="237.7"/>
	<line class="st0" x1="618.7" y1="277.4" x2="588.5" y2="247.1"/>
	<line class="st0" x1="609.3" y1="286.8" x2="579.1" y2="256.6"/>
	
		<ellipse transform="matrix(0.7071 -0.7071 0.7071 0.7071 50.5036 528.1426)" class="st0" cx="662.8" cy="203.1" rx="15.3" ry="15.3"/>
	<path class="st0" d="M585.6,280.3c24.7,24.7,33.7,59.3,26.9,91.2l-28.4-6.1c3.7-17.2,0.9-35.4-8.4-50.9l-25.7,1.4l1.5-25.7
		c-15.5-9.3-33.8-12.1-50.9-8.4l-6.1-28.4C526.3,246.6,560.8,255.6,585.6,280.3z"/>
	<path class="st0" d="M369.5,91.8c7.9-7.6,18.7-12.3,30.5-12.3c11.9,0,22.6,4.7,30.5,12.3"/>
	<rect x="302.2" y="106.4" class="st0" width="195.5" height="116.3"/>
	<polygon class="st0" points="283.5,212.2 302.2,222.8 302.2,106.4 283.5,117 	"/>
	<polygon class="st0" points="447.6,91.8 458.2,106.4 341.8,106.4 352.4,91.8 	"/>
	<polygon class="st0" points="447.6,237.4 458.2,222.8 341.8,222.8 352.4,237.4 	"/>
	<polygon class="st0" points="516.5,212.2 497.8,222.8 497.8,106.4 516.5,117 	"/>
	<path class="st0" d="M530.6,311.8C446.1,295.1,400,266.1,400,266.1s-46.1,29-130.6,45.7c-14.9,32.8-23.3,69.3-23.3,107.7
		c0,105.9,63.1,197,153.8,237.7c90.7-40.8,153.8-131.9,153.8-237.7c0-37.8-8.1-73.7-22.5-106.1"/>
	<g>
		<g>
			<path class="st1" d="M284.7,329.5L284.7,329.5L284.7,329.5 M283.3,324.4c-0.3,0-0.6,0-1,0.1c-1.5,0.3-2.7,1.4-3.2,2.8
				c-1,2.3,0.1,4.9,2.4,5.9c0.6,0.2,1.2,0.3,1.7,0.3c1.1,0,2.3-0.4,3.1-1.2c1.2-1,1.8-2.7,1.4-4.4
				C287.3,325.8,285.4,324.4,283.3,324.4L283.3,324.4z"/>
		</g>
		<g>
			<path class="st1" d="M276.9,351.9L276.9,351.9L276.9,351.9 M271.3,375.1L271.3,375.1L271.3,375.1 M275.4,347
				c-1.9,0-3.7,1.3-4.3,3.2l-0.1,0.3c-0.7,2.4,0.7,4.9,3.1,5.6c0.4,0.1,0.8,0.2,1.3,0.2c2,0,3.7-1.3,4.3-3.2l0.1-0.2
				c0.7-2.4-0.7-4.9-3-5.6C276.3,347,275.8,347,275.4,347L275.4,347z M269.8,370.4c-2.1,0-4,1.5-4.4,3.7l0,0.2
				c-0.5,2.4,1.2,4.8,3.6,5.2c0.3,0.1,0.6,0.1,0.8,0.1c2.1,0,4-1.5,4.4-3.7l0-0.2c0.5-2.4-1.2-4.8-3.6-5.2
				C270.4,370.4,270.1,370.4,269.8,370.4L269.8,370.4z M266.6,394.2c-2.3,0-4.3,1.8-4.5,4.1l0,0.3l9,0.7l0-0.2
				c0.2-2.5-1.6-4.7-4.1-4.9C266.8,394.2,266.7,394.2,266.6,394.2L266.6,394.2z M265.7,418.2C265.7,418.2,265.7,418.2,265.7,418.2
				c-2.5,0-4.5,2.1-4.4,4.6l0,0.3c0,2.5,2,4.4,4.5,4.4c0,0,0,0,0.1,0c2.5,0,4.5-2.1,4.4-4.6l0-0.2
				C270.2,420.2,268.1,418.2,265.7,418.2L265.7,418.2z M267.2,442.3c-0.2,0-0.3,0-0.5,0c-2.5,0.3-4.2,2.5-4,5l0,0.3
				c0.3,2.3,2.2,4,4.5,4c0.2,0,0.3,0,0.5,0c2.5-0.3,4.2-2.5,4-5l0-0.2C271.4,444,269.5,442.3,267.2,442.3L267.2,442.3z M271.1,466
				c-0.3,0-0.6,0-0.9,0.1c-2.4,0.5-4,2.9-3.5,5.3l0.1,0.3c0.5,2.1,2.3,3.5,4.4,3.5c0.3,0,0.6,0,1-0.1c2.4-0.5,4-2.9,3.4-5.4l0-0.2
				C275,467.5,273.2,466,271.1,466L271.1,466z M277.3,489.2c-0.5,0-0.9,0.1-1.4,0.2c-2.4,0.8-3.7,3.3-2.9,5.7l0.1,0.3
				c0.6,1.9,2.4,3.1,4.3,3.1c0.5,0,0.9-0.1,1.4-0.2c2.4-0.8,3.6-3.3,2.9-5.7l-0.1-0.2C281,490.5,279.2,489.2,277.3,489.2
				L277.3,489.2z M285.9,511.7c-0.6,0-1.2,0.1-1.8,0.4c-2.3,1-3.3,3.6-2.3,5.9l0.1,0.2c0.7,1.7,2.4,2.7,4.1,2.7
				c0.6,0,1.2-0.1,1.8-0.4c2.3-1,3.3-3.7,2.3-5.9l-0.1-0.2C289.3,512.7,287.6,511.7,285.9,511.7L285.9,511.7z M296.6,533.3
				c-0.7,0-1.5,0.2-2.2,0.6c-2.2,1.2-2.9,4-1.7,6.1l0.1,0.2c0.8,1.5,2.3,2.3,3.9,2.3c0.8,0,1.5-0.2,2.2-0.6c2.2-1.2,2.9-4,1.7-6.1
				l-0.1-0.2C299.7,534.1,298.2,533.3,296.6,533.3L296.6,533.3z M309.5,553.6c-0.9,0-1.8,0.3-2.6,0.8c-2,1.4-2.5,4.2-1.1,6.3
				l0.1,0.2c0.9,1.3,2.3,1.9,3.7,1.9c0.9,0,1.8-0.3,2.6-0.8c2-1.4,2.5-4.2,1.1-6.3l-0.2-0.2C312.3,554.3,310.9,553.6,309.5,553.6
				L309.5,553.6z M324.3,572.6c-1,0-2.1,0.4-2.9,1.1c-1.9,1.6-2.1,4.5-0.5,6.3l0.1,0.2c0.9,1,2.2,1.6,3.4,1.6c1,0,2.1-0.4,2.9-1.1
				c1.9-1.6,2.1-4.4,0.5-6.3l-0.2-0.2C326.8,573.1,325.5,572.6,324.3,572.6L324.3,572.6z M340.9,590c-1.2,0-2.4,0.5-3.3,1.4
				c-1.7,1.8-1.6,4.7,0.2,6.4l0.1,0.1c0.9,0.8,2,1.3,3.1,1.3c1.2,0,2.4-0.5,3.2-1.4c1.7-1.8,1.7-4.6-0.1-6.4l-0.2-0.2
				C343.1,590.4,342,590,340.9,590L340.9,590z M359.1,605.7c-1.3,0-2.7,0.6-3.6,1.7c-1.5,2-1.2,4.8,0.8,6.3l0.2,0.1
				c0.8,0.6,1.8,1,2.8,1c1.3,0,2.7-0.6,3.6-1.7c1.5-2,1.2-4.8-0.8-6.3l-0.2-0.2C361.1,606,360.1,605.7,359.1,605.7L359.1,605.7z
				 M378.9,619.4c-1.5,0-3,0.7-3.8,2.1c-1.3,2.1-0.7,4.9,1.4,6.2l0.2,0.1c0.7,0.5,1.6,0.7,2.4,0.7c1.5,0,3-0.7,3.8-2.1
				c1.3-2.1,0.7-4.9-1.4-6.2l-0.2-0.1C380.5,619.7,379.7,619.4,378.9,619.4L378.9,619.4z"/>
		</g>
		<g>
			<path class="st1" d="M400.2,637.2L400.2,637.2L400.2,637.2 M400.2,631.2c-0.1,0-0.1,0-0.2,0c-0.1,0-0.1,0-0.2,0
				c-1.6,0-3.2,0.9-4,2.5c-1.1,2.2-0.2,4.9,2,6l0.1,0c0.6,0.3,1.3,0.5,2,0.5c0.7,0,1.4-0.2,2-0.5l0.1-0.1c2.2-1.1,3.1-3.8,2-6
				C403.4,632.1,401.8,631.2,400.2,631.2L400.2,631.2z"/>
		</g>
		<g>
			<path class="st1" d="M534.3,447L534.3,447L534.3,447 M530.4,470.8L530.4,470.8L530.4,470.8 M524.1,494.2L524.1,494.2L524.1,494.2
				 M515.5,516.9L515.5,516.9L515.5,516.9 M504.7,538.5L504.7,538.5L504.7,538.5 M491.7,559L491.7,559L491.7,559 M476.8,578.1
				L476.8,578.1L476.8,578.1 M441.8,611.4L441.8,611.4L441.8,611.4 M421.9,625.2L421.9,625.2L421.9,625.2 M524.6,347
				c-0.4,0-0.9,0.1-1.3,0.2c-2.4,0.7-3.7,3.2-3,5.6l0.1,0.2c0.6,2,2.4,3.2,4.3,3.2c0.4,0,0.8-0.1,1.3-0.2c2.4-0.7,3.8-3.2,3.1-5.6
				l-0.1-0.3C528.3,348.3,526.5,347,524.6,347L524.6,347z M530.2,370.4c-0.3,0-0.6,0-0.8,0.1c-2.4,0.5-4,2.8-3.6,5.3l0,0.2
				c0.4,2.2,2.3,3.7,4.4,3.7c0.3,0,0.5,0,0.8-0.1c2.4-0.5,4.1-2.8,3.6-5.2l0-0.3C534.2,371.9,532.3,370.4,530.2,370.4L530.2,370.4z
				 M533.4,394.2c-0.1,0-0.3,0-0.4,0c-2.5,0.2-4.3,2.4-4.1,4.9l0,0.2c0.2,2.4,2.2,4.1,4.5,4.1c0.1,0,0.3,0,0.4,0
				c2.5-0.2,4.3-2.4,4.1-4.9l0-0.3C537.7,396,535.7,394.2,533.4,394.2L533.4,394.2z M534.3,418.3c-2.5,0-4.5,2-4.5,4.5l0,0.2
				c0,2.5,1.9,4.5,4.4,4.6c0,0,0,0,0.1,0c2.5,0,4.5-2,4.5-4.4l0-0.3C538.8,420.3,536.8,418.3,534.3,418.3L534.3,418.3z M532.8,442.3
				c-2.3,0-4.2,1.7-4.5,4l0,0.2c-0.3,2.5,1.5,4.7,4,5c0.2,0,0.3,0,0.5,0c2.3,0,4.2-1.7,4.5-4l0-0.2c0.3-2.5-1.5-4.7-4-5
				C533.1,442.3,532.9,442.3,532.8,442.3L532.8,442.3z M528.9,466c-2.1,0-3.9,1.4-4.4,3.5l-0.1,0.2c-0.5,2.4,1,4.8,3.4,5.4
				c0.3,0.1,0.6,0.1,1,0.1c2.1,0,3.9-1.4,4.4-3.5l0.1-0.2c0.5-2.4-1-4.8-3.4-5.4C529.5,466.1,529.2,466,528.9,466L528.9,466z
				 M522.7,489.3c-1.9,0-3.7,1.2-4.3,3.1l-0.1,0.3c-0.8,2.4,0.5,4.9,2.9,5.7c0.5,0.1,0.9,0.2,1.4,0.2c1.9,0,3.7-1.2,4.3-3.1l0.1-0.2
				c0.8-2.4-0.5-4.9-2.9-5.7C523.6,489.3,523.1,489.3,522.7,489.3L522.7,489.3z M514.1,511.8c-1.7,0-3.4,1-4.1,2.7l-0.1,0.3
				c-1,2.3,0,4.9,2.3,5.9c0.6,0.3,1.2,0.4,1.8,0.4c1.7,0,3.4-1,4.1-2.7l0.1-0.2c1-2.3,0-4.9-2.3-5.9
				C515.4,511.9,514.7,511.8,514.1,511.8L514.1,511.8z M503.4,533.3c-1.6,0-3.1,0.8-3.9,2.3l-0.1,0.2c-1.2,2.2-0.5,4.9,1.7,6.1
				c0.7,0.4,1.5,0.6,2.2,0.6c1.6,0,3.1-0.8,3.9-2.3l0.1-0.2c1.2-2.2,0.5-4.9-1.7-6.1C504.9,533.5,504.1,533.3,503.4,533.3
				L503.4,533.3z M490.5,553.6c-1.4,0-2.8,0.7-3.7,1.9l-0.1,0.2c-1.4,2-1,4.8,1.1,6.3c0.8,0.6,1.7,0.8,2.6,0.8
				c1.4,0,2.8-0.7,3.7-1.9l0.1-0.2c1.4-2,1-4.8-1.1-6.3C492.3,553.9,491.4,553.6,490.5,553.6L490.5,553.6z M475.7,572.6
				c-1.3,0-2.5,0.5-3.4,1.6l-0.2,0.2c-1.6,1.9-1.4,4.7,0.5,6.3c0.9,0.7,1.9,1.1,2.9,1.1c1.3,0,2.5-0.5,3.4-1.6l0.2-0.2
				c1.6-1.9,1.4-4.7-0.5-6.3C477.8,573,476.8,572.6,475.7,572.6L475.7,572.6z M459.1,590c-1.1,0-2.2,0.4-3.1,1.3l-0.2,0.1
				c-1.8,1.7-1.9,4.6-0.2,6.4c0.9,0.9,2.1,1.4,3.3,1.4c1.1,0,2.2-0.4,3.1-1.2l0.2-0.2c1.8-1.7,1.9-4.6,0.1-6.4
				C461.5,590.5,460.3,590,459.1,590L459.1,590z M440.8,605.7c-0.9,0-1.9,0.3-2.7,0.9l-0.2,0.2c-2,1.5-2.3,4.4-0.8,6.3
				c0.9,1.1,2.2,1.7,3.6,1.7c1,0,1.9-0.3,2.8-0.9l0.2-0.1c2-1.5,2.4-4.3,0.9-6.3C443.5,606.3,442.2,605.7,440.8,605.7L440.8,605.7z
				 M421.1,619.4c-0.8,0-1.6,0.2-2.4,0.7l-0.2,0.1c-2.1,1.3-2.7,4.1-1.4,6.2c0.9,1.4,2.3,2.1,3.8,2.1c0.8,0,1.6-0.2,2.4-0.7l0.2-0.1
				c2.1-1.3,2.7-4.1,1.4-6.2C424.1,620.2,422.6,619.4,421.1,619.4L421.1,619.4z"/>
		</g>
		<g>
			<path class="st1" d="M516.5,324.3c-2.1,0-3.9,1.4-4.4,3.6c-0.4,1.7,0.3,3.4,1.6,4.5c0.8,0.7,1.9,1.1,3,1.1c0.6,0,1.1-0.1,1.7-0.3
				c2.3-0.9,3.4-3.6,2.5-5.9l-0.1-0.2c-0.6-1.4-1.8-2.4-3.2-2.7l-0.1,0C517.2,324.4,516.8,324.3,516.5,324.3L516.5,324.3z"/>
		</g>
		<g>
			<path class="st1" d="M422.2,294.5c-1.7,0-3.4,1-4.1,2.7c-1,2.3,0.1,4.9,2.3,5.9l0.2,0.1c0.6,0.3,1.2,0.4,1.8,0.4
				c1.7,0,3.4-1,4.1-2.7c1-2.3,0-4.9-2.3-5.9l-0.3-0.1C423.4,294.7,422.8,294.5,422.2,294.5L422.2,294.5z M445.2,303.8
				c-1.8,0-3.5,1.1-4.2,2.9c-0.9,2.3,0.3,4.9,2.6,5.8l0.3,0.1c0.5,0.2,1,0.3,1.5,0.3c1.8,0,3.6-1.1,4.2-3c0.9-2.3-0.3-4.9-2.7-5.8
				l-0.2-0.1C446.3,303.9,445.7,303.8,445.2,303.8L445.2,303.8z M468.7,311.7c-1.9,0-3.7,1.2-4.3,3.2c-0.7,2.4,0.6,4.9,2.9,5.6
				l0.2,0.1c0.4,0.1,0.9,0.2,1.3,0.2c1.9,0,3.7-1.2,4.3-3.2c0.7-2.4-0.6-4.9-3-5.6l-0.2-0.1C469.6,311.8,469.1,311.7,468.7,311.7
				L468.7,311.7z M492.5,318.6c-2,0-3.8,1.3-4.3,3.3c-0.6,2.4,0.8,4.9,3.2,5.5l0.3,0.1c0.4,0.1,0.8,0.1,1.1,0.1c2,0,3.8-1.3,4.4-3.4
				c0.6-2.4-0.8-4.9-3.2-5.5l-0.2-0.1C493.2,318.6,492.8,318.6,492.5,318.6L492.5,318.6z"/>
		</g>
		<g>
			<path class="st1" d="M400,284c-0.8,0-1.5,0.2-2.2,0.5c-2.2,1.1-3.1,3.9-1.9,6.1c0.8,1.5,2.4,2.4,4,2.4c0.1,0,0.1,0,0.2,0
				c1.6,0,3.2-0.9,4-2.4c1.1-2.2,0.3-4.9-1.9-6.1l-0.1-0.1C401.4,284.1,400.7,284,400,284L400,284z"/>
		</g>
		<g>
			<path class="st1" d="M378.4,300.4L378.4,300.4L378.4,300.4 M355.3,309.7L355.3,309.7L355.3,309.7 M331.8,317.7L331.8,317.7
				L331.8,317.7 M307.9,324.5L307.9,324.5L307.9,324.5 M377.8,294.5c-0.6,0-1.2,0.1-1.8,0.4l-0.2,0.1c-2.3,1-3.3,3.6-2.4,5.9
				c0.7,1.7,2.4,2.7,4.1,2.7c0.6,0,1.2-0.1,1.8-0.4l0.2-0.1c2.3-1,3.3-3.6,2.3-5.9C381.2,295.6,379.5,294.5,377.8,294.5L377.8,294.5
				z M354.8,303.8c-0.5,0-1,0.1-1.6,0.3l-0.3,0.1c-2.3,0.9-3.5,3.5-2.6,5.8c0.7,1.8,2.4,2.9,4.2,2.9c0.5,0,1.1-0.1,1.6-0.3l0.2-0.1
				c2.3-0.9,3.5-3.4,2.7-5.8C358.3,304.9,356.6,303.8,354.8,303.8L354.8,303.8z M331.3,311.7c-0.4,0-0.9,0.1-1.3,0.2l-0.2,0.1
				c-2.4,0.7-3.7,3.3-3,5.6c0.6,1.9,2.4,3.2,4.3,3.2c0.4,0,0.9-0.1,1.3-0.2l0.2-0.1c2.4-0.7,3.7-3.3,2.9-5.6
				C335,313,333.3,311.7,331.3,311.7L331.3,311.7z M307.6,318.6c-0.4,0-0.8,0-1.1,0.1l-0.3,0.1c-2.4,0.6-3.8,3.1-3.2,5.5
				c0.5,2,2.4,3.3,4.3,3.3c0.4,0,0.8,0,1.2-0.2l0.2-0.1c2.4-0.6,3.8-3.1,3.2-5.5C311.4,319.9,309.6,318.6,307.6,318.6L307.6,318.6z"
				/>
		</g>
	</g>
	<g>
		<defs>
			<path id="XMLID_2_" d="M297.6,345.4c-9.1,24.3-13.7,49.8-13.7,76.1c0,42.8,12.4,84.2,35.8,119.7c20.3,30.8,47.9,55.8,80.2,72.9
				c32.4-17.1,59.9-42.1,80.2-72.9c23.4-35.5,35.8-76.9,35.8-119.7c0-26.3-4.6-51.9-13.7-76.1c-48.8-11.1-83.5-26-102.4-35.4
				C381.2,319.4,346.4,334.3,297.6,345.4z"/>
		</defs>
		<clipPath id="XMLID_4_">
			<use xlink:href="#XMLID_2_"  style="overflow:visible;"/>
		</clipPath>
		<line class="st2" x1="257.4" y1="311.3" x2="543" y2="311.3"/>
		<line class="st2" x1="257.4" y1="328.2" x2="543" y2="328.2"/>
		<line class="st2" x1="409.4" y1="345" x2="543" y2="345"/>
		<line class="st2" x1="257.4" y1="345" x2="383.1" y2="345"/>
		<line class="st2" x1="475.7" y1="361.9" x2="543" y2="361.9"/>
		<line class="st2" x1="409.5" y1="361.9" x2="446.7" y2="361.9"/>
		<line class="st2" x1="257.4" y1="361.9" x2="384.1" y2="361.9"/>
		<line class="st2" x1="463" y1="378.8" x2="543" y2="378.8"/>
		<line class="st2" x1="257.4" y1="378.8" x2="329" y2="378.8"/>
		<line class="st2" x1="466.5" y1="395.6" x2="543" y2="395.6"/>
		<line class="st2" x1="410.1" y1="395.6" x2="417.2" y2="395.6"/>
		<line class="st2" x1="376" y1="395.6" x2="384" y2="395.6"/>
		<line class="st2" x1="257.4" y1="395.6" x2="350.8" y2="395.6"/>
		<line class="st2" x1="494.4" y1="412.5" x2="543" y2="412.5"/>
		<line class="st2" x1="410" y1="412.5" x2="424.5" y2="412.5"/>
		<line class="st2" x1="376" y1="412.5" x2="384" y2="412.5"/>
		<line class="st2" x1="257.4" y1="412.5" x2="350.8" y2="412.5"/>
		<line class="st2" x1="470.5" y1="429.3" x2="543" y2="429.3"/>
		<line class="st2" x1="410" y1="429.3" x2="419" y2="429.3"/>
		<line class="st2" x1="376" y1="429.3" x2="384" y2="429.3"/>
		<line class="st2" x1="257.4" y1="429.3" x2="350.8" y2="429.3"/>
		<line class="st2" x1="466.5" y1="446.2" x2="543" y2="446.2"/>
		<line class="st2" x1="410.1" y1="446.2" x2="426.9" y2="446.2"/>
		<line class="st2" x1="376" y1="446.2" x2="384" y2="446.2"/>
		<line class="st2" x1="257.4" y1="446.2" x2="350.8" y2="446.2"/>
		<line class="st2" x1="466" y1="463" x2="543" y2="463"/>
		<line class="st2" x1="376" y1="463" x2="384" y2="463"/>
		<line class="st2" x1="257.4" y1="463" x2="350.8" y2="463"/>
		<line class="st2" x1="408.1" y1="479.9" x2="543" y2="479.9"/>
		<line class="st2" x1="376" y1="479.9" x2="384" y2="479.9"/>
		<line class="st2" x1="257.4" y1="479.9" x2="350.8" y2="479.9"/>
		<line class="st2" x1="439" y1="496.7" x2="543" y2="496.7"/>
		<line class="st2" x1="408.1" y1="496.7" x2="413" y2="496.7"/>
		<line class="st2" x1="376" y1="496.7" x2="384" y2="496.7"/>
		<line class="st2" x1="257.4" y1="496.7" x2="326.8" y2="496.7"/>
		<line class="st2" x1="438.7" y1="513.6" x2="543" y2="513.6"/>
		<line class="st2" x1="257.4" y1="513.6" x2="359" y2="513.6"/>
		<line class="st2" x1="436.4" y1="530.5" x2="543" y2="530.5"/>
		<line class="st2" x1="257.4" y1="530.5" x2="381.6" y2="530.5"/>
		<line class="st2" x1="438" y1="547.3" x2="543" y2="547.3"/>
		<line class="st2" x1="409.1" y1="531.2" x2="414" y2="531.2"/>
		<line class="st2" x1="409.1" y1="547.5" x2="414" y2="547.5"/>
		<line class="st2" x1="257.4" y1="547.3" x2="384.7" y2="547.3"/>
		<line class="st2" x1="257.4" y1="564.2" x2="543" y2="564.2"/>
		<line class="st2" x1="257.4" y1="581" x2="543" y2="581"/>
		<line class="st2" x1="257.4" y1="597.9" x2="543" y2="597.9"/>
		<line class="st2" x1="444" y1="429.3" x2="447" y2="429.3"/>
		
			<use xlink:href="#XMLID_2_"  style="overflow:visible;fill:none;stroke:#FFFFFF;stroke-width:6;stroke-linecap:round;stroke-linejoin:round;stroke-miterlimit:10;"/>
	</g>
	<line class="st0" x1="363.9" y1="381.1" x2="363.9" y2="502.6"/>
	<line class="st0" x1="340" y1="496.9" x2="425.1" y2="519.8"/>
	<line class="st0" x1="426.2" y1="496.5" x2="426.2" y2="547.5"/>
	<path class="st0" d="M338.3,378.5h80.1c23.2,0,42.1,18.8,42.1,42.1c0,23.2-18.8,42.1-42.1,42.1h-9.8"/>
	<line class="st0" x1="396.3" y1="345.5" x2="396.3" y2="547.3"/>
	<line class="st0" x1="436" y1="412.5" x2="481.5" y2="412.5"/>
	<line class="st0" x1="429.7" y1="395.6" x2="463.4" y2="361.9"/>
	<line class="st0" x1="429.7" y1="429.3" x2="454.4" y2="466.2"/>
	<polygon class="st0" points="376.7,205 353.3,164.6 376.7,124.2 423.3,124.2 446.7,164.6 423.3,205 	"/>
	<polygon class="st0" points="400,192.8 414.1,185.2 414.1,172.2 426.8,164.6 413.4,141.4 400,147.4 386.6,141.4 373.2,164.6 
		385.9,172.2 385.9,185.2 	"/>
	<polyline class="st0" points="385.9,185.2 400,178.3 414.1,185.2 	"/>
	<line class="st0" x1="400" y1="178.3" x2="400" y2="168.7"/>
	<polyline class="st0" points="387.5,159 393.7,159 395.5,168.7 404.5,168.7 406.3,159 412.5,159 	"/>
	<line class="st0" x1="331.7" y1="125" x2="336.8" y2="119.9"/>
	<line class="st0" x1="302.2" y1="154.5" x2="324" y2="132.8"/>
	<line class="st0" x1="324.7" y1="151" x2="336.8" y2="138.9"/>
	<line class="st0" x1="302.2" y1="173.5" x2="317.8" y2="157.9"/>
	<line class="st0" x1="332.7" y1="162" x2="336.8" y2="157.9"/>
	<line class="st0" x1="302.2" y1="192.5" x2="326" y2="168.7"/>
	<line class="st0" x1="469.3" y1="205" x2="464.2" y2="210.1"/>
	<line class="st0" x1="497.8" y1="176.6" x2="476" y2="198.3"/>
	<line class="st0" x1="475.3" y1="180" x2="463.2" y2="192.1"/>
	<line class="st0" x1="497.8" y1="157.6" x2="482.2" y2="173.1"/>
	<line class="st0" x1="467.3" y1="169.1" x2="463.2" y2="173.1"/>
	<line class="st0" x1="497.8" y1="138.6" x2="474" y2="162.3"/>
	<line class="st0" x1="337.7" y1="191.1" x2="357.3" y2="171.5"/>
	<line class="st0" x1="350.1" y1="197.8" x2="364.2" y2="183.6"/>
	<line class="st0" x1="337.7" y1="210.1" x2="343.2" y2="204.7"/>
	<line class="st0" x1="363.8" y1="203.1" x2="371" y2="195.8"/>
	<line class="st0" x1="354.5" y1="212.3" x2="357.6" y2="209.2"/>
	<line class="st0" x1="429.2" y1="131.3" x2="444.4" y2="116.1"/>
	<line class="st0" x1="456.1" y1="123.4" x2="461.4" y2="118.1"/>
	<line class="st0" x1="435.9" y1="143.6" x2="449.9" y2="129.6"/>
	<line class="st0" x1="453.4" y1="145.6" x2="461.4" y2="137.1"/>
	<line class="st0" x1="442.5" y1="156.9" x2="446.9" y2="152.3"/>
	<line class="st0" x1="329.3" y1="636.2" x2="326.7" y2="645.8"/>
	<line class="st0" x1="315.3" y1="626.8" x2="317.3" y2="647.2"/>
	<line class="st0" x1="304.3" y1="634.8" x2="308.3" y2="645.8"/>
	<line class="st0" x1="473.5" y1="658.5" x2="470.9" y2="668.1"/>
	<line class="st0" x1="459.5" y1="649.1" x2="461.5" y2="669.5"/>
	<line class="st0" x1="448.5" y1="657.1" x2="452.5" y2="668.1"/>
	<line class="st0" x1="292.4" y1="661.4" x2="290.1" y2="667.4"/>
	<line class="st0" x1="280.4" y1="655.3" x2="281.7" y2="666.4"/>
	<line class="st0" x1="343.6" y1="662.4" x2="345.9" y2="668.4"/>
	<line class="st0" x1="356.6" y1="657.3" x2="354.2" y2="670.4"/>
	<line class="st0" x1="527.8" y1="669.1" x2="525.1" y2="678.7"/>
	<line class="st0" x1="515.8" y1="662.7" x2="515.8" y2="680.1"/>
	<line class="st0" x1="502.8" y1="668.7" x2="506.8" y2="678.7"/>
	<line class="st0" x1="539.3" y1="673.3" x2="535" y2="679.4"/>
	<line class="st0" x1="318.8" y1="686.5" x2="316.2" y2="696.2"/>
	<line class="st0" x1="306.8" y1="680.2" x2="306.8" y2="697.5"/>
	<line class="st0" x1="293.8" y1="686.2" x2="297.8" y2="696.2"/>
	<line class="st0" x1="330.3" y1="690.8" x2="326" y2="696.9"/>
	<line class="st0" x1="479.4" y1="629.7" x2="481.7" y2="635.7"/>
	<line class="st0" x1="492.4" y1="625.6" x2="491" y2="636.7"/>
	<line class="st0" x1="470.9" y1="690.9" x2="473.2" y2="696.9"/>
	<line class="st0" x1="483.9" y1="686.8" x2="482.5" y2="697.9"/>
	<polyline class="st0" points="358.4,702.9 367.4,685.9 432.6,685.9 441.6,702.9 	"/>
	<line class="st0" x1="350" y1="703.1" x2="450" y2="703.1"/>
	<path class="st0" d="M359,703.8c9.8,10.2,24.5,16.7,41,16.7c16.5,0,31.3-6.5,41-16.7"/>
	<path class="st0" d="M163.7,371.8c5.8-5.2,9.5-12.8,9.5-21.2c0-15.7-12.8-28.5-28.5-28.5c-12,0-22.3,7.4-26.5,18
		c-1.2-0.2-2.4-0.3-3.6-0.3c-12.1,0-21.8,9.8-21.8,21.8c0,4.6,1.4,8.8,3.8,12.3h41.6"/>
	<polyline class="st0" points="125.6,283.2 113.3,283.2 113.3,308.5 138.6,308.5 138.6,293.2 	"/>
	<path class="st0" d="M166.8,193.2c3.3-1.8,7.1-2.8,11.1-2.8c9.8,0,18.3,6.1,21.7,14.7c1-0.2,1.9-0.2,2.9-0.2
		c9.9,0,17.9,8,17.9,17.9c0,3.8-1.2,7.2-3.1,10.1h-20"/>
	<path class="st0" d="M284.1,139.9c-3.4,0-6.7,0.7-9.7,1.9c-4.6-9.7-14.4-16.3-25.8-16.3c-12,0-22.3,7.4-26.5,18
		c-1.2-0.2-2.4-0.3-3.6-0.3c-12.1,0-21.8,9.8-21.8,21.8c0,4.6,1.4,8.8,3.8,12.3h3.6h56.5h23"/>
	<path class="st0" d="M283.5,188.5c-6.3,3.1-11.3,8.5-13.9,15.1c-1.2-0.2-2.4-0.3-3.6-0.3c-12.1,0-21.8,9.8-21.8,21.8
		c0,4.6,1.4,8.8,3.8,12.3h64.4c5-3.5,8.9-8.7,10.8-14.7"/>
	<line class="st0" x1="432.6" y1="237.7" x2="429" y2="280.7"/>
	<line class="st0" x1="371" y1="280.7" x2="367.4" y2="237.7"/>
	<path class="st0" d="M369.1,258.1c-1.4-0.2-2.9-0.3-4.4-0.3c-12,0-22.3,7.4-26.5,18c-1.2-0.2-2.4-0.3-3.6-0.3
		c-12.1,0-21.8,9.8-21.8,21.8c0,1.4,0.1,2.7,0.4,4"/>
	<path class="st0" d="M482.3,300c0.8-2.5,1.2-5.2,1.2-8c0-14.4-11.7-26.1-26.1-26.1c-3.4,0-6.7,0.7-9.7,1.9
		c-3.3-6.9-9.2-12.3-16.5-14.8"/>
	<path class="st0" d="M516.5,125.8c11.1,0.8,20.5,8,24.4,17.9c1.2-0.2,2.4-0.3,3.6-0.3c12.1,0,21.8,9.8,21.8,21.8
		c0,4.6-1.4,8.8-3.8,12.3H516"/>
	<polyline class="st0" points="522.7,543 598.5,618.8 611,676.9 552.9,664.4 484.5,596 	"/>
	<line class="st0" x1="263.3" y1="283.5" x2="287.6" y2="307.9"/>
	<line class="st0" x1="252.2" y1="363.7" x2="217.7" y2="329.1"/>
	<polyline class="st0" points="133.7,455.4 133.7,388.5 168.3,388.5 168.3,487.4 	"/>
	<line class="st0" x1="536.7" y1="283.5" x2="512.4" y2="307.9"/>
	<line class="st0" x1="547.8" y1="363.7" x2="582.3" y2="329.1"/>
	<line class="st0" x1="537.4" y1="328.5" x2="550" y2="315.9"/>
	<line class="st0" x1="189" y1="676.9" x2="294.8" y2="571.1"/>
	<path class="st0" d="M630.7,201.9c-2.3-0.7-4.8-1-7.3-1c-3.4,0-6.7,0.7-9.7,1.9c-4.6-9.7-14.4-16.3-25.8-16.3
		c-12,0-22.3,7.4-26.5,18c-1.2-0.2-2.4-0.3-3.6-0.3c-12.1,0-21.8,9.8-21.8,21.8c0,4.6,1.4,8.8,3.8,12.3h3.6h52.9"/>
	<path class="st0" d="M636,371.5c-5.6-5.2-9.2-12.7-9.2-20.9c0-15.7,12.8-28.5,28.5-28.5c12,0,22.3,7.4,26.5,18
		c1.2-0.2,2.4-0.3,3.6-0.3c12.1,0,21.8,9.8,21.8,21.8c0,4.6-1.4,8.8-3.8,12.3h-41.7"/>
	<polyline class="st0" points="674.4,283.2 686.7,283.2 686.7,308.5 661.4,308.5 661.4,293.2 	"/>
	<polyline class="st0" points="277.3,543 201.5,618.8 189,676.9 247.1,664.4 315.3,596.2 	"/>
	<polyline class="st0" points="666.3,455.4 666.3,388.5 631.7,388.5 631.7,487.4 	"/>
</g>
</svg>
