<?xml version="1.0" encoding="utf-8"?>
<!-- Generator: Adobe Illustrator 20.0.0, SVG Export Plug-In . SVG Version: 6.00 Build 0)  -->
<svg version="1.1" id="Layer_1" xmlns="http://www.w3.org/2000/svg" xmlns:xlink="http://www.w3.org/1999/xlink" x="0px" y="0px"
	 viewBox="0 0 800 800" style="enable-background:new 0 0 800 800;" xml:space="preserve">
<style type="text/css">
	.st0{fill:none;stroke:#FFFFFF;stroke-width:6;stroke-linecap:round;stroke-linejoin:round;stroke-miterlimit:10;}
	.st1{fill:#FFFFFF;}
	
		.st2{clip-path:url(#XMLID_4_);fill:none;stroke:#FFFFFF;stroke-width:6;stroke-linecap:round;stroke-linejoin:round;stroke-miterlimit:10;}
	.st3{fill:none;stroke:#FFFFFF;stroke-width:6;stroke-miterlimit:10;}
	.st4{fill:none;stroke:#FFFFFF;stroke-width:6;stroke-linecap:round;stroke-miterlimit:10;}
	.st5{fill:none;stroke:#FFFFFF;stroke-width:6;stroke-linejoin:round;stroke-miterlimit:10;}
	
		.st6{clip-path:url(#XMLID_5_);fill:none;stroke:#FFFFFF;stroke-width:6;stroke-linecap:round;stroke-linejoin:round;stroke-miterlimit:10;}
</style>
<g>
	<path class="st0" d="M305.7,607.8c-11.9,13.9-15.6,32.5-11.2,49.3c9.5,2.5,19.5,2.5,28.9-0.2"/>
	<path class="st0" d="M326.3,649c-6.2,13.7-6.3,29.3-0.8,42.9c10.5,1.4,21.2-0.2,30.8-4.8"/>
	<path class="st0" d="M201.6,520.9c6.9,6.2,16.9,8.7,26.4,5.6c9.5-3.1,16.1-10.9,18.1-20c-6.9-6.2-16.9-8.7-26.4-5.6
		C210.2,504,203.5,511.8,201.6,520.9z"/>
	<path class="st0" d="M200.1,480.6c5.1,5.7,13,8.6,21,7c8-1.6,14.1-7.4,16.5-14.7c-5.1-5.7-13-8.6-21-7
		C208.6,467.5,202.5,473.3,200.1,480.6z"/>
	<path class="st0" d="M199,554.7c3.7,3.2,9,4.4,13.9,2.6c5-1.7,8.3-5.9,9.3-10.7c-3.7-3.2-9-4.4-13.9-2.6
		C203.3,545.6,199.9,549.8,199,554.7z"/>
	<path class="st0" d="M291.8,692.2c4.9,0,9.7-2.5,12.3-7c2.6-4.5,2.5-9.9,0.1-14.2c-4.9,0-9.7,2.5-12.3,7S289.4,688,291.8,692.2z"/>
	<path class="st0" d="M257.6,675.3c6.6,1.1,13.6-1.3,18.2-6.9c4.6-5.6,5.5-12.9,3.1-19.2c-6.6-1.1-13.6,1.3-18.2,6.9
		C256.2,661.7,255.2,669.1,257.6,675.3z"/>
	<path class="st0" d="M235.9,542.2c4,2.9,9.3,3.6,14.1,1.5c4.8-2.1,7.8-6.6,8.3-11.5c-4-2.9-9.3-3.6-14.1-1.5
		C239.4,532.8,236.4,537.3,235.9,542.2z"/>
	<path class="st0" d="M202.2,445.4c2.4,4.3,6.9,7.2,12.1,7.3s9.9-2.7,12.4-6.9c-2.4-4.3-6.9-7.2-12.1-7.3
		C209.4,438.5,204.8,441.2,202.2,445.4z"/>
	<path class="st0" d="M202.5,415.3c0.4,4.2,3,8.1,7.1,10c4.1,1.9,8.8,1.3,12.3-1.2c-0.4-4.2-3-8.1-7.1-10
		C210.6,412.2,206,412.8,202.5,415.3z"/>
	<path class="st0" d="M507.1,618.7c14.3,11.5,16.1,22,15.7,38.5c-9.5,2.5-19.5,2.5-28.9-0.2"/>
	<path class="st0" d="M491.1,649c6.2,13.7,6.3,29.3,0.8,42.9c-10.5,1.4-16.9-1.5-26.6-9.3"/>
	<path class="st0" d="M614.8,526.9c-6.9,6.2-16.9,8.7-26.4,5.6s-16.1-10.9-18.1-20c6.9-6.2,16.9-8.7,26.4-5.6
		C606.2,510,612.8,517.8,614.8,526.9z"/>
	<path class="st0" d="M616.3,486.6c-5.1,5.7-13,8.6-21,7c-8-1.6-14.1-7.4-16.5-14.7c5.1-5.7,13-8.6,21-7
		C607.8,473.5,613.9,479.3,616.3,486.6z"/>
	<path class="st0" d="M617.4,560.7c-3.7,3.2-9,4.4-13.9,2.6c-5-1.7-8.3-5.9-9.3-10.7c3.7-3.2,9-4.4,13.9-2.6
		C613.1,551.6,616.5,555.8,617.4,560.7z"/>
	<path class="st0" d="M522.6,693.2c-4.9,0-9.7-2.5-12.3-7c-2.6-4.5-2.5-9.9-0.1-14.2c4.9,0,9.7,2.5,12.3,7S525,689,522.6,693.2z"/>
	<path class="st0" d="M552.9,675.6c-4.8,0.8-9.9-1-13.2-5.1c-3.3-4.1-4-9.4-2.2-14c4.8-0.8,9.9,1,13.2,5.1
		C554,665.6,554.7,671,552.9,675.6z"/>
	<path class="st0" d="M580.5,548.2c-4,2.9-9.3,3.6-14.1,1.5c-4.8-2.1-7.8-6.6-8.3-11.5c4-2.9,9.3-3.6,14.1-1.5
		C576.9,538.8,580,543.3,580.5,548.2z"/>
	<path class="st0" d="M614.1,451.4c-2.4,4.3-6.9,7.2-12.1,7.3c-5.2,0.1-9.9-2.7-12.4-6.9c2.4-4.3,6.9-7.2,12.1-7.3
		C607,444.5,611.6,447.2,614.1,451.4z"/>
	<path class="st0" d="M613.9,421.3c-0.4,4.2-3,8.1-7.1,10c-4.1,1.9-8.8,1.3-12.3-1.2c0.4-4.2,3-8.1,7.1-10
		C605.8,418.2,610.4,418.8,613.9,421.3z"/>
	<path class="st0" d="M194.3,279.8c-2.1,3.7-2.1,8.4,0.2,12.3c2.3,3.9,6.5,6,10.8,6c2.1-3.7,2.1-8.4-0.2-12.3
		C202.7,281.8,198.5,279.7,194.3,279.8z"/>
	<path class="st0" d="M218.7,295.8c-2.6,5.3-2.4,11.8,1.1,17.1c3.5,5.3,9.5,7.9,15.4,7.5c2.6-5.3,2.4-11.8-1.1-17.1
		S224.6,295.4,218.7,295.8z"/>
	<path class="st0" d="M159.9,267.3c-2.6,5.3-2.4,11.8,1.1,17.1s9.5,7.9,15.4,7.5c2.6-5.3,2.4-11.8-1.1-17.1
		C171.8,269.5,165.8,266.9,159.9,267.3z"/>
	<path class="st0" d="M611.8,307.7c0.7,5.6-1.6,11.6-6.6,15.6c-5,3.9-11.3,4.8-16.7,2.9c-0.7-5.6,1.6-11.6,6.6-15.6
		C600.1,306.6,606.5,305.7,611.8,307.7z"/>
	<path class="st0" d="M663.7,275.7c0.8,5.6-1.3,11.4-6,15.1s-10.9,4.4-16.1,2.4c-0.8-5.6,1.3-11.4,6-15.1
		C652.3,274.3,658.5,273.6,663.7,275.7z"/>
	<path class="st0" d="M567.7,340.9c1.8,3.8,1.6,8.5-0.9,12.3c-2.6,3.8-6.9,5.7-11.1,5.3c-1.8-3.8-1.6-8.5,0.9-12.3
		C559.1,342.5,563.4,340.6,567.7,340.9z"/>
	<path class="st0" d="M224,150.2c-3.2,8.8-1.7,18.9,4.7,26.6s16.2,10.8,25.4,9.2c3.2-8.8,1.7-18.9-4.7-26.6
		C243,151.7,233.2,148.5,224,150.2z"/>
	<path class="st0" d="M263,122.2c-4.6,8.1-4.9,18.4,0.2,27c5.1,8.6,14.1,13.4,23.5,13.3c4.6-8.1,4.9-18.4-0.2-27
		C281.4,126.9,272.3,122.1,263,122.2z"/>
	<path class="st0" d="M194.2,177.3c-1.1,6.5,1.2,13.3,6.6,17.8c5.4,4.5,12.6,5.5,18.7,3.2c1.1-6.5-1.2-13.3-6.6-17.8
		C207.5,176,200.3,175,194.2,177.3z"/>
	<path class="st0" d="M299.3,102.1c-3.8,5.3-4.8,12.5-1.9,18.9c2.9,6.4,8.9,10.4,15.4,11.1c3.8-5.3,4.8-12.5,1.9-18.9
		C311.8,106.8,305.8,102.8,299.3,102.1z"/>
	<path class="st0" d="M230.6,115.8c-2.3,4.3-2.2,9.7,0.6,14.2s7.7,6.8,12.5,6.6c2.3-4.3,2.2-9.7-0.6-14.2
		C240.3,117.9,235.5,115.6,230.6,115.8z"/>
	<path class="st0" d="M192.8,144.5c-1.6,4.6-0.7,10,2.8,13.9c3.5,3.9,8.6,5.5,13.4,4.5c1.6-4.6,0.7-10-2.8-13.9
		S197.6,143.5,192.8,144.5z"/>
	<path class="st0" d="M271.1,88.9c-2.9,3.9-3.7,9.3-1.7,14.1c2.1,4.8,6.5,7.9,11.4,8.5c2.9-3.9,3.7-9.3,1.7-14.1
		C280.4,92.6,276,89.5,271.1,88.9z"/>
	<path class="st0" d="M312.5,74.8c-2.7,2.7-3.9,6.7-2.9,10.7c1.1,4,4.1,6.8,7.8,7.8c2.7-2.7,3.9-6.7,2.9-10.7
		C319.2,78.7,316.2,75.8,312.5,74.8z"/>
	<path class="st0" d="M168.4,189.5c-0.1,3.8,1.8,7.6,5.3,9.7c3.5,2.1,7.7,2.1,11.1,0.3c0.1-3.8-1.8-7.6-5.3-9.7
		C176,187.6,171.8,187.7,168.4,189.5z"/>
	<path class="st0" d="M364.5,77.5c-3.4,1.7-5.9,5.1-6.2,9.2c-0.3,4.1,1.7,7.8,4.9,9.9c3.4-1.7,5.9-5.1,6.2-9.2
		C369.7,83.4,367.7,79.7,364.5,77.5z"/>
	<path class="st0" d="M337.5,89.7c-3.6,3.3-5.4,8.4-4.2,13.5c1.2,5.1,5,8.9,9.6,10.4c3.6-3.3,5.4-8.4,4.2-13.5
		C346,95,342.2,91.2,337.5,89.7z"/>
	<path class="st0" d="M593.3,150.2c3.2,8.8,1.7,18.9-4.7,26.6c-6.4,7.6-16.2,10.8-25.4,9.2c-3.2-8.8-1.7-18.9,4.7-26.6
		C574.4,151.7,584.2,148.5,593.3,150.2z"/>
	<path class="st0" d="M554.4,122.2c4.6,8.1,4.9,18.4-0.2,27c-5.1,8.6-14.1,13.4-23.5,13.3c-4.6-8.1-4.9-18.4,0.2-27
		C536,126.9,545.1,122.1,554.4,122.2z"/>
	<path class="st0" d="M620.7,183.1c1.4,8.1-1.5,16.6-8.2,22.3c-6.8,5.6-15.7,6.8-23.4,4c-1.4-8.1,1.5-16.6,8.2-22.3
		C604.1,181.5,613,180.3,620.7,183.1z"/>
	<path class="st0" d="M518.1,102.1c3.8,5.3,4.8,12.5,1.9,18.9c-2.9,6.4-8.9,10.4-15.4,11.1c-3.8-5.3-4.8-12.5-1.9-18.9
		C505.6,106.8,511.6,102.8,518.1,102.1z"/>
	<path class="st0" d="M586.8,115.8c2.3,4.3,2.2,9.7-0.6,14.2s-7.7,6.8-12.5,6.6c-2.3-4.3-2.2-9.7,0.6-14.2
		C577.1,117.9,581.9,115.6,586.8,115.8z"/>
	<path class="st0" d="M627.6,147.5c1.6,4.6,0.7,10-2.8,13.9c-3.5,3.9-8.6,5.5-13.4,4.5c-1.6-4.6-0.7-10,2.8-13.9
		C617.6,148.1,622.8,146.5,627.6,147.5z"/>
	<path class="st0" d="M546.3,88.9c2.9,3.9,3.7,9.3,1.7,14.1c-2.1,4.8-6.5,7.9-11.4,8.5c-2.9-3.9-3.7-9.3-1.7-14.1
		C537,92.6,541.4,89.5,546.3,88.9z"/>
	<path class="st0" d="M504.9,74.8c2.7,2.7,3.9,6.7,2.9,10.7c-1.1,4-4.1,6.8-7.8,7.8c-2.7-2.7-3.9-6.7-2.9-10.7
		C498.1,78.7,501.2,75.8,504.9,74.8z"/>
	<path class="st0" d="M452.8,77.5c3.4,1.7,5.9,5.1,6.2,9.2c0.3,4.1-1.7,7.8-4.9,9.9c-3.4-1.7-5.9-5.1-6.2-9.2
		C447.7,83.4,449.7,79.7,452.8,77.5z"/>
	<path class="st0" d="M479.8,89.7c3.6,3.3,5.4,8.4,4.2,13.5c-1.2,5.1-5,8.9-9.6,10.4c-3.6-3.3-5.4-8.4-4.2-13.5
		C471.4,95,475.2,91.2,479.8,89.7z"/>
	<path class="st0" d="M241.1,360.7l-4.1-23.1l-35.1-8.2l1.5-14.2C154.7,290.6,102,294.5,102,294.5s16.5,50.1,57.8,85.8l12.5-6.8
		l21,29.3l22.9-5"/>
	<path class="st0" d="M238.7,364.2c-46.4-34.7-98.6-44.3-98.6-44.3s28.8,44.6,78.5,74.3"/>
	
		<ellipse transform="matrix(0.5561 -0.8311 0.8311 0.5561 -210.8722 330.4258)" class="st0" cx="203.9" cy="362.6" rx="7.6" ry="10.7"/>
	<polyline class="st0" points="250.9,367.3 276.5,371.7 259,383.2 260.2,400.3 243.9,405.7 240,426.3 226.1,404.3 	"/>
	
		<rect x="211.3" y="376.6" transform="matrix(0.5561 -0.8311 0.8311 0.5561 -214.2071 363.9352)" class="st0" width="44.6" height="11.8"/>
	<path class="st0" d="M478.6,546.4c0,0,5.9,43.8,83.3,107.7l45.7-21.4"/>
	<line class="st0" x1="510.4" y1="567.7" x2="500.4" y2="572.1"/>
	<line class="st0" x1="526.5" y1="578.5" x2="510.1" y2="585.7"/>
	<line class="st0" x1="542.6" y1="589.3" x2="519.7" y2="599.4"/>
	<line class="st0" x1="558.8" y1="600.1" x2="531.2" y2="612.2"/>
	<line class="st0" x1="574.9" y1="610.9" x2="543.8" y2="624.5"/>
	<line class="st0" x1="591" y1="621.7" x2="556.5" y2="636.8"/>
	<path class="st0" d="M478.6,546.4c0,0,42.7-11.3,131.4,36l-2.4,50.4"/>
	<line class="st0" x1="510.4" y1="567.7" x2="510.6" y2="556.9"/>
	<line class="st0" x1="526.5" y1="578.5" x2="526.9" y2="560.6"/>
	<line class="st0" x1="542.6" y1="589.3" x2="543.2" y2="564.3"/>
	<line class="st0" x1="558.8" y1="600.1" x2="559.4" y2="570"/>
	<line class="st0" x1="574.9" y1="610.9" x2="575.6" y2="576.9"/>
	<line class="st0" x1="591" y1="621.7" x2="591.8" y2="584.1"/>
	<line class="st0" x1="495.4" y1="557.7" x2="589" y2="620.4"/>
	<path class="st0" d="M576.6,364.4l4.8-22.9l35.3-7.2l7.9-19.2c49.4-23.2,92.9-12.8,92.9-12.8s-17.9,49.6-60.3,84.1l-12.3-7.2
		L623,407.7l-22.7-5.6"/>
	<path class="st0" d="M578.8,367.9c47.4-33.3,99.9-41.4,99.9-41.4s-30.1,43.8-80.7,72"/>
	
		<ellipse transform="matrix(0.847 -0.5317 0.5317 0.847 -101.4064 382.4878)" class="st0" cx="613.7" cy="367.4" rx="10.7" ry="7.6"/>
	<polyline class="st0" points="566.5,370.7 540.9,374.3 558,386.3 556.3,403.4 572.4,409.3 575.8,429.9 590.2,408.4 	"/>
	
		<rect x="561.1" y="380.5" transform="matrix(-0.5317 -0.847 0.847 -0.5317 566.3026 1085.9087)" class="st0" width="44.6" height="11.8"/>
	<path class="st0" d="M333.7,543.1c0,0-7.2,43.6-86.5,105.2l-45-22.7"/>
	<line class="st0" x1="301.3" y1="563.5" x2="311.2" y2="568.1"/>
	<line class="st0" x1="284.9" y1="573.8" x2="301.1" y2="581.5"/>
	<line class="st0" x1="268.5" y1="584.1" x2="291.1" y2="594.8"/>
	<line class="st0" x1="252" y1="594.4" x2="279.2" y2="607.3"/>
	<line class="st0" x1="235.6" y1="604.7" x2="266.3" y2="619.3"/>
	<line class="st0" x1="219.2" y1="615" x2="253.2" y2="631.2"/>
	<path class="st0" d="M333.7,543.1c0,0-42.4-12.5-132.4,32.2l0.9,50.4"/>
	<line class="st0" x1="301.3" y1="563.5" x2="301.4" y2="552.6"/>
	<line class="st0" x1="284.9" y1="573.8" x2="285" y2="555.8"/>
	<line class="st0" x1="268.5" y1="584.1" x2="268.6" y2="559.1"/>
	<line class="st0" x1="252" y1="594.4" x2="252.2" y2="564.3"/>
	<line class="st0" x1="235.6" y1="604.7" x2="235.8" y2="570.7"/>
	<line class="st0" x1="219.2" y1="615" x2="219.4" y2="577.4"/>
	<line class="st0" x1="316.6" y1="553.8" x2="221.2" y2="613.8"/>
	<path class="st0" d="M386.7,444.7c0.4,2.4,1.2,4.7,1.1,7.2c-0.6,17.1-12.1,31.3-27.6,36c-2,0.6-4.1,1.1-6.3,1.4
		c1.4,2.3,2.7,4.7,3.9,7.2c8,16.2,12.3,34.6,11.6,54c-0.5,14.4-3.6,28.2-8.9,40.7c7.3,23.2,19.4,44.4,35.2,62.2
		c-7.5-20.4-11.3-42.5-10.6-65.5c1.1-32.6,11.1-62.8,27.6-88.3c-5.3-6.9-8.4-15.6-8.1-25c0.4-10.8,5.1-20.5,12.4-27.3"/>
	<path class="st0" d="M395.7,653.4c20.9,23.7,48.1,41.7,79.2,51.2c-34.9-32.9-56.1-80-54.4-131.8c0.7-21,5.1-41.1,12.6-59.5
		c3.6-8.7,7.8-17.1,12.7-25.1c-5.6-3.2-10.3-7.8-13.7-13.3c-3.9-6.3-9.3-17.9-3.9-29.7"/>
	<path class="st0" d="M487.3,345.2c2-1.9,4.3-3.7,6.8-5.1c14.7-8.7,32.9-6.7,45.2,3.9c1.6,1.4,3.1,2.9,4.5,4.5
		c1.2-2.4,2.6-4.8,4-7.1c9.4-15.5,22.6-29,39.3-38.9c12.4-7.4,25.7-12.1,39.1-14.4c15.6-18.7,26.9-40.2,33.6-63.1
		c-13.1,17.3-29.7,32.4-49.6,44.2c-28.1,16.6-58.9,24.4-89.3,24.2c-3,8.2-8.7,15.5-16.8,20.3c-9.4,5.5-20.1,6.7-29.8,4.2"/>
	<path class="st0" d="M351.6,308.4c-2.3-0.8-4.6-1.8-6.8-3.1c-14.8-8.5-21.9-25.4-18.8-41.3c0.4-2.1,1-4.1,1.7-6.2
		c-2.7,0.1-5.4,0.1-8.2,0c-18.1-0.6-36.3-5.4-53.2-15.1c-12.5-7.2-23.2-16.4-31.7-27c-23.9-4.4-48.3-3.7-71.5,1.8
		c21.5,2.9,42.8,10,62.8,21.5c28.3,16.3,50.2,39.3,65,65.9c8.6-1.4,17.7,0,25.9,4.6c9,5.2,15.1,13.4,17.9,22.6"/>
	<path class="st0" d="M163.2,217.6c-30.7,7.3-59.4,22.9-82.4,45.9c45.4-15.4,97-12,141.9,13.8c18.3,10.5,33.9,23.8,46.6,39.1
		c6.1,7.2,11.5,14.9,16.2,23c5.5-3.4,11.7-5.4,18.1-5.9c7.4-0.5,21.3,0.4,26.9,10.1"/>
	<path class="st0" d="M334.4,210.5c-0.7-15.7,1.3-34.5,7.9-56.7"/>
	<path class="st0" d="M378.1,239.7l-10.7,39.8c0,0-30.6-18.9-32.9-69"/>
	<path class="st0" d="M391.4,188.7c0,0-22.8-6.7-24-25.9"/>
	<line class="st0" x1="348.3" y1="255.4" x2="358.5" y2="238.3"/>
	<line class="st0" x1="338.3" y1="234" x2="348.3" y2="221.9"/>
	<line class="st0" x1="371.1" y1="227.9" x2="379.4" y2="207.5"/>
	<line class="st0" x1="358.5" y1="212.6" x2="367.3" y2="200"/>
	<path class="st0" d="M439.3,239.7l10.7,39.8c0,0,52.7-32.7,25-125.7"/>
	<polyline class="st0" points="422.6,172.5 499.4,144.5 408.7,79.5 408.7,155.5 	"/>
	<path class="st0" d="M391.4,188.7c0,13.7,6.8,25.9,17.3,33.2c10.5-7.3,17.3-19.4,17.3-33.2c0-13.7-6.8-25.9-17.3-33.2
		C398.2,162.8,391.4,175,391.4,188.7z"/>
	<line class="st0" x1="408.7" y1="155.5" x2="408.7" y2="221.9"/>
	<path class="st0" d="M426,188.7c0,0,22.8-6.7,24-25.9"/>
	<line class="st0" x1="469" y1="255.4" x2="458.9" y2="238.3"/>
	<line class="st0" x1="479" y1="234" x2="469" y2="221.9"/>
	<line class="st0" x1="446.3" y1="227.9" x2="438" y2="207.5"/>
	<line class="st0" x1="458.9" y1="212.6" x2="450" y2="200"/>
	
		<ellipse transform="matrix(3.270316e-02 -0.9995 0.9995 3.270316e-02 29.2315 762.7802)" class="st0" cx="408.7" cy="366.3" rx="81.4" ry="81.4"/>
	<line class="st0" x1="159.9" y1="380.3" x2="159.9" y2="559.8"/>
	<polygon class="st0" points="134.7,534.8 159.9,559.8 159.9,415.7 134.7,440.7 	"/>
	<line class="st0" x1="159.9" y1="435.7" x2="134.7" y2="460.7"/>
	<line class="st0" x1="159.9" y1="453.7" x2="134.7" y2="478.7"/>
	<line class="st0" x1="159.9" y1="491.7" x2="134.7" y2="516.7"/>
	<polygon class="st0" points="185,534.8 159.9,559.8 159.9,415.7 185,440.7 	"/>
	<line class="st0" x1="159.9" y1="453.7" x2="185" y2="478.7"/>
	<line class="st0" x1="159.9" y1="491.7" x2="185" y2="516.7"/>
	<line class="st0" x1="159.9" y1="510.7" x2="185" y2="534.8"/>
	<line class="st0" x1="112" y1="317.4" x2="112" y2="441.8"/>
	<polygon class="st0" points="97.5,427.4 112,441.8 112,358.8 97.5,373.2 	"/>
	<polygon class="st0" points="126.5,427.4 112,441.8 112,358.8 126.5,373.2 	"/>
	<line class="st0" x1="656.8" y1="386.3" x2="656.8" y2="559.8"/>
	<polygon class="st0" points="682,534.8 656.8,559.8 656.8,415.7 682,440.7 	"/>
	<line class="st0" x1="656.8" y1="435.7" x2="682" y2="460.7"/>
	<line class="st0" x1="656.8" y1="453.7" x2="682" y2="478.7"/>
	<line class="st0" x1="656.8" y1="491.7" x2="682" y2="516.7"/>
	<polygon class="st0" points="631.7,534.8 656.8,559.8 656.8,415.7 631.7,440.7 	"/>
	<line class="st0" x1="656.8" y1="453.7" x2="631.7" y2="478.7"/>
	<line class="st0" x1="656.8" y1="491.7" x2="631.7" y2="516.7"/>
	<line class="st0" x1="656.8" y1="510.7" x2="631.7" y2="534.8"/>
	<line class="st0" x1="704.7" y1="328.7" x2="704.7" y2="441.8"/>
	<polygon class="st0" points="719.2,427.4 704.7,441.8 704.7,358.8 719.2,373.2 	"/>
	<polygon class="st0" points="690.2,427.4 704.7,441.8 704.7,358.8 690.2,373.2 	"/>
	<path class="st0" d="M426.6,389.6c-25.9-0.8-46.2-22.5-45.4-48.5c0.5-16.6,9.6-30.9,22.9-38.8c-32.3,2.3-58.3,28.7-59.4,61.8
		c-1.2,35.4,26.6,65,61.9,66.1c35.4,1.2,65-26.6,66.1-61.9c0.1-3.3,0-6.6-0.4-9.8C465.6,377.2,447.5,390.3,426.6,389.6z"/>
	
		<ellipse transform="matrix(3.270316e-02 -0.9995 0.9995 3.270316e-02 76.6818 759.6295)" class="st0" cx="430.8" cy="340.2" rx="33.2" ry="33.2"/>
	<polyline class="st0" points="388.5,287.5 408.7,236 428.8,287.5 	"/>
	<path class="st0" d="M298.8,212.6c-13.8-11.7-32.1-15.4-48.7-11.1c-2.8,10.1-2.2,20.6,0.9,30.6"/>
	<path class="st0" d="M319.8,198.5c-11.6-15.1-29.8-22.5-47.7-21c-3.3,7-5,14.6-5.1,22.3"/>
	<path class="st0" d="M338.3,172.1c-8.9-8.3-20.4-13.3-32.4-14.3c-4.8,6.9-7.9,14.9-9.1,23.3"/>
	<path class="st0" d="M396.2,207.8l-7.6,38c0,0-52.5-34.3-46.2-92"/>
	<path class="st0" d="M421.2,207.8l7.6,38c0,0,52.5-34.3,46.2-92"/>
	<polyline class="st0" points="394.8,172.5 318,144.5 408.7,79.5 408.7,155.5 	"/>
	<path class="st0" d="M479.6,171.6c8.9-8,20.1-12.8,31.9-13.8c4.8,7,7.9,14.9,9.2,23.3"/>
	<path class="st0" d="M497.6,198.4c11.6-15.1,29.8-22.4,47.7-20.9c3.1,6.7,4.9,14,5.1,21.3"/>
	<path class="st0" d="M521.7,213.3c14-13,33.2-17.3,50.6-12.8c2.1,7.6,2.5,15.5,1.3,23.3"/>
	<path class="st0" d="M533.7,240.8c2.1-2.2,4.4-4.2,6.9-6.1c16.1-12,36.7-13.8,54-6.4c0.3,2.3,0.4,4.7,0.4,7"/>
	<path class="st0" d="M433.5,685.6c-14.4,11.3-24.8,15.7-24.8,15.7"/>
	<line class="st0" x1="517.5" y1="334.8" x2="517.5" y2="413.5"/>
	<polyline class="st0" points="484.9,211.8 517.6,233.5 517.5,269.6 	"/>
	<path class="st0" d="M452,695.8c-23.7,21.5-43.3,29.4-43.3,29.4"/>
	<path class="st0" d="M512.4,606.1c-14.5,37.2-34.2,63.8-52.7,82.3"/>
	<path class="st0" d="M533.6,432.4l0,38.9c0.7,29.2-1.5,55.3-5.6,78.6"/>
	<line class="st0" x1="533.7" y1="340.2" x2="533.6" y2="403.3"/>
	<polyline class="st0" points="483.2,188.6 533.7,222.9 533.7,266.2 	"/>
	<path class="st0" d="M659.8,225c8.8-30.3,3.2-55-5.5-86.3c-8.9,47.2-31.3,82.4-75.8,108.8c-18.1,10.7-37.4,17.8-56.9,21.4
		c-9.3,1.7-18.6,2.6-28,2.8c0.3,6.5-1,12.9-3.8,18.7c-3.2,6.7-8.4,12.6-15.3,16.7c-2.2,1.3-4.5,2.4-6.8,3.2"/>
	<path class="st0" d="M533.7,486.2c13.2,8.8,21.6,22.8,23.7,38c-7.9,6.1-17.3,9.9-27.2,11"/>
	<path class="st0" d="M533.8,458.4c18.4,5,32.2,19.1,37.5,36.3c-5.3,5.7-11.7,10.2-18.8,13.2"/>
	<path class="st0" d="M540.4,427.6c16,3.6,29.2,14.3,36.4,28.4c-4.6,7-10.8,12.9-18,17.2"/>
	<polyline class="st0" points="283.8,250.9 283.8,222.9 334.3,188.6 	"/>
	<line class="st0" x1="283.8" y1="401.5" x2="283.8" y2="336.5"/>
	<polyline class="st0" points="299.9,255.4 299.9,233.5 334.4,210.5 	"/>
	<line class="st0" x1="299.9" y1="412.4" x2="299.9" y2="333.9"/>
	<path class="st0" d="M265.2,311.6c-5,1.3-9.8,3.3-14.3,5.9c0.3,18.8,10.2,36.9,27.8,46.7c1.7,0.9,3.4,1.8,5.1,2.5"/>
	<path class="st0" d="M283.7,479.5c-13.8,8.7-22.6,23-24.7,38.6c7.9,6.1,17.5,10,27.4,11"/>
	<path class="st0" d="M283.8,452.1c-19,4.7-33.3,19-38.8,36.6c5.3,5.7,11.7,10.2,18.8,13.2"/>
	<path class="st0" d="M272,422.7c-14.2,4.4-25.8,14.4-32.4,27.3c4.6,7.1,10.8,13,18.1,17.3"/>
	<line class="st0" x1="445.2" y1="487.4" x2="570.4" y2="408.7"/>
	<line class="st0" x1="326.4" y1="561.9" x2="369" y2="535.2"/>
	<polyline class="st0" points="201.5,611.9 181.6,624.4 194.4,644.8 214.8,632 	"/>
	<path class="st0" d="M288.5,544.4c-3.5-21.8-5.3-46.1-4.7-73v-40.7"/>
	<path class="st0" d="M408.7,725.2c0,0-72.3-28.9-106.9-127.7"/>
	<path class="st0" d="M305.1,542.1c-3.8-21.8-5.8-46.4-5.2-74.1v-26.1"/>
	<path class="st0" d="M408.7,701.3c0,0-64.3-27.2-94-120.3"/>
	<polyline class="st0" points="608.2,618.7 628.3,632.1 614.9,652.2 594.5,638.5 	"/>
	<line class="st0" x1="437.4" y1="504.4" x2="498.5" y2="545.3"/>
	<line class="st0" x1="259.1" y1="385.1" x2="383.7" y2="468.4"/>
	<path class="st0" d="M499.4,589c-14,39.3-33.4,66.1-51.2,83.6"/>
	<path class="st0" d="M517.5,442l0,26c0.6,29.5-1.7,55.6-6,78.5"/>
	<line class="st0" x1="363.5" y1="510.2" x2="313.5" y2="541.6"/>
	<line class="st0" x1="557.6" y1="388.3" x2="428.9" y2="469.1"/>
	<line class="st0" x1="366.1" y1="485.6" x2="245.7" y2="405.1"/>
	<line class="st0" x1="485.4" y1="565.5" x2="429" y2="527.8"/>
</g>
</svg>
