<?xml version="1.0" encoding="utf-8"?>
<!-- Generator: Adobe Illustrator 20.0.0, SVG Export Plug-In . SVG Version: 6.00 Build 0)  -->
<svg version="1.1" id="Layer_1" xmlns="http://www.w3.org/2000/svg" xmlns:xlink="http://www.w3.org/1999/xlink" x="0px" y="0px"
	 viewBox="0 0 800 800" style="enable-background:new 0 0 800 800;" xml:space="preserve">
<style type="text/css">
	.st0{fill:none;stroke:#FFFFFF;stroke-width:6;stroke-linecap:round;stroke-linejoin:round;stroke-miterlimit:10;}
	.st1{fill:#FFFFFF;}
	
		.st2{clip-path:url(#XMLID_4_);fill:none;stroke:#FFFFFF;stroke-width:6;stroke-linecap:round;stroke-linejoin:round;stroke-miterlimit:10;}
	.st3{fill:none;stroke:#FFFFFF;stroke-width:6;stroke-miterlimit:10;}
	.st4{fill:none;stroke:#FFFFFF;stroke-width:6;stroke-linecap:round;stroke-miterlimit:10;}
	.st5{fill:none;stroke:#FFFFFF;stroke-width:6;stroke-linejoin:round;stroke-miterlimit:10;}
	
		.st6{clip-path:url(#XMLID_5_);fill:none;stroke:#FFFFFF;stroke-width:6;stroke-linecap:round;stroke-linejoin:round;stroke-miterlimit:10;}
</style>
<g>
	<path class="st0" d="M570.4,158.5c0,0-14.4,16.3-8.6,26.7c1.6,3.1,4.9,5.3,8.6,5.3s7-2.1,8.6-5.3
		C584.9,174.8,570.4,158.5,570.4,158.5z"/>
	<path class="st3" d="M331.1,611.3C245.6,582.6,184,501.7,184,406.5c0-119.3,96.7-216,216-216s216,96.7,216,216
		c0,95.5-61.9,176.5-147.8,205"/>
	<path class="st3" d="M335,545.6c-52.3-24.5-88.5-77.6-88.5-139.1c0-84.8,68.7-153.5,153.5-153.5s153.5,68.7,153.5,153.5
		c0,61.6-36.3,114.8-88.7,139.2"/>
	<path class="st3" d="M333.4,597.3C254.6,569.8,198,494.7,198,406.5c0-111.6,90.4-202,202-202s202,90.4,202,202
		c0,88.5-56.9,163.7-136.2,191"/>
	<circle class="st3" cx="400" cy="229.1" r="10.9"/>
	
		<ellipse transform="matrix(0.3422 -0.9396 0.9396 0.3422 77.7212 590.6346)" class="st3" cx="460.7" cy="239.8" rx="10.9" ry="10.9"/>
	
		<ellipse transform="matrix(0.6431 -0.7658 0.7658 0.6431 -23.7802 490.2704)" class="st3" cx="514.1" cy="270.6" rx="10.9" ry="10.9"/>
	
		<ellipse transform="matrix(0.8663 -0.4995 0.4995 0.8663 -84.767 319.0361)" class="st3" cx="553.7" cy="317.9" rx="10.9" ry="10.9"/>
	
		<ellipse transform="matrix(0.985 -0.1728 0.1728 0.985 -56.3062 104.9839)" class="st3" cx="574.7" cy="375.8" rx="10.9" ry="10.9"/>
	
		<ellipse transform="matrix(0.1747 -0.9846 0.9846 0.1747 43.5315 926.9131)" class="st3" cx="574.7" cy="437.5" rx="10.9" ry="10.9"/>
	
		<ellipse transform="matrix(0.5011 -0.8654 0.8654 0.5011 -152.5527 726.1807)" class="st3" cx="553.5" cy="495.4" rx="10.9" ry="10.9"/>
	
		<ellipse transform="matrix(0.767 -0.6417 0.6417 0.767 -228.4159 456.1373)" class="st3" cx="513.8" cy="542.6" rx="10.9" ry="10.9"/>
	
		<ellipse transform="matrix(0.6445 -0.7646 0.7646 0.6445 -312.9638 411.1046)" class="st3" cx="285.7" cy="542.1" rx="10.9" ry="10.9"/>
	
		<ellipse transform="matrix(0.8673 -0.4978 0.4978 0.8673 -213.6646 188.2081)" class="st3" cx="246.1" cy="494.8" rx="10.9" ry="10.9"/>
	
		<ellipse transform="matrix(0.9853 -0.171 0.171 0.9853 -71.3694 44.9354)" class="st3" cx="225.2" cy="436.8" rx="10.9" ry="10.9"/>
	
		<ellipse transform="matrix(0.1765 -0.9843 0.9843 0.1765 -183.6974 530.7924)" class="st3" cx="225.4" cy="375.2" rx="10.9" ry="10.9"/>
	
		<ellipse transform="matrix(0.5027 -0.8645 0.8645 0.5027 -151.6539 371.0063)" class="st3" cx="246.6" cy="317.3" rx="10.9" ry="10.9"/>
	
		<ellipse transform="matrix(0.7682 -0.6402 0.6402 0.7682 -106.6049 246.0119)" class="st3" cx="286.4" cy="270.2" rx="10.9" ry="10.9"/>
	
		<ellipse transform="matrix(0.9409 -0.3387 0.3387 0.9409 -61.0518 129.2806)" class="st3" cx="339.9" cy="239.6" rx="10.9" ry="10.9"/>
	<g>
		
			<ellipse transform="matrix(0.7666 -0.6421 0.6421 0.7666 -62.7779 412.4646)" class="st3" cx="536" cy="292.6" rx="3.1" ry="3.1"/>
		<ellipse transform="matrix(0.9401 -0.341 0.341 0.9401 -84.0193 214.0102)" class="st3" cx="566.8" cy="346" rx="3.1" ry="3.1"/>
		
			<ellipse transform="matrix(1.291115e-03 -1 1 1.291115e-03 169.9255 983.6146)" class="st3" cx="577.4" cy="406.7" rx="3.1" ry="3.1"/>
		
			<ellipse transform="matrix(0.3434 -0.9392 0.9392 0.3434 -66.9793 839.0552)" class="st3" cx="566.6" cy="467.4" rx="3.1" ry="3.1"/>
		
			<ellipse transform="matrix(0.6441 -0.7649 0.7649 0.6441 -207.7023 595.1298)" class="st3" cx="535.7" cy="520.8" rx="3.1" ry="3.1"/>
		
			<ellipse transform="matrix(0.867 -0.4983 0.4983 0.867 -214.259 317.9232)" class="st3" cx="488.4" cy="560.3" rx="3.1" ry="3.1"/>
		
			<ellipse transform="matrix(0.5022 -0.8647 0.8647 0.5022 -329.4207 547.5808)" class="st3" cx="310.9" cy="559.9" rx="3.1" ry="3.1"/>
		
			<ellipse transform="matrix(0.7678 -0.6407 0.6407 0.7678 -272.0092 289.7763)" class="st3" cx="263.8" cy="520.2" rx="3.1" ry="3.1"/>
		
			<ellipse transform="matrix(0.9407 -0.3392 0.3392 0.9407 -144.493 106.7533)" class="st3" cx="233.1" cy="466.7" rx="3.1" ry="3.1"/>
		
			<ellipse transform="matrix(3.173142e-03 -1 1 3.173142e-03 -184.0527 627.2479)" class="st3" cx="222.6" cy="405.9" rx="3.1" ry="3.1"/>
		
			<ellipse transform="matrix(0.3452 -0.9385 0.9385 0.3452 -171.1468 445.2268)" class="st3" cx="233.5" cy="345.3" rx="3.1" ry="3.1"/>
		
			<ellipse transform="matrix(0.6455 -0.7637 0.7637 0.6455 -129.2379 305.512)" class="st3" cx="264.5" cy="292" rx="3.1" ry="3.1"/>
		
			<ellipse transform="matrix(0.8679 -0.4967 0.4967 0.8679 -84.2403 188.2674)" class="st3" cx="311.9" cy="252.5" rx="3.2" ry="3.2"/>
		
			<ellipse transform="matrix(0.9855 -0.1697 0.1697 0.9855 -33.9495 66.1305)" class="st3" cx="369.9" cy="231.7" rx="3.1" ry="3.1"/>
		
			<ellipse transform="matrix(0.9855 -0.1697 0.1697 0.9855 -33.0649 76.4806)" class="st3" cx="430.9" cy="231.7" rx="3.1" ry="3.1"/>
		<ellipse transform="matrix(0.9855 -0.1697 0.1697 0.9855 -35.657 86.7552)" class="st3" cx="489.7" cy="252" rx="3.1" ry="3.1"/>
	</g>
	<line class="st4" x1="264.5" y1="334.2" x2="264.5" y2="478.8"/>
	<line class="st4" x1="283.9" y1="306" x2="283.9" y2="507"/>
	<line class="st4" x1="303.2" y1="421.5" x2="303.2" y2="523"/>
	<line class="st4" x1="303.2" y1="287.3" x2="303.2" y2="386.5"/>
	<line class="st4" x1="322.6" y1="437.5" x2="322.6" y2="539.1"/>
	<line class="st4" x1="322.6" y1="273.9" x2="322.6" y2="362.5"/>
	<line class="st4" x1="341.9" y1="264" x2="341.9" y2="320.5"/>
	<line class="st4" x1="361.3" y1="257.9" x2="361.3" y2="323.5"/>
	<line class="st4" x1="380.6" y1="255.3" x2="380.6" y2="306.2"/>
	<line class="st4" x1="400" y1="452.2" x2="400" y2="542.1"/>
	<line class="st4" x1="400" y1="253" x2="400" y2="292"/>
	<line class="st4" x1="535.5" y1="335.2" x2="535.5" y2="477.7"/>
	<line class="st4" x1="516.1" y1="306.2" x2="516.1" y2="507"/>
	<line class="st4" x1="496.8" y1="421.5" x2="496.8" y2="526.4"/>
	<line class="st4" x1="496.8" y1="287.3" x2="496.8" y2="386.5"/>
	<line class="st4" x1="477.4" y1="437.5" x2="477.4" y2="539.1"/>
	<line class="st4" x1="477.4" y1="273.9" x2="477.4" y2="362.5"/>
	<line class="st4" x1="458.1" y1="264.3" x2="458.1" y2="320.5"/>
	<line class="st4" x1="438.7" y1="257.9" x2="438.7" y2="323.5"/>
	<line class="st4" x1="419.4" y1="254.2" x2="419.4" y2="306.2"/>
	<polyline class="st5" points="607.5,346 698.6,405.9 607.3,467.4 	"/>
	<line class="st5" x1="698.6" y1="405.9" x2="653" y2="406.4"/>
	<polyline class="st5" points="616.3,382.3 653,406.4 616.2,431.1 	"/>
	<polyline class="st5" points="192.5,346 101.4,405.9 192.7,467.4 	"/>
	<line class="st5" x1="101.4" y1="405.9" x2="147" y2="406.4"/>
	<polyline class="st5" points="183.7,382.3 147,406.4 183.8,431.1 	"/>
	<polyline class="st5" points="460.5,199 400.6,77.9 339.1,199.2 	"/>
	<line class="st5" x1="400.6" y1="77.9" x2="400.1" y2="140.5"/>
	<polyline class="st5" points="424.2,190.2 400.1,140.5 375.4,190.3 	"/>
	<polyline class="st5" points="201.2,491.1 171.2,543.9 231.8,542.1 	"/>
	<line class="st5" x1="171.2" y1="543.9" x2="214.9" y2="518"/>
	<polyline class="st5" points="598.8,491.1 628.8,543.9 568.2,542.1 	"/>
	<line class="st5" x1="628.8" y1="543.9" x2="585.1" y2="518"/>
	<g>
		<polygon class="st5" points="426.9,403.1 400,376.2 400,376.2 400,376.2 373.1,403.1 400,430 400,430 400,430 		"/>
		<path class="st5" d="M490.8,404.1l-29.4-31.4v-34h-32L400,309.3l-29.4,29.4h-32v34l-29.4,31.4l33.7,26.4l-0.3,33h17.7l21.5,49.5
			v-67.8c-13.6-5.9-28.3-24.5-28.3-44.1c0-24.5,21.9-44.4,46.4-44.4c24.5,0,46.4,19.9,46.4,44.4c0,19.6-14.7,38.2-28.3,44.1V513
			l21.5-49.5h17.7l-0.3-33L490.8,404.1z"/>
	</g>
	<g>
		<line class="st0" x1="422.6" y1="542.2" x2="376.7" y2="542.2"/>
		<polyline class="st0" points="425.7,675.1 475.2,651.4 464.8,591.8 		"/>
		<polyline class="st0" points="334.4,591.8 324,651.4 373.5,675.1 		"/>
		<polygon class="st0" points="377.5,543.6 350.2,492.1 334.7,532.4 334.4,591.8 		"/>
		<polyline class="st0" points="366.2,554.2 351.1,526.4 348.6,537.7 346.9,577.8 		"/>
		<polyline class="st0" points="424.4,592.5 442.3,592.5 449,640.2 420.4,657.4 		"/>
		<path class="st0" d="M422.1,633.3c15.2-4.4,12.6-24.9,12.6-24.9s-26.8,7-21,37.5l17.2,41.6l-17.2,25l-14.1-9.5l-14.1,9.5l-17.2-25
			l17.2-41.6c7.8-30.5-21-37.5-21-37.5s-2.6,20.4,12.6,24.9"/>
		<polyline class="st0" points="413.7,712.5 399.6,722.1 385.5,712.5 		"/>
		<polygon class="st0" points="421.7,543.6 449,492.1 464.5,532.4 464.8,591.8 		"/>
		<polyline class="st0" points="432.9,554.2 448,526.4 450.6,537.7 452.3,577.8 		"/>
		<polygon class="st0" points="399.6,696.2 386.4,682.5 399.6,676.3 412.8,682.5 		"/>
		<polyline class="st0" points="374.8,592.5 356.9,592.5 350.2,640.2 378.8,657.4 		"/>
	</g>
	<g>
		<path class="st0" d="M165.3,114.6c0,0,25.6-3.1,43.1,15"/>
		<path class="st5" d="M164.3,185.9c-8.3,19.9-37.4,17.3-41.8-1.8c-26.5,8.4-46.3,14.2-73.6,13.5l0,0.1l19.1,20.6
			c-11.2,19.7-11,54.3,11.5,78.5c3.3,3.5,6.4,7.1,10,10l-1,36.3l32.8-23.5l9.7,28.2l25.7-43.9l15.2,19.8l25.1-48
			c-22.3-2.7-22.5-28.6-6.4-38.8c3.6-2.3,7.3-4.2,11.2-4.6"/>
		<path class="st3" d="M235,110c-14.7-17.2-40.6-20.5-59.1-6.8l0,0c-18.5,13.6-23,39.4-10.9,58.5"/>
		<line class="st3" x1="277.6" y1="167.5" x2="250.5" y2="130.7"/>
		<line class="st3" x1="309.3" y1="210.4" x2="293" y2="188.3"/>
		<line class="st3" x1="579" y1="575.4" x2="560.8" y2="550.8"/>
		<path class="st3" d="M538,666.7c14.5,18.1,41.1,21.6,59.9,7.7l0,0c18.8-13.9,23.2-40.3,10.2-59.5"/>
		<line class="st3" x1="490.7" y1="602.6" x2="509" y2="627.5"/>
		<line class="st3" x1="222.9" y1="240.1" x2="238" y2="260.6"/>
		<line class="st3" x1="180.3" y1="182.5" x2="207.5" y2="219.3"/>
		<line class="st0" x1="278.9" y1="198.7" x2="292.6" y2="217.2"/>
		<line class="st0" x1="266.7" y1="207.7" x2="280.4" y2="226.3"/>
		<line class="st0" x1="549.4" y1="564.7" x2="565.1" y2="586.1"/>
		<line class="st0" x1="537.1" y1="573.8" x2="551.8" y2="593.7"/>
		<path class="st3" d="M227.6,204.5L206,220.4c-5.7,4.2-6.9,12.3-2.7,18.1l0,0c4.2,5.7,12.3,6.9,18.1,2.7l73.1-54
			c5.7-4.2,6.9-12.3,2.7-18.1l0,0c-4.2-5.7-12.3-6.9-18.1-2.7l-22,16.2"/>
		<path class="st0" d="M176,103.2c0,0,26.3-4.6,45,17.2"/>
		<path class="st0" d="M182.3,303.7l-24.7-31.3l-23.1,35.1l-4.3-22.8L104,307.9l0.1-19c-2.8-2.2-4.1-4.7-6.7-7.4
			c-17.2-18.5-15.8-50.8-7.3-65.8L73,196.4"/>
		<line class="st0" x1="194.2" y1="201.3" x2="147.5" y2="235.8"/>
		<line class="st0" x1="186.5" y1="190.8" x2="155.9" y2="213.5"/>
		<line class="st0" x1="202.1" y1="212" x2="163.5" y2="240.6"/>
		<polyline class="st5" points="517.6,651.6 529.4,679.8 541.7,661.1 558.1,664.8 562.2,646.8 579.2,649.1 582,632.2 600.4,633.5 
			601.7,616.8 623.2,610.5 599.7,591 		"/>
		<path class="st3" d="M522.9,649.3l73.1-54c5.7-4.2,6.9-12.3,2.7-18.1l0,0c-4.2-5.7-12.3-6.9-18.1-2.7l-73.1,54
			c-5.7,4.2-6.9,12.3-2.7,18.1l0,0C509.1,652.3,517.2,653.6,522.9,649.3z"/>
		<path class="st3" d="M230,145.9l22-16.2c5.7-4.2,6.9-12.3,2.7-18.1l0,0c-4.2-5.7-12.3-6.9-18.1-2.7l-73.1,54
			c-5.7,4.2-6.9,12.3-2.7,18.1l0,0c4.2,5.7,12.3,6.9,18.1,2.7l21.4-15.8"/>
		<circle class="st0" cx="228.7" cy="175.2" r="29.3"/>
		<polyline class="st0" points="232.8,158 219,175.2 238,175.2 224.7,192.5 		"/>
		<path class="st0" d="M297.2,169.1c20.2-3.1,31.6,3.4,31.6,3.4c1.7-17.5-4.6-38.9-18.7-57.7S277.4,83.9,260,80.6
			c0,0,3.3,12.6-5.4,31"/>
		<path class="st0" d="M312.4,165.7c-2.7-12.2-8.4-25-17.3-36.8c-9.6-12.9-21.4-22.6-33.4-28.5"/>
	</g>
	<g>
		<path class="st0" d="M634.7,114.6c0,0-25.6-3.1-43.1,15"/>
		<path class="st5" d="M635.7,185.9c8.3,19.9,37.4,17.3,41.8-1.8c26.5,8.4,46.3,14.2,73.6,13.5l0,0.1l-19.1,20.6
			c11.2,19.7,11,54.3-11.5,78.5c-3.3,3.5-6.4,7.1-10,10l1,36.3l-32.8-23.5l-9.7,28.2l-25.7-43.9l-15.2,19.8l-25.1-48
			c22.3-2.7,22.5-28.6,6.4-38.8c-3.6-2.3-7.3-4.2-11.2-4.6"/>
		<path class="st3" d="M565,110c14.7-17.2,40.6-20.5,59.1-6.8l0,0c18.5,13.6,23,39.4,10.9,58.5"/>
		<line class="st3" x1="522.4" y1="167.5" x2="549.5" y2="130.7"/>
		<line class="st3" x1="490.7" y1="210.4" x2="507" y2="188.3"/>
		<line class="st3" x1="221" y1="575.4" x2="239.2" y2="550.8"/>
		<path class="st3" d="M262,666.7c-14.5,18.1-41.1,21.6-59.9,7.7l0,0c-18.8-13.9-23.2-40.3-10.2-59.5"/>
		<line class="st3" x1="309.3" y1="602.6" x2="291" y2="627.5"/>
		<line class="st3" x1="577.1" y1="240.1" x2="562" y2="260.6"/>
		<line class="st3" x1="619.7" y1="182.5" x2="592.5" y2="219.3"/>
		<line class="st0" x1="521.1" y1="198.7" x2="507.4" y2="217.2"/>
		<line class="st0" x1="533.3" y1="207.7" x2="519.6" y2="226.3"/>
		<line class="st0" x1="250.6" y1="564.7" x2="234.9" y2="586.1"/>
		<line class="st0" x1="262.9" y1="573.8" x2="248.2" y2="593.7"/>
		<path class="st3" d="M572.4,204.5l21.5,15.9c5.7,4.2,6.9,12.3,2.7,18.1v0c-4.2,5.7-12.3,6.9-18.1,2.7l-73.1-54
			c-5.7-4.2-6.9-12.3-2.7-18.1l0,0c4.2-5.7,12.3-6.9,18.1-2.7l22,16.2"/>
		<path class="st0" d="M624,103.2c0,0-26.3-4.6-45,17.2"/>
		<path class="st0" d="M617.7,303.7l24.7-31.3l23.1,35.1l4.3-22.8l26.2,23.1l-0.1-19c2.8-2.2,4.1-4.7,6.7-7.4
			c17.2-18.5,15.8-50.8,7.3-65.8l17.1-19.3"/>
		<line class="st0" x1="605.8" y1="201.3" x2="652.5" y2="235.8"/>
		<line class="st0" x1="613.5" y1="190.8" x2="644.1" y2="213.5"/>
		<line class="st0" x1="597.9" y1="212" x2="636.5" y2="240.6"/>
		<polyline class="st5" points="282.4,651.6 270.6,679.8 258.3,661.1 241.9,664.8 237.8,646.8 220.8,649.1 218,632.2 199.6,633.5 
			198.3,616.8 176.8,610.5 200.3,591 		"/>
		<path class="st3" d="M277.1,649.3l-73.1-54c-5.7-4.2-6.9-12.3-2.7-18.1h0c4.2-5.7,12.3-6.9,18.1-2.7l73.1,54
			c5.7,4.2,6.9,12.3,2.7,18.1l0,0C290.9,652.3,282.8,653.6,277.1,649.3z"/>
		<path class="st3" d="M570,145.9l-22-16.2c-5.7-4.2-6.9-12.3-2.7-18.1v0c4.2-5.7,12.3-6.9,18.1-2.7l73.1,54
			c5.7,4.2,6.9,12.3,2.7,18.1l0,0c-4.2,5.7-12.3,6.9-18.1,2.7l-21.4-15.8"/>
		<circle class="st0" cx="571.3" cy="175.2" r="29.3"/>
		<path class="st0" d="M502.8,169.1c-20.2-3.1-31.6,3.4-31.6,3.4c-1.7-17.5,4.6-38.9,18.7-57.7s32.7-30.9,50.1-34.2
			c0,0-3.3,12.6,5.4,31"/>
		<path class="st0" d="M487.6,165.7c2.7-12.2,8.4-25,17.3-36.8c9.6-12.9,21.4-22.6,33.4-28.5"/>
	</g>
	<line class="st0" x1="375.1" y1="566.7" x2="394.4" y2="591"/>
	<line class="st0" x1="424.9" y1="566.7" x2="405.6" y2="591"/>
</g>
</svg>
