<?xml version="1.0" encoding="utf-8"?>
<!-- Generator: Adobe Illustrator 20.0.0, SVG Export Plug-In . SVG Version: 6.00 Build 0)  -->
<svg version="1.1" id="Layer_1" xmlns="http://www.w3.org/2000/svg" xmlns:xlink="http://www.w3.org/1999/xlink" x="0px" y="0px"
	 viewBox="0 0 800 800" style="enable-background:new 0 0 800 800;" xml:space="preserve">
<style type="text/css">
	.st0{fill:none;stroke:#FFFFFF;stroke-width:6;stroke-linecap:round;stroke-linejoin:round;stroke-miterlimit:10;}
	.st1{fill:#FFFFFF;}
	
		.st2{clip-path:url(#XMLID_4_);fill:none;stroke:#FFFFFF;stroke-width:6;stroke-linecap:round;stroke-linejoin:round;stroke-miterlimit:10;}
	.st3{fill:none;stroke:#FFFFFF;stroke-width:6;stroke-miterlimit:10;}
	.st4{fill:none;stroke:#FFFFFF;stroke-width:6;stroke-linecap:round;stroke-miterlimit:10;}
	.st5{fill:none;stroke:#FFFFFF;stroke-width:6;stroke-linejoin:round;stroke-miterlimit:10;}
	
		.st6{clip-path:url(#XMLID_5_);fill:none;stroke:#FFFFFF;stroke-width:6;stroke-linecap:round;stroke-linejoin:round;stroke-miterlimit:10;}
</style>
<g>
	<polyline class="st0" points="84.1,160.4 65.5,198.3 84.1,198.3 	"/>
	<polyline class="st0" points="336.3,121.7 336.3,84.9 364.1,84.9 	"/>
	<polyline class="st0" points="446,121.7 446,84.9 418.2,84.9 	"/>
	<polyline class="st0" points="336.3,599 336.3,621.1 364.1,621.1 	"/>
	<polyline class="st0" points="446,599 446,621.1 418.2,621.1 	"/>
	<circle class="st0" cx="216.8" cy="360.3" r="53.6"/>
	<circle class="st0" cx="391.1" cy="170.2" r="53.6"/>
	<circle class="st0" cx="565.5" cy="360.3" r="53.6"/>
	<circle class="st0" cx="391.1" cy="550.5" r="53.6"/>
	<path class="st0" d="M467.4,266.7c14-14.7,24.8-29.7,30.8-42.3l28.8,28.8c-12.5,6.1-27.5,16.7-42.2,30.7"/>
	<path class="st0" d="M237.8,531c-16,16-28.1,32.5-34.7,46.3l-28.8-28.8c13.7-6.6,30.3-18.8,46.3-34.7c16-16,28.1-32.5,34.7-46.3
		l28.8,28.8C270.3,502.9,253.7,515.1,237.8,531z"/>
	<path class="st0" d="M642.8,126c-16,16-28.1,32.5-34.7,46.3l-28.8-28.8c13.7-6.6,30.3-18.8,46.3-34.7c16-16,28.1-32.5,34.7-46.3
		l28.8,28.8C675.4,97.9,658.8,110,642.8,126z"/>
	<path class="st0" d="M561.8,207c-16,16-28.1,32.5-34.7,46.3l-28.8-28.8c13.7-6.6,30.3-18.8,46.3-34.7c16-16,28.1-32.5,34.7-46.3
		l28.8,28.8C594.4,178.9,577.8,191,561.8,207z"/>
	<path class="st0" d="M156.8,612c-16,16-28.1,32.5-34.7,46.3l-28.8-28.8c13.7-6.6,30.3-18.8,46.3-34.7c16-16,28.1-32.5,34.7-46.3
		l28.8,28.8C189.3,583.9,172.7,596.1,156.8,612z"/>
	<path class="st0" d="M220.4,207c-16-16-32.5-28.1-46.3-34.7l28.8-28.8c6.6,13.7,18.8,30.3,34.7,46.3c16,16,32.5,28.1,46.3,34.7
		l-28.8,28.8C248.6,239.5,236.4,222.9,220.4,207z"/>
	<path class="st0" d="M139.4,126c-16-16-32.5-28.1-46.3-34.7L122,62.4c6.6,13.7,18.8,30.3,34.7,46.3c16,16,32.5,28.1,46.3,34.7
		l-28.8,28.8C167.6,158.5,155.4,141.9,139.4,126z"/>
	<circle class="st0" cx="391.1" cy="360.3" r="120.8"/>
	<circle class="st0" cx="391.1" cy="360.3" r="102.6"/>
	<rect x="84.1" y="160.4" class="st0" width="64.3" height="145"/>
	<circle class="st0" cx="116.3" cy="185.2" r="14.9"/>
	<line class="st0" x1="116.3" y1="183" x2="116.3" y2="106.3"/>
	<line class="st0" x1="336.3" y1="217.8" x2="336.3" y2="252.1"/>
	<line class="st0" x1="446" y1="217.8" x2="446" y2="252.1"/>
	<line class="st0" x1="336.3" y1="502.9" x2="336.3" y2="468.6"/>
	<line class="st0" x1="446" y1="502.9" x2="446" y2="468.6"/>
	<circle class="st0" cx="97.7" cy="447.2" r="14.7"/>
	<path class="st0" d="M690.2,247.4c14.9,2.1,28.7,10.7,37,24.6c14.5,24.4,6.6,55.9-17.8,70.4s-55.9,6.6-70.4-17.8
		c-8.3-13.9-9.3-30.1-4.1-44.1"/>
	<polygon class="st0" points="689.9,247.4 635.1,280.1 630.1,264.2 678.2,235.5 	"/>
	<line class="st0" x1="660" y1="206.8" x2="660" y2="111.2"/>
	
		<ellipse transform="matrix(0.8587 -0.5124 0.5124 0.8587 -56.3553 392.1743)" class="st0" cx="683.1" cy="298.3" rx="26.1" ry="26.1"/>
	
		<rect x="612.4" y="188" transform="matrix(0.8587 -0.5124 0.5124 0.8587 -14.2129 348.169)" class="st0" width="23.8" height="23.8"/>
	<line class="st0" x1="103.7" y1="220.4" x2="114.2" y2="229.8"/>
	<path class="st0" d="M129.8,221c0,0-1.2,23.7-22,28.2"/>
	<polyline class="st0" points="105.6,272.9 105.6,284.9 120.9,284.9 	"/>
	<line class="st0" x1="130" y1="271.8" x2="110.2" y2="305.4"/>
	<polyline class="st0" points="87.6,324.8 110.2,324.8 89.9,344.6 	"/>
	<polyline class="st0" points="105.6,355.3 105.6,366 87.6,366 105.6,384.6 	"/>
	<g>
		<path class="st1" d="M198,204.5c-0.4,0-0.7,0-1.1,0.1c-2.7,0.6-4.4,3.3-3.8,6c0.5,2.3,2.6,3.9,4.9,3.9c0.4,0,0.7,0,1.1-0.1
			c2.7-0.6,4.4-3.3,3.8-6C202.4,206.1,200.3,204.5,198,204.5L198,204.5z"/>
	</g>
	<g>
		<path class="st1" d="M239.9,165.1c-0.4,0-0.7,0-1.1,0.1c-2.7,0.6-4.4,3.3-3.8,6c0.5,2.3,2.6,3.9,4.9,3.9c0.4,0,0.7,0,1.1-0.1
			c2.7-0.6,4.4-3.3,3.8-6C244.3,166.7,242.2,165.1,239.9,165.1L239.9,165.1z"/>
	</g>
	<g>
		<path class="st1" d="M227.9,151.2c-0.4,0-0.7,0-1.1,0.1c-2.7,0.6-4.4,3.3-3.8,6c0.5,2.3,2.6,3.9,4.9,3.9c0.4,0,0.7,0,1.1-0.1
			c2.7-0.6,4.4-3.3,3.8-6C232.3,152.8,230.2,151.2,227.9,151.2L227.9,151.2z"/>
	</g>
	<g>
		<path class="st1" d="M253.5,151.2c-1.5,0-3,0.7-4,2c-1.7,2.2-1.3,5.4,1,7c0.9,0.7,2,1,3,1c1.5,0,3-0.7,4-2c1.7-2.2,1.3-5.4-1-7
			C255.6,151.6,254.5,151.2,253.5,151.2L253.5,151.2z"/>
	</g>
	<g>
		<path class="st1" d="M239.9,140.3c-1.5,0-3,0.7-4,2c-1.7,2.2-1.3,5.4,1,7c0.9,0.7,2,1,3,1c1.5,0,3-0.7,4-2c1.7-2.2,1.3-5.4-1-7
			C242,140.6,241,140.3,239.9,140.3L239.9,140.3z"/>
	</g>
	<g>
		<path class="st1" d="M270.3,145.7c-1.5,0-3,0.7-4,2c-1.7,2.2-1.3,5.4,1,7c0.9,0.7,2,1,3,1c1.5,0,3-0.7,4-2c1.7-2.2,1.3-5.4-1-7
			C272.4,146,271.3,145.7,270.3,145.7L270.3,145.7z"/>
	</g>
	<g>
		<path class="st1" d="M286.4,136.8c-1.5,0-3,0.7-4,2c-1.7,2.2-1.3,5.4,1,7c0.9,0.7,2,1,3,1c1.5,0,3-0.7,4-2c1.7-2.2,1.3-5.4-1-7
			C288.6,137.1,287.5,136.8,286.4,136.8L286.4,136.8z"/>
	</g>
	<g>
		<path class="st1" d="M304.8,127.7c-1.5,0-3,0.7-4,2c-1.7,2.2-1.3,5.4,1,7c0.9,0.7,2,1,3,1c1.5,0,3-0.7,4-2c1.7-2.2,1.3-5.4-1-7
			C307,128.1,305.9,127.7,304.8,127.7L304.8,127.7z"/>
	</g>
	<g>
		<path class="st1" d="M304.8,108.6c-1.5,0-3,0.7-4,2c-1.7,2.2-1.3,5.4,1,7c0.9,0.7,2,1,3,1c1.5,0,3-0.7,4-2c1.7-2.2,1.3-5.4-1-7
			C307,108.9,305.9,108.6,304.8,108.6L304.8,108.6z"/>
	</g>
	<g>
		<path class="st1" d="M289.8,119.8c-1.5,0-3,0.7-4,2c-1.7,2.2-1.3,5.4,1,7c0.9,0.7,2,1,3,1c1.5,0,3-0.7,4-2c1.7-2.2,1.3-5.4-1-7
			C292,120.2,290.9,119.8,289.8,119.8L289.8,119.8z"/>
	</g>
	<g>
		<path class="st1" d="M271.8,127.3c-1.5,0-3,0.7-4,2c-1.7,2.2-1.3,5.4,1,7c0.9,0.7,2,1,3,1c1.5,0,3-0.7,4-2c1.7-2.2,1.3-5.4-1-7
			C274,127.6,272.9,127.3,271.8,127.3L271.8,127.3z"/>
	</g>
	<g>
		<path class="st1" d="M255.3,130.2c-1.5,0-3,0.7-4,2c-1.7,2.2-1.3,5.4,1,7c0.9,0.7,2,1,3,1c1.5,0,3-0.7,4-2c1.7-2.2,1.3-5.4-1-7
			C257.5,130.5,256.4,130.2,255.3,130.2L255.3,130.2z"/>
	</g>
	<g>
		<path class="st1" d="M219.6,133.7c-1.5,0-3,0.7-4,2c-1.7,2.2-1.3,5.4,1,7c0.9,0.7,2,1,3,1c1.5,0,3-0.7,4-2c1.7-2.2,1.3-5.4-1-7
			C221.7,134.1,220.6,133.7,219.6,133.7L219.6,133.7z"/>
	</g>
	<g>
		<path class="st1" d="M237.2,123.4c-1.5,0-3,0.7-4,2c-1.7,2.2-1.3,5.4,1,7c0.9,0.7,2,1,3,1c1.5,0,3-0.7,4-2c1.7-2.2,1.3-5.4-1-7
			C239.4,123.7,238.3,123.4,237.2,123.4L237.2,123.4z"/>
	</g>
	<g>
		<path class="st1" d="M222.3,112.8c-1.5,0-3,0.7-4,2c-1.7,2.2-1.3,5.4,1,7c0.9,0.7,2,1,3,1c1.5,0,3-0.7,4-2c1.7-2.2,1.3-5.4-1-7
			C224.4,113.1,223.3,112.8,222.3,112.8L222.3,112.8z"/>
	</g>
	<g>
		<path class="st1" d="M258.2,110.4c-1.5,0-3,0.7-4,2c-1.7,2.2-1.3,5.4,1,7c0.9,0.7,2,1,3,1c1.5,0,3-0.7,4-2c1.7-2.2,1.3-5.4-1-7
			C260.3,110.7,259.3,110.4,258.2,110.4L258.2,110.4z"/>
	</g>
	<g>
		<path class="st1" d="M275.5,111.9c-1.5,0-3,0.7-4,2c-1.7,2.2-1.3,5.4,1,7c0.9,0.7,2,1,3,1c1.5,0,3-0.7,4-2c1.7-2.2,1.3-5.4-1-7
			C277.6,112.2,276.6,111.9,275.5,111.9L275.5,111.9z"/>
	</g>
	<g>
		<path class="st1" d="M306,90c-1.5,0-3,0.7-4,2c-1.7,2.2-1.3,5.4,1,7c0.9,0.7,2,1,3,1c1.5,0,3-0.7,4-2c1.7-2.2,1.3-5.4-1-7
			C308.1,90.3,307.1,90,306,90L306,90z"/>
	</g>
	<g>
		<path class="st1" d="M289.2,101.3c-1.5,0-3,0.7-4,2c-1.7,2.2-1.3,5.4,1,7c0.9,0.7,2,1,3,1c1.5,0,3-0.7,4-2c1.7-2.2,1.3-5.4-1-7
			C291.3,101.6,290.2,101.3,289.2,101.3L289.2,101.3z"/>
	</g>
	<g>
		<path class="st1" d="M286.9,83.1c-1.5,0-3,0.7-4,2c-1.7,2.2-1.3,5.4,1,7c0.9,0.7,2,1,3,1c1.5,0,3-0.7,4-2c1.7-2.2,1.3-5.4-1-7
			C289,83.5,287.9,83.1,286.9,83.1L286.9,83.1z"/>
	</g>
	<g>
		<path class="st1" d="M272.4,95c-1.5,0-3,0.7-4,2c-1.7,2.2-1.3,5.4,1,7c0.9,0.7,2,1,3,1c1.5,0,3-0.7,4-2c1.7-2.2,1.3-5.4-1-7
			C274.6,95.4,273.5,95,272.4,95L272.4,95z"/>
	</g>
	<g>
		<path class="st1" d="M241.3,105.2c-1.5,0-3,0.7-4,2c-1.7,2.2-1.3,5.4,1,7c0.9,0.7,2,1,3,1c1.5,0,3-0.7,4-2c1.7-2.2,1.3-5.4-1-7
			C243.4,105.6,242.3,105.2,241.3,105.2L241.3,105.2z"/>
	</g>
	<g>
		<path class="st1" d="M251.6,90.4c-1.5,0-3,0.7-4,2c-1.7,2.2-1.3,5.4,1,7c0.9,0.7,2,1,3,1c1.5,0,3-0.7,4-2c1.7-2.2,1.3-5.4-1-7
			C253.7,90.7,252.6,90.4,251.6,90.4L251.6,90.4z"/>
	</g>
	<g>
		<path class="st1" d="M542.3,165.1c-2.3,0-4.4,1.6-4.9,3.9c-0.6,2.7,1.1,5.4,3.8,6c0.4,0.1,0.7,0.1,1.1,0.1c2.3,0,4.4-1.6,4.9-3.9
			c0.6-2.7-1.1-5.4-3.8-6C543.1,165.2,542.7,165.1,542.3,165.1L542.3,165.1z"/>
	</g>
	<g>
		<path class="st1" d="M554.4,151.2c-2.3,0-4.4,1.6-4.9,3.9c-0.6,2.7,1.1,5.4,3.8,6c0.4,0.1,0.7,0.1,1.1,0.1c2.3,0,4.4-1.6,4.9-3.9
			c0.6-2.7-1.1-5.4-3.8-6C555.1,151.3,554.7,151.2,554.4,151.2L554.4,151.2z"/>
	</g>
	<g>
		<path class="st1" d="M527.7,154.6c-1.1,0-2.1,0.3-3,1c-2.2,1.7-2.6,4.8-1,7c1,1.3,2.5,2,4,2c1.1,0,2.1-0.3,3-1
			c2.2-1.7,2.6-4.8,1-7C530.7,155.3,529.2,154.6,527.7,154.6L527.7,154.6z"/>
	</g>
	<g>
		<path class="st1" d="M537.8,142.6c-1.1,0-2.1,0.3-3,1c-2.2,1.7-2.6,4.8-1,7c1,1.3,2.5,2,4,2c1.1,0,2.1-0.3,3-1
			c2.2-1.7,2.6-4.8,1-7C540.8,143.3,539.3,142.6,537.8,142.6L537.8,142.6z"/>
	</g>
	<g>
		<path class="st1" d="M512,145.7c-1.1,0-2.1,0.3-3,1c-2.2,1.7-2.6,4.8-1,7c1,1.3,2.5,2,4,2c1.1,0,2.1-0.3,3-1c2.2-1.7,2.6-4.8,1-7
			C515,146.4,513.5,145.7,512,145.7L512,145.7z"/>
	</g>
	<g>
		<path class="st1" d="M495.8,136.8c-1.1,0-2.1,0.3-3,1c-2.2,1.7-2.6,4.8-1,7c1,1.3,2.5,2,4,2c1.1,0,2.1-0.3,3-1
			c2.2-1.7,2.6-4.8,1-7C498.8,137.4,497.3,136.8,495.8,136.8L495.8,136.8z"/>
	</g>
	<g>
		<path class="st1" d="M477.4,127.7c-1.1,0-2.1,0.3-3,1c-2.2,1.7-2.6,4.8-1,7c1,1.3,2.5,2,4,2c1.1,0,2.1-0.3,3-1
			c2.2-1.7,2.6-4.8,1-7C480.4,128.4,478.9,127.7,477.4,127.7L477.4,127.7z"/>
	</g>
	<g>
		<path class="st1" d="M477.4,108.6c-1.1,0-2.1,0.3-3,1c-2.2,1.7-2.6,4.8-1,7c1,1.3,2.5,2,4,2c1.1,0,2.1-0.3,3-1
			c2.2-1.7,2.6-4.8,1-7C480.4,109.3,478.9,108.6,477.4,108.6L477.4,108.6z"/>
	</g>
	<g>
		<path class="st1" d="M492.4,119.8c-1.1,0-2.1,0.3-3,1c-2.2,1.7-2.6,4.8-1,7c1,1.3,2.5,2,4,2c1.1,0,2.1-0.3,3-1
			c2.2-1.7,2.6-4.8,1-7C495.4,120.5,493.9,119.8,492.4,119.8L492.4,119.8z"/>
	</g>
	<g>
		<path class="st1" d="M511.5,128.4c-1.1,0-2.1,0.3-3,1c-2.2,1.7-2.6,4.8-1,7c1,1.3,2.5,2,4,2c1.1,0,2.1-0.3,3-1
			c2.2-1.7,2.6-4.8,1-7C514.6,129.1,513.1,128.4,511.5,128.4L511.5,128.4z"/>
	</g>
	<g>
		<path class="st1" d="M526.9,130.2c-1.1,0-2.1,0.3-3,1c-2.2,1.7-2.6,4.8-1,7c1,1.3,2.5,2,4,2c1.1,0,2.1-0.3,3-1
			c2.2-1.7,2.6-4.8,1-7C529.9,130.9,528.4,130.2,526.9,130.2L526.9,130.2z"/>
	</g>
	<g>
		<path class="st1" d="M562.7,136c-1.1,0-2.1,0.3-3,1c-2.2,1.7-2.6,4.8-1,7c1,1.3,2.5,2,4,2c1.1,0,2.1-0.3,3-1c2.2-1.7,2.6-4.8,1-7
			C565.7,136.7,564.2,136,562.7,136L562.7,136z"/>
	</g>
	<g>
		<path class="st1" d="M543.9,124.5c-1.1,0-2.1,0.3-3,1c-2.2,1.7-2.6,4.8-1,7c1,1.3,2.5,2,4,2c1.1,0,2.1-0.3,3-1
			c2.2-1.7,2.6-4.8,1-7C546.9,125.2,545.4,124.5,543.9,124.5L543.9,124.5z"/>
	</g>
	<g>
		<path class="st1" d="M576,122.1c-1.1,0-2.1,0.3-3,1c-2.2,1.7-2.6,4.8-1,7c1,1.3,2.5,2,4,2c1.1,0,2.1-0.3,3-1c2.2-1.7,2.6-4.8,1-7
			C579.1,122.7,577.6,122.1,576,122.1L576,122.1z"/>
	</g>
	<g>
		<path class="st1" d="M557.7,116.1c-1.1,0-2.1,0.3-3,1c-2.2,1.7-2.6,4.8-1,7c1,1.3,2.5,2,4,2c1.1,0,2.1-0.3,3-1
			c2.2-1.7,2.6-4.8,1-7C560.7,116.8,559.2,116.1,557.7,116.1L557.7,116.1z"/>
	</g>
	<g>
		<path class="st1" d="M526.3,109.3c-1.1,0-2.1,0.3-3,1c-2.2,1.7-2.6,4.8-1,7c1,1.3,2.5,2,4,2c1.1,0,2.1-0.3,3-1
			c2.2-1.7,2.6-4.8,1-7C529.3,110,527.8,109.3,526.3,109.3L526.3,109.3z"/>
	</g>
	<g>
		<path class="st1" d="M506.8,111.9c-1.1,0-2.1,0.3-3,1c-2.2,1.7-2.6,4.8-1,7c1,1.3,2.5,2,4,2c1.1,0,2.1-0.3,3-1
			c2.2-1.7,2.6-4.8,1-7C509.8,112.6,508.3,111.9,506.8,111.9L506.8,111.9z"/>
	</g>
	<g>
		<path class="st1" d="M476.3,90c-1.1,0-2.1,0.3-3,1c-2.2,1.7-2.6,4.8-1,7c1,1.3,2.5,2,4,2c1.1,0,2.1-0.3,3-1c2.2-1.7,2.6-4.8,1-7
			C479.3,90.6,477.8,90,476.3,90L476.3,90z"/>
	</g>
	<g>
		<path class="st1" d="M493.1,101.3c-1.1,0-2.1,0.3-3,1c-2.2,1.7-2.6,4.8-1,7c1,1.3,2.5,2,4,2c1.1,0,2.1-0.3,3-1
			c2.2-1.7,2.6-4.8,1-7C496.1,102,494.6,101.3,493.1,101.3L493.1,101.3z"/>
	</g>
	<g>
		<path class="st1" d="M495.4,79.8c-1.1,0-2.1,0.3-3,1c-2.2,1.7-2.6,4.8-1,7c1,1.3,2.5,2,4,2c1.1,0,2.1-0.3,3-1c2.2-1.7,2.6-4.8,1-7
			C498.4,80.4,496.9,79.8,495.4,79.8L495.4,79.8z"/>
	</g>
	<g>
		<path class="st1" d="M509.8,95c-1.1,0-2.1,0.3-3,1c-2.2,1.7-2.6,4.8-1,7c1,1.3,2.5,2,4,2c1.1,0,2.1-0.3,3-1c2.2-1.7,2.6-4.8,1-7
			C512.8,95.7,511.3,95,509.8,95L509.8,95z"/>
	</g>
	<g>
		<path class="st1" d="M543.9,101.4c-1.1,0-2.1,0.3-3,1c-2.2,1.7-2.6,4.8-1,7c1,1.3,2.5,2,4,2c1.1,0,2.1-0.3,3-1
			c2.2-1.7,2.6-4.8,1-7C547,102,545.5,101.4,543.9,101.4L543.9,101.4z"/>
	</g>
	<g>
		<path class="st1" d="M186.4,193.3c-0.4,0-0.7,0-1.1,0.1c-2.7,0.6-4.4,3.3-3.8,6c0.5,2.3,2.6,3.9,4.9,3.9c0.4,0,0.7,0,1.1-0.1
			c2.7-0.6,4.4-3.3,3.8-6C190.7,194.9,188.7,193.3,186.4,193.3L186.4,193.3z"/>
	</g>
	<g>
		<path class="st1" d="M171.7,185.5c-0.4,0-0.7,0-1.1,0.1c-2.7,0.6-4.4,3.3-3.8,6c0.5,2.3,2.6,3.9,4.9,3.9c0.4,0,0.7,0,1.1-0.1
			c2.7-0.6,4.4-3.3,3.8-6C176.1,187.1,174,185.5,171.7,185.5L171.7,185.5z"/>
	</g>
	<g>
		<path class="st1" d="M161.5,175.2c-0.4,0-0.7,0-1.1,0.1c-2.7,0.6-4.4,3.3-3.8,6c0.5,2.3,2.6,3.9,4.9,3.9c0.4,0,0.7,0,1.1-0.1
			c2.7-0.6,4.4-3.3,3.8-6C165.9,176.8,163.8,175.2,161.5,175.2L161.5,175.2z"/>
	</g>
	<g>
		<path class="st1" d="M140,141.8c-0.4,0-0.7,0-1.1,0.1c-2.7,0.6-4.4,3.3-3.8,6c0.5,2.3,2.6,3.9,4.9,3.9c0.4,0,0.7,0,1.1-0.1
			c2.7-0.6,4.4-3.3,3.8-6C144.4,143.4,142.3,141.8,140,141.8L140,141.8z"/>
	</g>
	<g>
		<path class="st1" d="M128.3,130.2c-0.4,0-0.7,0-1.1,0.1c-2.7,0.6-4.4,3.3-3.8,6c0.5,2.3,2.6,3.9,4.9,3.9c0.4,0,0.7,0,1.1-0.1
			c2.7-0.6,4.4-3.3,3.8-6C132.7,131.8,130.6,130.2,128.3,130.2L128.3,130.2z"/>
	</g>
	<g>
		<path class="st1" d="M161.5,198.9c-0.4,0-0.7,0-1.1,0.1c-2.7,0.6-4.4,3.3-3.8,6c0.5,2.3,2.6,3.9,4.9,3.9c0.4,0,0.7,0,1.1-0.1
			c2.7-0.6,4.4-3.3,3.8-6C165.9,200.5,163.8,198.9,161.5,198.9L161.5,198.9z"/>
	</g>
	<g>
		<path class="st1" d="M175.9,205.6c-0.4,0-0.7,0-1.1,0.1c-2.7,0.6-4.4,3.3-3.8,6c0.5,2.3,2.6,3.9,4.9,3.9c0.4,0,0.7,0,1.1-0.1
			c2.7-0.6,4.4-3.3,3.8-6C180.3,207.2,178.2,205.6,175.9,205.6L175.9,205.6z"/>
	</g>
	<g>
		<path class="st1" d="M162.4,217.6c-0.4,0-0.7,0-1.1,0.1c-2.7,0.6-4.4,3.3-3.8,6c0.5,2.3,2.6,3.9,4.9,3.9c0.4,0,0.7,0,1.1-0.1
			c2.7-0.6,4.4-3.3,3.8-6C166.8,219.2,164.7,217.6,162.4,217.6L162.4,217.6z"/>
	</g>
	<g>
		<path class="st1" d="M187.5,217.6c-0.4,0-0.7,0-1.1,0.1c-2.7,0.6-4.4,3.3-3.8,6c0.5,2.3,2.6,3.9,4.9,3.9c0.4,0,0.7,0,1.1-0.1
			c2.7-0.6,4.4-3.3,3.8-6C191.9,219.2,189.8,217.6,187.5,217.6L187.5,217.6z"/>
	</g>
	<g>
		<path class="st1" d="M174.2,226.7c-0.4,0-0.7,0-1.1,0.1c-2.7,0.6-4.4,3.3-3.8,6c0.5,2.3,2.6,3.9,4.9,3.9c0.4,0,0.7,0,1.1-0.1
			c2.7-0.6,4.4-3.3,3.8-6C178.6,228.3,176.5,226.7,174.2,226.7L174.2,226.7z"/>
	</g>
	<g>
		<path class="st1" d="M175.7,245.9c-0.4,0-0.7,0-1.1,0.1c-2.7,0.6-4.4,3.3-3.8,6c0.5,2.3,2.6,3.9,4.9,3.9c0.4,0,0.7,0,1.1-0.1
			c2.7-0.6,4.4-3.3,3.8-6C180.1,247.5,178,245.9,175.7,245.9L175.7,245.9z"/>
	</g>
	<g>
		<path class="st1" d="M162.4,237.3c-0.4,0-0.7,0-1.1,0.1c-2.7,0.6-4.4,3.3-3.8,6c0.5,2.3,2.6,3.9,4.9,3.9c0.4,0,0.7,0,1.1-0.1
			c2.7-0.6,4.4-3.3,3.8-6C166.8,238.9,164.7,237.3,162.4,237.3L162.4,237.3z"/>
	</g>
	<g>
		<path class="st1" d="M163.2,256.6c-0.4,0-0.7,0-1.1,0.1c-2.7,0.6-4.4,3.3-3.8,6c0.5,2.3,2.6,3.9,4.9,3.9c0.4,0,0.7,0,1.1-0.1
			c2.7-0.6,4.4-3.3,3.8-6C167.6,258.1,165.5,256.6,163.2,256.6L163.2,256.6z"/>
	</g>
	<g>
		<path class="st1" d="M162.4,273.9c-0.4,0-0.7,0-1.1,0.1c-2.7,0.6-4.4,3.3-3.8,6c0.5,2.3,2.6,3.9,4.9,3.9c0.4,0,0.7,0,1.1-0.1
			c2.7-0.6,4.4-3.3,3.8-6C166.8,275.5,164.7,273.9,162.4,273.9L162.4,273.9z"/>
	</g>
	<g>
		<path class="st1" d="M144,317.2c-0.4,0-0.7,0-1.1,0.1c-2.7,0.6-4.4,3.3-3.8,6c0.5,2.3,2.6,3.9,4.9,3.9c0.4,0,0.7,0,1.1-0.1
			c2.7-0.6,4.4-3.3,3.8-6C148.3,318.8,146.3,317.2,144,317.2L144,317.2z"/>
	</g>
	<g>
		<path class="st1" d="M150.5,332c-0.4,0-0.7,0-1.1,0.1c-2.7,0.6-4.4,3.3-3.8,6c0.5,2.3,2.6,3.9,4.9,3.9c0.4,0,0.7,0,1.1-0.1
			c2.7-0.6,4.4-3.3,3.8-6C154.9,333.6,152.8,332,150.5,332L150.5,332z"/>
	</g>
	<g>
		<path class="st1" d="M143.2,345.5c-0.4,0-0.7,0-1.1,0.1c-2.7,0.6-4.4,3.3-3.8,6c0.5,2.3,2.6,3.9,4.9,3.9c0.4,0,0.7,0,1.1-0.1
			c2.7-0.6,4.4-3.3,3.8-6C147.6,347.1,145.5,345.5,143.2,345.5L143.2,345.5z"/>
	</g>
	<g>
		<path class="st1" d="M148.5,360.1c-0.4,0-0.7,0-1.1,0.1c-2.7,0.6-4.4,3.3-3.8,6c0.5,2.3,2.6,3.9,4.9,3.9c0.4,0,0.7,0,1.1-0.1
			c2.7-0.6,4.4-3.3,3.8-6C152.8,361.7,150.8,360.1,148.5,360.1L148.5,360.1z"/>
	</g>
	<g>
		<path class="st1" d="M142.4,375.8c-0.4,0-0.7,0-1.1,0.1c-2.7,0.6-4.4,3.3-3.8,6c0.5,2.3,2.6,3.9,4.9,3.9c0.4,0,0.7,0,1.1-0.1
			c2.7-0.6,4.4-3.3,3.8-6C146.8,377.4,144.7,375.8,142.4,375.8L142.4,375.8z"/>
	</g>
	<g>
		<path class="st1" d="M150.5,388.8c-0.4,0-0.7,0-1.1,0.1c-2.7,0.6-4.4,3.3-3.8,6c0.5,2.3,2.6,3.9,4.9,3.9c0.4,0,0.7,0,1.1-0.1
			c2.7-0.6,4.4-3.3,3.8-6C154.9,390.4,152.8,388.8,150.5,388.8L150.5,388.8z"/>
	</g>
	<g>
		<path class="st1" d="M143.2,402.3c-1.1,0-2.1,0.3-3,1c-2.2,1.7-2.7,4.8-1,7c1,1.3,2.5,2,4,2c1.1,0,2.1-0.3,3-1
			c2.2-1.7,2.7-4.8,1-7C146.3,403,144.8,402.3,143.2,402.3L143.2,402.3z"/>
	</g>
	<g>
		<path class="st1" d="M141.3,424.7c-1.1,0-2.1,0.3-3,1c-2.2,1.7-2.7,4.8-1,7c1,1.3,2.5,2,4,2c1.1,0,2.1-0.3,3-1
			c2.2-1.7,2.7-4.8,1-7C144.3,425.4,142.8,424.7,141.3,424.7L141.3,424.7z"/>
	</g>
	<g>
		<path class="st1" d="M158.2,431.3c-0.5,0-1,0.1-1.5,0.2c-2.7,0.8-4.1,3.7-3.3,6.3c0.7,2.1,2.7,3.5,4.8,3.5c0.5,0,1-0.1,1.5-0.2
			c2.7-0.8,4.1-3.7,3.3-6.3C162.3,432.7,160.3,431.3,158.2,431.3L158.2,431.3z"/>
	</g>
	<g>
		<path class="st1" d="M166.2,447.6c-0.5,0-1,0.1-1.5,0.2c-2.7,0.8-4.1,3.7-3.3,6.3c0.7,2.1,2.7,3.5,4.8,3.5c0.5,0,1-0.1,1.5-0.2
			c2.7-0.8,4.1-3.7,3.3-6.3C170.3,449,168.3,447.6,166.2,447.6L166.2,447.6z"/>
	</g>
	<g>
		<path class="st1" d="M173.2,463.3c-0.5,0-1,0.1-1.5,0.2c-2.7,0.8-4.1,3.7-3.3,6.3c0.7,2.1,2.7,3.5,4.8,3.5c0.5,0,1-0.1,1.5-0.2
			c2.7-0.8,4.1-3.7,3.3-6.3C177.3,464.7,175.3,463.3,173.2,463.3L173.2,463.3z"/>
	</g>
	<g>
		<path class="st1" d="M191,491.3c-0.5,0-1,0.1-1.5,0.2c-2.7,0.8-4.1,3.7-3.3,6.3c0.7,2.1,2.7,3.5,4.8,3.5c0.5,0,1-0.1,1.5-0.2
			c2.7-0.8,4.1-3.7,3.3-6.3C195.1,492.6,193.1,491.3,191,491.3L191,491.3z"/>
	</g>
	<g>
		<path class="st1" d="M200.2,505.2c-0.5,0-1,0.1-1.5,0.2c-2.7,0.8-4.1,3.7-3.3,6.3c0.7,2.1,2.7,3.5,4.8,3.5c0.5,0,1-0.1,1.5-0.2
			c2.7-0.8,4.1-3.7,3.3-6.3C204.3,506.6,202.3,505.2,200.2,505.2L200.2,505.2z"/>
	</g>
	<g>
		<path class="st1" d="M256.3,556.7c-0.5,0-1,0.1-1.5,0.2c-2.7,0.8-4.1,3.7-3.3,6.3c0.7,2.1,2.7,3.5,4.8,3.5c0.5,0,1-0.1,1.5-0.2
			c2.7-0.8,4.1-3.7,3.3-6.3C260.4,558,258.5,556.7,256.3,556.7L256.3,556.7z"/>
	</g>
	<g>
		<path class="st1" d="M270,566.5c-2.6,0-4.8,2-5,4.7c-0.2,2.8,1.9,5.2,4.7,5.4c0.1,0,0.2,0,0.3,0c2.6,0,4.8-2,5-4.7
			c0.2-2.8-1.9-5.2-4.7-5.4C270.2,566.5,270.1,566.5,270,566.5L270,566.5z"/>
	</g>
	<g>
		<path class="st1" d="M277.1,584.5c-2.6,0-4.8,2-5,4.7c-0.2,2.8,1.9,5.2,4.7,5.4c0.1,0,0.2,0,0.3,0c2.6,0,4.8-2,5-4.7
			c0.2-2.8-1.9-5.2-4.7-5.4C277.3,584.5,277.2,584.5,277.1,584.5L277.1,584.5z"/>
	</g>
	<g>
		<path class="st1" d="M287.1,572.9c-2.6,0-4.8,2-5,4.7c-0.2,2.8,1.9,5.2,4.7,5.4c0.1,0,0.2,0,0.3,0c2.6,0,4.8-2,5-4.7
			c0.2-2.8-1.9-5.2-4.7-5.4C287.3,572.9,287.2,572.9,287.1,572.9L287.1,572.9z"/>
	</g>
	<g>
		<path class="st1" d="M303.5,580.7c-2.6,0-4.8,2-5,4.7c-0.2,2.8,1.9,5.2,4.7,5.4c0.1,0,0.2,0,0.3,0c2.6,0,4.8-2,5-4.7
			c0.2-2.8-1.9-5.2-4.7-5.4C303.7,580.7,303.6,580.7,303.5,580.7L303.5,580.7z"/>
	</g>
	<g>
		<path class="st1" d="M308.7,597.5c-2.6,0-4.8,2-5,4.7c-0.2,2.8,1.9,5.2,4.7,5.4c0.1,0,0.2,0,0.3,0c2.6,0,4.8-2,5-4.7
			c0.2-2.8-1.9-5.2-4.7-5.4C308.9,597.5,308.8,597.5,308.7,597.5L308.7,597.5z"/>
	</g>
	<g>
		<path class="st1" d="M292.1,592.5c-2.6,0-4.8,2-5,4.7c-0.2,2.8,1.9,5.2,4.7,5.4c0.1,0,0.2,0,0.3,0c2.6,0,4.8-2,5-4.7
			c0.2-2.8-1.9-5.2-4.7-5.4C292.4,592.5,292.3,592.5,292.1,592.5L292.1,592.5z"/>
	</g>
	<g>
		<path class="st1" d="M290.6,610.5c-2.6,0-4.8,2-5,4.7c-0.2,2.8,1.9,5.2,4.7,5.4c0.1,0,0.2,0,0.3,0c2.6,0,4.8-2,5-4.7
			c0.2-2.8-1.9-5.2-4.7-5.4C290.8,610.5,290.7,610.5,290.6,610.5L290.6,610.5z"/>
	</g>
	<g>
		<path class="st1" d="M260,599.6c-2.6,0-4.8,2-5,4.7c-0.2,2.8,1.9,5.2,4.7,5.4c0.1,0,0.2,0,0.3,0c2.6,0,4.8-2,5-4.7
			c0.2-2.8-1.9-5.2-4.7-5.4C260.2,599.7,260.1,599.6,260,599.6L260,599.6z"/>
	</g>
	<g>
		<path class="st1" d="M261.4,579.8c-2.6,0-4.8,2-5,4.7c-0.2,2.8,1.9,5.2,4.7,5.4c0.1,0,0.2,0,0.3,0c2.6,0,4.8-2,5-4.7
			c0.2-2.8-1.9-5.2-4.7-5.4C261.7,579.8,261.5,579.8,261.4,579.8L261.4,579.8z"/>
	</g>
	<g>
		<path class="st1" d="M185.2,600.2c-2.6,0-4.8,2-5,4.7c-0.2,2.8,1.9,5.2,4.7,5.4c0.1,0,0.2,0,0.3,0c2.6,0,4.8-2,5-4.7
			c0.2-2.8-1.9-5.2-4.7-5.4C185.4,600.2,185.3,600.2,185.2,600.2L185.2,600.2z"/>
	</g>
	<g>
		<path class="st1" d="M274,602.2c-2.6,0-4.8,2-5,4.7c-0.2,2.8,1.9,5.2,4.7,5.4c0.1,0,0.2,0,0.3,0c2.6,0,4.8-2,5-4.7
			c0.2-2.8-1.9-5.2-4.7-5.4C274.2,602.2,274.1,602.2,274,602.2L274,602.2z"/>
	</g>
	<g>
		<path class="st1" d="M275.1,620.1c-2.6,0-4.8,2-5,4.7c-0.2,2.8,1.9,5.2,4.7,5.4c0.1,0,0.2,0,0.3,0c2.6,0,4.8-2,5-4.7
			c0.2-2.8-1.9-5.2-4.7-5.4C275.4,620.1,275.3,620.1,275.1,620.1L275.1,620.1z"/>
	</g>
	<g>
		<path class="st1" d="M285,645c-2.6,0-4.8,2-5,4.7c-0.2,2.8,1.9,5.2,4.7,5.4c0.1,0,0.2,0,0.3,0c2.6,0,4.8-2,5-4.7
			c0.2-2.8-1.9-5.2-4.7-5.4C285.2,645,285.1,645,285,645L285,645z"/>
	</g>
	<g>
		<path class="st1" d="M304.1,620.1c-2.6,0-4.8,2-5,4.7c-0.2,2.8,1.9,5.2,4.7,5.4c0.1,0,0.2,0,0.3,0c2.6,0,4.8-2,5-4.7
			c0.2-2.8-1.9-5.2-4.7-5.4C304.3,620.1,304.2,620.1,304.1,620.1L304.1,620.1z"/>
	</g>
	<g>
		<path class="st1" d="M290.1,629.1c-2.6,0-4.8,2-5,4.7c-0.2,2.8,1.9,5.2,4.7,5.4c0.1,0,0.2,0,0.3,0c2.6,0,4.8-2,5-4.7
			c0.2-2.8-1.9-5.2-4.7-5.4C290.3,629.1,290.2,629.1,290.1,629.1L290.1,629.1z"/>
	</g>
	<g>
		<path class="st1" d="M199.6,590.6c-2.6,0-4.8,2-5,4.7c-0.2,2.8,1.9,5.2,4.7,5.4c0.1,0,0.2,0,0.3,0c2.6,0,4.8-2,5-4.7
			c0.2-2.8-1.9-5.2-4.7-5.4C199.8,590.6,199.7,590.6,199.6,590.6L199.6,590.6z"/>
	</g>
	<g>
		<path class="st1" d="M200.4,605.3c-2.6,0-4.8,2-5,4.7c-0.2,2.8,1.9,5.2,4.7,5.4c0.1,0,0.2,0,0.3,0c2.6,0,4.8-2,5-4.7
			c0.2-2.8-1.9-5.2-4.7-5.4C200.6,605.3,200.5,605.3,200.4,605.3L200.4,605.3z"/>
	</g>
	<g>
		<path class="st1" d="M219.7,565.2c-2.6,0-4.8,2-5,4.7c-0.2,2.8,1.9,5.2,4.7,5.4c0.1,0,0.2,0,0.3,0c2.6,0,4.8-2,5-4.7
			c0.2-2.8-1.9-5.2-4.7-5.4C219.9,565.2,219.8,565.2,219.7,565.2L219.7,565.2z"/>
	</g>
	<g>
		<path class="st1" d="M242.3,546.1c-2.6,0-4.8,2-5,4.7c-0.2,2.8,1.9,5.2,4.7,5.4c0.1,0,0.2,0,0.3,0c2.6,0,4.8-2,5-4.7
			c0.2-2.8-1.9-5.2-4.7-5.4C242.5,546.1,242.4,546.1,242.3,546.1L242.3,546.1z"/>
	</g>
	<g>
		<path class="st1" d="M247.6,569.4c-2.6,0-4.8,2-5,4.7c-0.2,2.8,1.9,5.2,4.7,5.4c0.1,0,0.2,0,0.3,0c2.6,0,4.8-2,5-4.7
			c0.2-2.8-1.9-5.2-4.7-5.4C247.9,569.4,247.8,569.4,247.6,569.4L247.6,569.4z"/>
	</g>
	<g>
		<path class="st1" d="M307.6,641.6c-2.6,0-4.8,2-5,4.7c-0.2,2.8,1.9,5.2,4.7,5.4c0.1,0,0.2,0,0.3,0c2.6,0,4.8-2,5-4.7
			c0.2-2.8-1.9-5.2-4.7-5.4C307.9,641.6,307.8,641.6,307.6,641.6L307.6,641.6z"/>
	</g>
	<g>
		<path class="st1" d="M326.9,646.9c-2.6,0-4.8,2-5,4.7c-0.2,2.8,1.9,5.2,4.7,5.4c0.1,0,0.2,0,0.3,0c2.6,0,4.8-2,5-4.7
			c0.2-2.8-1.9-5.2-4.7-5.4C327.1,646.9,327,646.9,326.9,646.9L326.9,646.9z"/>
	</g>
	<g>
		<path class="st1" d="M344.1,646.9c-2.6,0-4.8,2-5,4.7c-0.2,2.8,1.9,5.2,4.7,5.4c0.1,0,0.2,0,0.3,0c2.6,0,4.8-2,5-4.7
			c0.2-2.8-1.9-5.2-4.7-5.4C344.4,646.9,344.2,646.9,344.1,646.9L344.1,646.9z"/>
	</g>
	<g>
		<path class="st1" d="M331,664.5c-2.6,0-4.8,2-5,4.7c-0.2,2.8,1.9,5.2,4.7,5.4c0.1,0,0.2,0,0.3,0c2.6,0,4.8-2,5-4.7
			c0.2-2.8-1.9-5.2-4.7-5.4C331.2,664.5,331.1,664.5,331,664.5L331,664.5z"/>
	</g>
	<g>
		<path class="st1" d="M350,661.2c-2.6,0-4.8,2-5,4.7c-0.2,2.8,1.9,5.2,4.7,5.4c0.1,0,0.2,0,0.3,0c2.6,0,4.8-2,5-4.7
			c0.2-2.8-1.9-5.2-4.7-5.4C350.2,661.2,350.1,661.2,350,661.2L350,661.2z"/>
	</g>
	<g>
		<path class="st1" d="M308.8,659.5c-2.6,0-4.8,2-5,4.7c-0.2,2.8,1.9,5.2,4.7,5.4c0.1,0,0.2,0,0.3,0c2.6,0,4.8-2,5-4.7
			c0.2-2.8-1.9-5.2-4.7-5.4C309.1,659.5,308.9,659.5,308.8,659.5L308.8,659.5z"/>
	</g>
	<g>
		<path class="st1" d="M542.3,545.5c-2.1,0-4.1,1.4-4.8,3.5c-0.8,2.7,0.6,5.5,3.3,6.3c0.5,0.2,1,0.2,1.5,0.2c2.1,0,4.1-1.4,4.8-3.5
			c0.8-2.7-0.6-5.5-3.3-6.3C543.3,545.6,542.8,545.5,542.3,545.5L542.3,545.5z"/>
	</g>
	<g>
		<path class="st1" d="M590,494.5c-2.1,0-4.1,1.4-4.8,3.5c-0.8,2.7,0.6,5.5,3.3,6.3c0.5,0.2,1,0.2,1.5,0.2c2.1,0,4.1-1.4,4.8-3.5
			c0.8-2.7-0.6-5.5-3.3-6.3C591,494.6,590.5,494.5,590,494.5L590,494.5z"/>
	</g>
	<g>
		<path class="st1" d="M600.5,477.9c-2.1,0-4.1,1.4-4.8,3.5c-0.8,2.7,0.6,5.5,3.3,6.3c0.5,0.2,1,0.2,1.5,0.2c2.1,0,4.1-1.4,4.8-3.5
			c0.8-2.7-0.6-5.5-3.3-6.3C601.5,478,601,477.9,600.5,477.9L600.5,477.9z"/>
	</g>
	<g>
		<path class="st1" d="M607.3,493.4c-2.1,0-4.1,1.4-4.8,3.5c-0.8,2.7,0.6,5.5,3.3,6.3c0.5,0.2,1,0.2,1.5,0.2c2.1,0,4.1-1.4,4.8-3.5
			c0.8-2.7-0.6-5.5-3.3-6.3C608.3,493.4,607.8,493.4,607.3,493.4L607.3,493.4z"/>
	</g>
	<g>
		<path class="st1" d="M618.1,479.3c-2.1,0-4.1,1.4-4.8,3.5c-0.8,2.7,0.6,5.5,3.3,6.3c0.5,0.2,1,0.2,1.5,0.2c2.1,0,4.1-1.4,4.8-3.5
			c0.8-2.7-0.6-5.5-3.3-6.3C619.1,479.4,618.6,479.3,618.1,479.3L618.1,479.3z"/>
	</g>
	<g>
		<path class="st1" d="M610.2,464.1c-2.1,0-4.1,1.4-4.8,3.5c-0.8,2.7,0.6,5.5,3.3,6.3c0.5,0.2,1,0.2,1.5,0.2c2.1,0,4.1-1.4,4.8-3.5
			c0.8-2.7-0.6-5.5-3.3-6.3C611.2,464.2,610.7,464.1,610.2,464.1L610.2,464.1z"/>
	</g>
	<g>
		<path class="st1" d="M619,441.8c-2.1,0-4.1,1.4-4.8,3.5c-0.8,2.7,0.6,5.5,3.3,6.3c0.5,0.2,1,0.2,1.5,0.2c2.1,0,4.1-1.4,4.8-3.5
			c0.8-2.7-0.6-5.5-3.3-6.3C620,441.8,619.5,441.8,619,441.8L619,441.8z"/>
	</g>
	<g>
		<path class="st1" d="M623.4,457.1c-2.1,0-4.1,1.4-4.8,3.5c-0.8,2.7,0.6,5.5,3.3,6.3c0.5,0.2,1,0.2,1.5,0.2c2.1,0,4.1-1.4,4.8-3.5
			c0.8-2.7-0.6-5.5-3.3-6.3C624.4,457.2,623.9,457.1,623.4,457.1L623.4,457.1z"/>
	</g>
	<g>
		<path class="st1" d="M632.2,473c-2.1,0-4.1,1.4-4.8,3.5c-0.8,2.7,0.6,5.5,3.3,6.3c0.5,0.2,1,0.2,1.5,0.2c2.1,0,4.1-1.4,4.8-3.5
			c0.8-2.7-0.6-5.5-3.3-6.3C633.2,473.1,632.7,473,632.2,473L632.2,473z"/>
	</g>
	<g>
		<path class="st1" d="M627.7,494c-2.1,0-4.1,1.4-4.8,3.5c-0.8,2.7,0.6,5.5,3.3,6.3c0.5,0.2,1,0.2,1.5,0.2c2.1,0,4.1-1.4,4.8-3.5
			c0.8-2.7-0.6-5.5-3.3-6.3C628.7,494.1,628.2,494,627.7,494L627.7,494z"/>
	</g>
	<g>
		<path class="st1" d="M643.7,487.7c-2.1,0-4.1,1.4-4.8,3.5c-0.8,2.7,0.6,5.5,3.3,6.3c0.5,0.2,1,0.2,1.5,0.2c2.1,0,4.1-1.4,4.8-3.5
			c0.8-2.7-0.6-5.5-3.3-6.3C644.8,487.7,644.2,487.7,643.7,487.7L643.7,487.7z"/>
	</g>
	<g>
		<path class="st1" d="M624.6,425.5c-2.1,0-4.1,1.4-4.8,3.5c-0.8,2.7,0.6,5.5,3.3,6.3c0.5,0.2,1,0.2,1.5,0.2c2.1,0,4.1-1.4,4.8-3.5
			c0.8-2.7-0.6-5.5-3.3-6.3C625.6,425.6,625.1,425.5,624.6,425.5L624.6,425.5z"/>
	</g>
	<g>
		<path class="st1" d="M632.9,390.7c-2.1,0-4.1,1.4-4.8,3.5c-0.8,2.7,0.6,5.5,3.3,6.3c0.5,0.2,1,0.2,1.5,0.2c2.1,0,4.1-1.4,4.8-3.5
			c0.8-2.7-0.6-5.5-3.3-6.3C633.9,390.8,633.4,390.7,632.9,390.7L632.9,390.7z"/>
	</g>
	<g>
		<path class="st1" d="M633.2,373.8c-2.5,0-4.6,1.8-5,4.3c-0.4,2.7,1.5,5.3,4.2,5.7c0.3,0,0.5,0.1,0.7,0.1c2.5,0,4.6-1.8,5-4.3
			c0.4-2.7-1.5-5.3-4.2-5.7C633.7,373.8,633.5,373.8,633.2,373.8L633.2,373.8z"/>
	</g>
	<g>
		<path class="st1" d="M633.6,355.7c-2.5,0-4.6,1.8-5,4.3c-0.4,2.7,1.5,5.3,4.2,5.7c0.3,0,0.5,0.1,0.7,0.1c2.5,0,4.6-1.8,5-4.3
			c0.4-2.7-1.5-5.3-4.2-5.7C634.1,355.7,633.9,355.7,633.6,355.7L633.6,355.7z"/>
	</g>
	<g>
		<path class="st1" d="M633.9,337.3c-2.5,0-4.6,1.8-5,4.3c-0.4,2.7,1.5,5.3,4.2,5.7c0.3,0,0.5,0.1,0.7,0.1c2.5,0,4.6-1.8,5-4.3
			c0.4-2.7-1.5-5.3-4.2-5.7C634.4,337.4,634.1,337.3,633.9,337.3L633.9,337.3z"/>
	</g>
	<g>
		<path class="st1" d="M615.1,264.7c-0.3,0-0.7,0-1,0.1c-2.7,0.5-4.5,3.2-4,5.9c0.5,2.4,2.6,4.1,4.9,4.1c0.3,0,0.7,0,1-0.1
			c2.7-0.5,4.5-3.2,4-5.9C619.5,266.3,617.4,264.7,615.1,264.7L615.1,264.7z"/>
	</g>
	<g>
		<path class="st1" d="M621.1,280.5c-0.3,0-0.7,0-1,0.1c-2.7,0.5-4.5,3.2-4,5.9c0.5,2.4,2.6,4.1,4.9,4.1c0.3,0,0.7,0,1-0.1
			c2.7-0.5,4.5-3.2,4-5.9C625.5,282.1,623.4,280.5,621.1,280.5L621.1,280.5z"/>
	</g>
	<g>
		<path class="st1" d="M600.1,230.9c-2.5,0-4.6,1.8-5,4.3c-0.4,2.7,1.5,5.3,4.2,5.7c0.3,0,0.5,0.1,0.7,0.1c2.5,0,4.6-1.8,5-4.3
			c0.4-2.7-1.5-5.3-4.2-5.7C600.5,231,600.3,230.9,600.1,230.9L600.1,230.9z"/>
	</g>
	<g>
		<path class="st1" d="M580.9,202.7c-0.9,0-1.8,0.2-2.7,0.8c-2.4,1.5-3.1,4.6-1.6,6.9c1,1.5,2.6,2.4,4.3,2.4c0.9,0,1.8-0.2,2.7-0.8
			c2.4-1.5,3.1-4.6,1.6-6.9C584.2,203.6,582.5,202.7,580.9,202.7L580.9,202.7z"/>
	</g>
	<g>
		<path class="st1" d="M589.9,218c-0.9,0-1.8,0.2-2.7,0.8c-2.4,1.5-3.1,4.6-1.6,6.9c1,1.5,2.6,2.4,4.3,2.4c0.9,0,1.8-0.2,2.7-0.8
			c2.4-1.5,3.1-4.6,1.6-6.9C593.2,218.8,591.6,218,589.9,218L589.9,218z"/>
	</g>
	<g>
		<path class="st1" d="M603.7,210.1c-0.9,0-1.7,0.2-2.5,0.7c-2.4,1.4-3.2,4.5-1.8,6.9c0.9,1.6,2.6,2.5,4.4,2.5
			c0.9,0,1.7-0.2,2.5-0.7c2.4-1.4,3.2-4.5,1.8-6.9C607.1,211,605.4,210.1,603.7,210.1L603.7,210.1z"/>
	</g>
	<g>
		<path class="st1" d="M595.8,195.2c-0.9,0-1.7,0.2-2.5,0.7c-2.4,1.4-3.2,4.5-1.8,6.9c0.9,1.6,2.6,2.5,4.4,2.5
			c0.9,0,1.7-0.2,2.5-0.7c2.4-1.4,3.2-4.5,1.8-6.9C599.2,196.1,597.5,195.2,595.8,195.2L595.8,195.2z"/>
	</g>
	<g>
		<path class="st1" d="M627.6,165.4c-0.9,0-1.7,0.2-2.5,0.7c-2.4,1.4-3.2,4.5-1.8,6.9c0.9,1.6,2.6,2.5,4.4,2.5
			c0.9,0,1.7-0.2,2.5-0.7c2.4-1.4,3.2-4.5,1.8-6.9C631,166.3,629.3,165.4,627.6,165.4L627.6,165.4z"/>
	</g>
	<g>
		<path class="st1" d="M648.2,135c-1.5,0-3.1,0.7-4,2c-1.7,2.2-1.2,5.4,1,7c0.9,0.7,1.9,1,3,1c1.5,0,3.1-0.7,4-2
			c1.7-2.2,1.2-5.4-1-7C650.3,135.3,649.2,135,648.2,135L648.2,135z"/>
	</g>
	<g>
		<path class="st1" d="M635.8,148c-1.5,0-3.1,0.7-4,2c-1.7,2.2-1.2,5.4,1,7c0.9,0.7,1.9,1,3,1c1.5,0,3.1-0.7,4-2
			c1.7-2.2,1.2-5.4-1-7C637.9,148.3,636.8,148,635.8,148L635.8,148z"/>
	</g>
	<g>
		<path class="st1" d="M646.7,159.4c-1.5,0-3.1,0.7-4,2c-1.7,2.2-1.2,5.4,1,7c0.9,0.7,1.9,1,3,1c1.5,0,3.1-0.7,4-2
			c1.7-2.2,1.2-5.4-1-7C648.8,159.7,647.8,159.4,646.7,159.4L646.7,159.4z"/>
	</g>
	<g>
		<path class="st1" d="M645.7,177.9c-1.5,0-3.1,0.7-4,2c-1.7,2.2-1.2,5.4,1,7c0.9,0.7,1.9,1,3,1c1.5,0,3.1-0.7,4-2
			c1.7-2.2,1.2-5.4-1-7C647.8,178.2,646.8,177.9,645.7,177.9L645.7,177.9z"/>
	</g>
	<g>
		<path class="st1" d="M674.8,192.9c-1.5,0-3.1,0.7-4,2c-1.7,2.2-1.2,5.4,1,7c0.9,0.7,1.9,1,3,1c1.5,0,3.1-0.7,4-2
			c1.7-2.2,1.2-5.4-1-7C676.9,193.2,675.9,192.9,674.8,192.9L674.8,192.9z"/>
	</g>
	<g>
		<path class="st1" d="M686.5,208.8c-1.5,0-3.1,0.7-4,2c-1.7,2.2-1.2,5.4,1,7c0.9,0.7,1.9,1,3,1c1.5,0,3.1-0.7,4-2
			c1.7-2.2,1.2-5.4-1-7C688.6,209.1,687.5,208.8,686.5,208.8L686.5,208.8z"/>
	</g>
	<g>
		<path class="st1" d="M694.5,226c-1.5,0-3.1,0.7-4,2c-1.7,2.2-1.2,5.4,1,7c0.9,0.7,1.9,1,3,1c1.5,0,3.1-0.7,4-2
			c1.7-2.2,1.2-5.4-1-7C696.6,226.4,695.6,226,694.5,226L694.5,226z"/>
	</g>
	<g>
		<path class="st1" d="M649.6,354.3c-2.5,0-4.6,1.8-5,4.3c-0.4,2.7,1.5,5.3,4.2,5.7c0.3,0,0.5,0.1,0.7,0.1c2.5,0,4.6-1.8,5-4.3
			c0.4-2.7-1.5-5.3-4.2-5.7C650.1,354.3,649.8,354.3,649.6,354.3L649.6,354.3z"/>
	</g>
	<g>
		<path class="st1" d="M629.1,407.6c-2.1,0-4.1,1.4-4.8,3.5c-0.8,2.7,0.6,5.5,3.3,6.3c0.5,0.2,1,0.2,1.5,0.2c2.1,0,4.1-1.4,4.8-3.5
			c0.8-2.7-0.6-5.5-3.3-6.3C630.1,407.7,629.6,407.6,629.1,407.6L629.1,407.6z"/>
	</g>
	<g>
		<path class="st1" d="M635.5,441.1c-2.1,0-4.1,1.4-4.8,3.5c-0.8,2.7,0.6,5.5,3.3,6.3c0.5,0.2,1,0.2,1.5,0.2c2.1,0,4.1-1.4,4.8-3.5
			c0.8-2.7-0.6-5.5-3.3-6.3C636.5,441.2,636,441.1,635.5,441.1L635.5,441.1z"/>
	</g>
	<g>
		<path class="st1" d="M642.6,458.8c-2.1,0-4.1,1.4-4.8,3.5c-0.8,2.7,0.6,5.5,3.3,6.3c0.5,0.2,1,0.2,1.5,0.2c2.1,0,4.1-1.4,4.8-3.5
			c0.8-2.7-0.6-5.5-3.3-6.3C643.6,458.8,643.1,458.8,642.6,458.8L642.6,458.8z"/>
	</g>
	<g>
		<path class="st1" d="M641.2,422.4c-2.1,0-4.1,1.4-4.8,3.5c-0.8,2.7,0.6,5.5,3.3,6.3c0.5,0.2,1,0.2,1.5,0.2c2.1,0,4.1-1.4,4.8-3.5
			c0.8-2.7-0.6-5.5-3.3-6.3C642.2,422.4,641.7,422.4,641.2,422.4L641.2,422.4z"/>
	</g>
	<g>
		<path class="st1" d="M647.5,404.9c-2.1,0-4.1,1.4-4.8,3.5c-0.8,2.7,0.6,5.5,3.3,6.3c0.5,0.2,1,0.2,1.5,0.2c2.1,0,4.1-1.4,4.8-3.5
			c0.8-2.7-0.6-5.5-3.3-6.3C648.5,405,648,404.9,647.5,404.9L647.5,404.9z"/>
	</g>
	<g>
		<path class="st1" d="M648.2,387.9c-2.5,0-4.6,1.8-5,4.4c-0.4,2.8,1.6,5.3,4.3,5.7c0.2,0,0.5,0,0.7,0c2.5,0,4.6-1.8,5-4.4
			c0.4-2.8-1.6-5.3-4.3-5.7C648.7,387.9,648.5,387.9,648.2,387.9L648.2,387.9z"/>
	</g>
	<g>
		<path class="st1" d="M652.4,370.7c-2.5,0-4.6,1.8-5,4.4c-0.4,2.8,1.6,5.3,4.3,5.7c0.2,0,0.5,0,0.7,0c2.5,0,4.6-1.8,5-4.4
			c0.4-2.8-1.6-5.3-4.3-5.7C652.9,370.8,652.6,370.7,652.4,370.7L652.4,370.7z"/>
	</g>
	<g>
		<path class="st1" d="M665.3,358.4c-2.5,0-4.6,1.8-5,4.4c-0.4,2.8,1.6,5.3,4.3,5.7c0.2,0,0.5,0,0.7,0c2.5,0,4.6-1.8,5-4.4
			c0.4-2.8-1.6-5.3-4.3-5.7C665.8,358.5,665.5,358.4,665.3,358.4L665.3,358.4z"/>
	</g>
	<g>
		<path class="st1" d="M683.3,359.2c-2.5,0-4.6,1.8-5,4.4c-0.4,2.8,1.6,5.3,4.3,5.7c0.2,0,0.5,0,0.7,0c2.5,0,4.6-1.8,5-4.4
			c0.4-2.8-1.6-5.3-4.3-5.7C683.7,359.2,683.5,359.2,683.3,359.2L683.3,359.2z"/>
	</g>
	<g>
		<path class="st1" d="M664.8,390.9c-2.5,0-4.6,1.8-5,4.4c-0.4,2.8,1.6,5.3,4.3,5.7c0.2,0,0.5,0,0.7,0c2.5,0,4.6-1.8,5-4.4
			c0.4-2.8-1.6-5.3-4.3-5.7C665.3,390.9,665.1,390.9,664.8,390.9L664.8,390.9z"/>
	</g>
	<g>
		<path class="st1" d="M672.7,406c-2.5,0-4.6,1.8-5,4.4c-0.4,2.8,1.6,5.3,4.3,5.7c0.2,0,0.5,0,0.7,0c2.5,0,4.6-1.8,5-4.4
			c0.4-2.8-1.6-5.3-4.3-5.7C673.2,406,673,406,672.7,406L672.7,406z"/>
	</g>
	<g>
		<path class="st1" d="M670.4,376.2c-2.5,0-4.6,1.8-5,4.4c-0.4,2.8,1.6,5.3,4.3,5.7c0.2,0,0.5,0,0.7,0c2.5,0,4.6-1.8,5-4.4
			c0.4-2.8-1.6-5.3-4.3-5.7C670.9,376.2,670.7,376.2,670.4,376.2L670.4,376.2z"/>
	</g>
	<g>
		<path class="st1" d="M692.6,373.8c-2.5,0-4.6,1.8-5,4.4c-0.4,2.8,1.6,5.3,4.3,5.7c0.2,0,0.5,0,0.7,0c2.5,0,4.6-1.8,5-4.4
			c0.4-2.8-1.6-5.3-4.3-5.7C693.1,373.8,692.8,373.8,692.6,373.8L692.6,373.8z"/>
	</g>
	<g>
		<path class="st1" d="M693.9,407.6c-2.5,0-4.6,1.8-5,4.4c-0.4,2.8,1.6,5.3,4.3,5.7c0.2,0,0.5,0,0.7,0c2.5,0,4.6-1.8,5-4.4
			c0.4-2.8-1.6-5.3-4.3-5.7C694.4,407.6,694.2,407.6,693.9,407.6L693.9,407.6z"/>
	</g>
	<g>
		<path class="st1" d="M687.3,441c-2.5,0-4.6,1.8-5,4.4c-0.4,2.8,1.6,5.3,4.3,5.7c0.2,0,0.5,0,0.7,0c2.5,0,4.6-1.8,5-4.4
			c0.4-2.8-1.6-5.3-4.3-5.7C687.8,441,687.6,441,687.3,441L687.3,441z"/>
	</g>
	<g>
		<path class="st1" d="M685.1,462.1c-2.5,0-4.6,1.8-5,4.4c-0.4,2.8,1.6,5.3,4.3,5.7c0.2,0,0.5,0,0.7,0c2.5,0,4.6-1.8,5-4.4
			c0.4-2.8-1.6-5.3-4.3-5.7C685.5,462.1,685.3,462.1,685.1,462.1L685.1,462.1z"/>
	</g>
	<g>
		<path class="st1" d="M684.5,390.2c-2.5,0-4.6,1.8-5,4.4c-0.4,2.8,1.6,5.3,4.3,5.7c0.2,0,0.5,0,0.7,0c2.5,0,4.6-1.8,5-4.4
			c0.4-2.8-1.6-5.3-4.3-5.7C684.9,390.2,684.7,390.2,684.5,390.2L684.5,390.2z"/>
	</g>
	<g>
		<path class="st1" d="M702.4,358.7c-2.5,0-4.6,1.8-5,4.4c-0.4,2.8,1.6,5.3,4.3,5.7c0.2,0,0.5,0,0.7,0c2.5,0,4.6-1.8,5-4.4
			c0.4-2.8-1.6-5.3-4.3-5.7C702.9,358.7,702.7,358.7,702.4,358.7L702.4,358.7z"/>
	</g>
	<g>
		<path class="st1" d="M703.5,390.9c-2.5,0-4.6,1.8-5,4.4c-0.4,2.8,1.6,5.3,4.3,5.7c0.2,0,0.5,0,0.7,0c2.5,0,4.6-1.8,5-4.4
			c0.4-2.8-1.6-5.3-4.3-5.7C703.9,391,703.7,390.9,703.5,390.9L703.5,390.9z"/>
	</g>
	<g>
		<path class="st1" d="M700.8,425.2c-2.5,0-4.6,1.8-5,4.4c-0.4,2.8,1.6,5.3,4.3,5.7c0.2,0,0.5,0,0.7,0c2.5,0,4.6-1.8,5-4.4
			c0.4-2.8-1.6-5.3-4.3-5.7C701.3,425.2,701.1,425.2,700.8,425.2L700.8,425.2z"/>
	</g>
	<g>
		<path class="st1" d="M683.4,420.9c-2.5,0-4.6,1.8-5,4.4c-0.4,2.8,1.6,5.3,4.3,5.7c0.2,0,0.5,0,0.7,0c2.5,0,4.6-1.8,5-4.4
			c0.4-2.8-1.6-5.3-4.3-5.7C683.8,420.9,683.6,420.9,683.4,420.9L683.4,420.9z"/>
	</g>
	<g>
		<path class="st1" d="M671.6,480.1c-2.5,0-4.6,1.8-5,4.4c-0.4,2.8,1.6,5.3,4.3,5.7c0.2,0,0.5,0,0.7,0c2.5,0,4.6-1.8,5-4.4
			c0.4-2.8-1.6-5.3-4.3-5.7C672,480.1,671.8,480.1,671.6,480.1L671.6,480.1z"/>
	</g>
	<g>
		<path class="st1" d="M659.2,419.2c-2.5,0-4.6,1.8-5,4.4c-0.4,2.8,1.6,5.3,4.3,5.7c0.2,0,0.5,0,0.7,0c2.5,0,4.6-1.8,5-4.4
			c0.4-2.8-1.6-5.3-4.3-5.7C659.6,419.3,659.4,419.2,659.2,419.2L659.2,419.2z"/>
	</g>
	<g>
		<path class="st1" d="M653.5,440.1c-2.5,0-4.6,1.8-5,4.4c-0.4,2.8,1.6,5.3,4.3,5.7c0.2,0,0.5,0,0.7,0c2.5,0,4.6-1.8,5-4.4
			c0.4-2.8-1.6-5.3-4.3-5.7C654,440.1,653.7,440.1,653.5,440.1L653.5,440.1z"/>
	</g>
	<g>
		<path class="st1" d="M654.3,471.6c-2.5,0-4.6,1.8-5,4.4c-0.4,2.8,1.6,5.3,4.3,5.7c0.2,0,0.5,0,0.7,0c2.5,0,4.6-1.8,5-4.4
			c0.4-2.8-1.6-5.3-4.3-5.7C654.8,471.6,654.6,471.6,654.3,471.6L654.3,471.6z"/>
	</g>
	<g>
		<path class="st1" d="M668,456.6c-2.5,0-4.6,1.8-5,4.4c-0.4,2.8,1.6,5.3,4.3,5.7c0.2,0,0.5,0,0.7,0c2.5,0,4.6-1.8,5-4.4
			c0.4-2.8-1.6-5.3-4.3-5.7C668.5,456.6,668.3,456.6,668,456.6L668,456.6z"/>
	</g>
	<g>
		<path class="st1" d="M670.9,436.7c-2.5,0-4.6,1.8-5,4.4c-0.4,2.8,1.6,5.3,4.3,5.7c0.2,0,0.5,0,0.7,0c2.5,0,4.6-1.8,5-4.4
			c0.4-2.8-1.6-5.3-4.3-5.7C671.4,436.7,671.2,436.7,670.9,436.7L670.9,436.7z"/>
	</g>
	<g>
		<path class="st1" d="M661.4,500.2c-2.5,0-4.6,1.8-5,4.4c-0.4,2.8,1.6,5.3,4.3,5.7c0.2,0,0.5,0,0.7,0c2.5,0,4.6-1.8,5-4.4
			c0.4-2.8-1.6-5.3-4.3-5.7C661.9,500.3,661.6,500.2,661.4,500.2L661.4,500.2z"/>
	</g>
	<g>
		<path class="st1" d="M529.3,555.5c-2.1,0-4.1,1.4-4.8,3.5c-0.8,2.7,0.6,5.5,3.3,6.3c0.5,0.2,1,0.2,1.5,0.2c2.1,0,4.1-1.4,4.8-3.5
			c0.8-2.7-0.6-5.5-3.3-6.3C530.3,555.6,529.8,555.5,529.3,555.5L529.3,555.5z"/>
	</g>
	<g>
		<path class="st1" d="M553.4,559c-2.1,0-4.1,1.4-4.8,3.5c-0.8,2.7,0.6,5.5,3.3,6.3c0.5,0.2,1,0.2,1.5,0.2c2.1,0,4.1-1.4,4.8-3.5
			c0.8-2.7-0.6-5.5-3.3-6.3C554.4,559.1,553.9,559,553.4,559L553.4,559z"/>
	</g>
	<g>
		<path class="st1" d="M540.4,571c-2.1,0-4.1,1.4-4.8,3.5c-0.8,2.7,0.6,5.5,3.3,6.3c0.5,0.2,1,0.2,1.5,0.2c2.1,0,4.1-1.4,4.8-3.5
			c0.8-2.7-0.6-5.5-3.3-6.3C541.4,571.1,540.9,571,540.4,571L540.4,571z"/>
	</g>
	<g>
		<path class="st1" d="M519.1,570.1c-0.1,0-0.2,0-0.3,0c-2.8,0.2-4.9,2.6-4.7,5.4c0.2,2.7,2.4,4.7,5,4.7c0.1,0,0.2,0,0.3,0
			c2.8-0.2,4.9-2.6,4.7-5.4C523.9,572.1,521.7,570.1,519.1,570.1L519.1,570.1z"/>
	</g>
	<g>
		<path class="st1" d="M502.2,571.6c-0.1,0-0.2,0-0.3,0c-2.8,0.2-4.9,2.6-4.7,5.4c0.2,2.7,2.4,4.7,5,4.7c0.1,0,0.2,0,0.3,0
			c2.8-0.2,4.9-2.6,4.7-5.4C507.1,573.7,504.9,571.6,502.2,571.6L502.2,571.6z"/>
	</g>
	<g>
		<path class="st1" d="M494.3,587.9c-0.1,0-0.2,0-0.3,0c-2.8,0.2-4.9,2.6-4.7,5.4c0.2,2.7,2.4,4.7,5,4.7c0.1,0,0.2,0,0.3,0
			c2.8-0.2,4.9-2.6,4.7-5.4C499.1,589.9,496.9,587.9,494.3,587.9L494.3,587.9z"/>
	</g>
	<g>
		<path class="st1" d="M478.8,580.7c-0.1,0-0.2,0-0.3,0c-2.8,0.2-4.9,2.6-4.7,5.4c0.2,2.7,2.4,4.7,5,4.7c0.1,0,0.2,0,0.3,0
			c2.8-0.2,4.9-2.6,4.7-5.4C483.6,582.8,481.4,580.7,478.8,580.7L478.8,580.7z"/>
	</g>
	<g>
		<path class="st1" d="M473.6,597.5c-0.1,0-0.2,0-0.3,0c-2.8,0.2-4.9,2.6-4.7,5.4c0.2,2.7,2.4,4.7,5,4.7c0.1,0,0.2,0,0.3,0
			c2.8-0.2,4.9-2.6,4.7-5.4C478.4,599.6,476.2,597.5,473.6,597.5L473.6,597.5z"/>
	</g>
	<g>
		<path class="st1" d="M487.9,603.8c-0.1,0-0.2,0-0.3,0c-2.8,0.2-4.9,2.6-4.7,5.4c0.2,2.7,2.4,4.7,5,4.7c0.1,0,0.2,0,0.3,0
			c2.8-0.2,4.9-2.6,4.7-5.4C492.7,605.8,490.5,603.8,487.9,603.8L487.9,603.8z"/>
	</g>
	<g>
		<path class="st1" d="M511.8,586.4c-0.1,0-0.2,0-0.3,0c-2.8,0.2-4.9,2.6-4.7,5.4c0.2,2.7,2.4,4.7,5,4.7c0.1,0,0.2,0,0.3,0
			c2.8-0.2,4.9-2.6,4.7-5.4C516.6,588.5,514.4,586.4,511.8,586.4L511.8,586.4z"/>
	</g>
	<g>
		<path class="st1" d="M530.5,585c-0.1,0-0.2,0-0.3,0c-2.8,0.2-4.9,2.6-4.7,5.4c0.2,2.7,2.4,4.7,5,4.7c0.1,0,0.2,0,0.3,0
			c2.8-0.2,4.9-2.6,4.7-5.4C535.4,587,533.2,585,530.5,585L530.5,585z"/>
	</g>
	<g>
		<path class="st1" d="M562.2,576.9c-0.1,0-0.2,0-0.3,0c-2.8,0.2-4.9,2.6-4.7,5.4c0.2,2.7,2.4,4.7,5,4.7c0.1,0,0.2,0,0.3,0
			c2.8-0.2,4.9-2.6,4.7-5.4C567.1,578.9,564.9,576.9,562.2,576.9L562.2,576.9z"/>
	</g>
	<g>
		<path class="st1" d="M545.1,594c-0.1,0-0.2,0-0.3,0c-2.8,0.2-4.9,2.6-4.7,5.4c0.2,2.7,2.4,4.7,5,4.7c0.1,0,0.2,0,0.3,0
			c2.8-0.2,4.9-2.6,4.7-5.4C550,596,547.7,594,545.1,594L545.1,594z"/>
	</g>
	<g>
		<path class="st1" d="M561.5,596.3c-0.1,0-0.2,0-0.3,0c-2.8,0.2-4.9,2.6-4.7,5.4c0.2,2.7,2.4,4.7,5,4.7c0.1,0,0.2,0,0.3,0
			c2.8-0.2,4.9-2.6,4.7-5.4C566.3,598.3,564.1,596.3,561.5,596.3L561.5,596.3z"/>
	</g>
	<g>
		<path class="st1" d="M525.3,603.9c-0.1,0-0.2,0-0.3,0c-2.8,0.2-4.9,2.6-4.7,5.4c0.2,2.7,2.4,4.7,5,4.7c0.1,0,0.2,0,0.3,0
			c2.8-0.2,4.9-2.6,4.7-5.4C530.1,605.9,527.9,603.9,525.3,603.9L525.3,603.9z"/>
	</g>
	<g>
		<path class="st1" d="M506,602.2c-0.1,0-0.2,0-0.3,0c-2.8,0.2-4.9,2.6-4.7,5.4c0.2,2.7,2.4,4.7,5,4.7c0.1,0,0.2,0,0.3,0
			c2.8-0.2,4.9-2.6,4.7-5.4C510.8,604.2,508.6,602.2,506,602.2L506,602.2z"/>
	</g>
	<g>
		<path class="st1" d="M506,621c-0.1,0-0.2,0-0.3,0c-2.8,0.2-4.9,2.6-4.7,5.4c0.2,2.7,2.4,4.7,5,4.7c0.1,0,0.2,0,0.3,0
			c2.8-0.2,4.9-2.6,4.7-5.4C510.8,623,508.6,621,506,621L506,621z"/>
	</g>
	<g>
		<path class="st1" d="M474.8,619c-0.1,0-0.2,0-0.3,0c-2.8,0.2-4.9,2.6-4.7,5.4c0.2,2.7,2.4,4.7,5,4.7c0.1,0,0.2,0,0.3,0
			c2.8-0.2,4.9-2.6,4.7-5.4C479.6,621,477.4,619,474.8,619L474.8,619z"/>
	</g>
	<g>
		<path class="st1" d="M488.8,630.2c-0.1,0-0.2,0-0.3,0c-2.8,0.2-4.9,2.6-4.7,5.4c0.2,2.7,2.4,4.7,5,4.7c0.1,0,0.2,0,0.3,0
			c2.8-0.2,4.9-2.6,4.7-5.4C493.6,632.3,491.4,630.2,488.8,630.2L488.8,630.2z"/>
	</g>
	<g>
		<path class="st1" d="M522.9,623.9c-0.1,0-0.2,0-0.3,0c-2.8,0.2-4.9,2.6-4.7,5.4c0.2,2.7,2.4,4.7,5,4.7c0.1,0,0.2,0,0.3,0
			c2.8-0.2,4.9-2.6,4.7-5.4C527.8,625.9,525.6,623.9,522.9,623.9L522.9,623.9z"/>
	</g>
	<g>
		<path class="st1" d="M538.4,613.1c-0.1,0-0.2,0-0.3,0c-2.8,0.2-4.9,2.6-4.7,5.4c0.2,2.7,2.4,4.7,5,4.7c0.1,0,0.2,0,0.3,0
			c2.8-0.2,4.9-2.6,4.7-5.4C543.2,615.2,541,613.1,538.4,613.1L538.4,613.1z"/>
	</g>
	<g>
		<path class="st1" d="M555.9,615.4c-0.1,0-0.2,0-0.3,0c-2.8,0.2-4.9,2.6-4.7,5.4c0.2,2.7,2.4,4.7,5,4.7c0.1,0,0.2,0,0.3,0
			c2.8-0.2,4.9-2.6,4.7-5.4C560.7,617.5,558.5,615.4,555.9,615.4L555.9,615.4z"/>
	</g>
	<g>
		<path class="st1" d="M538.4,632.6c-0.1,0-0.2,0-0.3,0c-2.8,0.2-4.9,2.6-4.7,5.4c0.2,2.7,2.4,4.7,5,4.7c0.1,0,0.2,0,0.3,0
			c2.8-0.2,4.9-2.6,4.7-5.4C543.2,634.6,541,632.6,538.4,632.6L538.4,632.6z"/>
	</g>
	<g>
		<path class="st1" d="M506.7,640.3c-0.1,0-0.2,0-0.3,0c-2.8,0.2-4.9,2.6-4.7,5.4c0.2,2.7,2.4,4.7,5,4.7c0.1,0,0.2,0,0.3,0
			c2.8-0.2,4.9-2.6,4.7-5.4C511.5,642.4,509.3,640.3,506.7,640.3L506.7,640.3z"/>
	</g>
	<g>
		<path class="st1" d="M473.5,641.6c-0.1,0-0.2,0-0.3,0c-2.8,0.2-4.9,2.6-4.7,5.4c0.2,2.7,2.4,4.7,5,4.7c0.1,0,0.2,0,0.3,0
			c2.8-0.2,4.9-2.6,4.7-5.4C478.3,643.6,476.1,641.6,473.5,641.6L473.5,641.6z"/>
	</g>
	<g>
		<path class="st1" d="M452,648.1c-0.1,0-0.2,0-0.3,0c-2.8,0.2-4.9,2.6-4.7,5.4c0.2,2.7,2.4,4.7,5,4.7c0.1,0,0.2,0,0.3,0
			c2.8-0.2,4.9-2.6,4.7-5.4C456.8,650.1,454.6,648.1,452,648.1L452,648.1z"/>
	</g>
	<g>
		<path class="st1" d="M467.1,657.3c-0.1,0-0.2,0-0.3,0c-2.8,0.2-4.9,2.6-4.7,5.4c0.2,2.7,2.4,4.7,5,4.7c0.1,0,0.2,0,0.3,0
			c2.8-0.2,4.9-2.6,4.7-5.4C472,659.3,469.7,657.3,467.1,657.3L467.1,657.3z"/>
	</g>
	<g>
		<path class="st1" d="M431.3,646.9c-0.1,0-0.2,0-0.3,0c-2.8,0.2-4.9,2.6-4.7,5.4c0.2,2.7,2.4,4.7,5,4.7c0.1,0,0.2,0,0.3,0
			c2.8-0.2,4.9-2.6,4.7-5.4C436.2,649,434,646.9,431.3,646.9L431.3,646.9z"/>
	</g>
	<g>
		<path class="st1" d="M435.7,665.7c-0.1,0-0.2,0-0.3,0c-2.8,0.2-4.9,2.6-4.7,5.4c0.2,2.7,2.4,4.7,5,4.7c0.1,0,0.2,0,0.3,0
			c2.8-0.2,4.9-2.6,4.7-5.4C440.5,667.7,438.3,665.7,435.7,665.7L435.7,665.7z"/>
	</g>
	<g>
		<path class="st1" d="M492.5,651.7c-0.1,0-0.2,0-0.3,0c-2.8,0.2-4.9,2.6-4.7,5.4c0.2,2.7,2.4,4.7,5,4.7c0.1,0,0.2,0,0.3,0
			c2.8-0.2,4.9-2.6,4.7-5.4C497.3,653.7,495.1,651.7,492.5,651.7L492.5,651.7z"/>
	</g>
	<g>
		<path class="st1" d="M191,517.3c-0.5,0-1,0.1-1.5,0.2c-2.7,0.8-4.1,3.7-3.3,6.3c0.7,2.1,2.7,3.5,4.8,3.5c0.5,0,1-0.1,1.5-0.2
			c2.7-0.8,4.1-3.7,3.3-6.3C195.1,518.7,193.1,517.3,191,517.3L191,517.3z"/>
	</g>
	<g>
		<path class="st1" d="M176.9,502.6c-0.5,0-1,0.1-1.5,0.2c-2.7,0.8-4.1,3.7-3.3,6.3c0.7,2.1,2.7,3.5,4.8,3.5c0.5,0,1-0.1,1.5-0.2
			c2.7-0.8,4.1-3.7,3.3-6.3C181,503.9,179,502.6,176.9,502.6L176.9,502.6z"/>
	</g>
	<g>
		<path class="st1" d="M170.9,527.2c-0.5,0-1,0.1-1.5,0.2c-2.7,0.8-4.1,3.7-3.3,6.3c0.7,2.1,2.7,3.5,4.8,3.5c0.5,0,1-0.1,1.5-0.2
			c2.7-0.8,4.1-3.7,3.3-6.3C175,528.6,173.1,527.2,170.9,527.2L170.9,527.2z"/>
	</g>
	<g>
		<path class="st1" d="M177,482.2c-0.5,0-1,0.1-1.5,0.2c-2.7,0.8-4.1,3.7-3.3,6.3c0.7,2.1,2.7,3.5,4.8,3.5c0.5,0,1-0.1,1.5-0.2
			c2.7-0.8,4.1-3.7,3.3-6.3C181.2,483.6,179.2,482.2,177,482.2L177,482.2z"/>
	</g>
	<g>
		<path class="st1" d="M163.2,478c-0.5,0-1,0.1-1.5,0.2c-2.7,0.8-4.1,3.7-3.3,6.3c0.7,2.1,2.7,3.5,4.8,3.5c0.5,0,1-0.1,1.5-0.2
			c2.7-0.8,4.1-3.7,3.3-6.3C167.3,479.4,165.3,478,163.2,478L163.2,478z"/>
	</g>
	<g>
		<path class="st1" d="M155.5,493.8c-0.5,0-1,0.1-1.5,0.2c-2.7,0.8-4.1,3.7-3.3,6.3c0.7,2.1,2.7,3.5,4.8,3.5c0.5,0,1-0.1,1.5-0.2
			c2.7-0.8,4.1-3.7,3.3-6.3C159.7,495.2,157.7,493.8,155.5,493.8L155.5,493.8z"/>
	</g>
	<g>
		<path class="st1" d="M162.8,513.2c-0.5,0-1,0.1-1.5,0.2c-2.7,0.8-4.1,3.7-3.3,6.3c0.7,2.1,2.7,3.5,4.8,3.5c0.5,0,1-0.1,1.5-0.2
			c2.7-0.8,4.1-3.7,3.3-6.3C166.9,514.6,164.9,513.2,162.8,513.2L162.8,513.2z"/>
	</g>
	<g>
		<path class="st1" d="M150.6,526.8c-0.5,0-1,0.1-1.5,0.2c-2.7,0.8-4.1,3.7-3.3,6.3c0.7,2.1,2.7,3.5,4.8,3.5c0.5,0,1-0.1,1.5-0.2
			c2.7-0.8,4.1-3.7,3.3-6.3C154.7,528.2,152.7,526.8,150.6,526.8L150.6,526.8z"/>
	</g>
	<g>
		<path class="st1" d="M143.2,504c-2.6,0-4.8,2-5,4.7c-0.2,2.8,1.9,5.2,4.7,5.4c0.1,0,0.2,0,0.4,0c2.6,0,4.8-2,5-4.7
			c0.2-2.8-1.9-5.2-4.7-5.4C143.5,504,143.4,504,143.2,504L143.2,504z"/>
	</g>
	<g>
		<path class="st1" d="M131.9,516.3c-2.6,0-4.8,2-5,4.7c-0.2,2.8,1.9,5.2,4.7,5.4c0.1,0,0.2,0,0.4,0c2.6,0,4.8-2,5-4.7
			c0.2-2.8-1.9-5.2-4.7-5.4C132.2,516.3,132,516.3,131.9,516.3L131.9,516.3z"/>
	</g>
	<g>
		<path class="st1" d="M150,548.3c-2.6,0-4.8,2-5,4.7c-0.2,2.8,1.9,5.2,4.7,5.4c0.1,0,0.2,0,0.4,0c2.6,0,4.8-2,5-4.7
			c0.2-2.8-1.9-5.2-4.7-5.4C150.2,548.3,150.1,548.3,150,548.3L150,548.3z"/>
	</g>
	<g>
		<path class="st1" d="M133.5,536.5c-2.6,0-4.8,2-5,4.7c-0.2,2.8,1.9,5.2,4.7,5.4c0.1,0,0.2,0,0.4,0c2.6,0,4.8-2,5-4.7
			c0.2-2.8-1.9-5.2-4.7-5.4C133.8,536.5,133.6,536.5,133.5,536.5L133.5,536.5z"/>
	</g>
	<g>
		<path class="st1" d="M156.7,461.1c-0.5,0-1,0.1-1.5,0.2c-2.7,0.8-4.1,3.7-3.3,6.3c0.7,2.1,2.7,3.5,4.8,3.5c0.5,0,1-0.1,1.5-0.2
			c2.7-0.8,4.1-3.7,3.3-6.3C160.8,462.5,158.8,461.1,156.7,461.1L156.7,461.1z"/>
	</g>
	<g>
		<path class="st1" d="M146.3,476.3c-0.5,0-1,0.1-1.5,0.2c-2.7,0.8-4.1,3.7-3.3,6.3c0.7,2.1,2.7,3.5,4.8,3.5c0.5,0,1-0.1,1.5-0.2
			c2.7-0.8,4.1-3.7,3.3-6.3C150.5,477.7,148.5,476.3,146.3,476.3L146.3,476.3z"/>
	</g>
	<g>
		<path class="st1" d="M139.6,459.6c-0.5,0-1,0.1-1.5,0.2c-2.7,0.8-4.1,3.7-3.3,6.3c0.7,2.1,2.7,3.5,4.8,3.5c0.5,0,1-0.1,1.5-0.2
			c2.7-0.8,4.1-3.7,3.3-6.3C143.7,461,141.7,459.6,139.6,459.6L139.6,459.6z"/>
	</g>
	<g>
		<path class="st1" d="M147.2,445.5c-0.5,0-1,0.1-1.5,0.2c-2.7,0.8-4.1,3.7-3.3,6.3c0.7,2.1,2.7,3.5,4.8,3.5c0.5,0,1-0.1,1.5-0.2
			c2.7-0.8,4.1-3.7,3.3-6.3C151.4,446.9,149.4,445.5,147.2,445.5L147.2,445.5z"/>
	</g>
	<g>
		<path class="st1" d="M129.7,440.4c-0.5,0-1,0.1-1.5,0.2c-2.7,0.8-4.1,3.7-3.3,6.3c0.7,2.1,2.7,3.5,4.8,3.5c0.5,0,1-0.1,1.5-0.2
			c2.7-0.8,4.1-3.7,3.3-6.3C133.8,441.8,131.8,440.4,129.7,440.4L129.7,440.4z"/>
	</g>
	<g>
		<path class="st1" d="M122.5,425.8c-0.5,0-1,0.1-1.5,0.2c-2.7,0.8-4.1,3.7-3.3,6.3c0.7,2.1,2.7,3.5,4.8,3.5c0.5,0,1-0.1,1.5-0.2
			c2.7-0.8,4.1-3.7,3.3-6.3C126.6,427.2,124.7,425.8,122.5,425.8L122.5,425.8z"/>
	</g>
	<g>
		<path class="st1" d="M111.4,411.2c-0.5,0-1,0.1-1.5,0.2c-2.7,0.8-4.1,3.7-3.3,6.3c0.7,2.1,2.7,3.5,4.8,3.5c0.5,0,1-0.1,1.5-0.2
			c2.7-0.8,4.1-3.7,3.3-6.3C115.5,412.5,113.5,411.2,111.4,411.2L111.4,411.2z"/>
	</g>
	<g>
		<path class="st1" d="M81.3,412.6c-0.5,0-1,0.1-1.5,0.2c-2.7,0.8-4.1,3.7-3.3,6.3c0.7,2.1,2.7,3.5,4.8,3.5c0.5,0,1-0.1,1.5-0.2
			c2.7-0.8,4.1-3.7,3.3-6.3C85.4,414,83.4,412.6,81.3,412.6L81.3,412.6z"/>
	</g>
	<g>
		<path class="st1" d="M121.2,466.9c-0.5,0-1,0.1-1.5,0.2c-2.7,0.8-4.1,3.7-3.3,6.3c0.7,2.1,2.7,3.5,4.8,3.5c0.5,0,1-0.1,1.5-0.2
			c2.7-0.8,4.1-3.7,3.3-6.3C125.3,468.3,123.3,466.9,121.2,466.9L121.2,466.9z"/>
	</g>
	<g>
		<path class="st1" d="M131.5,487.9c-0.5,0-1,0.1-1.5,0.2c-2.7,0.8-4.1,3.7-3.3,6.3c0.7,2.1,2.7,3.5,4.8,3.5c0.5,0,1-0.1,1.5-0.2
			c2.7-0.8,4.1-3.7,3.3-6.3C135.6,489.3,133.6,487.9,131.5,487.9L131.5,487.9z"/>
	</g>
	<g>
		<path class="st1" d="M109.7,486.4c-0.5,0-1,0.1-1.5,0.2c-2.7,0.8-4.1,3.7-3.3,6.3c0.7,2.1,2.7,3.5,4.8,3.5c0.5,0,1-0.1,1.5-0.2
			c2.7-0.8,4.1-3.7,3.3-6.3C113.8,487.7,111.8,486.4,109.7,486.4L109.7,486.4z"/>
	</g>
	<g>
		<path class="st1" d="M118.1,502.3c-0.5,0-1,0.1-1.5,0.2c-2.7,0.8-4.1,3.7-3.3,6.3c0.7,2.1,2.7,3.5,4.8,3.5c0.5,0,1-0.1,1.5-0.2
			c2.7-0.8,4.1-3.7,3.3-6.3C122.2,503.7,120.2,502.3,118.1,502.3L118.1,502.3z"/>
	</g>
	<g>
		<path class="st1" d="M130,412.3c-1.1,0-2.1,0.3-3,1c-2.2,1.7-2.7,4.8-1,7c1,1.3,2.5,2,4,2c1.1,0,2.1-0.3,3-1c2.2-1.7,2.7-4.8,1-7
			C133.1,413,131.6,412.3,130,412.3L130,412.3z"/>
	</g>
	<g>
		<path class="st1" d="M153.9,412.9c-1.1,0-2.2,0.4-3.2,1.1c-2.2,1.8-2.5,4.9-0.7,7.1c1,1.2,2.4,1.9,3.9,1.9c1.1,0,2.2-0.4,3.2-1.1
			c2.2-1.8,2.5-4.9,0.7-7.1C156.8,413.5,155.4,412.9,153.9,412.9L153.9,412.9z"/>
	</g>
	<g>
		<polyline class="st0" points="577,686.5 553.1,650 577,650 		"/>
		<polyline class="st0" points="642,511.9 665.4,548.6 641.6,548.3 		"/>
		<polyline class="st0" points="577,572.9 577,511.9 641.3,511.9 641.3,686.5 577,686.5 577,572.9 		"/>
		<line class="st0" x1="595" y1="544" x2="605.5" y2="553.4"/>
		<path class="st0" d="M621.2,545.7c0,0-1.2,23.7-22,28.2"/>
		<polyline class="st0" points="617.1,589.9 617.1,600.6 599.1,600.6 617.1,619.3 		"/>
		<polyline class="st0" points="599.1,639.9 620.3,639.9 603.7,660.7 		"/>
	</g>
	<circle class="st0" cx="391.1" cy="389.9" r="50.9"/>
	<path class="st0" d="M383.9,314.8c0,7.7-6.2,13.9-13.9,13.9c-7.7,0-13.9-6.2-13.9-13.9c0-7.7,6.2-30.9,13.9-30.9
		C377.7,284,383.9,307.1,383.9,314.8z"/>
	<path class="st0" d="M348,337.8c0,7.7-6.2,13.9-13.9,13.9c-7.7,0-13.9-6.2-13.9-13.9c0-7.7,6.2-30.9,13.9-30.9
		C341.7,306.9,348,330.1,348,337.8z"/>
	<path class="st0" d="M398.3,314.8c0,7.7,6.2,13.9,13.9,13.9s13.9-6.2,13.9-13.9c0-7.7-6.2-30.9-13.9-30.9S398.3,307.1,398.3,314.8z
		"/>
	<path class="st0" d="M434.3,337.8c0,7.7,6.2,13.9,13.9,13.9c7.7,0,13.9-6.2,13.9-13.9c0-7.7-6.2-30.9-13.9-30.9
		C440.5,306.9,434.3,330.1,434.3,337.8z"/>
	<path class="st0" d="M571.8,340.9v4.4c0,5.3-4.3,9.7-9.7,9.7H540c-3.8,0-6.9,3.1-6.9,6.9l0,0c0,3.8,3.1,6.9,6.9,6.9h47.6
		c3.7,0,6.8,3,6.8,6.8v0c0,3.7-3,6.8-6.8,6.8H570c-4.8,0-8.7,3.9-8.7,8.7v7.3"/>
	<circle class="st0" cx="567.1" cy="331.5" r="9.4"/>
	<path class="st0" d="M238.1,337.7c7.1,0,12.9,5.8,12.9,12.9v0c0,7.1-5.8,12.9-12.9,12.9h-42.6c-7.1,0-12.9-5.8-12.9-12.9v0
		c0-7.1,5.8-12.9,12.9-12.9"/>
	<polyline class="st0" points="195.4,363.5 216.8,392.5 238.1,363.5 	"/>
	<g>
		<path class="st0" d="M354.6,557.8l27.6-27.6c3.2-3.2,8.3-3.2,11.5,0l33.8,33.8"/>
		<line class="st0" x1="377.1" y1="535.2" x2="406.4" y2="564.6"/>
		<line class="st0" x1="367.8" y1="548.4" x2="383.9" y2="564.6"/>
	</g>
	<path class="st0" d="M369.5,144.2h36.7c4.1,0,7.5,3.1,7.9,7.1c1.3,12.4-0.3,38.1-30.7,55.2C383.4,206.5,392,167.3,369.5,144.2z"/>
	<g>
		<path class="st0" d="M271.1,652.9c0.2-21.8-17.4-39.6-39.2-39.8s-38.2,17.6-39.8,39.2c0,0-7.6,40.1,48.7,76.9l9.5-8.1
			c0,0-11.2-13.5-11.1-21.7c0.1-4.5,2.8-8.6,6.9-10.5C254.6,685.2,270.9,674.9,271.1,652.9z"/>
		
			<ellipse transform="matrix(7.656123e-03 -1 1 7.656123e-03 -422.7445 879.1802)" class="st0" cx="231.6" cy="652.6" rx="21.6" ry="21.6"/>
	</g>
	<circle class="st0" cx="231.9" cy="596.8" r="16.3"/>
	<line class="st0" x1="231.9" y1="537.1" x2="231.9" y2="597"/>
	<path class="st0" d="M436.1,413.9c-23.5,24.3-54.5,15.2-67.6,2.1c-13.2-13.3-14.2-40.1,2.2-51.6c13.1-9.2,36.7-9.4,45.9,3.7
		c7.4,10.5,9.6,31.9-4.5,40c-12.4,7.2-26.5,2.8-32.4-5.6c-4.7-6.7-3.1-20.4,3.6-25.1c5.4-3.8,15-2.5,18.7,2.9c3,4.3,2,12.4-2.3,15.4
		c-3.4,2.4-8.5,1.8-10.6-2.9"/>
	<line class="st0" x1="283.1" y1="306" x2="220.3" y2="274.5"/>
	<line class="st0" x1="289.2" y1="295.4" x2="258.9" y2="276.1"/>
	<line class="st0" x1="278" y1="317.7" x2="261.5" y2="311.4"/>
	<line class="st0" x1="499.1" y1="306" x2="561.9" y2="274.5"/>
	<line class="st0" x1="493.1" y1="295.4" x2="523.3" y2="276.1"/>
	<line class="st0" x1="504.2" y1="317.7" x2="520.7" y2="311.4"/>
	<line class="st0" x1="283.1" y1="414.7" x2="220.3" y2="446.2"/>
	<line class="st0" x1="289.2" y1="425.3" x2="258.9" y2="444.5"/>
	<line class="st0" x1="278" y1="403" x2="261.5" y2="409.3"/>
	<line class="st0" x1="499.1" y1="414.7" x2="561.9" y2="446.2"/>
	<line class="st0" x1="493.1" y1="425.3" x2="523.3" y2="444.5"/>
	<line class="st0" x1="504.2" y1="403" x2="520.7" y2="409.3"/>
	<path class="st0" d="M561.3,207.5c36.4,40.5,58.6,94.1,58.6,152.8c0,58.8-22.2,112.3-58.6,152.8"/>
	<path class="st0" d="M461.7,142.7c30.8,10,58.7,26.3,82.3,47.5"/>
	<path class="st0" d="M238.3,190.2c23.5-21.1,51.5-37.5,82.3-47.5"/>
	<path class="st0" d="M595.3,404.9c-7.7,35.4-24.3,67.4-47.4,93.6"/>
	<path class="st0" d="M547.9,222.2c23.1,26.2,39.8,58.2,47.4,93.6"/>
	<path class="st0" d="M461.7,163.6c25.1,9,48,22.7,67.6,40"/>
	<path class="st0" d="M253,203.6c19.6-17.3,42.5-31,67.6-40"/>
	<path class="st0" d="M630.1,264.2c-4.8-2.7-9-6.6-12-11.7c-7-11.7-5.7-26.1,2.1-36.3"/>
	<path class="st0" d="M640.7,204c12.7-2.1,26,3.6,33,15.4c3,5,4.5,10.6,4.6,16.1"/>
	<path class="st0" d="M577,572.9c-7-12.8-18.2-27.6-32.5-41.9c-16-16-32.5-28.1-46.3-34.7l28.8-28.8c6.6,13.7,18.8,30.3,34.7,46.3
		c5,5,10.1,9.7,15.2,13.9"/>
	<path class="st0" d="M641.3,593.3c16,16,32.5,28.1,46.3,34.7l-28.8,28.8c-4-8.2-9.9-17.4-17.4-26.9"/>
	<path class="st0" d="M405,652.7c7.9,0.8,11.8,10.4,9.2,17.3c-3.3,9-16.2,12-24.4,13.7c-10.3,1.9-27.1,6.6-25.1,20.4h49.9
		c2.1-13.8-5.8-20.6-16.1-22.5"/>
	<path class="st0" d="M361.9,713.9c0,9.6,4,18.1,10.2,23.7h33.9c6.2-5.6,10.2-14.1,10.2-23.7c0-3.5-0.5-6.8-1.5-9.9h-51.3
		C362.4,707.1,361.9,710.5,361.9,713.9z"/>
	<path class="st0" d="M414.9,637.6c0.2,2.1-0.1,3.4-0.8,5.2c-3.3,9-16.2,12-24.4,13.7c-10.3,1.9-27.1,6.6-25.1,20.4
		c0.8,5.1,4.6,10,9.9,10.5"/>
	<path class="st0" d="M369.2,637.6c-3.3,3-5.3,6.9-4.5,12.2c0.8,5.1,4.6,10,9.9,10.5"/>
	<line class="st0" x1="97.7" y1="461.9" x2="97.7" y2="479"/>
	<line class="st0" x1="97.7" y1="402.8" x2="97.7" y2="432.5"/>
	<polyline class="st0" points="129.8,305.4 129.8,402.8 65.5,402.8 65.5,261.2 84.1,261.2 	"/>
	<line class="st0" x1="84.1" y1="305.4" x2="65.5" y2="261.2"/>
	<polyline class="st0" points="461.7,458.4 461.7,637.6 320.5,637.6 320.5,458.4 	"/>
	<polyline class="st0" points="320.5,262.3 320.5,68.4 461.7,68.4 461.7,262.3 	"/>
	<path class="st0" d="M297.4,284.1c-14.7-14-29.7-24.8-42.3-30.8l28.8-28.8c6.1,12.6,16.8,27.6,30.8,42.3"/>
	<path class="st0" d="M314.9,454c-14,14.7-24.8,29.7-30.8,42.3l-28.8-28.8c12.6-6.1,27.6-16.8,42.3-30.8"/>
	<path class="st0" d="M484.8,436.6c14.7,14,29.7,24.8,42.3,30.8l-28.8,28.8c-6.1-12.6-16.8-27.6-30.8-42.3"/>
	<path class="st0" d="M529.3,517.1c-19.6,17.3-42.5,31-67.6,40"/>
	<path class="st0" d="M544,530.5c-23.5,21.1-51.4,37.5-82.2,47.4"/>
	<path class="st0" d="M186.9,315.8c7.7-35.4,24.3-67.4,47.4-93.6"/>
	<path class="st0" d="M234.4,498.5c-23.1-26.2-39.8-58.3-47.5-93.7"/>
	<path class="st0" d="M320.5,557.1c-24.5-8.8-47-22.1-66.3-38.8"/>
	<path class="st0" d="M220.6,512.8c-36.2-40.5-58.2-93.9-58.2-152.4c0-58.8,22.2-112.3,58.6-152.8"/>
	<path class="st0" d="M320.5,578c-30.8-10-58.7-26.3-82.3-47.5"/>
</g>
</svg>
