<?xml version="1.0" encoding="utf-8"?>
<!-- Generator: Adobe Illustrator 20.0.0, SVG Export Plug-In . SVG Version: 6.00 Build 0)  -->
<svg version="1.1" id="Layer_1" xmlns="http://www.w3.org/2000/svg" xmlns:xlink="http://www.w3.org/1999/xlink" x="0px" y="0px"
	 viewBox="0 0 800 800" style="enable-background:new 0 0 800 800;" xml:space="preserve">
<style type="text/css">
	.st0{fill:none;stroke:#FFFFFF;stroke-width:6;stroke-linecap:round;stroke-linejoin:round;stroke-miterlimit:10;}
	.st1{fill:#FFFFFF;}
	
		.st2{clip-path:url(#XMLID_4_);fill:none;stroke:#FFFFFF;stroke-width:6;stroke-linecap:round;stroke-linejoin:round;stroke-miterlimit:10;}
	.st3{fill:none;stroke:#FFFFFF;stroke-width:6;stroke-miterlimit:10;}
	.st4{fill:none;stroke:#FFFFFF;stroke-width:6;stroke-linecap:round;stroke-miterlimit:10;}
	.st5{fill:none;stroke:#FFFFFF;stroke-width:6;stroke-linejoin:round;stroke-miterlimit:10;}
	
		.st6{clip-path:url(#XMLID_5_);fill:none;stroke:#FFFFFF;stroke-width:6;stroke-linecap:round;stroke-linejoin:round;stroke-miterlimit:10;}
</style>
<g>
	<path class="st0" d="M626.2,604c2.8-1.8,4.7-5,4.7-8.6c0-5.6-4.6-10.2-10.2-10.2c-4,0-7.4,2.3-9.1,5.5"/>
	<path class="st0" d="M573.1,629.4c-3.5,1.6-5.9,5.1-5.9,9.2c0,5.6,4.6,10.2,10.2,10.2c3.7,0,7-2,8.7-5"/>
	<path class="st0" d="M594.3,652.8c5.2,5.2,12.4,8.5,20.4,8.5c15.9,0,28.8-12.9,28.8-28.8c0-8-3.2-15.2-8.4-20.4"/>
	<polyline class="st0" points="553.9,608.2 594.3,652.8 635.1,612 498.7,488.7 	"/>
	<line class="st0" x1="476.5" y1="522.6" x2="521.9" y2="572.8"/>
	<path class="st0" d="M235.1,290.4c-22,20.8-14.5,52.8,9.7,65.4l4.8,44.7c0,0-17.3-30.6-60.2-32c-74.4-2.4-94.1-77.5-94.1-77.5
		c34,24.1,88.5,22.2,120.9-19.4"/>
	
		<rect x="217.4" y="239.6" transform="matrix(-0.7071 0.7071 -0.7071 -0.7071 601.4271 274.1584)" class="st0" width="53.1" height="44"/>
	
		<rect x="178.5" y="200.7" transform="matrix(-0.7071 0.7071 -0.7071 -0.7071 507.5602 235.2775)" class="st0" width="53.1" height="44"/>
	
		<rect x="139.3" y="161.6" transform="matrix(-0.7071 0.7071 -0.7071 -0.7071 413.0556 196.1324)" class="st0" width="53.1" height="44"/>
	<path class="st0" d="M134.9,191.9l-49.7,49.7c0,0,41.6,5.1,73.6-27.5"/>
	<path class="st0" d="M253.4,233.6c0,0,15.2-10.8,10-26.5c0,0,36.2-3.1,57.5,32c0,0-31.7-11.7-48,14"/>
	<path class="st0" d="M234,214.1c0,0,9.6-10.9,18-12.2c0,0-7.8-19.7-27.4-25c0,0-3.8,13-11.7,16.1"/>
	<path class="st0" d="M195.7,175.9c0,0,9.6-10.9,18-12.2c0,0-7.8-19.7-27.4-25c0,0-3.8,13-11.7,16.1"/>
	<path class="st0" d="M246.6,371.6c-9.6-8.3-25.2-17.3-48-18c-45.5-1.5-70.6-30.2-83.2-52.3"/>
	<path class="st0" d="M182.3,265.2c-10.1,4.2-38.8,13.4-71-2.5"/>
	<path class="st0" d="M100.3,226.6c13.6-2.1,31.4-8,47.5-22.9"/>
	<path class="st0" d="M153.8,147.4L104,97.7c0,0-6,40.9,26.5,72.9"/>
	<path class="st0" d="M119.1,112.8c2.1,13.6,8,31.4,22.9,47.5"/>
	<circle class="st0" cx="599.2" cy="616.9" r="10.2"/>
	<polyline class="st0" points="165.1,153.3 157.1,145.2 127.5,174.8 135.6,182.8 	"/>
	<line class="st0" x1="204.3" y1="192.4" x2="196.3" y2="184.4"/>
	<line class="st0" x1="166.8" y1="214.1" x2="174.7" y2="222"/>
	<path class="st0" d="M195.6,250.9c-7.5,4.4-19.5,14.3-11.4,28.8c0,0-48.8,26.9-97.4-16.2c0,0,56.6,4.8,89.6-31.8"/>
	<line class="st0" x1="243.2" y1="231.3" x2="235.4" y2="223.5"/>
	<line class="st0" x1="205.7" y1="253" x2="213.6" y2="260.9"/>
	<line class="st0" x1="294.1" y1="282.3" x2="274.3" y2="262.4"/>
	<line class="st0" x1="287.9" y1="335.1" x2="299.3" y2="346.6"/>
	<line class="st0" x1="244.7" y1="292" x2="273.1" y2="320.4"/>
	<g>
		<path class="st0" d="M173.8,604c-2.8-1.8-4.7-5-4.7-8.6c0-5.6,4.6-10.2,10.2-10.2c4,0,7.4,2.3,9.1,5.5"/>
		<path class="st0" d="M226.9,629.4c3.5,1.6,5.9,5.1,5.9,9.2c0,5.6-4.6,10.2-10.2,10.2c-3.7,0-7-2-8.7-5"/>
		<path class="st0" d="M205.7,652.8c-5.2,5.2-12.4,8.4-20.4,8.4c-15.9,0-28.8-12.9-28.8-28.8c0-8,3.2-15.2,8.4-20.4"/>
		<polyline class="st0" points="239.8,615.1 205.7,652.8 164.9,612 301.3,488.7 		"/>
		<line class="st0" x1="323.5" y1="522.6" x2="288.1" y2="561.7"/>
		<path class="st0" d="M564.9,290.4c22,20.8,14.5,52.8-9.7,65.4l-4.8,44.7c0,0,17.3-30.6,60.2-32c74.4-2.4,94.1-77.5,94.1-77.5
			c-34,24.1-88.5,22.2-120.9-19.4"/>
		
			<rect x="529.5" y="239.6" transform="matrix(0.7071 0.7071 -0.7071 0.7071 347.8747 -316.5662)" class="st0" width="53.1" height="44"/>
		
			<rect x="568.4" y="200.7" transform="matrix(0.7071 0.7071 -0.7071 0.7071 331.7697 -355.4471)" class="st0" width="53.1" height="44"/>
		
			<rect x="607.5" y="161.6" transform="matrix(0.7071 0.7071 -0.7071 0.7071 315.5553 -394.5922)" class="st0" width="53.1" height="44"/>
		<path class="st0" d="M665.1,191.9l49.7,49.7c0,0-41.6,5.1-73.6-27.5"/>
		<path class="st0" d="M546.6,233.6c0,0-15.2-10.8-10-26.5c0,0-36.2-3.1-57.5,32c0,0,31.7-11.7,48,14"/>
		<path class="st0" d="M566,214.1c0,0-9.6-10.9-18-12.2c0,0,7.8-19.7,27.4-25c0,0,3.8,13,11.7,16.1"/>
		<path class="st0" d="M604.3,175.9c0,0-9.6-10.9-18-12.2c0,0,7.8-19.7,27.4-25c0,0,3.8,13,11.7,16.1"/>
		<path class="st0" d="M553.4,371.6c9.6-8.3,25.2-17.3,48-18c45.5-1.5,70.6-30.2,83.2-52.3"/>
		<path class="st0" d="M617.7,265.2c10.1,4.2,38.8,13.4,71-2.5"/>
		<path class="st0" d="M699.7,226.6c-13.6-2.1-31.4-8-47.5-22.9"/>
		<path class="st0" d="M646.2,147.4L696,97.7c0,0,6,40.9-26.5,72.9"/>
		<path class="st0" d="M680.9,112.8c-2.1,13.6-8,31.4-22.9,47.5"/>
		<circle class="st0" cx="200.8" cy="616.9" r="10.2"/>
		<polyline class="st0" points="634.9,153.3 642.9,145.2 672.5,174.8 664.4,182.8 		"/>
		<line class="st0" x1="595.7" y1="192.4" x2="603.7" y2="184.4"/>
		<line class="st0" x1="633.2" y1="214.1" x2="625.3" y2="222"/>
		<path class="st0" d="M604.4,250.9c7.5,4.4,19.5,14.3,11.4,28.8c0,0,48.8,26.9,97.4-16.2c0,0-56.6,4.8-89.6-31.8"/>
		<line class="st0" x1="556.8" y1="231.3" x2="564.6" y2="223.5"/>
		<line class="st0" x1="594.3" y1="253" x2="586.4" y2="260.9"/>
		<line class="st0" x1="505.9" y1="282.3" x2="525.7" y2="262.4"/>
		<line class="st0" x1="512.1" y1="335.1" x2="500.7" y2="346.6"/>
		<line class="st0" x1="555.3" y1="292" x2="526.9" y2="320.4"/>
	</g>
	<line class="st0" x1="485.8" y1="473.9" x2="471.7" y2="459.8"/>
	<polyline class="st0" points="521.9,643.3 521.9,677.3 537.9,663.7 553.9,675.4 553.9,538.6 521.9,509.6 521.9,625.1 	"/>
	<line class="st0" x1="337.3" y1="289.5" x2="337.3" y2="267.8"/>
	<line class="st0" x1="337.3" y1="625.1" x2="337.3" y2="540.4"/>
	<polyline class="st0" points="462.7,643.3 462.7,681.5 337.3,681.5 337.3,643.3 	"/>
	<line class="st0" x1="462.7" y1="540.4" x2="462.7" y2="625.1"/>
	<line class="st0" x1="462.7" y1="268.2" x2="462.7" y2="289.5"/>
	<polyline class="st0" points="337.3,246.3 337.3,126.4 355.5,105.8 446.4,105.8 462.7,126.4 462.7,246.3 	"/>
	<path class="st0" d="M462.7,128.3l21.2-21.2l112.1,0c-18.7,55.7-71.3,95.8-133.2,95.8"/>
	<path class="st0" d="M471.7,459.8c4.5-9.4,14.2-15.9,25.3-15.9c7.8,0,14.8,3.1,19.9,8.2"/>
	<path class="st0" d="M423.6,329.3L400,358.5l-23.6-29.2c-20.4,9.1-34.6,29.5-34.6,53.2c0,32.2,26.1,58.2,58.2,58.2
		s58.2-26.1,58.2-58.2C458.2,358.8,444,338.4,423.6,329.3z"/>
	<path class="st0" d="M427.2,349.6c9.7,8,15.6,20,15.6,33c0,23.6-19.2,42.7-42.7,42.7s-42.7-19.2-42.7-42.7c0-12.9,5.9-25,15.6-33
		l15.1,18.7l12,14.9l12-14.9L427.2,349.6 M423.6,329.3L400,358.5l-23.6-29.2c-20.4,9.1-34.6,29.5-34.6,53.2
		c0,32.2,26.1,58.2,58.2,58.2s58.2-26.1,58.2-58.2C458.2,358.8,444,338.4,423.6,329.3L423.6,329.3z"/>
	<line class="st0" x1="406.8" y1="545.4" x2="486.5" y2="625.1"/>
	<line class="st0" x1="313.5" y1="625.1" x2="393.2" y2="545.4"/>
	<line class="st0" x1="536.2" y1="133.4" x2="571.6" y2="151.3"/>
	<line class="st0" x1="581" y1="138.4" x2="541.5" y2="125.7"/>
	<line class="st0" x1="516.5" y1="152.6" x2="537.2" y2="181.5"/>
	<line class="st0" x1="549" y1="173.3" x2="523.3" y2="147.2"/>
	<line class="st0" x1="492" y1="165.2" x2="496.7" y2="198.8"/>
	<line class="st0" x1="510.4" y1="194.6" x2="500.5" y2="161.9"/>
	<path class="st0" d="M492.3,120.1l-15.8,15v20.1c0,0,28.9-2.6,49.7-35.1H492.3z"/>
	<path class="st0" d="M337.3,128.3l-21.2-21.2l-112.1,0c18.7,55.7,71.3,95.8,133.2,95.8"/>
	<path class="st0" d="M550.1,107.1c-12.2,36.5-46.7,62.8-87.4,62.8c0,0-22.3,1.4-37.3-9.6L400,198.8l-25.5-38.5
		c-15,11.1-37.3,9.6-37.3,9.6c-40.6,0-75.1-26.3-87.4-62.8"/>
	<line class="st0" x1="263.8" y1="133.4" x2="228.4" y2="151.3"/>
	<line class="st0" x1="219" y1="138.4" x2="258.5" y2="125.7"/>
	<line class="st0" x1="283.5" y1="152.6" x2="262.8" y2="181.5"/>
	<line class="st0" x1="251" y1="173.3" x2="276.7" y2="147.2"/>
	<line class="st0" x1="308" y1="165.2" x2="303.3" y2="198.8"/>
	<line class="st0" x1="289.6" y1="194.6" x2="299.5" y2="161.9"/>
	<path class="st0" d="M307.7,120.1l15.8,15v20.1c0,0-28.9-2.6-49.7-35.1H307.7z"/>
	<path class="st0" d="M314.5,625.1c-7.9,0-12.7-6.5-14.3-20c-1.2-9.6-5.1-17.7-12.4-21.8h-38.3c-6.3,6.3-10.3,15.4-10.3,25.7
		c0,18.9,13.7,34.2,30.5,34.2h268.3v-18.2H314.5z"/>
	<circle class="st0" cx="400" cy="538.6" r="9.7"/>
	<polyline class="st0" points="454,625.1 437,643.3 419.9,625.1 402.9,643.3 385.9,625.1 368.8,643.3 351.8,625.1 334.8,643.3 	"/>
	<line class="st0" x1="102.9" y1="415.8" x2="269.6" y2="415.8"/>
	<polyline class="st0" points="116.9,395.7 137.2,415.9 118,435.1 	"/>
	<polyline class="st0" points="140.4,395.7 160.7,415.9 141.5,435.1 	"/>
	<polyline class="st0" points="163.9,395.7 184.2,415.9 165,435.1 	"/>
	<polyline class="st0" points="187.4,395.7 207.7,415.9 188.5,435.1 	"/>
	<polyline class="st0" points="211,395.7 231.2,415.9 212,435.1 	"/>
	<line class="st0" x1="138.9" y1="540.4" x2="290.2" y2="470.5"/>
	<polyline class="st0" points="143.1,516.3 170,526.2 160.7,551.7 	"/>
	<polyline class="st0" points="164.5,506.4 191.4,516.3 182,541.8 	"/>
	<polyline class="st0" points="185.8,496.5 212.7,506.4 203.4,531.9 	"/>
	<polyline class="st0" points="207.2,486.7 234.1,496.6 224.7,522.1 	"/>
	<polyline class="st0" points="228.5,476.8 255.5,486.7 246.1,512.2 	"/>
	<path class="st0" d="M92.2,484.4c17.6,9.2,38.5,12.5,59.5,7.7c20.9-4.8,38.3-16.8,50.2-32.8c-17.6-9.2-38.5-12.5-59.5-7.7
		C121.5,456.4,104.1,468.4,92.2,484.4z"/>
	<line class="st0" x1="93.4" y1="484.1" x2="276.3" y2="442.2"/>
	<line class="st0" x1="697.1" y1="415.8" x2="528.8" y2="415.8"/>
	<polyline class="st0" points="683.1,395.7 662.8,415.9 682,435.1 	"/>
	<polyline class="st0" points="659.6,395.7 639.3,415.9 658.5,435.1 	"/>
	<polyline class="st0" points="636.1,395.7 615.8,415.9 635,435.1 	"/>
	<polyline class="st0" points="612.6,395.7 592.3,415.9 611.5,435.1 	"/>
	<polyline class="st0" points="589,395.7 568.8,415.9 588,435.1 	"/>
	<line class="st0" x1="661.1" y1="540.4" x2="508.8" y2="470"/>
	<polyline class="st0" points="656.9,516.3 630,526.2 639.3,551.7 	"/>
	<polyline class="st0" points="635.5,506.4 608.6,516.3 618,541.8 	"/>
	<polyline class="st0" points="614.2,496.5 587.3,506.4 596.6,531.9 	"/>
	<polyline class="st0" points="592.8,486.7 565.9,496.6 575.3,522.1 	"/>
	<polyline class="st0" points="571.5,476.8 544.5,486.7 553.9,512.2 	"/>
	<path class="st0" d="M707.8,484.4c-17.6,9.2-38.5,12.5-59.5,7.7c-20.9-4.8-38.3-16.8-50.2-32.8c17.6-9.2,38.5-12.5,59.5-7.7
		C678.5,456.4,695.9,468.4,707.8,484.4z"/>
	<line class="st0" x1="706.6" y1="484.1" x2="521" y2="441.5"/>
	<polyline class="st0" points="269.2,546.5 269.2,583.3 288,583.3 288,540.2 	"/>
	<line class="st0" x1="249.8" y1="582.3" x2="249.8" y2="568.9"/>
	<line class="st0" x1="249.8" y1="557.2" x2="249.8" y2="553.3"/>
	<line class="st0" x1="288" y1="528.9" x2="288" y2="525"/>
	<line class="st0" x1="269.2" y1="535.9" x2="269.2" y2="532"/>
	<polygon class="st0" points="483,702.3 317,702.3 337.3,681.5 462.7,681.5 	"/>
	<polyline class="st0" points="462.7,138.6 424.8,149.1 400,134.2 375.2,149.1 337.3,138.6 	"/>
	<line class="st0" x1="400" y1="134.2" x2="400" y2="198.8"/>
	<path class="st0" d="M337.3,126.4c0,0,28.5-6.3,49.2,15.9"/>
	<line class="st0" x1="358.3" y1="128.4" x2="365.7" y2="146"/>
	<path class="st0" d="M462.7,126.4c0,0-28.5-6.3-49.2,15.9"/>
	<line class="st0" x1="441.7" y1="128.4" x2="434.3" y2="146"/>
	<path class="st0" d="M379.6,169.8c-17.4,12.1-26,37.2-27.8,69.5"/>
	<path class="st0" d="M419.4,169.1c18,11.8,27,37.3,28.9,70.3"/>
	<polyline class="st0" points="443.4,207 430.3,232.5 423.7,195.5 411.5,230.7 400,209 388.5,230.7 376.3,195.5 369.7,232.5 
		356.6,207 	"/>
	<line class="st0" x1="239.8" y1="602.1" x2="299.7" y2="602.1"/>
	<g>
		<path class="st1" d="M400,331.1c-0.1,0-0.2,0-0.3,0c-2.5,0.2-4.3,2.3-4.1,4.8c0.2,2.4,2.1,4.2,4.4,4.2c0.1,0,0.2,0,0.3,0
			c2.5-0.2,4.3-2.3,4.1-4.8C404.3,332.9,402.3,331.1,400,331.1L400,331.1z"/>
	</g>
	<g>
		<path class="st1" d="M406.4,317.4c-0.1,0-0.2,0-0.3,0c-2.5,0.2-4.3,2.3-4.1,4.8c0.2,2.4,2.1,4.2,4.4,4.2c0.1,0,0.2,0,0.3,0
			c2.5-0.2,4.3-2.3,4.1-4.8C410.7,319.3,408.7,317.4,406.4,317.4L406.4,317.4z"/>
	</g>
	<g>
		<path class="st1" d="M420.6,312.7c-0.1,0-0.2,0-0.3,0c-2.5,0.2-4.3,2.3-4.1,4.8c0.2,2.4,2.1,4.2,4.4,4.2c0.1,0,0.2,0,0.3,0
			c2.5-0.2,4.3-2.3,4.1-4.8C424.9,314.5,422.9,312.7,420.6,312.7L420.6,312.7z"/>
	</g>
	<g>
		<path class="st1" d="M424.8,296.8c-0.1,0-0.2,0-0.3,0c-2.5,0.2-4.3,2.3-4.1,4.8c0.2,2.4,2.1,4.2,4.4,4.2c0.1,0,0.2,0,0.3,0
			c2.5-0.2,4.3-2.3,4.1-4.8C429,298.6,427.1,296.8,424.8,296.8L424.8,296.8z"/>
	</g>
	<g>
		<path class="st1" d="M428.9,282.8c-0.3,0-0.7,0-1,0.1c-2.4,0.6-3.9,3-3.3,5.4c0.5,2,2.3,3.4,4.3,3.4c0.3,0,0.7,0,1-0.1
			c2.4-0.6,3.9-3,3.3-5.4C432.7,284.2,430.9,282.8,428.9,282.8L428.9,282.8z"/>
	</g>
	<g>
		<path class="st1" d="M432.9,266.5c-0.3,0-0.7,0-1,0.1c-2.4,0.6-3.9,3-3.3,5.4c0.5,2,2.3,3.4,4.3,3.4c0.3,0,0.7,0,1-0.1
			c2.4-0.6,3.9-3,3.3-5.4C436.7,267.9,434.9,266.5,432.9,266.5L432.9,266.5z"/>
	</g>
	<g>
		<path class="st1" d="M439.4,293.5c-0.3,0-0.7,0-1,0.1c-2.4,0.6-3.9,3-3.3,5.4c0.5,2,2.3,3.4,4.3,3.4c0.3,0,0.7,0,1-0.1
			c2.4-0.6,3.9-3,3.3-5.4C443.3,294.8,441.5,293.5,439.4,293.5L439.4,293.5z"/>
	</g>
	<g>
		<path class="st1" d="M455.4,294.7c-0.3,0-0.7,0-1,0.1c-2.4,0.6-3.9,3-3.3,5.4c0.5,2,2.3,3.4,4.3,3.4c0.3,0,0.7,0,1-0.1
			c2.4-0.6,3.9-3,3.3-5.4C459.2,296.1,457.4,294.7,455.4,294.7L455.4,294.7z"/>
	</g>
	<g>
		<path class="st1" d="M435.2,306.6c-0.3,0-0.7,0-1,0.1c-2.4,0.6-3.9,3-3.3,5.4c0.5,2,2.3,3.4,4.3,3.4c0.3,0,0.7,0,1-0.1
			c2.4-0.6,3.9-3,3.3-5.4C439,308,437.2,306.6,435.2,306.6L435.2,306.6z"/>
	</g>
	<g>
		<path class="st1" d="M444.4,322.8c-0.3,0-0.7,0-1,0.1c-2.4,0.6-3.9,3-3.3,5.4c0.5,2,2.3,3.4,4.3,3.4c0.3,0,0.7,0,1-0.1
			c2.4-0.6,3.9-3,3.3-5.4C448.2,324.2,446.4,322.8,444.4,322.8L444.4,322.8z"/>
	</g>
	<g>
		<path class="st1" d="M455.6,311c-0.3,0-0.7,0-1,0.1c-2.4,0.6-3.9,3-3.3,5.4c0.5,2,2.3,3.4,4.3,3.4c0.3,0,0.7,0,1-0.1
			c2.4-0.6,3.9-3,3.3-5.4C459.5,312.4,457.6,311,455.6,311L455.6,311z"/>
	</g>
	<g>
		<path class="st1" d="M471.9,301.7c-0.3,0-0.7,0-1,0.1c-2.4,0.6-3.9,3-3.3,5.4c0.5,2,2.3,3.4,4.3,3.4c0.3,0,0.7,0,1-0.1
			c2.4-0.6,3.9-3,3.3-5.4C475.8,303,474,301.7,471.9,301.7L471.9,301.7z"/>
	</g>
	<g>
		<path class="st1" d="M470.4,316.8c-0.3,0-0.7,0-1,0.1c-2.4,0.6-3.9,3-3.3,5.4c0.5,2,2.3,3.4,4.3,3.4c0.3,0,0.7,0,1-0.1
			c2.4-0.6,3.9-3,3.3-5.4C474.3,318.2,472.4,316.8,470.4,316.8L470.4,316.8z"/>
	</g>
	<g>
		<path class="st1" d="M456.7,329.4c-0.3,0-0.7,0-1,0.1c-2.4,0.6-3.9,3-3.3,5.4c0.5,2,2.3,3.4,4.3,3.4c0.3,0,0.7,0,1-0.1
			c2.4-0.6,3.9-3,3.3-5.4C460.6,330.7,458.8,329.4,456.7,329.4L456.7,329.4z"/>
	</g>
	<g>
		<path class="st1" d="M462,347.6c-0.3,0-0.7,0-1,0.1c-2.4,0.6-3.9,3-3.3,5.4c0.5,2,2.3,3.4,4.3,3.4c0.3,0,0.7,0,1-0.1
			c2.4-0.6,3.9-3,3.3-5.4C465.8,349,464,347.6,462,347.6L462,347.6z"/>
	</g>
	<g>
		<path class="st1" d="M470.7,332.8c-0.3,0-0.7,0-1,0.1c-2.4,0.6-3.9,3-3.3,5.4c0.5,2,2.3,3.4,4.3,3.4c0.3,0,0.7,0,1-0.1
			c2.4-0.6,3.9-3,3.3-5.4C474.5,334.1,472.7,332.8,470.7,332.8L470.7,332.8z"/>
	</g>
	<g>
		<path class="st1" d="M484.1,340.6c-0.3,0-0.7,0-1,0.1c-2.4,0.6-3.9,3-3.3,5.4c0.5,2,2.3,3.4,4.3,3.4c0.3,0,0.7,0,1-0.1
			c2.4-0.6,3.9-3,3.3-5.4C487.9,342,486.1,340.6,484.1,340.6L484.1,340.6z"/>
	</g>
	<g>
		<path class="st1" d="M476.4,356.6c-0.3,0-0.7,0-1,0.1c-2.4,0.6-3.9,3-3.3,5.4c0.5,2,2.3,3.4,4.3,3.4c0.3,0,0.7,0,1-0.1
			c2.4-0.6,3.9-3,3.3-5.4C480.2,357.9,478.4,356.6,476.4,356.6L476.4,356.6z"/>
	</g>
	<g>
		<path class="st1" d="M468.4,367.9c-0.3,0-0.7,0-1,0.1c-2.4,0.6-3.9,3-3.3,5.4c0.5,2,2.3,3.4,4.3,3.4c0.3,0,0.7,0,1-0.1
			c2.4-0.6,3.9-3,3.3-5.4C472.3,369.3,470.4,367.9,468.4,367.9L468.4,367.9z"/>
	</g>
	<g>
		<path class="st1" d="M469.5,386.2c-0.3,0-0.7,0-1,0.1c-2.4,0.6-3.9,3-3.3,5.4c0.5,2,2.3,3.4,4.3,3.4c0.3,0,0.7,0,1-0.1
			c2.4-0.6,3.9-3,3.3-5.4C473.3,387.5,471.5,386.2,469.5,386.2L469.5,386.2z"/>
	</g>
	<g>
		<path class="st1" d="M479.6,375.2c-0.3,0-0.7,0-1,0.1c-2.4,0.6-3.9,3-3.3,5.4c0.5,2,2.3,3.4,4.3,3.4c0.3,0,0.7,0,1-0.1
			c2.4-0.6,3.9-3,3.3-5.4C483.4,376.6,481.6,375.2,479.6,375.2L479.6,375.2z"/>
	</g>
	<g>
		<path class="st1" d="M494.8,351.7c-0.3,0-0.7,0-1,0.1c-2.4,0.6-3.9,3-3.3,5.4c0.5,2,2.3,3.4,4.3,3.4c0.3,0,0.7,0,1-0.1
			c2.4-0.6,3.9-3,3.3-5.4C498.6,353.1,496.8,351.7,494.8,351.7L494.8,351.7z"/>
	</g>
	<g>
		<path class="st1" d="M493.1,366.4c-0.3,0-0.7,0-1,0.1c-2.4,0.6-3.9,3-3.3,5.4c0.5,2,2.3,3.4,4.3,3.4c0.3,0,0.7,0,1-0.1
			c2.4-0.6,3.9-3,3.3-5.4C496.9,367.8,495.1,366.4,493.1,366.4L493.1,366.4z"/>
	</g>
	<g>
		<path class="st1" d="M483.2,391.3c-0.3,0-0.7,0-1,0.1c-2.4,0.6-3.9,3-3.3,5.4c0.5,2,2.3,3.4,4.3,3.4c0.3,0,0.7,0,1-0.1
			c2.4-0.6,3.9-3,3.3-5.4C487,392.7,485.2,391.3,483.2,391.3L483.2,391.3z"/>
	</g>
	<g>
		<path class="st1" d="M470.3,401.2c-0.3,0-0.7,0-1,0.1c-2.4,0.6-3.9,3-3.3,5.4c0.5,2,2.3,3.4,4.3,3.4c0.3,0,0.7,0,1-0.1
			c2.4-0.6,3.9-3,3.3-5.4C474.2,402.6,472.3,401.2,470.3,401.2L470.3,401.2z"/>
	</g>
	<g>
		<path class="st1" d="M461.1,413.8c-0.3,0-0.7,0-1,0.1c-2.4,0.6-3.9,3-3.3,5.4c0.5,2,2.3,3.4,4.3,3.4c0.3,0,0.7,0,1-0.1
			c2.4-0.6,3.9-3,3.3-5.4C465,415.2,463.1,413.8,461.1,413.8L461.1,413.8z"/>
	</g>
	<g>
		<path class="st1" d="M484.5,408c-0.3,0-0.7,0-1,0.1c-2.4,0.6-3.9,3-3.3,5.4c0.5,2,2.3,3.4,4.3,3.4c0.3,0,0.7,0,1-0.1
			c2.4-0.6,3.9-3,3.3-5.4C488.4,409.4,486.5,408,484.5,408L484.5,408z"/>
	</g>
	<g>
		<path class="st1" d="M475.2,419c-0.3,0-0.7,0-1,0.1c-2.4,0.6-3.9,3-3.3,5.4c0.5,2,2.3,3.4,4.3,3.4c0.3,0,0.7,0,1-0.1
			c2.4-0.6,3.9-3,3.3-5.4C479.1,420.3,477.3,419,475.2,419L475.2,419z"/>
	</g>
	<g>
		<path class="st1" d="M489.3,425.1c-0.3,0-0.7,0-1,0.1c-2.4,0.6-3.9,3-3.3,5.4c0.5,2,2.3,3.4,4.3,3.4c0.3,0,0.7,0,1-0.1
			c2.4-0.6,3.9-3,3.3-5.4C493.2,426.5,491.4,425.1,489.3,425.1L489.3,425.1z"/>
	</g>
	<g>
		<path class="st1" d="M468.8,437.7c-0.3,0-0.7,0-1,0.1c-2.4,0.6-3.9,3-3.3,5.4c0.5,2,2.3,3.4,4.3,3.4c0.3,0,0.7,0,1-0.1
			c2.4-0.6,3.9-3,3.3-5.4C472.7,439.1,470.8,437.7,468.8,437.7L468.8,437.7z"/>
	</g>
	<g>
		<path class="st1" d="M454,427.8c-0.3,0-0.7,0-1,0.1c-2.4,0.6-3.9,3-3.3,5.4c0.5,2,2.3,3.4,4.3,3.4c0.3,0,0.7,0,1-0.1
			c2.4-0.6,3.9-3,3.3-5.4C457.8,429.2,456,427.8,454,427.8L454,427.8z"/>
	</g>
	<g>
		<path class="st1" d="M437.7,437.5c-0.3,0-0.7,0-1,0.1c-2.4,0.6-3.9,3-3.3,5.4c0.5,2,2.3,3.4,4.3,3.4c0.3,0,0.7,0,1-0.1
			c2.4-0.6,3.9-3,3.3-5.4C441.5,438.9,439.7,437.5,437.7,437.5L437.7,437.5z"/>
	</g>
	<g>
		<path class="st1" d="M438.6,454.3c-0.3,0-0.7,0-1,0.1c-2.4,0.6-3.9,3-3.3,5.4c0.5,2,2.3,3.4,4.3,3.4c0.3,0,0.7,0,1-0.1
			c2.4-0.6,3.9-3,3.3-5.4C442.4,455.7,440.6,454.3,438.6,454.3L438.6,454.3z"/>
	</g>
	<g>
		<path class="st1" d="M454.1,464.5c-0.3,0-0.7,0-1,0.1c-2.4,0.6-3.9,3-3.3,5.4c0.5,2,2.3,3.4,4.3,3.4c0.3,0,0.7,0,1-0.1
			c2.4-0.6,3.9-3,3.3-5.4C457.9,465.9,456.1,464.5,454.1,464.5L454.1,464.5z"/>
	</g>
	<g>
		<path class="st1" d="M457.8,481.6c-0.3,0-0.7,0-1,0.1c-2.4,0.6-3.9,3-3.3,5.4c0.5,2,2.3,3.4,4.3,3.4c0.3,0,0.7,0,1-0.1
			c2.4-0.6,3.9-3,3.3-5.4C461.6,483,459.8,481.6,457.8,481.6L457.8,481.6z"/>
	</g>
	<g>
		<path class="st1" d="M439.4,470.6c-0.3,0-0.7,0-1,0.1c-2.4,0.6-3.9,3-3.3,5.4c0.5,2,2.3,3.4,4.3,3.4c0.3,0,0.7,0,1-0.1
			c2.4-0.6,3.9-3,3.3-5.4C443.2,472,441.4,470.6,439.4,470.6L439.4,470.6z"/>
	</g>
	<g>
		<path class="st1" d="M421.8,445.9c-0.3,0-0.7,0-1,0.1c-2.4,0.6-3.9,3-3.3,5.4c0.5,2,2.3,3.4,4.3,3.4c0.3,0,0.7,0,1-0.1
			c2.4-0.6,3.9-3,3.3-5.4C425.6,447.3,423.8,445.9,421.8,445.9L421.8,445.9z"/>
	</g>
	<g>
		<path class="st1" d="M422.1,462.2c-0.3,0-0.7,0-1,0.1c-2.4,0.6-3.9,3-3.3,5.4c0.5,2,2.3,3.4,4.3,3.4c0.3,0,0.7,0,1-0.1
			c2.4-0.6,3.9-3,3.3-5.4C426,463.5,424.2,462.2,422.1,462.2L422.1,462.2z"/>
	</g>
	<g>
		<path class="st1" d="M403.6,448.4c-0.3,0-0.7,0-1,0.1c-2.4,0.6-3.9,3-3.3,5.4c0.5,2,2.3,3.4,4.3,3.4c0.3,0,0.7,0,1-0.1
			c2.4-0.6,3.9-3,3.3-5.4C407.4,449.8,405.6,448.4,403.6,448.4L403.6,448.4z"/>
	</g>
	<g>
		<path class="st1" d="M426.6,478.8c-0.3,0-0.7,0-1,0.1c-2.4,0.6-3.9,3-3.3,5.4c0.5,2,2.3,3.4,4.3,3.4c0.3,0,0.7,0,1-0.1
			c2.4-0.6,3.9-3,3.3-5.4C430.4,480.2,428.6,478.8,426.6,478.8L426.6,478.8z"/>
	</g>
	<g>
		<path class="st1" d="M444.5,489.5c-0.3,0-0.7,0-1,0.1c-2.4,0.6-3.9,3-3.3,5.4c0.5,2,2.3,3.4,4.3,3.4c0.3,0,0.7,0,1-0.1
			c2.4-0.6,3.9-3,3.3-5.4C448.4,490.9,446.5,489.5,444.5,489.5L444.5,489.5z"/>
	</g>
	<g>
		<path class="st1" d="M430,497.6c-0.3,0-0.7,0-1,0.1c-2.4,0.6-3.9,3-3.3,5.4c0.5,2,2.3,3.4,4.3,3.4c0.3,0,0.7,0,1-0.1
			c2.4-0.6,3.9-3,3.3-5.4C433.8,499,432,497.6,430,497.6L430,497.6z"/>
	</g>
	<g>
		<path class="st1" d="M404.6,462.6c-0.3,0-0.7,0-1,0.1c-2.4,0.6-3.9,3-3.3,5.4c0.5,2,2.3,3.4,4.3,3.4c0.3,0,0.7,0,1-0.1
			c2.4-0.6,3.9-3,3.3-5.4C408.4,463.9,406.6,462.6,404.6,462.6L404.6,462.6z"/>
	</g>
	<g>
		<path class="st1" d="M411.2,481c-0.3,0-0.7,0-1,0.1c-2.4,0.6-3.9,3-3.3,5.4c0.5,2,2.3,3.4,4.3,3.4c0.3,0,0.7,0,1-0.1
			c2.4-0.6,3.9-3,3.3-5.4C415.1,482.4,413.2,481,411.2,481L411.2,481z"/>
	</g>
	<g>
		<path class="st1" d="M416,495.7c-0.3,0-0.7,0-1,0.1c-2.4,0.6-3.9,3-3.3,5.4c0.5,2,2.3,3.4,4.3,3.4c0.3,0,0.7,0,1-0.1
			c2.4-0.6,3.9-3,3.3-5.4C419.8,497.1,418,495.7,416,495.7L416,495.7z"/>
	</g>
	<g>
		<path class="st1" d="M415,513.6c-0.3,0-0.7,0-1,0.1c-2.4,0.6-3.9,3-3.3,5.4c0.5,2,2.3,3.4,4.3,3.4c0.3,0,0.7,0,1-0.1
			c2.4-0.6,3.9-3,3.3-5.4C418.8,515,417,513.6,415,513.6L415,513.6z"/>
	</g>
	<g>
		<path class="st1" d="M383.9,513.6c-0.3,0-0.7,0-1,0.1c-2.4,0.6-3.9,3-3.3,5.4c0.5,2,2.3,3.4,4.3,3.4c0.3,0,0.7,0,1-0.1
			c2.4-0.6,3.9-3,3.3-5.4C387.7,515,385.9,513.6,383.9,513.6L383.9,513.6z"/>
	</g>
	<g>
		<path class="st1" d="M400.4,511.1c-0.3,0-0.7,0-1,0.1c-2.4,0.6-3.9,3-3.3,5.4c0.5,2,2.3,3.4,4.3,3.4c0.3,0,0.7,0,1-0.1
			c2.4-0.6,3.9-3,3.3-5.4C404.3,512.5,402.4,511.1,400.4,511.1L400.4,511.1z"/>
	</g>
	<g>
		<path class="st1" d="M400.4,497.2c-0.3,0-0.7,0-1,0.1c-2.4,0.6-3.9,3-3.3,5.4c0.5,2,2.3,3.4,4.3,3.4c0.3,0,0.7,0,1-0.1
			c2.4-0.6,3.9-3,3.3-5.4C404.3,498.5,402.4,497.2,400.4,497.2L400.4,497.2z"/>
	</g>
	<g>
		<path class="st1" d="M381.7,497c-0.3,0-0.7,0-1,0.1c-2.4,0.6-3.9,3-3.3,5.4c0.5,2,2.3,3.4,4.3,3.4c0.3,0,0.7,0,1-0.1
			c2.4-0.6,3.9-3,3.3-5.4C385.5,498.4,383.7,497,381.7,497L381.7,497z"/>
	</g>
	<g>
		<path class="st1" d="M395.4,480.9c-0.3,0-0.7,0-1,0.1c-2.4,0.6-3.9,3-3.3,5.4c0.5,2,2.3,3.4,4.3,3.4c0.3,0,0.7,0,1-0.1
			c2.4-0.6,3.9-3,3.3-5.4C399.2,482.3,397.4,480.9,395.4,480.9L395.4,480.9z"/>
	</g>
	<g>
		<path class="st1" d="M388.9,466.2c-0.3,0-0.7,0-1,0.1c-2.4,0.6-3.9,3-3.3,5.4c0.5,2,2.3,3.4,4.3,3.4c0.3,0,0.7,0,1-0.1
			c2.4-0.6,3.9-3,3.3-5.4C392.7,467.6,390.9,466.2,388.9,466.2L388.9,466.2z"/>
	</g>
	<g>
		<path class="st1" d="M383.4,450.3c-0.3,0-0.7,0-1,0.1c-2.4,0.6-3.9,3-3.3,5.4c0.5,2,2.3,3.4,4.3,3.4c0.3,0,0.7,0,1-0.1
			c2.4-0.6,3.9-3,3.3-5.4C387.2,451.7,385.4,450.3,383.4,450.3L383.4,450.3z"/>
	</g>
	<g>
		<path class="st1" d="M368.1,440.4c-0.3,0-0.7,0-1,0.1c-2.4,0.6-3.9,3-3.3,5.4c0.5,2,2.3,3.4,4.3,3.4c0.3,0,0.7,0,1-0.1
			c2.4-0.6,3.9-3,3.3-5.4C371.9,441.8,370.1,440.4,368.1,440.4L368.1,440.4z"/>
	</g>
	<g>
		<path class="st1" d="M371.6,454.2c-0.3,0-0.7,0-1,0.1c-2.4,0.6-3.9,3-3.3,5.4c0.5,2,2.3,3.4,4.3,3.4c0.3,0,0.7,0,1-0.1
			c2.4-0.6,3.9-3,3.3-5.4C375.4,455.5,373.6,454.2,371.6,454.2L371.6,454.2z"/>
	</g>
	<g>
		<path class="st1" d="M372,468.2c-0.3,0-0.7,0-1,0.1c-2.4,0.6-3.9,3-3.3,5.4c0.5,2,2.3,3.4,4.3,3.4c0.3,0,0.7,0,1-0.1
			c2.4-0.6,3.9-3,3.3-5.4C375.8,469.6,374,468.2,372,468.2L372,468.2z"/>
	</g>
	<g>
		<path class="st1" d="M378.7,480.9c-0.3,0-0.7,0-1,0.1c-2.4,0.6-3.9,3-3.3,5.4c0.5,2,2.3,3.4,4.3,3.4c0.3,0,0.7,0,1-0.1
			c2.4-0.6,3.9-3,3.3-5.4C382.5,482.3,380.7,480.9,378.7,480.9L378.7,480.9z"/>
	</g>
	<g>
		<path class="st1" d="M367.2,491.7c-0.3,0-0.7,0-1,0.1c-2.4,0.6-3.9,3-3.3,5.4c0.5,2,2.3,3.4,4.3,3.4c0.3,0,0.7,0,1-0.1
			c2.4-0.6,3.9-3,3.3-5.4C371.1,493.1,369.2,491.7,367.2,491.7L367.2,491.7z"/>
	</g>
	<g>
		<path class="st1" d="M352.9,488.7c-0.3,0-0.7,0-1,0.1c-2.4,0.6-3.9,3-3.3,5.4c0.5,2,2.3,3.4,4.3,3.4c0.3,0,0.7,0,1-0.1
			c2.4-0.6,3.9-3,3.3-5.4C356.7,490.1,354.9,488.7,352.9,488.7L352.9,488.7z"/>
	</g>
	<g>
		<path class="st1" d="M340,483.1c-0.3,0-0.7,0-1,0.1c-2.4,0.6-3.9,3-3.3,5.4c0.5,2,2.3,3.4,4.3,3.4c0.3,0,0.7,0,1-0.1
			c2.4-0.6,3.9-3,3.3-5.4C343.9,484.5,342,483.1,340,483.1L340,483.1z"/>
	</g>
	<g>
		<path class="st1" d="M357.9,473.5c-0.3,0-0.7,0-1,0.1c-2.4,0.6-3.9,3-3.3,5.4c0.5,2,2.3,3.4,4.3,3.4c0.3,0,0.7,0,1-0.1
			c2.4-0.6,3.9-3,3.3-5.4C361.8,474.9,359.9,473.5,357.9,473.5L357.9,473.5z"/>
	</g>
	<g>
		<path class="st1" d="M344.2,464.5c-0.3,0-0.7,0-1,0.1c-2.4,0.6-3.9,3-3.3,5.4c0.5,2,2.3,3.4,4.3,3.4c0.3,0,0.7,0,1-0.1
			c2.4-0.6,3.9-3,3.3-5.4C348,465.9,346.2,464.5,344.2,464.5L344.2,464.5z"/>
	</g>
	<g>
		<path class="st1" d="M355.5,451.3c-0.3,0-0.7,0-1,0.1c-2.4,0.6-3.9,3-3.3,5.4c0.5,2,2.3,3.4,4.3,3.4c0.3,0,0.7,0,1-0.1
			c2.4-0.6,3.9-3,3.3-5.4C359.3,452.6,357.5,451.3,355.5,451.3L355.5,451.3z"/>
	</g>
	<g>
		<path class="st1" d="M339.4,445.8c-0.3,0-0.7,0-1,0.1c-2.4,0.6-3.9,3-3.3,5.4c0.5,2,2.3,3.4,4.3,3.4c0.3,0,0.7,0,1-0.1
			c2.4-0.6,3.9-3,3.3-5.4C343.3,447.2,341.5,445.8,339.4,445.8L339.4,445.8z"/>
	</g>
	<g>
		<path class="st1" d="M350.7,434.4c-0.3,0-0.7,0-1,0.1c-2.4,0.6-3.9,3-3.3,5.4c0.5,2,2.3,3.4,4.3,3.4c0.3,0,0.7,0,1-0.1
			c2.4-0.6,3.9-3,3.3-5.4C354.5,435.8,352.7,434.4,350.7,434.4L350.7,434.4z"/>
	</g>
	<g>
		<path class="st1" d="M342.7,420.6c-0.3,0-0.7,0-1,0.1c-2.4,0.6-3.9,3-3.3,5.4c0.5,2,2.3,3.4,4.3,3.4c0.3,0,0.7,0,1-0.1
			c2.4-0.6,3.9-3,3.3-5.4C346.5,422,344.7,420.6,342.7,420.6L342.7,420.6z"/>
	</g>
	<g>
		<path class="st1" d="M329.9,433c-0.3,0-0.7,0-1,0.1c-2.4,0.6-3.9,3-3.3,5.4c0.5,2,2.3,3.4,4.3,3.4c0.3,0,0.7,0,1-0.1
			c2.4-0.6,3.9-3,3.3-5.4C333.7,434.4,331.9,433,329.9,433L329.9,433z"/>
	</g>
	<g>
		<path class="st1" d="M315.8,429.3c-0.3,0-0.7,0-1,0.1c-2.4,0.6-3.9,3-3.3,5.4c0.5,2,2.3,3.4,4.3,3.4c0.3,0,0.7,0,1-0.1
			c2.4-0.6,3.9-3,3.3-5.4C319.6,430.6,317.8,429.3,315.8,429.3L315.8,429.3z"/>
	</g>
	<g>
		<path class="st1" d="M314.5,413.3c-0.3,0-0.7,0-1,0.1c-2.4,0.6-3.9,3-3.3,5.4c0.5,2,2.3,3.4,4.3,3.4c0.3,0,0.7,0,1-0.1
			c2.4-0.6,3.9-3,3.3-5.4C318.3,414.6,316.5,413.3,314.5,413.3L314.5,413.3z"/>
	</g>
	<g>
		<path class="st1" d="M329.1,416.7c-0.3,0-0.7,0-1,0.1c-2.4,0.6-3.9,3-3.3,5.4c0.5,2,2.3,3.4,4.3,3.4c0.3,0,0.7,0,1-0.1
			c2.4-0.6,3.9-3,3.3-5.4C332.9,418.1,331.1,416.7,329.1,416.7L329.1,416.7z"/>
	</g>
	<g>
		<path class="st1" d="M332.7,403.2c-0.3,0-0.7,0-1,0.1c-2.4,0.6-3.9,3-3.3,5.4c0.5,2,2.3,3.4,4.3,3.4c0.3,0,0.7,0,1-0.1
			c2.4-0.6,3.9-3,3.3-5.4C336.6,404.6,334.8,403.2,332.7,403.2L332.7,403.2z"/>
	</g>
	<g>
		<path class="st1" d="M318.9,394.6c-0.3,0-0.7,0-1,0.1c-2.4,0.6-3.9,3-3.3,5.4c0.5,2,2.3,3.4,4.3,3.4c0.3,0,0.7,0,1-0.1
			c2.4-0.6,3.9-3,3.3-5.4C322.7,396,320.9,394.6,318.9,394.6L318.9,394.6z"/>
	</g>
	<g>
		<path class="st1" d="M328.1,383.7c-0.3,0-0.7,0-1,0.1c-2.4,0.6-3.9,3-3.3,5.4c0.5,2,2.3,3.4,4.3,3.4c0.3,0,0.7,0,1-0.1
			c2.4-0.6,3.9-3,3.3-5.4C332,385,330.1,383.7,328.1,383.7L328.1,383.7z"/>
	</g>
	<g>
		<path class="st1" d="M329.5,368.1c-0.3,0-0.7,0-1,0.1c-2.4,0.6-3.9,3-3.3,5.4c0.5,2,2.3,3.4,4.3,3.4c0.3,0,0.7,0,1-0.1
			c2.4-0.6,3.9-3,3.3-5.4C333.3,369.5,331.5,368.1,329.5,368.1L329.5,368.1z"/>
	</g>
	<g>
		<path class="st1" d="M312,371c-0.3,0-0.7,0-1,0.1c-2.4,0.6-3.9,3-3.3,5.4c0.5,2,2.3,3.4,4.3,3.4c0.3,0,0.7,0,1-0.1
			c2.4-0.6,3.9-3,3.3-5.4C315.8,372.4,314,371,312,371L312,371z"/>
	</g>
	<g>
		<path class="st1" d="M301.8,358.9c-0.3,0-0.7,0-1,0.1c-2.4,0.6-3.9,3-3.3,5.4c0.5,2,2.3,3.4,4.3,3.4c0.3,0,0.7,0,1-0.1
			c2.4-0.6,3.9-3,3.3-5.4C305.6,360.3,303.8,358.9,301.8,358.9L301.8,358.9z"/>
	</g>
	<g>
		<path class="st1" d="M314.9,343.6c-0.3,0-0.7,0-1,0.1c-2.4,0.6-3.9,3-3.3,5.4c0.5,2,2.3,3.4,4.3,3.4c0.3,0,0.7,0,1-0.1
			c2.4-0.6,3.9-3,3.3-5.4C318.8,345,317,343.6,314.9,343.6L314.9,343.6z"/>
	</g>
	<g>
		<path class="st1" d="M321.2,356.5c-0.3,0-0.7,0-1,0.1c-2.4,0.6-3.9,3-3.3,5.4c0.5,2,2.3,3.4,4.3,3.4c0.3,0,0.7,0,1-0.1
			c2.4-0.6,3.9-3,3.3-5.4C325.1,357.9,323.3,356.5,321.2,356.5L321.2,356.5z"/>
	</g>
	<g>
		<path class="st1" d="M335.2,349.1c-0.3,0-0.7,0-1,0.1c-2.4,0.6-3.9,3-3.3,5.4c0.5,2,2.3,3.4,4.3,3.4c0.3,0,0.7,0,1-0.1
			c2.4-0.6,3.9-3,3.3-5.4C339,350.5,337.2,349.1,335.2,349.1L335.2,349.1z"/>
	</g>
	<g>
		<path class="st1" d="M328,334.5c-0.3,0-0.7,0-1,0.1c-2.4,0.6-3.9,3-3.3,5.4c0.5,2,2.3,3.4,4.3,3.4c0.3,0,0.7,0,1-0.1
			c2.4-0.6,3.9-3,3.3-5.4C331.8,335.9,330,334.5,328,334.5L328,334.5z"/>
	</g>
	<g>
		<path class="st1" d="M321.5,319.5c-0.3,0-0.7,0-1,0.1c-2.4,0.6-3.9,3-3.3,5.4c0.5,2,2.3,3.4,4.3,3.4c0.3,0,0.7,0,1-0.1
			c2.4-0.6,3.9-3,3.3-5.4C325.4,320.9,323.5,319.5,321.5,319.5L321.5,319.5z"/>
	</g>
	<g>
		<path class="st1" d="M345.6,332.8c-0.3,0-0.7,0-1,0.1c-2.4,0.6-3.9,3-3.3,5.4c0.5,2,2.3,3.4,4.3,3.4c0.3,0,0.7,0,1-0.1
			c2.4-0.6,3.9-3,3.3-5.4C349.4,334.2,347.6,332.8,345.6,332.8L345.6,332.8z"/>
	</g>
	<g>
		<path class="st1" d="M337.4,321.6c-0.3,0-0.7,0-1,0.1c-2.4,0.6-3.9,3-3.3,5.4c0.5,2,2.3,3.4,4.3,3.4c0.3,0,0.7,0,1-0.1
			c2.4-0.6,3.9-3,3.3-5.4C341.2,322.9,339.4,321.6,337.4,321.6L337.4,321.6z"/>
	</g>
	<g>
		<path class="st1" d="M357.8,322.8c-0.3,0-0.7,0-1,0.1c-2.4,0.6-3.9,3-3.3,5.4c0.5,2,2.3,3.4,4.3,3.4c0.3,0,0.7,0,1-0.1
			c2.4-0.6,3.9-3,3.3-5.4C361.6,324.2,359.8,322.8,357.8,322.8L357.8,322.8z"/>
	</g>
	<g>
		<path class="st1" d="M369.7,312c-0.3,0-0.7,0-1,0.1c-2.4,0.6-3.9,3-3.3,5.4c0.5,2,2.3,3.4,4.3,3.4c0.3,0,0.7,0,1-0.1
			c2.4-0.6,3.9-3,3.3-5.4C373.6,313.4,371.7,312,369.7,312L369.7,312z"/>
	</g>
	<g>
		<path class="st1" d="M389.6,319.3c-0.3,0-0.7,0-1,0.1c-2.4,0.6-3.9,3-3.3,5.4c0.5,2,2.3,3.4,4.3,3.4c0.3,0,0.7,0,1-0.1
			c2.4-0.6,3.9-3,3.3-5.4C393.4,320.6,391.6,319.3,389.6,319.3L389.6,319.3z"/>
	</g>
	<g>
		<path class="st1" d="M392.2,302.3c-0.3,0-0.7,0-1,0.1c-2.4,0.6-3.9,3-3.3,5.4c0.5,2,2.3,3.4,4.3,3.4c0.3,0,0.7,0,1-0.1
			c2.4-0.6,3.9-3,3.3-5.4C396,303.7,394.2,302.3,392.2,302.3L392.2,302.3z"/>
	</g>
	<g>
		<path class="st1" d="M377.3,298.3c-0.3,0-0.7,0-1,0.1c-2.4,0.6-3.9,3-3.3,5.4c0.5,2,2.3,3.4,4.3,3.4c0.3,0,0.7,0,1-0.1
			c2.4-0.6,3.9-3,3.3-5.4C381.2,299.7,379.4,298.3,377.3,298.3L377.3,298.3z"/>
	</g>
	<g>
		<path class="st1" d="M389.1,272c-0.3,0-0.7,0-1,0.1c-2.4,0.6-3.9,3-3.3,5.4c0.5,2,2.3,3.4,4.3,3.4c0.3,0,0.7,0,1-0.1
			c2.4-0.6,3.9-3,3.3-5.4C392.9,273.4,391.1,272,389.1,272L389.1,272z"/>
	</g>
	<g>
		<path class="st1" d="M376.1,284.3c-0.3,0-0.7,0-1,0.1c-2.4,0.6-3.9,3-3.3,5.4c0.5,2,2.3,3.4,4.3,3.4c0.3,0,0.7,0,1-0.1
			c2.4-0.6,3.9-3,3.3-5.4C379.9,285.7,378.1,284.3,376.1,284.3L376.1,284.3z"/>
	</g>
	<g>
		<path class="st1" d="M370.7,263.7c-0.3,0-0.7,0-1,0.1c-2.4,0.6-3.9,3-3.3,5.4c0.5,2,2.3,3.4,4.3,3.4c0.3,0,0.7,0,1-0.1
			c2.4-0.6,3.9-3,3.3-5.4C374.5,265.1,372.7,263.7,370.7,263.7L370.7,263.7z"/>
	</g>
	<g>
		<path class="st1" d="M361.7,277.6c-0.3,0-0.7,0-1,0.1c-2.4,0.6-3.9,3-3.3,5.4c0.5,2,2.3,3.4,4.3,3.4c0.3,0,0.7,0,1-0.1
			c2.4-0.6,3.9-3,3.3-5.4C365.5,278.9,363.7,277.6,361.7,277.6L361.7,277.6z"/>
	</g>
	<g>
		<path class="st1" d="M361.4,295.4c-0.3,0-0.7,0-1,0.1c-2.4,0.6-3.9,3-3.3,5.4c0.5,2,2.3,3.4,4.3,3.4c0.3,0,0.7,0,1-0.1
			c2.4-0.6,3.9-3,3.3-5.4C365.2,296.7,363.4,295.4,361.4,295.4L361.4,295.4z"/>
	</g>
	<g>
		<path class="st1" d="M346.1,295.4c-0.5,0-1.1,0.1-1.6,0.3c-2.3,0.9-3.5,3.5-2.6,5.8c0.7,1.8,2.4,2.9,4.2,2.9
			c0.5,0,1.1-0.1,1.6-0.3c2.3-0.9,3.5-3.5,2.6-5.8C349.6,296.5,347.9,295.4,346.1,295.4L346.1,295.4z"/>
	</g>
	<g>
		<path class="st1" d="M352.9,309c-0.5,0-1.1,0.1-1.6,0.3c-2.3,0.9-3.5,3.5-2.6,5.8c0.7,1.8,2.4,2.9,4.2,2.9c0.5,0,1.1-0.1,1.6-0.3
			c2.3-0.9,3.5-3.5,2.6-5.8C356.4,310.1,354.7,309,352.9,309L352.9,309z"/>
	</g>
	<g>
		<path class="st1" d="M335.5,307.9c-0.5,0-1.1,0.1-1.6,0.3c-2.3,0.9-3.5,3.5-2.6,5.8c0.7,1.8,2.4,2.9,4.2,2.9
			c0.5,0,1.1-0.1,1.6-0.3c2.3-0.9,3.5-3.5,2.6-5.8C338.9,309,337.3,307.9,335.5,307.9L335.5,307.9z"/>
	</g>
	<g>
		<path class="st1" d="M320.1,301c-0.5,0-1.1,0.1-1.6,0.3c-2.3,0.9-3.5,3.5-2.6,5.8c0.7,1.8,2.4,2.9,4.2,2.9c0.5,0,1.1-0.1,1.6-0.3
			c2.3-0.9,3.5-3.5,2.6-5.8C323.6,302.1,321.9,301,320.1,301L320.1,301z"/>
	</g>
	<g>
		<path class="st1" d="M452.9,446.7c-0.3,0-0.7,0-1,0.1c-2.4,0.6-3.9,3-3.3,5.4c0.5,2,2.3,3.4,4.3,3.4c0.3,0,0.7,0,1-0.1
			c2.4-0.6,3.9-3,3.3-5.4C456.7,448,454.9,446.7,452.9,446.7L452.9,446.7z"/>
	</g>
	<g>
		<path class="st1" d="M397.1,287.7c-0.1,0-0.2,0-0.3,0c-2.5,0.2-4.3,2.3-4.1,4.8c0.2,2.4,2.1,4.2,4.4,4.2c0.1,0,0.2,0,0.3,0
			c2.5-0.2,4.3-2.3,4.1-4.8C401.3,289.5,399.4,287.7,397.1,287.7L397.1,287.7z"/>
	</g>
	<g>
		<path class="st1" d="M411.5,286.7c-0.1,0-0.2,0-0.3,0c-2.5,0.2-4.3,2.3-4.1,4.8c0.2,2.4,2.1,4.2,4.4,4.2c0.1,0,0.2,0,0.3,0
			c2.5-0.2,4.3-2.3,4.1-4.8C415.7,288.5,413.8,286.7,411.5,286.7L411.5,286.7z"/>
	</g>
	<g>
		<path class="st1" d="M417.9,272c-0.1,0-0.2,0-0.3,0c-2.5,0.2-4.3,2.3-4.1,4.8c0.2,2.4,2.1,4.2,4.4,4.2c0.1,0,0.2,0,0.3,0
			c2.5-0.2,4.3-2.3,4.1-4.8C422.1,273.8,420.2,272,417.9,272L417.9,272z"/>
	</g>
	<g>
		<path class="st1" d="M408,301c-0.1,0-0.2,0-0.3,0c-2.5,0.2-4.3,2.3-4.1,4.8c0.2,2.4,2.1,4.2,4.4,4.2c0.1,0,0.2,0,0.3,0
			c2.5-0.2,4.3-2.3,4.1-4.8C412.2,302.8,410.3,301,408,301L408,301z"/>
	</g>
	<path class="st0" d="M273.1,320.4c0.1-0.3,0.2-0.6,0.3-0.8c19.2-53.2,70-88.9,126.6-88.9s107.4,35.7,126.6,88.9
		c1.6,3.7,13.5,33.6,5.3,81.6c-5,29-16.3,58.7-33.7,88.5c-21.5,36.8-52.4,73.9-91.9,110c-1.8,1.6-4,2.4-6.3,2.4s-4.5-0.8-6.3-2.4
		c-39.4-36.1-70.4-73.2-91.9-110c-17.4-29.8-28.7-59.6-33.7-88.5C260.3,355.7,270.6,326.5,273.1,320.4 M507.8,423.4
		c2.4-8,4.1-16,5.5-23.9c1.8-10,2.6-19.2,2.8-27.3 M475.9,490.5c1.9-3,3.8-6.1,5.6-9.1c7.4-12.5,13.6-25,18.6-37.3 M430.1,549.7
		c12.4-13.6,23.6-27.3,33.4-40.9 M387.2,567.8c4.1,4.1,8.4,8.3,12.8,12.4c4.4-4.1,8.6-8.2,12.8-12.4 M336.5,508.8
		c9.8,13.7,21,27.3,33.4,40.9 M336.5,508.8 M299.9,444c5,12.4,11.3,24.8,18.6,37.3c1.8,3,3.6,6.1,5.6,9.1 M283.9,372.2
		c0.2,8.2,1,17.3,2.8,27.4c1.4,7.8,3.3,15.7,5.8,23.7 M300.9,305c-4,6.6-7.4,13.7-10.1,21.2c-0.1,0.3-0.2,0.6-0.4,0.9
		c-0.5,1.2-4.2,10.2-5.8,25.8 M353.6,259c-15.5,6.8-29.4,16.9-40.7,29.6 M425.3,252.1c-8.2-1.8-16.7-2.8-25.3-2.8
		c-8.6,0-17.1,1-25.3,2.8 M487,288.7c-11.2-12.7-25.1-22.8-40.7-29.6 M515.3,352.9c-1.6-15.5-5.3-24.6-5.8-25.9
		c-0.1-0.3-0.2-0.5-0.3-0.8c-2.7-7.4-6-14.5-10-21.1"/>
	<path class="st0" d="M492.1,499.6c-13.2-2.3-23.2-13.8-23.2-27.7c0-4.4,1-8.5,2.8-12.2"/>
	<path class="st0" d="M444.3,561.6c-10.7-4-18.2-14.3-18.2-26.3c0-15.5,12.6-28.1,28.1-28.1c10,0,18.9,5.3,23.8,13.2"/>
	<path class="st0" d="M374.4,581.2c4.4-9.7,14.2-16.5,25.6-16.5s21.2,6.8,25.6,16.5"/>
	<path class="st0" d="M283.1,452.1c5.1-5.1,12.1-8.2,19.9-8.2c15.5,0,28.1,12.6,28.1,28.1c0,13.8-10,25.3-23.2,27.7
		c4.4,6.9,9.1,13.9,14.1,20.8c5-7.9,13.8-13.2,23.8-13.2c15.5,0,28.1,12.6,28.1,28.1c0,12-7.6,22.3-18.2,26.3"/>
	<path class="st0" d="M265.4,374.2c3.7-1.7,7.8-2.7,12.1-2.7c15.5,0,28.1,12.6,28.1,28.1s-12.6,28.1-28.1,28.1c-1,0-2.1-0.1-3.1-0.2
		"/>
	<path class="st0" d="M284,297.1c14.2,1.4,25.3,13.4,25.3,27.9c0,15.5-12.6,28.1-28.1,28.1c-5.4,0-10.5-1.5-14.8-4.2"/>
	<path class="st0" d="M344.5,242.7c5.8,5.1,9.5,12.7,9.5,21c0,15.5-12.6,28.1-28.1,28.1c-11.5,0-21.4-6.9-25.7-16.8"/>
	<path class="st0" d="M427.3,233.5c0.5,2.1,0.8,4.2,0.8,6.5c0,15.5-12.6,28.1-28.1,28.1s-28.1-12.6-28.1-28.1c0-2.2,0.3-4.4,0.8-6.5
		"/>
	<path class="st0" d="M499.8,275c-4.3,9.9-14.2,16.8-25.7,16.8c-15.5,0-28.1-12.6-28.1-28.1c0-8.4,3.7-15.9,9.5-21"/>
	<path class="st0" d="M533.6,348.9c-4.3,2.7-9.4,4.2-14.8,4.2c-15.5,0-28.1-12.6-28.1-28.1c0-14.6,11.1-26.5,25.3-27.9"/>
	<path class="st0" d="M525.6,427.4c-1,0.1-2,0.2-3.1,0.2c-15.5,0-28.1-12.6-28.1-28.1s12.6-28.1,28.1-28.1c4.3,0,8.4,1,12.1,2.7"/>
</g>
</svg>
