<?xml version="1.0" encoding="utf-8"?>
<!-- Generator: Adobe Illustrator 20.0.0, SVG Export Plug-In . SVG Version: 6.00 Build 0)  -->
<svg version="1.1" id="Layer_1" xmlns="http://www.w3.org/2000/svg" xmlns:xlink="http://www.w3.org/1999/xlink" x="0px" y="0px"
	 viewBox="0 0 800 800" style="enable-background:new 0 0 800 800;" xml:space="preserve">
<style type="text/css">
	.st0{fill:none;stroke:#FFFFFF;stroke-width:6;stroke-linecap:round;stroke-linejoin:round;stroke-miterlimit:10;}
	.st1{fill:#FFFFFF;}
	
		.st2{clip-path:url(#XMLID_4_);fill:none;stroke:#FFFFFF;stroke-width:6;stroke-linecap:round;stroke-linejoin:round;stroke-miterlimit:10;}
	.st3{fill:none;stroke:#FFFFFF;stroke-width:6;stroke-miterlimit:10;}
	.st4{fill:none;stroke:#FFFFFF;stroke-width:6;stroke-linecap:round;stroke-miterlimit:10;}
	.st5{fill:none;stroke:#FFFFFF;stroke-width:6;stroke-linejoin:round;stroke-miterlimit:10;}
	
		.st6{clip-path:url(#XMLID_5_);fill:none;stroke:#FFFFFF;stroke-width:6;stroke-linecap:round;stroke-linejoin:round;stroke-miterlimit:10;}
</style>
<g>
	<line class="st0" x1="219" y1="422.6" x2="233.7" y2="470"/>
	<line class="st0" x1="423.2" y1="129.4" x2="460.9" y2="172"/>
	<line class="st0" x1="390.7" y1="168.8" x2="348.1" y2="150.6"/>
	<line class="st0" x1="581.4" y1="470" x2="596" y2="450"/>
	<line class="st0" x1="185.8" y1="452.6" x2="180" y2="500.9"/>
	<g>
		<line class="st0" x1="423.2" y1="535.2" x2="423.2" y2="574.9"/>
		<polyline class="st0" points="390.7,248.8 390.7,64.3 423.2,64.3 423.2,248.6 		"/>
		<line class="st0" x1="390.7" y1="574.9" x2="390.7" y2="534.8"/>
		<path class="st0" d="M456,622c0-0.2,0-0.5,0-0.7c0-0.3,0-0.6,0-0.8c0-0.5,0-0.9,0-1.3c0-0.2,0-0.3,0-0.5c-0.1-3-0.4-4.5-0.4-4.5h0
			c-3.5-23.8-23.9-42-48.6-42s-45.2,18.2-48.6,42h0c0,0-0.3,1.5-0.4,4.5c0,0.2,0,0.3,0,0.5c0,0.4,0,0.9,0,1.3c0,0.3,0,0.6,0,0.8
			c0,0.2,0,0.5,0,0.7c0.1,15.8,5.8,55,49.1,113.7C450.3,677,455.9,637.8,456,622z"/>
	</g>
	<g>
		<path class="st0" d="M584.4,229.3c-0.2,0.1-0.4,0.2-0.6,0.3c-0.2,0.1-0.5,0.3-0.7,0.4c-0.4,0.2-0.8,0.5-1.1,0.7
			c-0.1,0.1-0.3,0.2-0.4,0.3c-2.5,1.6-3.7,2.6-3.7,2.6l0,0c-18.8,14.9-24.4,41.7-12,63.1c12.4,21.4,38.4,30,60.7,21.1l0,0
			c0,0,1.5-0.5,4.1-1.9c0.1-0.1,0.3-0.2,0.4-0.2c0.4-0.2,0.8-0.4,1.2-0.6c0.2-0.1,0.5-0.3,0.7-0.4c0.2-0.1,0.4-0.2,0.6-0.4
			c13.6-8,44.7-32.5,73.9-99.5C634.8,206.7,598.1,221.5,584.4,229.3z"/>
		<line class="st0" x1="474.9" y1="330.5" x2="560.1" y2="281.3"/>
		<line class="st0" x1="268.3" y1="450" x2="318.3" y2="421.1"/>
		<polyline class="st0" points="214.5,518.6 130.1,567.4 114.1,539.2 257.8,456.1 		"/>
		<line class="st0" x1="275.9" y1="483.1" x2="229.1" y2="510.2"/>
		<line class="st0" x1="335.6" y1="448.6" x2="296.3" y2="471.4"/>
		<line class="st0" x1="576.3" y1="309.4" x2="492.1" y2="358.1"/>
	</g>
	<g>
		<path class="st0" d="M180.1,314.8c0.2,0.1,0.4,0.2,0.6,0.4c0.2,0.1,0.5,0.3,0.7,0.4c0.4,0.2,0.8,0.4,1.2,0.6
			c0.1,0.1,0.3,0.2,0.4,0.2c2.6,1.4,4.1,1.9,4.1,1.9l0,0c22.3,8.8,48.3,0.2,60.7-21.2c12.3-21.4,6.7-48.2-12.1-63.1l0,0
			c0,0-1.2-1-3.7-2.6c-0.1-0.1-0.3-0.2-0.4-0.3c-0.4-0.2-0.7-0.4-1.1-0.7c-0.2-0.1-0.5-0.3-0.7-0.4c-0.2-0.1-0.4-0.2-0.6-0.3
			c-13.7-7.8-50.5-22.4-123.1-14.2C135.4,282.4,166.5,306.8,180.1,314.8z"/>
		<g>
			<path class="st0" d="M185.8,231.4c4.4,11.3,4.4,23.4,0,34.8c10.3-6.2,18-19.3,15.7-31.1l0,0C197.1,233.7,191.8,232.5,185.8,231.4
				z"/>
			<path class="st0" d="M174.9,291.7c-29.4-21-44.1-61.9-44.1-61.9c12.1-1,22.8-1.2,32.3-0.7c15.1,1.2,11.3,27,11.3,27
				S169.6,278.9,174.9,291.7z"/>
			<path class="st0" d="M200.7,283.2c-3.1,2.8-6.9,5-8.7,8.7c-1.8,3.7-2,7.6,0.9,10.6c15.1,4.7,31.6-0.8,39.4-14.3
				c8.3-14.3,3.8-32.7-9.8-43.2l0,0c0,0-0.8-0.7-2.6-1.9c-0.1-0.1-0.2-0.1-0.3-0.2c-0.3-0.2-0.5-0.3-0.8-0.5
				c-0.2-0.1-0.3-0.2-0.5-0.3c-0.1-0.1-0.3-0.2-0.4-0.2c-1.1-0.6-2.4-1.3-3.9-2C213.9,239.8,223.1,262.7,200.7,283.2z"/>
		</g>
		<polyline class="st0" points="556.1,455.8 700,538.6 684,566.9 538.1,482.9 		"/>
		<line class="st0" x1="495.5" y1="420.9" x2="545.7" y2="449.8"/>
		<line class="st0" x1="253.5" y1="281.6" x2="339.1" y2="330.8"/>
		<line class="st0" x1="321.4" y1="358.1" x2="237.3" y2="309.8"/>
		<line class="st0" x1="517.8" y1="471.2" x2="478.6" y2="448.6"/>
	</g>
	<polygon class="st0" points="425.3,440.9 452.3,453.9 491.7,392 406.9,258.4 322,392 361.4,453.9 388.5,440.9 372.5,471.4 
		406.9,525.5 441.2,471.4 	"/>
	<line class="st0" x1="372.5" y1="312.5" x2="372.5" y2="448.6"/>
	<line class="st0" x1="438" y1="307.3" x2="438" y2="447"/>
	<polygon class="st0" points="381.5,399.9 354.3,385.2 359.1,361 399.1,382.6 	"/>
	<polygon class="st0" points="432.2,399.9 459.5,385.2 454.6,361 414.7,382.6 	"/>
	<g>
		<polyline class="st0" points="620.9,435.4 620.9,475.1 645.8,460.5 		"/>
		<polyline class="st0" points="596,410.7 596,450 620.9,435.4 		"/>
		<polyline class="st0" points="670.6,435.4 670.6,475.1 645.8,460.5 		"/>
		<polyline class="st0" points="695.5,410.7 695.5,450 670.6,435.4 		"/>
		
			<rect x="600" y="349.8" transform="matrix(0.7071 -0.7071 0.7071 0.7071 -90.6043 572.5521)" class="st0" width="91.7" height="91.7"/>
		
			<rect x="633.7" y="357.9" transform="matrix(0.7071 -0.7071 0.7071 0.7071 -72.4503 565.0325)" class="st0" width="24.2" height="24.2"/>
		
			<rect x="608.1" y="383.5" transform="matrix(-0.7071 -0.7071 0.7071 -0.7071 778.9086 1113.9248)" class="st0" width="24.2" height="24.2"/>
		
			<rect x="659.4" y="383.5" transform="matrix(0.7071 0.7071 -0.7071 0.7071 476.442 -358.9426)" class="st0" width="24.2" height="24.2"/>
		<line class="st0" x1="628.7" y1="404.2" x2="665.4" y2="440.9"/>
		<line class="st0" x1="600.6" y1="376" x2="610.9" y2="386.4"/>
		<line class="st0" x1="680.1" y1="404.2" x2="691.1" y2="415.2"/>
		<line class="st0" x1="654.4" y1="378.5" x2="662.9" y2="387.1"/>
		<line class="st0" x1="626.2" y1="350.4" x2="637.3" y2="361.4"/>
	</g>
	<g>
		<path class="st0" d="M458.3,193.3c0,33.8,19.7,64.3,51.1,85.8c31.5-21.5,51.1-51.9,51.1-85.8s-19.7-64.3-51.1-85.8
			C477.9,128.9,458.3,159.4,458.3,193.3z"/>
		<polyline class="st0" points="546.3,241.6 527.4,219.3 509.4,241.6 491.3,219.3 472.5,241.6 		"/>
		<polygon class="st0" points="482,160.4 477.1,200.1 509.4,195.9 		"/>
		<polygon class="st0" points="536.8,160.4 541.6,200.1 509.4,195.9 		"/>
		<line class="st0" x1="527.4" y1="219.3" x2="471.4" y2="146.8"/>
		<line class="st0" x1="523.6" y1="177.5" x2="485.4" y2="128.1"/>
		<line class="st0" x1="556.3" y1="219.9" x2="541.3" y2="200.4"/>
	</g>
	<g>
		<polyline class="st0" points="206.5,414.4 206.5,388.1 227.9,374.6 158.6,330.8 89.3,374.6 110.7,388.1 110.7,413.8 		"/>
		<polygon class="st0" points="158.6,416.7 135,396.9 120.2,421.2 90.2,397.8 109.6,452.6 207.6,452.6 228.1,399 196.9,421.2 
			182.1,396.9 		"/>
		<polygon class="st0" points="132.1,374.6 110.7,388.1 89.3,374.6 110.7,361.1 		"/>
		<polygon class="st0" points="185.1,374.6 206.5,388.1 227.9,374.6 206.5,361.1 		"/>
		<polygon class="st0" points="180,361.3 158.6,374.9 137.2,361.3 158.6,347.8 		"/>
		<line class="st0" x1="158.6" y1="416.7" x2="109.6" y2="452.6"/>
		<line class="st0" x1="150.6" y1="452.6" x2="196.9" y2="421.2"/>
	</g>
	<polygon class="st0" points="366.9,196.9 305.3,114.8 243.8,196.9 305.3,279.1 	"/>
	<line class="st0" x1="282.3" y1="205.8" x2="266.4" y2="227.1"/>
	<line class="st0" x1="327.9" y1="145" x2="311.9" y2="166.3"/>
	<line class="st0" x1="298.5" y1="227.3" x2="282.5" y2="248.6"/>
	<line class="st0" x1="344.1" y1="166.5" x2="328.1" y2="187.8"/>
	<polygon class="st0" points="334.9,196.9 305.3,157.5 275.7,196.9 305.3,236.4 	"/>
	<path class="st0" d="M336.1,477.4c0,0,12.9,16.1,3,35.5"/>
	<path class="st0" d="M322,477.7c0,0,9.2,19.6,0,32.5"/>
	<path class="st0" d="M477.7,477.4c0,0-12.9,16.1-3,35.5"/>
	<path class="st0" d="M491.7,477.7c0,0-9.2,19.6,0,32.5"/>
	<circle class="st0" cx="271" cy="561.1" r="35.6"/>
	<path class="st0" d="M308.1,598.1c-9.5,9.5-22.6,15.3-37,15.3c-13.8,0-26.3-5.3-35.6-14"/>
	<path class="st0" d="M255.1,576.4c-2-2.1-3.6-4.6-4.7-7.3"/>
	<path class="st0" d="M264.6,582.3c-0.6-0.2-1.2-0.4-1.8-0.6"/>
	<path class="st0" d="M284.3,578.8c-2.9,2.2-6.3,3.6-10,4.2"/>
	<path class="st0" d="M291.6,569.2c-0.3,0.8-0.7,1.6-1.1,2.4"/>
	<line class="st0" x1="260.2" y1="551.7" x2="227.8" y2="519.2"/>
	<circle class="st0" cx="222.3" cy="513.8" r="7.8"/>
	<g>
		<polyline class="st0" points="578,611.2 589.3,599.9 564.3,575 553.1,586.3 		"/>
		<polygon class="st0" points="592.8,581.9 582.4,571.5 564.3,575 589.3,599.9 		"/>
		
			<ellipse transform="matrix(0.7071 -0.7071 0.7071 0.7071 -281.3752 565.4714)" class="st0" cx="541.9" cy="622.4" rx="37.8" ry="37.8"/>
		<line class="st0" x1="528.7" y1="622.4" x2="579.7" y2="622.4"/>
		<path class="st0" d="M522.6,638c-7.9-9.7-7.3-24.1,1.8-33.1"/>
		<path class="st0" d="M537.5,646.8c-2.2-0.4-4.4-1.1-6.5-2.1"/>
	</g>
	<line class="st0" x1="227.9" y1="316.1" x2="284.3" y2="414.4"/>
	<line class="st0" x1="579.7" y1="333.5" x2="512" y2="430.4"/>
	<line class="st0" x1="612.1" y1="525.5" x2="474.3" y2="580.9"/>
	<line class="st0" x1="541.9" y1="584.6" x2="541.9" y2="485.1"/>
	<line class="st0" x1="271" y1="525.5" x2="271" y2="486"/>
	<line class="st0" x1="333.4" y1="241.6" x2="381.4" y2="263.7"/>
	<line class="st0" x1="456.1" y1="621.3" x2="512" y2="644.7"/>
	<g>
		<path class="st0" d="M380.4,657.9c7.6-9.5,18.1-15.5,30.1-17.4c-10.5-5.8-25.7-5.9-34.8,1.9l0,0
			C376.8,647,378.3,652.2,380.4,657.9z"/>
		<path class="st0" d="M438,637.2c-3.5,35.9-31.6,69.1-31.6,69.1c-6.9-10-12.4-19.2-16.8-27.6c-6.5-13.7,17.8-23.3,17.8-23.3
			S429.6,648.2,438,637.2z"/>
		<path class="st0" d="M417.7,619.1c4,1.3,7.7,3.5,11.9,3.2c4.1-0.3,7.5-2.1,8.7-6c-3.5-15.5-16.5-27-32.1-27
			c-16.5,0-30.2,13.1-32.5,30.1l0,0c0,0-0.2,1.1-0.3,3.2c0,0.1,0,0.2,0,0.4c0,0.3,0,0.6,0,0.9c0,0.2,0,0.4,0,0.6c0,0.2,0,0.3,0,0.5
			c0,1.2,0.1,2.7,0.2,4.3C373.6,629.4,388.8,609.9,417.7,619.1z"/>
	</g>
	<g>
		<path class="st0" d="M652.9,277.4c-12-1.9-22.5-7.9-30.1-17.4c0.2,12,7.7,25.2,19.1,29.2l0,0C645.2,286,648.9,282.1,652.9,277.4z"
			/>
		<path class="st0" d="M606.1,237.8c32.8-14.9,75.7-7.2,75.7-7.2c-5.2,11-10.4,20.4-15.5,28.3c-8.6,12.5-29-3.8-29-3.8
			S619.8,239.6,606.1,237.8z"/>
		<path class="st0" d="M600.6,264.4c-0.9-4.1-0.9-8.4-3.1-11.9c-2.3-3.5-5.6-5.5-9.6-4.5c-11.7,10.7-15.1,27.8-7.3,41.2
			c8.3,14.3,26.4,19.6,42.3,13.1l0,0c0,0,1-0.4,2.9-1.4c0.1-0.1,0.2-0.1,0.3-0.2c0.3-0.1,0.5-0.3,0.8-0.5c0.2-0.1,0.4-0.2,0.5-0.3
			c0.1-0.1,0.3-0.2,0.4-0.3c1.1-0.6,2.3-1.4,3.6-2.3C631.5,297.5,607.1,294.1,600.6,264.4z"/>
	</g>
	<polyline class="st0" points="591.7,513.8 620.9,493 622.7,531.6 655.8,513.1 654.4,549.8 	"/>
	<polyline class="st0" points="390.7,95.8 423.2,114.8 390.7,141 423.2,157.5 390.7,180.2 	"/>
	<polyline class="st0" points="125.3,532.7 157.4,551.7 154.1,516 181.8,537.6 190.3,495.1 	"/>
	<line class="st0" x1="310.6" y1="622.4" x2="361" y2="645.7"/>
	<g>
		<g>
			<path class="st1" d="M281.8,546.5c-0.6,0-1.2,0.1-1.8,0.3c-2.7,1-4.1,4-3.1,6.7c0.8,2.1,2.8,3.4,4.9,3.4c0.6,0,1.2-0.1,1.8-0.3
				c2.7-1,4.1-4,3.1-6.7C285.9,547.8,284,546.5,281.8,546.5L281.8,546.5z"/>
		</g>
		<g>
			<path class="st1" d="M386.1,311.6c-0.4,0-0.7,0-1.1,0.1c-2.5,0.6-4,3.1-3.4,5.5c0.5,2.1,2.4,3.5,4.4,3.5c0.4,0,0.7,0,1.1-0.1
				c2.5-0.6,4-3.1,3.4-5.5C390,313,388.1,311.6,386.1,311.6L386.1,311.6z"/>
		</g>
		<g>
			<path class="st1" d="M393.6,299.7c-0.4,0-0.7,0-1.1,0.1c-2.5,0.6-4,3.1-3.4,5.5c0.5,2.1,2.4,3.5,4.4,3.5c0.4,0,0.7,0,1.1-0.1
				c2.5-0.6,4-3.1,3.4-5.5C397.5,301.1,395.6,299.7,393.6,299.7L393.6,299.7z"/>
		</g>
		<g>
			<path class="st1" d="M406.9,278.4c-0.4,0-0.7,0-1.1,0.1c-2.5,0.6-4,3.1-3.4,5.5c0.5,2.1,2.4,3.5,4.4,3.5c0.4,0,0.7,0,1.1-0.1
				c2.5-0.6,4-3.1,3.4-5.5C410.8,279.8,409,278.4,406.9,278.4L406.9,278.4z"/>
		</g>
		<g>
			<path class="st1" d="M405.9,292.8c-0.4,0-0.7,0-1.1,0.1c-2.5,0.6-4,3.1-3.4,5.5c0.5,2.1,2.4,3.5,4.4,3.5c0.4,0,0.7,0,1.1-0.1
				c2.5-0.6,4-3.1,3.4-5.5C409.8,294.2,407.9,292.8,405.9,292.8L405.9,292.8z"/>
		</g>
		<g>
			<path class="st1" d="M419.8,296c-0.4,0-0.7,0-1.1,0.1c-2.5,0.6-4,3.1-3.4,5.5c0.5,2.1,2.4,3.5,4.4,3.5c0.4,0,0.7,0,1.1-0.1
				c2.5-0.6,4-3.1,3.4-5.5C423.7,297.4,421.9,296,419.8,296L419.8,296z"/>
		</g>
		<g>
			<path class="st1" d="M425.9,308c-0.4,0-0.7,0-1.1,0.1c-2.5,0.6-4,3.1-3.4,5.5c0.5,2.1,2.4,3.5,4.4,3.5c0.4,0,0.7,0,1.1-0.1
				c2.5-0.6,4-3.1,3.4-5.5C429.9,309.4,428,308,425.9,308L425.9,308z"/>
		</g>
		<g>
			<path class="st1" d="M409.1,307.3c-0.4,0-0.7,0-1.1,0.1c-2.5,0.6-4,3.1-3.4,5.5c0.5,2.1,2.4,3.5,4.4,3.5c0.4,0,0.7,0,1.1-0.1
				c2.5-0.6,4-3.1,3.4-5.5C413.1,308.7,411.2,307.3,409.1,307.3L409.1,307.3z"/>
		</g>
		<g>
			<path class="st1" d="M398.6,320.7c-0.9,0-1.7,0.2-2.5,0.8c-2.1,1.4-2.7,4.2-1.3,6.3c0.9,1.3,2.3,2.1,3.8,2.1
				c0.9,0,1.7-0.2,2.5-0.8c2.1-1.4,2.7-4.2,1.3-6.3C401.6,321.4,400.1,320.7,398.6,320.7L398.6,320.7z"/>
		</g>
		<g>
			<path class="st1" d="M385,325.9c-0.5,0-0.9,0.1-1.4,0.2c-2.4,0.8-3.7,3.4-3,5.8c0.6,1.9,2.4,3.2,4.4,3.2c0.5,0,0.9-0.1,1.4-0.2
				c2.4-0.8,3.7-3.4,3-5.8C388.8,327.2,387,325.9,385,325.9L385,325.9z"/>
		</g>
		<g>
			<path class="st1" d="M391.5,341.6c-0.5,0-0.9,0.1-1.4,0.2c-2.4,0.8-3.7,3.4-3,5.8c0.6,1.9,2.4,3.2,4.4,3.2c0.5,0,0.9-0.1,1.4-0.2
				c2.4-0.8,3.7-3.4,3-5.8C395.2,342.8,393.4,341.6,391.5,341.6L391.5,341.6z"/>
		</g>
		<g>
			<path class="st1" d="M386.1,356.2c-0.5,0-0.9,0.1-1.4,0.2c-2.4,0.8-3.7,3.4-3,5.8c0.6,1.9,2.4,3.2,4.4,3.2c0.5,0,0.9-0.1,1.4-0.2
				c2.4-0.8,3.7-3.4,3-5.8C389.8,357.5,388,356.2,386.1,356.2L386.1,356.2z"/>
		</g>
		<g>
			<path class="st1" d="M401.1,360.8c-0.5,0-0.9,0.1-1.4,0.2c-2.4,0.8-3.7,3.4-3,5.8c0.6,1.9,2.4,3.2,4.4,3.2c0.5,0,0.9-0.1,1.4-0.2
				c2.4-0.8,3.7-3.4,3-5.8C404.8,362,403,360.8,401.1,360.8L401.1,360.8z"/>
		</g>
		<g>
			<path class="st1" d="M406.9,387.4c-1.6,0-3.1,0.8-4,2.3c-1.3,2.2-0.5,5,1.7,6.3c0.7,0.4,1.5,0.6,2.3,0.6c1.6,0,3.1-0.8,4-2.3
				c1.3-2.2,0.5-5-1.7-6.3C408.5,387.6,407.7,387.4,406.9,387.4L406.9,387.4z"/>
		</g>
		<g>
			<path class="st1" d="M396.9,398.2c-1.2,0-2.3,0.4-3.2,1.3c-1.8,1.8-1.8,4.7,0,6.5c0.9,0.9,2.1,1.3,3.2,1.3s2.3-0.4,3.2-1.3
				c1.8-1.8,1.8-4.7,0-6.5C399.3,398.7,398.1,398.2,396.9,398.2L396.9,398.2z"/>
		</g>
		<g>
			<path class="st1" d="M386.1,406.1c-2.4,0-4.5,1.9-4.6,4.4c-0.1,2.5,1.8,4.7,4.4,4.8c0.1,0,0.1,0,0.2,0c2.4,0,4.5-1.9,4.6-4.4
				c0.1-2.5-1.8-4.7-4.4-4.8C386.2,406.1,386.1,406.1,386.1,406.1L386.1,406.1z"/>
		</g>
		<g>
			<path class="st1" d="M385.1,424.9c-2.4,0-4.5,1.9-4.6,4.4c-0.1,2.5,1.8,4.7,4.4,4.8c0.1,0,0.1,0,0.2,0c2.4,0,4.5-1.9,4.6-4.4
				c0.1-2.5-1.8-4.7-4.4-4.8C385.2,424.9,385.2,424.9,385.1,424.9L385.1,424.9z"/>
		</g>
		<g>
			<path class="st1" d="M396.9,415.6c-2.4,0-4.5,1.9-4.6,4.4c-0.1,2.5,1.8,4.7,4.4,4.8c0.1,0,0.1,0,0.2,0c2.4,0,4.5-1.9,4.6-4.4
				c0.1-2.5-1.8-4.7-4.4-4.8C397,415.6,397,415.6,396.9,415.6L396.9,415.6z"/>
		</g>
		<g>
			<path class="st1" d="M418.5,398.2c-2.4,0-4.5,1.9-4.6,4.4c-0.1,2.5,1.8,4.7,4.4,4.8c0.1,0,0.1,0,0.2,0c2.4,0,4.5-1.9,4.6-4.4
				c0.1-2.5-1.8-4.7-4.4-4.8C418.7,398.2,418.6,398.2,418.5,398.2L418.5,398.2z"/>
		</g>
		<g>
			<path class="st1" d="M411.6,410.7c-2.4,0-4.5,1.9-4.6,4.4c-0.1,2.5,1.8,4.7,4.4,4.8c0.1,0,0.1,0,0.2,0c2.4,0,4.5-1.9,4.6-4.4
				c0.1-2.5-1.8-4.7-4.4-4.8C411.8,410.7,411.7,410.7,411.6,410.7L411.6,410.7z"/>
		</g>
		<g>
			<path class="st1" d="M425.2,415.6c-2.4,0-4.5,1.9-4.6,4.4c-0.1,2.5,1.8,4.7,4.4,4.8c0.1,0,0.1,0,0.2,0c2.4,0,4.5-1.9,4.6-4.4
				c0.1-2.5-1.8-4.7-4.4-4.8C425.3,415.6,425.3,415.6,425.2,415.6L425.2,415.6z"/>
		</g>
		<g>
			<path class="st1" d="M415.4,428.9c-2.4,0-4.5,1.9-4.6,4.4c-0.1,2.5,1.8,4.7,4.4,4.8c0.1,0,0.1,0,0.2,0c2.4,0,4.5-1.9,4.6-4.4
				c0.1-2.5-1.8-4.7-4.4-4.8C415.6,428.9,415.5,428.9,415.4,428.9L415.4,428.9z"/>
		</g>
		<g>
			<path class="st1" d="M400.8,428.9c-2.4,0-4.5,1.9-4.6,4.4c-0.1,2.5,1.8,4.7,4.4,4.8c0.1,0,0.1,0,0.2,0c2.4,0,4.5-1.9,4.6-4.4
				c0.1-2.5-1.8-4.7-4.4-4.8C400.9,428.9,400.8,428.9,400.8,428.9L400.8,428.9z"/>
		</g>
		<g>
			<path class="st1" d="M400,447.9c-2.4,0-4.5,1.9-4.6,4.4c-0.1,2.5,1.8,4.7,4.4,4.8c0.1,0,0.1,0,0.2,0c2.4,0,4.5-1.9,4.6-4.4
				c0.1-2.5-1.8-4.7-4.4-4.8C400.1,447.9,400,447.9,400,447.9L400,447.9z"/>
		</g>
		<g>
			<path class="st1" d="M412.7,442.5c-2.4,0-4.5,1.9-4.6,4.4c-0.1,2.5,1.8,4.7,4.4,4.8c0.1,0,0.1,0,0.2,0c2.4,0,4.5-1.9,4.6-4.4
				c0.1-2.5-1.8-4.7-4.4-4.8C412.9,442.5,412.8,442.5,412.7,442.5L412.7,442.5z"/>
		</g>
		<g>
			<path class="st1" d="M390.7,459.3c-2.4,0-4.5,1.9-4.6,4.4c-0.1,2.5,1.8,4.7,4.4,4.8c0.1,0,0.1,0,0.2,0c2.4,0,4.5-1.9,4.6-4.4
				c0.1-2.5-1.8-4.7-4.4-4.8C390.8,459.3,390.7,459.3,390.7,459.3L390.7,459.3z"/>
		</g>
		<g>
			<path class="st1" d="M390.7,473.9c-2.4,0-4.5,1.9-4.6,4.4c-0.1,2.5,1.8,4.7,4.4,4.8c0.1,0,0.1,0,0.2,0c2.4,0,4.5-1.9,4.6-4.4
				c0.1-2.5-1.8-4.7-4.4-4.8C390.8,473.9,390.8,473.9,390.7,473.9L390.7,473.9z"/>
		</g>
		<g>
			<path class="st1" d="M406,465.5c-2.4,0-4.5,1.9-4.6,4.4c-0.1,2.5,1.8,4.7,4.4,4.8c0.1,0,0.1,0,0.2,0c2.4,0,4.5-1.9,4.6-4.4
				c0.1-2.5-1.8-4.7-4.4-4.8C406.1,465.5,406,465.5,406,465.5L406,465.5z"/>
		</g>
		<g>
			<path class="st1" d="M401.9,482c-2.4,0-4.5,1.9-4.6,4.4c-0.1,2.5,1.8,4.7,4.4,4.8c0.1,0,0.1,0,0.2,0c2.4,0,4.5-1.9,4.6-4.4
				c0.1-2.5-1.8-4.7-4.4-4.8C402,482,401.9,482,401.9,482L401.9,482z"/>
		</g>
		<g>
			<path class="st1" d="M405.9,497.6c-0.2,0-0.5,0-0.7,0.1c-2.5,0.4-4.2,2.7-3.8,5.2c0.4,2.3,2.3,3.9,4.5,3.9c0.2,0,0.5,0,0.7-0.1
				c2.5-0.4,4.2-2.7,3.8-5.2C410,499.2,408.1,497.6,405.9,497.6L405.9,497.6z"/>
		</g>
		<g>
			<path class="st1" d="M415.4,484.2c-0.2,0-0.5,0-0.7,0.1c-2.5,0.4-4.2,2.7-3.8,5.2c0.4,2.3,2.3,3.9,4.5,3.9c0.2,0,0.5,0,0.7-0.1
				c2.5-0.4,4.2-2.7,3.8-5.2C419.6,485.8,417.7,484.2,415.4,484.2L415.4,484.2z"/>
		</g>
		<g>
			<path class="st1" d="M418.5,456.5c-0.2,0-0.5,0-0.7,0.1c-2.5,0.4-4.2,2.7-3.8,5.2c0.4,2.3,2.3,3.9,4.5,3.9c0.2,0,0.5,0,0.7-0.1
				c2.5-0.4,4.2-2.7,3.8-5.2C422.7,458.1,420.7,456.5,418.5,456.5L418.5,456.5z"/>
		</g>
		<g>
			<path class="st1" d="M423.2,471.8c-0.2,0-0.5,0-0.7,0.1c-2.5,0.4-4.2,2.7-3.8,5.2c0.4,2.3,2.3,3.9,4.5,3.9c0.2,0,0.5,0,0.7-0.1
				c2.5-0.4,4.2-2.7,3.8-5.2C427.3,473.4,425.4,471.8,423.2,471.8L423.2,471.8z"/>
		</g>
		<g>
			<path class="st1" d="M405.2,333c-0.5,0-0.9,0.1-1.4,0.2c-2.4,0.8-3.7,3.4-3,5.8c0.6,1.9,2.4,3.2,4.4,3.2c0.5,0,0.9-0.1,1.4-0.2
				c2.4-0.8,3.7-3.4,3-5.8C409,334.3,407.2,333,405.2,333L405.2,333z"/>
		</g>
		<g>
			<path class="st1" d="M407.5,348c-0.5,0-0.9,0.1-1.4,0.2c-2.4,0.8-3.7,3.4-3,5.8c0.6,1.9,2.4,3.2,4.4,3.2c0.5,0,0.9-0.1,1.4-0.2
				c2.4-0.8,3.7-3.4,3-5.8C411.3,349.3,409.5,348,407.5,348L407.5,348z"/>
		</g>
		<g>
			<path class="st1" d="M414.7,363.5c-0.5,0-0.9,0.1-1.4,0.2c-2.4,0.8-3.7,3.4-3,5.8c0.6,1.9,2.4,3.2,4.4,3.2c0.5,0,0.9-0.1,1.4-0.2
				c2.4-0.8,3.7-3.4,3-5.8C418.4,364.8,416.6,363.5,414.7,363.5L414.7,363.5z"/>
		</g>
		<g>
			<path class="st1" d="M425.2,354.4c-0.5,0-0.9,0.1-1.4,0.2c-2.4,0.8-3.7,3.4-3,5.8c0.6,1.9,2.4,3.2,4.4,3.2c0.5,0,0.9-0.1,1.4-0.2
				c2.4-0.8,3.7-3.4,3-5.8C428.9,355.7,427.1,354.4,425.2,354.4L425.2,354.4z"/>
		</g>
		<g>
			<path class="st1" d="M414.3,320.7c-0.5,0-0.9,0.1-1.4,0.2c-2.4,0.8-3.7,3.4-3,5.8c0.6,1.9,2.4,3.2,4.4,3.2c0.5,0,0.9-0.1,1.4-0.2
				c2.4-0.8,3.7-3.4,3-5.8C418,322,416.2,320.7,414.3,320.7L414.3,320.7z"/>
		</g>
		<g>
			<path class="st1" d="M426.4,326.6c-0.5,0-0.9,0.1-1.4,0.2c-2.4,0.8-3.7,3.4-3,5.8c0.6,1.9,2.4,3.2,4.4,3.2c0.5,0,0.9-0.1,1.4-0.2
				c2.4-0.8,3.7-3.4,3-5.8C430.1,327.9,428.3,326.6,426.4,326.6L426.4,326.6z"/>
		</g>
		<g>
			<path class="st1" d="M419,339.4c-0.5,0-0.9,0.1-1.4,0.2c-2.4,0.8-3.7,3.4-3,5.8c0.6,1.9,2.4,3.2,4.4,3.2c0.5,0,0.9-0.1,1.4-0.2
				c2.4-0.8,3.7-3.4,3-5.8C422.8,340.6,421,339.4,419,339.4L419,339.4z"/>
		</g>
	</g>
	<line class="st0" x1="140.8" y1="277" x2="146.3" y2="338.6"/>
	<line class="st0" x1="272.1" y1="159.1" x2="174.9" y2="214.1"/>
	<line class="st0" x1="390.7" y1="92" x2="318.7" y2="132.7"/>
	<line class="st0" x1="488.4" y1="124.9" x2="423.8" y2="91.6"/>
	<line class="st0" x1="638.3" y1="213.8" x2="555" y2="162.7"/>
	<line class="st0" x1="662" y1="347" x2="670.1" y2="280"/>
	<line class="st0" x1="204.8" y1="321.7" x2="199.9" y2="356.9"/>
	<line class="st0" x1="274.2" y1="237.6" x2="245.7" y2="244.6"/>
	<line class="st0" x1="390.7" y1="111.6" x2="338.8" y2="159.1"/>
	<line class="st0" x1="150.7" y1="555.5" x2="230.1" y2="609.4"/>
	<line class="st0" x1="142.9" y1="452.6" x2="133.9" y2="527.7"/>
	<line class="st0" x1="458.4" y1="197.7" x2="423.2" y2="182.7"/>
	<line class="st0" x1="546.9" y1="288.9" x2="531.8" y2="260.2"/>
	<line class="st0" x1="608.5" y1="368.4" x2="565.2" y2="315.9"/>
	<line class="st0" x1="620.2" y1="319.8" x2="620.2" y2="356.4"/>
	<line class="st0" x1="560.4" y1="197.5" x2="583" y2="230"/>
	<line class="st0" x1="381.3" y1="263.5" x2="301.9" y2="309.4"/>
	<line class="st0" x1="521.1" y1="303.8" x2="429.9" y2="259.8"/>
	<line class="st0" x1="284.3" y1="336.8" x2="284.3" y2="440.9"/>
	<path class="st0" d="M297.8,584.6c8.3,7.4,13.5,18.2,13.5,30.1c0,22.3-18.1,40.3-40.3,40.3s-40.3-18.1-40.3-40.3
		c0-11.9,5.1-22.5,13.3-29.9"/>
	<line class="st0" x1="258.2" y1="527.9" x2="244.6" y2="501.3"/>
	<line class="st0" x1="390.7" y1="560.4" x2="334.8" y2="564.8"/>
	<polyline class="st0" points="305.6,635.5 339.3,669.1 326.3,682.1 292.8,648.6 	"/>
	<polyline class="st0" points="237.1,593 204.5,560.3 217.5,547.3 235.7,565.5 	"/>
	<polyline class="st0" points="250.4,649.2 217.5,682.1 204.5,669.1 237.3,636.3 	"/>
	<polyline class="st0" points="306.4,567.2 326.3,547.3 339.3,560.3 305.6,594 	"/>
	<line class="st0" x1="451.9" y1="601.5" x2="542.2" y2="513.1"/>
	<line class="st0" x1="322.4" y1="576.9" x2="358.2" y2="614.3"/>
	<line class="st0" x1="539" y1="457" x2="539" y2="331"/>
	<line class="st0" x1="423.2" y1="551.4" x2="514.1" y2="501.4"/>
	<polyline class="st0" points="325.9,511.5 327.9,513.1 390.7,550.7 	"/>
	<polygon class="st0" points="513.9,392 406.9,560.4 299.9,392 406.9,223.5 	"/>
	<path class="st0" d="M275.9,483.1c17.5,18.5,42.3,30,69.7,30c9.9,0,19.5-1.5,28.5-4.3"/>
	<path class="st0" d="M351.9,473.8c-7.7,2.6-16,4.1-24.7,4.1c-42.2,0-76.3-34.2-76.3-76.3c0-0.2,0-0.4,0-0.6
		c-0.9,5.2-1.4,10.6-1.4,16.1c0,25.6,10,48.9,26.4,66.1"/>
	<path class="st0" d="M461.9,473.8c7.7,2.6,16,4.1,24.7,4.1c42.2,0,76.3-34.2,76.3-76.3c0-0.2,0-0.4,0-0.6
		c0.9,5.2,1.4,10.6,1.4,16.1c0,53.1-43,96.1-96.1,96.1c-9.9,0-19.5-1.5-28.5-4.3"/>
	<line class="st0" x1="440" y1="681.4" x2="512" y2="644.7"/>
	<line class="st0" x1="684.1" y1="529.4" x2="670.6" y2="475.1"/>
	<line class="st0" x1="591" y1="589.4" x2="665.4" y2="555.3"/>
</g>
</svg>
