<?xml version="1.0" encoding="utf-8"?>
<!-- Generator: Adobe Illustrator 20.0.0, SVG Export Plug-In . SVG Version: 6.00 Build 0)  -->
<svg version="1.1" id="Layer_1" xmlns="http://www.w3.org/2000/svg" xmlns:xlink="http://www.w3.org/1999/xlink" x="0px" y="0px"
	 viewBox="0 0 800 800" style="enable-background:new 0 0 800 800;" xml:space="preserve">
<style type="text/css">
	.st0{fill:none;stroke:#FFFFFF;stroke-width:6;stroke-linecap:round;stroke-linejoin:round;stroke-miterlimit:10;}
	.st1{fill:#FFFFFF;}
	
		.st2{clip-path:url(#XMLID_4_);fill:none;stroke:#FFFFFF;stroke-width:6;stroke-linecap:round;stroke-linejoin:round;stroke-miterlimit:10;}
	.st3{fill:none;stroke:#FFFFFF;stroke-width:6;stroke-miterlimit:10;}
	.st4{fill:none;stroke:#FFFFFF;stroke-width:6;stroke-linecap:round;stroke-miterlimit:10;}
	.st5{fill:none;stroke:#FFFFFF;stroke-width:6;stroke-linejoin:round;stroke-miterlimit:10;}
	
		.st6{clip-path:url(#XMLID_5_);fill:none;stroke:#FFFFFF;stroke-width:6;stroke-linecap:round;stroke-linejoin:round;stroke-miterlimit:10;}
</style>
<g>
	<polyline class="st0" points="395.4,111 356.8,95.6 329.2,101.1 294.7,88.4 	"/>
	<line class="st0" x1="466.9" y1="113.8" x2="422.2" y2="121.7"/>
	<path class="st0" d="M150.9,246.9c3.8,1.2,7.8,1.9,12,1.9c15.3,0,27.9-8.2,32.3-21.8c0,0,47.3,4.6,37.1,47.5
		C226,301.5,200,339.8,196,401.3"/>
	<path class="st0" d="M187.8,156c10.7-6.5,21.7-10.7,35.1-10.7c32.6,0,60,22,68.3,51.9l-20.1,12l22.7,6.9
		c0,37.3-28.8,67.8-65.3,70.6"/>
	<path class="st0" d="M189,178.2c-28.1,2-50.2,25.3-50.2,53.9c0,8.8,2.1,17.1,5.9,24.5c8.9-17.6,27.2-29.6,48.2-29.6
		c0.8,0,1.6,0,2.4,0.1"/>
	<polyline class="st0" points="187.8,156 189,178.2 180.6,205.7 195.2,227 	"/>
	<path class="st0" d="M223,191.5C209.5,176,189,178.2,189,178.2s14.5-18.1,41.8-14.5l-17.6,16.8"/>
	<path class="st0" d="M187.8,156c34-23,74.1-35.8,118.3-35.8c21.3,0,41.8,3.1,61.2,8.9l0,0l-80.4,56.5"/>
	<path class="st0" d="M246.2,149.2c0,0,27.8-14.9,76.3-10.5l-46.9,30.1"/>
	<path class="st0" d="M429.4,165.9c38.9,17.4,84.6,45.7,117.5,90.7"/>
	<path class="st0" d="M351.8,140.9c0,0,11.8,2,30.1,7.4"/>
	<g>
		<line class="st0" x1="527.2" y1="386.8" x2="707.3" y2="386.8"/>
		<line class="st0" x1="209.3" y1="386.8" x2="379.2" y2="386.8"/>
		<polygon class="st0" points="174.5,358.1 95.7,386.8 174.5,415.5 209.3,386.8 		"/>
		<line class="st0" x1="130.6" y1="386.8" x2="186.9" y2="386.8"/>
		<line class="st0" x1="635.4" y1="386.8" x2="666.1" y2="356.1"/>
		<line class="st0" x1="666.1" y1="417.4" x2="635.4" y2="386.8"/>
		<polyline class="st0" points="686.6,417.4 655.9,386.8 671.3,371.4 		"/>
		<line class="st0" x1="676.5" y1="386.8" x2="707.2" y2="356.1"/>
		<line class="st0" x1="707.2" y1="417.4" x2="676.5" y2="386.8"/>
	</g>
	<polygon class="st0" points="435.6,158.4 406.9,193.2 378.2,158.4 406.9,79.6 	"/>
	<line class="st0" x1="406.9" y1="116.9" x2="406.9" y2="170.8"/>
	<polyline class="st0" points="437.6,679.3 406.9,648.6 392.6,662.9 	"/>
	<polyline class="st0" points="376.2,699.9 406.9,669.2 424.5,686.8 	"/>
	<line class="st0" x1="406.9" y1="689.8" x2="437.6" y2="720.4"/>
	<line class="st0" x1="376.2" y1="720.4" x2="406.9" y2="689.8"/>
	<polyline class="st0" points="245.9,556.9 273.5,539.5 273.5,516.6 293.8,502.4 301.9,527.4 297.8,547.9 316,563.8 316,611.3 	"/>
	<polyline class="st0" points="279.6,588.9 316,563.8 337,545.2 351.8,569.8 346.8,587.7 362,627.2 	"/>
	<polyline class="st0" points="273.5,516.6 255.9,496 261.3,477.5 249.8,450 	"/>
	<line class="st0" x1="261.3" y1="477.5" x2="273.5" y2="470.2"/>
	<line class="st0" x1="293.8" y1="502.4" x2="299.2" y2="483.9"/>
	<polyline class="st0" points="351.8,569.8 367.3,545.2 359.5,532.4 	"/>
	<line class="st0" x1="222.8" y1="523.9" x2="264.8" y2="506.5"/>
	<polyline class="st0" points="472.4,188.8 471.7,151.9 503.5,136.4 495.6,116.9 535.5,101.1 	"/>
	<polyline class="st0" points="484.1,145.8 465.3,126.6 469.1,96.9 	"/>
	<polyline class="st0" points="497.1,205.9 513.5,175.9 535.5,170.8 556.5,143.9 580.5,153.4 580.5,195.6 556.5,205.7 542.3,252.8 	
		"/>
	<polyline class="st0" points="525.5,172.1 525.5,137.9 535.5,123.6 546.9,116.9 	"/>
	<polyline class="st0" points="580.5,182.3 608.9,175.5 621.9,198.8 	"/>
	<polyline class="st0" points="550,227 538.8,198.8 557.5,185.7 557.5,165.2 	"/>
	<polyline class="st0" points="562.5,271.3 580.5,242.2 608.9,255.9 627.8,227 655.9,229.8 659.1,256.6 	"/>
	<polyline class="st0" points="600.5,251.9 596.5,273.4 614.5,286.8 	"/>
	<polyline class="st0" points="643,229.8 635.4,260.6 675.2,297.4 	"/>
	<polyline class="st0" points="655.3,307.2 614.5,307.2 611.7,352.1 630.6,356.1 649.1,352.1 	"/>
	<polyline class="st0" points="643,293.4 630.6,307.2 643,336.3 686.6,330.1 691.8,307.2 702.5,290.1 	"/>
	<line class="st0" x1="356.8" y1="95.6" x2="346.8" y2="79.6"/>
	<polyline class="st0" points="591.8,247.7 596.5,220.2 591.8,209.6 	"/>
	<polyline class="st0" points="621.9,448.7 659.1,442.2 679.5,464.9 716.3,443.5 	"/>
	<polyline class="st0" points="671.3,456.1 661.2,477.5 691.8,500.3 	"/>
	<line class="st0" x1="680.8" y1="492.1" x2="707.3" y2="477.5"/>
	<polyline class="st0" points="614.8,489.5 652.8,500.3 650.1,530 683.5,532.4 	"/>
	<polyline class="st0" points="625,527.4 630.6,495.2 643,479.2 	"/>
	<polyline class="st0" points="666.1,531.1 671.3,511.3 686.6,515.3 	"/>
	<polyline class="st0" points="222,303.2 200.2,283.6 172.8,294.9 161.5,277.9 124.2,286.8 110.2,266.6 	"/>
	<line class="st0" x1="124.2" y1="286.8" x2="105.5" y2="300.8"/>
	<polyline class="st0" points="189,286.8 186.9,266.6 202.8,256.6 	"/>
	<polyline class="st0" points="129.9,266.6 137.6,283.6 133.7,298.9 	"/>
	<polyline class="st0" points="212.2,327.8 189,332.2 166.1,310.6 142.8,319.5 	"/>
	<polyline class="st0" points="142.8,319.5 124.2,321.8 120.2,345.5 95.7,331.7 	"/>
	<polyline class="st0" points="177.9,321.8 158.7,345.5 138.8,334.6 135.5,352.1 	"/>
	<polyline class="st0" points="449.2,116.9 440.8,102.6 443.2,83.2 	"/>
	<polyline class="st0" points="471.7,163.3 456.8,153.4 458.3,140.9 446.5,133.6 	"/>
	<line class="st0" x1="474.9" y1="136.4" x2="482.5" y2="116.9"/>
	<line class="st0" x1="442.1" y1="92" x2="426.8" y2="85.9"/>
	<polyline class="st0" points="382.5,105.8 376.2,87.6 382.5,79.6 	"/>
	<line class="st0" x1="368.2" y1="100.1" x2="356.8" y2="112.6"/>
	<polyline class="st0" points="306.7,92.8 293.8,106.3 257.8,105.1 	"/>
	<line class="st0" x1="319.5" y1="97.5" x2="319.5" y2="83.2"/>
	<polyline class="st0" points="472.4,177.4 495.6,165.9 497.1,153 	"/>
	<polyline class="st0" points="495.6,183.2 502.5,196.1 523.5,193.2 	"/>
	<line class="st0" x1="525.5" y1="155" x2="511.8" y2="148.4"/>
	<line class="st0" x1="500.9" y1="130" x2="515.5" y2="121.7"/>
	<line class="st0" x1="546.9" y1="156" x2="542.8" y2="136.4"/>
	<line class="st0" x1="565.5" y1="147.5" x2="562.5" y2="125.8"/>
	<line class="st0" x1="557.5" y1="178.2" x2="570" y2="165.2"/>
	<line class="st0" x1="541.5" y1="205.7" x2="525.5" y2="213.6"/>
	<polyline class="st0" points="597.6,178.2 594.1,148.4 609.2,145.8 	"/>
	<polyline class="st0" points="614.8,185.7 625,170.8 644.8,180.8 	"/>
	<line class="st0" x1="591.8" y1="179.6" x2="601.6" y2="196.1"/>
	<polyline class="st0" points="546.9,237.4 570,229.8 572,213.6 	"/>
	<polyline class="st0" points="562.5,247.7 570,259.1 584.5,261.6 	"/>
	<polyline class="st0" points="594.8,229.8 614.5,220.2 633.5,216.1 635.4,201.6 	"/>
	<line class="st0" x1="635.4" y1="209.6" x2="655.3" y2="205.7"/>
	<line class="st0" x1="657.4" y1="242.1" x2="675.2" y2="228.6"/>
	<line class="st0" x1="666.3" y1="235.4" x2="680.8" y2="256.6"/>
	<line class="st0" x1="603.4" y1="278.5" x2="596.7" y2="297.4"/>
	<polyline class="st0" points="641,269.3 638.5,281.1 620,269.3 	"/>
	<polyline class="st0" points="659.1,281.1 680.8,281.1 691.8,271.7 	"/>
	<line class="st0" x1="659.1" y1="334" x2="668.7" y2="314.2"/>
	<line class="st0" x1="689" y1="319.5" x2="707.3" y2="319.5"/>
	<line class="st0" x1="612.7" y1="336.3" x2="627.8" y2="333.6"/>
	<line class="st0" x1="675.5" y1="334.6" x2="683.5" y2="345.5"/>
	<line class="st0" x1="698.2" y1="321.8" x2="702.5" y2="336.3"/>
	<polyline class="st0" points="635.4,417.4 649.1,431.4 633.5,444.6 643,464.9 	"/>
	<line class="st0" x1="663.9" y1="447.5" x2="683.5" y2="438"/>
	<line class="st0" x1="698.2" y1="454" x2="698.2" y2="436"/>
	<line class="st0" x1="650.1" y1="521.1" x2="638.2" y2="523.9"/>
	<line class="st0" x1="605.5" y1="531" x2="620.2" y2="539.5"/>
	<polyline class="st0" points="573.5,605.9 593.1,602.9 591.8,630.6 612.7,638.3 	"/>
	<line class="st0" x1="591.8" y1="630.6" x2="584.5" y2="660.1"/>
	<polyline class="st0" points="555.1,634.9 570,642.6 563.7,669.9 542.8,676.1 	"/>
	<line class="st0" x1="207.6" y1="288" x2="216.6" y2="271.7"/>
	<line class="st0" x1="124.2" y1="321.8" x2="105.5" y2="315.9"/>
	<line class="st0" x1="110.2" y1="340" x2="98.5" y2="362.1"/>
	<path class="st0" d="M195.2,421.3L170.8,438c0,0-33.3-9.3-35.3-10.7s-25.3,21.5-25.3,21.5l-26.5-21.3"/>
	<polyline class="st0" points="135.5,427.3 111.8,412.8 94.9,415.5 83.7,398.4 	"/>
	<line class="st0" x1="94.8" y1="438" x2="88" y2="458.3"/>
	<polyline class="st0" points="121.4,436.2 138.8,451.7 105.5,470.2 116.8,502.3 	"/>
	<path class="st0" d="M109.2,483.3c-0.1-0.5-8.4,11.7-8.4,11.7"/>
	<line class="st0" x1="199.4" y1="330.3" x2="194.9" y2="307.2"/>
	<line class="st0" x1="158.7" y1="313.4" x2="150.9" y2="298.9"/>
	<polyline class="st0" points="502.4,114.2 502.4,95.6 482.5,95.6 	"/>
	<g>
		<path class="st0" d="M195.7,433.2c-6.1,18-23.5,27.8-42.1,25.9c-10.6,11.5-18.7,25.8-23.1,42c-9.7,36.6,2.1,73.8,27.7,98.2
			c-6-12.9-7.8-27.8-3.8-42.6c7.2-26.9,34.1-46.6,60.5-48"/>
		<path class="st0" d="M199.7,464.8c0,0-45.6,5.5-52,53.4c0,0,27.9-27.9,59.7-26.7"/>
		<g>
			<path class="st0" d="M217,513c0.9,16.5-10.2,29.8-25.7,34.3c-4.8,12.7-6.7,26.8-4.9,41.3c4,32.6,25.6,58.7,54.1,70
				c-9-8.4-15.3-19.9-16.9-33.1c-3-24,12.1-47.3,32.8-57"/>
			<path class="st0" d="M230.2,538.4c0,0-34.9,17.7-24.6,58.3c0,0,11.9-31.5,37.9-40.9"/>
		</g>
		<g>
			<path class="st0" d="M264.2,576c5.5,12.8,1.1,28.3-10,36.4c-0.1,11.5,2.4,23.2,8,34.1c12.6,24.7,37.3,39.1,63.2,39.8
				c-9.6-4-17.9-11.3-23-21.3c-9.3-18.1-5.3-39.6,8.3-53.3"/>
		</g>
		<g>
			<path class="st0" d="M322.7,615.5c5.5,7.4,4.5,16.6-1.3,23.5c1.7,7.4,5.2,14.5,10.5,20.7c12,13.9,30.1,19.3,46.9,15.7
				c-6.8-1.1-13.3-4.5-18.1-10.1c-8.8-10.2-9.6-24.6-3-35.6"/>
		</g>
		<path class="st0" d="M289.8,598.7c0,0-13.1,15.1-11,39.3"/>
	</g>
	<path class="st0" d="M196,401.3c-0.5,5.8-0.7,11.8-0.7,17.7c0,117.8,95.5,213.3,213.3,213.3c16,0,31.6-1.8,46.6-5.1
		c1.2-0.3,2.4-0.6,3.6-0.9l0.3,90.2c0,0,15.9-4.4,31.2-16.7c0,0,0,0,0,0C626.1,602.8,621.9,419,621.9,419
		c0-117.8-95.5-213.3-213.3-213.3c-44.2,0-85.2,13.4-119.3,36.4"/>
	<path class="st0" d="M600.5,419c0-106-85.9-192-192-192s-192,85.9-192,192s85.9,192,192,192c25.8,0,46.3-5.1,68.8-14.3l0,0v85.4
		c0,0,43.2-30.5,65.9-74.7L517.4,537l46.4,34.6c19-42,27-78.2,27-78.2l-45.1-33.8l51.3-3.9C599.3,443.8,600.5,431.6,600.5,419z"/>
	<line class="st0" x1="592.2" y1="620.6" x2="576.2" y2="622.8"/>
	<line class="st0" x1="566.3" y1="658.5" x2="554" y2="658.5"/>
	<g>
		<line class="st0" x1="511.9" y1="482.3" x2="643" y2="587"/>
		<line class="st0" x1="287.7" y1="303.2" x2="339.2" y2="344.3"/>
		<line class="st0" x1="608.9" y1="559.8" x2="659.1" y2="554.1"/>
		<line class="st0" x1="614.5" y1="610" x2="608.9" y2="559.8"/>
		<line class="st0" x1="625" y1="572.6" x2="675.2" y2="567"/>
		<line class="st0" x1="630.6" y1="622.8" x2="625" y2="572.6"/>
	</g>
	<g>
		<path class="st0" d="M392.6,590.9c79.8,0,135.3-114.2,135.3-184.1c0-73.7-28.3-129-70.4-159.1l-36.1,17l6.3,20.6l-25.3,8.5
			l-19.1-16.3l-42.2,53.2L337,359l40.9,24.4l5,12.7l-27.4,5.6l12.1,17.1l-14.9,10.7V454l22.7-2.8l-15.6,22l9.2,17.7l-7.1,19.2
			l21.6,12.1l6.9,33.8l8.6,12.7L392.6,590.9z"/>
		<polyline class="st0" points="421.5,473.2 402.5,485.1 383.4,473.2 		"/>
		<path class="st0" d="M421.5,473.2l-10.1-15.4v-69.4c0,0,26.1,7.5,64.9-31.8c29.6-29.9,47.2-2.8,49.3,13.2"/>
		<line class="st0" x1="471.7" y1="489.5" x2="471.7" y2="502.4"/>
		<line class="st0" x1="471.7" y1="409.5" x2="471.7" y2="477.5"/>
		<line class="st0" x1="484.9" y1="431.4" x2="484.9" y2="444.6"/>
		<line class="st0" x1="484.9" y1="406" x2="484.9" y2="420.3"/>
		<line class="st0" x1="459.1" y1="451.7" x2="459.1" y2="464.9"/>
		<line class="st0" x1="459.1" y1="406" x2="459.1" y2="440.6"/>
		<polyline class="st0" points="440.5,527.4 420.2,503.2 402.5,508.8 381.4,503.2 372.8,516.2 		"/>
		<polyline class="st0" points="503.5,300.8 488.5,315.9 472.4,303.2 449.2,300.8 424.9,327.8 398.9,322.6 		"/>
		<polyline class="st0" points="435.6,315.9 450.9,334.5 443.2,348.6 		"/>
		<polygon class="st0" points="299.2,334.6 289.1,361.8 315.3,369.5 324.3,351 		"/>
		<polygon class="st0" points="321.8,312.9 333.1,319.5 346.8,294.9 322.2,294.9 		"/>
		<polygon class="st0" points="342,414.6 340.1,432 326,440.2 316.4,421.4 		"/>
		<polygon class="st0" points="336.4,448.7 316,453.7 320.5,469.8 342,473.5 		"/>
		<polygon class="st0" points="301.3,425.9 306.7,439.2 291.1,446.5 276.9,428.5 		"/>
		<polygon class="st0" points="346.6,483.9 351.8,499.6 343.2,516.6 323.9,498.1 		"/>
		<path class="st0" d="M472.4,383.4c-9.7,0-18.3,5.1-23.2,12.7c4.9,7.6,13.5,12.7,23.2,12.7c9.7,0,18.3-5.1,23.2-12.7
			C490.7,388.5,482.1,383.4,472.4,383.4z"/>
		<polyline class="st0" points="352.9,315.9 372.8,342.2 406.7,348.6 		"/>
		<line class="st0" x1="390.3" y1="345.5" x2="390.3" y2="364.7"/>
		<line class="st0" x1="472.4" y1="303.2" x2="460.6" y2="283.6"/>
		<path class="st0" d="M386,527.4h54.5c0,0-5.6,24.2-36,24.2c-5.7,0-10.5-0.6-14.4-1.7"/>
		<path class="st0" d="M495.3,396.6c12.6-2.3,23.9-7.2,31.5-16.2"/>
		<path class="st0" d="M411.4,388.4c0,0,16.8,5.3,38.1,8.2"/>
	</g>
	<line class="st0" x1="406.9" y1="589.6" x2="406.9" y2="718.6"/>
	<line class="st0" x1="406.9" y1="193.2" x2="406.9" y2="292.3"/>
</g>
</svg>
