<?xml version="1.0" encoding="utf-8"?>
<!-- Generator: Adobe Illustrator 20.0.0, SVG Export Plug-In . SVG Version: 6.00 Build 0)  -->
<svg version="1.1" id="Layer_1" xmlns="http://www.w3.org/2000/svg" xmlns:xlink="http://www.w3.org/1999/xlink" x="0px" y="0px"
	 viewBox="0 0 800 800" style="enable-background:new 0 0 800 800;" xml:space="preserve">
<style type="text/css">
	.st0{fill:none;stroke:#FFFFFF;stroke-width:6;stroke-linecap:round;stroke-linejoin:round;stroke-miterlimit:10;}
	.st1{fill:#FFFFFF;}
	
		.st2{clip-path:url(#XMLID_4_);fill:none;stroke:#FFFFFF;stroke-width:6;stroke-linecap:round;stroke-linejoin:round;stroke-miterlimit:10;}
	.st3{fill:none;stroke:#FFFFFF;stroke-width:6;stroke-miterlimit:10;}
	.st4{fill:none;stroke:#FFFFFF;stroke-width:6;stroke-linecap:round;stroke-miterlimit:10;}
	.st5{fill:none;stroke:#FFFFFF;stroke-width:6;stroke-linejoin:round;stroke-miterlimit:10;}
	
		.st6{clip-path:url(#XMLID_5_);fill:none;stroke:#FFFFFF;stroke-width:6;stroke-linecap:round;stroke-linejoin:round;stroke-miterlimit:10;}
</style>
<g>
	<line class="st0" x1="306.7" y1="380.9" x2="493.3" y2="380.9"/>
	<line class="st0" x1="312.7" y1="354.9" x2="299.9" y2="396.1"/>
	<line class="st0" x1="487.3" y1="354.9" x2="500.1" y2="396.1"/>
	<line class="st0" x1="463" y1="361" x2="475.4" y2="400.9"/>
	<line class="st0" x1="450.8" y1="361" x2="463.2" y2="400.9"/>
	<line class="st0" x1="440.9" y1="371.5" x2="452.9" y2="410.1"/>
	<path class="st0" d="M465.7,498.4c-4.3,32.4-32.1,57.4-65.7,57.4c-36.6,0-66.3-29.7-66.3-66.3"/>
	<path class="st0" d="M356.9,439.3c11.6-10,26.7-16,43.1-16c24.3,0,45.6,13.1,57.1,32.6"/>
	<polyline class="st0" points="274.7,512.5 274.7,597.4 258.4,581.7 242.2,597.7 242.2,512.5 	"/>
	<rect x="246.9" y="501" transform="matrix(0.7071 0.7071 -0.7071 0.7071 438.0831 -32.6122)" class="st0" width="23" height="23"/>
	<polyline class="st0" points="525.3,512.5 525.3,596.9 541.6,581.7 557.8,597.7 557.8,512.5 	"/>
	
		<rect x="530.1" y="501" transform="matrix(-0.7071 0.7071 -0.7071 -0.7071 1286.9526 491.9408)" class="st0" width="23" height="23"/>
	<line class="st0" x1="410.2" y1="380.9" x2="356.9" y2="439.3"/>
	<polygon class="st0" points="387.5,640 377.4,621.2 366.1,634.4 367.2,663 	"/>
	<path class="st0" d="M418.6,666.7c0,0-15.4,1.1-12.1,18.7l9.9,21.7l-9.9,10.4h-16.3l-9.9-10.4l9.9-21.7
		c4.5-17.6-12.1-18.7-12.1-18.7"/>
	<polygon class="st0" points="409.2,640 419.3,621.2 430.6,634.4 429.5,663 	"/>
	<polyline class="st0" points="392.8,704.1 398.3,708.6 403.9,704.1 	"/>
	<path class="st0" d="M177.8,402.9c0,42.7-19.1,77.2-42.7,77.2s-42.7-34.6-42.7-77.2"/>
	<polyline class="st0" points="161.5,251.3 161.5,195.2 216,195.2 216,251.3 	"/>
	<polyline class="st0" points="216,251.3 257.6,314.7 119.8,314.7 161.5,251.3 	"/>
	<polyline class="st0" points="119.8,314.7 134.9,333.2 242.5,333.2 257.6,314.7 	"/>
	<polyline class="st0" points="216,195.2 224.4,175 153,175 161.5,195.2 	"/>
	<polyline class="st0" points="153,175 161.5,155.4 216,155.4 224.4,175 	"/>
	<rect x="178.1" y="239.6" class="st0" width="21.3" height="75.1"/>
	<path class="st0" d="M188.7,206.7c0,0-14.4,16.3-8.6,26.7c1.6,3.1,4.9,5.3,8.6,5.3s7-2.1,8.6-5.3
		C203.1,223,188.7,206.7,188.7,206.7z"/>
	<path class="st0" d="M259.4,260.9c6.3-6,9.5-16.3,9-25c-0.4-6.9-3.3-13.7-8.5-18.2c-5.2-4.5-12.8-6.4-19.3-4.2
		c-6.5,2.2-11.5,8.7-11.3,15.6c0.2,5.2,3.5,10.4,8.4,12s11.1-0.9,12.8-5.8"/>
	<path class="st0" d="M267.5,245.6c5.6-9.7,3.1-24.3-1.3-34.6c-4.4-10.3-10.3-20.4-10.7-31.5c-0.3-9.2,3.4-18.6,10.4-24.5
		c7-6,17.2-8.2,25.8-5.1c8.7,3.1,15.3,11.5,15.7,20.7c0.7,16.4-16.6,29.4-16.3,45.8c-8.3-6-14-17.9-12.1-27.9c1-5,3.4-9.6,5-14.5
		c1.7-4.8,2.6-10.3,0.6-15c-2-4.7-7.9-10-12.6-7.9"/>
	<path class="st0" d="M264.4,207c-2.9-6.4-9.3-9.8-15-10.1c-5.7-0.3-11.4,2-15.2,6.3"/>
	<path class="st0" d="M257.9,191.9c-1.4-5.7-5-9.2-9.2-10.6s-9.1-0.8-12.9,1.6"/>
	<path class="st0" d="M255.4,176.8c0.3-4.7-1.3-8-4-9.9c-2.7-1.9-6.3-2.5-9.5-1.7"/>
	<path class="st0" d="M261.2,160c3.7-5.6,6.6-12.1,9-18.3c1.3-3.4,2.4-7,2.2-10.6c-0.2-3.6-2-7.4-5.2-9.1c-4.3-2.3-9.7-0.3-13.6,2.7
		c-3.9,3-7,6.9-11.3,9.3s-10.4,2.6-13.3-1.3c-2.4-3.2-3-7.8-1.5-11.5c1-2.5,3.6-7.3,9.5-7.3"/>
	<path class="st0" d="M338.5,190.5c-2.3,1-5.7-0.1-8.1-0.9c-5.2-1.8-8.4-7.4-9.2-12.8c-0.8-5.6,0.3-11.5,3.2-16.4
		c5.5-9.2,17-15.3,18.4-25.9c1.1-8.6-6.5-17.3-15.2-17.3c-8.7,0-16.3,8.7-15.2,17.3c0.4,3.1,2,6.2,4.8,7.5c2.8,1.3,6.8,0,7.6-3"/>
	<path class="st0" d="M272.1,135.3c0.9-10.6,5.7-16,9.5-18.6"/>
	<path class="st0" d="M281.6,116.7c-1-6.7,2-13.5,6.7-18.3s11.1-7.7,17.7-9.3c6.6-1.6,13.3-2,20.1-2.3c-0.7,10.2-7.2,20.5-15.9,26
		C301.5,118.2,291.2,120.4,281.6,116.7z"/>
	<path class="st0" d="M374,88.1c4.7-0.5,9.3,1.8,12.5,5.2c3.2,3.4,5,7.9,5.9,12.5c0.9,4.6,1,9.3,1,14c-7.1-0.8-14-5.6-17.5-11.8
		C372.4,101.8,371.1,94.6,374,88.1z"/>
	<path class="st0" d="M356.6,159.8c6.2-2.8,10.3-9,12.2-15.5c1.9-6.5,0.8-13.9-3-19.5c-4.1-6.1-10.9-10.1-14.6-16.5
		c-4-6.9-3.4-16.6,2.4-22.1c5.8-5.5,16.7-4.8,20.9,2"/>
	<path class="st0" d="M272.4,291.2c-10.4-6-22.2-8-34-5.8"/>
	<path class="st0" d="M144.2,277.6c-10.3-0.4-19-1.8-27.4-7.8c-8.4-6-13.3-17.9-8.4-26.9c3.8-7.1,12.1-10.4,19.5-13.5
		c7.5-3,15.6-7.2,18.2-14.8c2.3-6.9-0.6-14.4-4.7-20.4c-4.1-6-9.4-11.1-12.7-17.6c0,0-5.9-8,1.1-14.7"/>
	<path class="st0" d="M138.4,277.2c-9.4-1.6-14-9.2-14.6-16c-0.4-5.2,1.5-10.7,5.7-13.8c2.9-2.1,6.8-2.8,10-1.3s5.3,5.4,4.3,8.7"/>
	<path class="st0" d="M126.1,230.2c3-3.6,4.3-8.5,3.5-13s-3.5-8.8-7.5-11.3"/>
	<ellipse class="st0" cx="135.1" cy="402.9" rx="42.7" ry="27.8"/>
	<path class="st0" d="M135.1,480.1c8.3,14.5,13.2,37.8,8,53.7c-2.4,7.4-6.3,14.3-8.3,21.8c-2,7.5-1.9,16.2,3,22.3
		c6,7.5,17.7,8.4,26.4,4.3s15-12,20.2-20.1s9.7-16.8,16.4-23.7s16.8-15.1,30.1-9.8"/>
	<path class="st0" d="M192.9,548.8c-2.6,3.6-6.1,6.5-10.2,7.8c-6.5,2.1-14.7-0.7-17.1-7c-2-5.3-1.6-11.2,1.2-16
		c4.3-7.4,9.7-14.1,16-19.9c6.2-5.6,17.6-15.5,18.1-23.9c0.8-13.8-8.1-16.5-19.5-11.4"/>
	<path class="st0" d="M144,531.1c0.9-7.2-0.3-14.7-4.2-20.9c-3.9-6.2-9.9-10.9-16.9-13.2c-4.4-1.4-9.3-1.9-13.5-0.2
		c-6.8,2.7-10.7,11.3-8.3,18.2c2.5,6.9,10.8,11.1,17.9,9c2.4-0.7,4.6-2.2,5.9-4.3c1.3-2.1,1.5-5,0.2-7.1s-4.4-3.1-6.5-1.8"/>
	<path class="st0" d="M84.9,356.3c2.6-2.2,6.7-1.8,9.3,0.3c2.6,2.2,3.8,5.7,3.7,9.1c-0.1,3.1-1.2,6.3-3.6,8.3
		c-2.8,2.3-6.8,2.7-10.4,1.8c-6.3-1.6-11.5-6.7-13.6-12.8s-1.3-13.1,1.8-18.8c4.6-8.5,16.9-17.9,26.9-13.7
		c7.5,3.1,10.8,11.7,14.2,19.2c4.1,9.2,17.3,19.1,26.4,9c2.3-2.6,3.3-3.1,5-6.1c1.7-3.1,4.7-5.9,8.1-5.5c2.9,0.4,4.9,2.9,6.5,5.4
		c3.6,5.7,5.6,8.5,9.8,13.7c4.9,6,9.1,12.5,15.6,17c8.1,5.6,18,6.2,25.2-1.8"/>
	<path class="st0" d="M198,345.2c0,0-17.6,2.2-19.6,11.6c-0.7,2.8,0.1,5.8,2.4,7.8c2.3,2,5.4,2.5,8.1,1.4
		C198,362.9,198,345.2,198,345.2z"/>
	<path class="st0" d="M180.8,364.7c0,0-5,7.1,1.1,16.3"/>
	<path class="st0" d="M110.8,292.5c0,0-17.6,2.2-19.6,11.6c-0.7,2.8,0.1,5.8,2.4,7.8c2.3,2,5.4,2.5,8.1,1.4
		C110.8,310.2,110.8,292.5,110.8,292.5z"/>
	<path class="st0" d="M93.6,312c0,0-5,7.1,1.1,16.3"/>
	<path class="st0" d="M226.2,361c0,0,9.2-15.1,0-27.8"/>
	<path class="st0" d="M113.8,495.7c-1.6,0-3.2-0.1-4.8-0.4c-4-0.8-7.7-2.9-10.1-6.2c-2.3-3.3-3.1-7.8-1.4-11.5"/>
	<path class="st0" d="M85.4,455.5c0,0-5.9,16.7,1.6,22.7c2.2,1.9,5.3,2.5,8.1,1.4c2.8-1.1,4.6-3.7,4.9-6.6
		C101.2,463.5,85.4,455.5,85.4,455.5z"/>
	<path class="st0" d="M300.5,709.1c0,0,12.6-12.5,8.4-21.2c-1.1-2.6-3.7-4.5-6.7-4.7c-3-0.2-5.8,1.4-7.3,3.8
		C289.7,695,300.5,709.1,300.5,709.1z"/>
	<path class="st0" d="M262.6,606.4c0,0-17.5,2.4-19.5,11.9c-0.7,2.8,0.2,5.8,2.5,7.8s5.5,2.4,8.1,1.3
		C262.8,624.1,262.6,606.4,262.6,606.4z"/>
	<path class="st0" d="M204,464.1c0,0-0.8-17.7-10-20.5c-2.7-0.9-5.8-0.3-8,1.8c-2.2,2.1-2.9,5.2-2.1,8
		C186.3,462.7,204,464.1,204,464.1z"/>
	<path class="st0" d="M181.5,478.3c2.8,4.6,2.8,10.6,0.8,15.6s-5.8,9.2-10.1,12.4c-4.3,3.2-9.2,5.6-14,8c-2.7-7.8-1.1-17.3,3.5-24.1
		C166.3,483.5,173.2,478.6,181.5,478.3z"/>
	<path class="st0" d="M220.8,578.9c4.1,1.3,6.9,5.3,7.8,10.1s0.2,10.1-1.3,15.3c-1.5,5.1-3.8,10-6.1,14.9
		c-5.5-3.5-8.9-11.1-8.8-18.8S215.2,584.5,220.8,578.9z"/>
	<path class="st0" d="M162.7,583.4c-6.5,4.2-11.1,11.5-11.2,19.3s4.9,15.5,12.2,18s16.4-1,19.5-8.1c1.5-3.5,1.5-7.8-0.7-10.9
		c-2.2-3.1-6.8-4.5-10.1-2.6c-2.9,1.7-4.1,5.5-3.3,8.8c0.8,3.3,3.3,5.9,6.3,7.5c8.2,4.4,19.7,0.3,23.2-8.3c2.9-7,0.7-14.9-0.6-22.4
		c-1.3-7.5-1.6-17.3,4.3-22.1c4.1-3.4,10.6-4.9,14.9-1.8c4.3,3.1,6.1,12,4.6,18"/>
	<path class="st0" d="M189.5,507.4c3.8-2.4,8.5-3.3,12.9-2.4c4.4,0.9,8.4,3.5,11,7.2"/>
	<path class="st0" d="M210.7,401.8c-4.6-1.7-10.1-0.7-13.8,2.4c-3.7,3.2-5.6,8.4-4.6,13.2c1,4.9,4.6,9.6,3.3,14.4
		c-0.6,2.2-2.2,4.1-3.7,5.8c-1.5,1.8-2.9,3.8-3.2,6"/>
	<ellipse class="st0" cx="135.1" cy="402.9" rx="18" ry="11.7"/>
	<path class="st0" d="M350.6,664.6c-5.1-1.6-8.9-2.4-12.6-0.3c-3.6,2.2-5.1,6.2-4.6,10.4c1.1,8.3,11.1,13,12.8,21.2
		c1,4.6-1.1,9.6-4.9,12.2s-9.4,2.6-13.2-0.1c-4.9-3.4-6.5-10-6.5-16c0-6,1.2-12,0.1-17.9c-0.5-2.9-1.6-5.9-3.7-8s-5.2-3.5-8.1-2.8
		c-3.9,0.8-7,3.5-8.2,7.3c-1.3,4-0.7,8.8,0.4,12.6"/>
	<path class="st0" d="M306.2,644.2c-8.7-4.9-14.9-6-22.1-6.2s-14.6,1.6-20.2,6c-5,3.9-8.4,10-8.5,16.3c-0.1,6.3,3.3,12.8,9,15.6
		c5.3,2.7,12.2,1.8,16.7-2.1c4.5-3.9,6.3-9.6,4.3-15.2c-1.2-3.4-3.9-5.4-7.4-6.1s-7.9,2.6-9.2,5.9"/>
	<path class="st0" d="M260.9,646.8c-5.5,1.6-10.9,0.3-14.6-2.4c-3.7-2.7-6.2-7.2-6-11.8c0.1-2.3,0.9-4.6,2.3-6.4"/>
	<path class="st0" d="M245,643.4c-2.1,12.8-13.3,17.5-18.3,18.4c-7.1,1.3-14.7-0.6-20.3-5.1c-4.2-3.3-7.3-8.1-7.7-13.3
		c-0.4-5.3,2.3-10.9,7.1-13.1s11.4,0,13.3,4.9c1.1,2.9,0.4,6.5-2,8.5s-6.5,1.6-8.2-1"/>
	<line class="st0" x1="175.3" y1="141.4" x2="175.3" y2="129"/>
	<line class="st0" x1="188.7" y1="142.4" x2="188.7" y2="114.9"/>
	<line class="st0" x1="202.1" y1="141.4" x2="202.1" y2="124"/>
	<path class="st0" d="M622.2,402.9c0,42.7,19.1,77.2,42.7,77.2s42.7-34.6,42.7-77.2"/>
	<polyline class="st0" points="638.5,251.3 638.5,195.2 584,195.2 584,251.3 	"/>
	<polyline class="st0" points="584,251.3 542.4,314.7 680.2,314.7 638.5,251.3 	"/>
	<polyline class="st0" points="680.2,314.7 665.1,333.2 557.5,333.2 542.4,314.7 	"/>
	<polyline class="st0" points="584,195.2 575.6,175 647,175 638.5,195.2 	"/>
	<polyline class="st0" points="647,175 638.5,155.4 584,155.4 575.6,175 	"/>
	
		<rect x="600.7" y="239.6" transform="matrix(-1 4.516197e-11 -4.516197e-11 -1 1222.5665 554.2607)" class="st0" width="21.3" height="75.1"/>
	<path class="st0" d="M611.3,206.7c0,0,14.4,16.3,8.6,26.7c-1.6,3.1-4.9,5.3-8.6,5.3s-7-2.1-8.6-5.3
		C596.9,223,611.3,206.7,611.3,206.7z"/>
	<path class="st0" d="M540.6,260.9c-6.3-6-9.5-16.3-9-25c0.4-6.9,3.3-13.7,8.5-18.2c5.2-4.5,12.8-6.4,19.3-4.2
		c6.5,2.2,11.5,8.7,11.3,15.6c-0.2,5.2-3.5,10.4-8.4,12c-4.9,1.6-11.1-0.9-12.8-5.8"/>
	<path class="st0" d="M532.5,245.6c-5.6-9.7-3.1-24.3,1.3-34.6c4.4-10.3,10.3-20.4,10.7-31.5c0.3-9.2-3.4-18.6-10.4-24.5
		c-7-6-17.2-8.2-25.8-5.1s-15.3,11.5-15.7,20.7c-0.7,16.4,16.6,29.4,16.3,45.8c8.3-6,14-17.9,12.1-27.9c-1-5-3.4-9.6-5-14.5
		c-1.7-4.8-2.6-10.3-0.6-15s7.9-10,12.6-7.9"/>
	<path class="st0" d="M535.6,207c2.9-6.4,9.3-9.8,15-10.1c5.7-0.3,11.4,2,15.2,6.3"/>
	<path class="st0" d="M542.1,191.9c1.4-5.7,5-9.2,9.2-10.6s9.1-0.8,12.9,1.6"/>
	<path class="st0" d="M544.6,176.8c-0.3-4.7,1.3-8,4-9.9s6.3-2.5,9.5-1.7"/>
	<path class="st0" d="M537.8,158.8c-3-4.9-6-11.6-8.1-17.1c-1.3-3.4-2.4-7-2.2-10.6c0.2-3.6,2-7.4,5.2-9.1c4.3-2.3,9.7-0.3,13.6,2.7
		c3.9,3,7,6.9,11.3,9.3s10.4,2.6,13.3-1.3c2.4-3.2,3-7.8,1.5-11.5c-1-2.5-3.6-7.3-9.5-7.3"/>
	<path class="st0" d="M457.4,182.9c0.8,5.5,6.9,8.5,12.2,6.7c5.2-1.8,8.4-7.4,9.2-12.8c0.8-5.6-0.3-11.5-3.2-16.4
		c-5.5-9.2-17-15.3-18.4-25.9c-1.1-8.6,6.5-17.3,15.2-17.3c8.7,0,16.3,8.7,15.2,17.3c-0.4,3.1-2,6.2-4.8,7.5c-2.8,1.3-6.8,0-7.6-3"
		/>
	<path class="st0" d="M527.9,135.3c-0.9-10.6-5.7-16-9.5-18.6"/>
	<path class="st0" d="M518.4,116.7c1-6.7-2-13.5-6.7-18.3S500.5,90.6,494,89c-6.6-1.6-13.3-2-20.1-2.3c0.7,10.2,7.2,20.5,15.9,26
		C498.5,118.2,508.8,120.4,518.4,116.7z"/>
	<path class="st0" d="M426,88.1c-4.7-0.5-9.3,1.8-12.5,5.2c-3.2,3.4-5,7.9-5.9,12.5c-0.9,4.6-1,9.3-1,14c7.1-0.8,14-5.6,17.5-11.8
		C427.6,101.8,428.9,94.6,426,88.1z"/>
	<path class="st0" d="M527.6,291.2c10.4-6,22.2-8,34-5.8"/>
	<path class="st0" d="M655.8,277.6c10.3-0.4,19-1.8,27.4-7.8c8.4-6,13.3-17.9,8.4-26.9c-3.8-7.1-12.1-10.4-19.5-13.5
		c-7.5-3-15.6-7.2-18.2-14.8c-2.3-6.9,0.6-14.4,4.7-20.4c4.1-6,9.4-11.1,12.7-17.6"/>
	<path class="st0" d="M661.6,277.2c9.4-1.6,14-9.2,14.6-16c0.4-5.2-1.5-10.7-5.7-13.8c-2.9-2.1-6.8-2.8-10-1.3s-5.3,5.4-4.3,8.7"/>
	<path class="st0" d="M673.9,230.2c-3-3.6-4.3-8.5-3.5-13c0.7-4.6,3.5-8.8,7.5-11.3"/>
	<ellipse class="st0" cx="664.9" cy="402.9" rx="42.7" ry="27.8"/>
	<path class="st0" d="M664.9,480.1c-8.3,14.5-13.2,37.8-8,53.7c2.4,7.4,6.3,14.3,8.3,21.8c2,7.5,1.9,16.2-3,22.3
		c-6,7.5-17.7,8.4-26.4,4.3c-8.7-4.1-15-12-20.2-20.1c-5.2-8.1-9.7-16.8-16.4-23.7s-20.1-15.1-29.8-10.4"/>
	<path class="st0" d="M607.1,548.8c2.6,3.6,6.1,6.5,10.2,7.8c6.5,2.1,14.7-0.7,17.1-7c2-5.3,1.6-11.2-1.2-16
		c-4.3-7.4-9.7-14.1-16-19.9c-6.2-5.6-17.6-15.5-18.1-23.9c-0.8-13.8,8.1-16.5,19.5-11.4"/>
	<path class="st0" d="M656,531.1c-0.9-7.2,0.3-14.7,4.2-20.9c3.9-6.2,9.9-10.9,16.9-13.2c4.4-1.4,9.3-1.9,13.5-0.2
		c6.8,2.7,10.7,11.3,8.3,18.2s-10.8,11.1-17.9,9c-2.4-0.7-4.6-2.2-5.9-4.3c-1.3-2.1-1.5-5-0.2-7.1c1.3-2.1,4.4-3.1,6.5-1.8"/>
	<path class="st0" d="M715.1,356.3c-2.6-2.2-6.7-1.8-9.3,0.3c-2.6,2.2-3.8,5.7-3.7,9.1c0.1,3.1,1.2,6.3,3.6,8.3
		c2.8,2.3,6.8,2.7,10.4,1.8c6.3-1.6,11.5-6.7,13.6-12.8c2.1-6.1,1.3-13.1-1.8-18.8c-4.6-8.5-16.9-17.9-26.9-13.7
		c-7.5,3.1-10.8,11.7-14.2,19.2c-4.1,9.2-17.3,19.1-26.4,9c-2.3-2.6-3.3-3.1-5-6.1c-1.7-3.1-4.7-5.9-8.1-5.5
		c-2.9,0.4-4.9,2.9-6.5,5.4c-3.6,5.7-5.6,8.5-9.8,13.7c-4.9,6-9.1,12.5-15.6,17c-8.1,5.6-18,6.2-25.2-1.8"/>
	<path class="st0" d="M602,345.2c0,0,17.6,2.2,19.6,11.6c0.7,2.8-0.1,5.8-2.4,7.8c-2.3,2-5.4,2.5-8.1,1.4
		C602,362.9,602,345.2,602,345.2z"/>
	<path class="st0" d="M619.2,364.7c0,0,5,7.1-1.1,16.3"/>
	<path class="st0" d="M689.2,292.5c0,0,17.6,2.2,19.6,11.6c0.7,2.8-0.1,5.8-2.4,7.8c-2.3,2-5.4,2.5-8.1,1.4
		C689.2,310.2,689.2,292.5,689.2,292.5z"/>
	<path class="st0" d="M706.4,312c0,0,5,7.1-1.1,16.3"/>
	<path class="st0" d="M573.8,361c0,0-9.2-15.1,0-27.8"/>
	<path class="st0" d="M686.2,495.7c1.6,0,3.2-0.1,4.8-0.4c4-0.8,7.7-2.9,10.1-6.2c2.3-3.3,3.1-7.8,1.4-11.5"/>
	<path class="st0" d="M714.6,455.5c0,0,5.9,16.7-1.6,22.7c-2.2,1.9-5.3,2.5-8.1,1.4c-2.8-1.1-4.6-3.7-4.9-6.6
		C698.8,463.5,714.6,455.5,714.6,455.5z"/>
	<path class="st0" d="M499.5,709.1c0,0-12.6-12.5-8.4-21.2c1.1-2.6,3.7-4.5,6.7-4.7c3-0.2,5.8,1.4,7.3,3.8
		C510.3,695,499.5,709.1,499.5,709.1z"/>
	<path class="st0" d="M537.4,606.4c0,0,17.5,2.4,19.5,11.9c0.7,2.8-0.2,5.8-2.5,7.8s-5.5,2.4-8.1,1.3
		C537.2,624.1,537.4,606.4,537.4,606.4z"/>
	<path class="st0" d="M596,464.1c0,0,0.8-17.7,10-20.5c2.7-0.9,5.8-0.3,8,1.8s2.9,5.2,2.1,8C613.7,462.7,596,464.1,596,464.1z"/>
	<path class="st0" d="M618.5,478.3c-2.8,4.6-2.8,10.6-0.8,15.6s5.8,9.2,10.1,12.4c4.3,3.2,9.2,5.6,14,8c2.7-7.8,1.1-17.3-3.5-24.1
		S626.8,478.6,618.5,478.3z"/>
	<path class="st0" d="M579.2,578.9c-4.1,1.3-6.9,5.3-7.8,10.1s-0.2,10.1,1.3,15.3c1.5,5.1,3.8,10,6.1,14.9
		c5.5-3.5,8.9-11.1,8.8-18.8C587.3,592.6,584.8,584.5,579.2,578.9z"/>
	<path class="st0" d="M637.3,583.4c6.5,4.2,11.1,11.5,11.2,19.3c0.1,7.7-4.9,15.5-12.2,18c-7.3,2.5-16.4-1-19.5-8.1
		c-1.5-3.5-1.5-7.8,0.7-10.9c2.2-3.1,6.8-4.5,10.1-2.6c2.9,1.7,4.1,5.5,3.3,8.8c-0.8,3.3-3.3,5.9-6.3,7.5
		c-8.2,4.4-19.7,0.3-23.2-8.3c-2.9-7-0.7-14.9,0.6-22.4c1.3-7.5,1.6-17.3-4.3-22.1c-4.1-3.4-10.6-4.9-14.9-1.8
		c-4.3,3.1-6.1,12-4.6,18"/>
	<path class="st0" d="M610.5,507.4c-3.8-2.4-8.5-3.3-12.9-2.4c-4.4,0.9-8.4,3.5-11,7.2"/>
	<path class="st0" d="M589.3,401.8c4.6-1.7,10.1-0.7,13.8,2.4c3.7,3.2,5.6,8.4,4.6,13.2c-1,4.9-4.6,9.6-3.3,14.4
		c0.6,2.2,2.2,4.1,3.7,5.8c1.5,1.8,2.9,3.8,3.2,6"/>
	<ellipse class="st0" cx="664.9" cy="402.9" rx="18" ry="11.7"/>
	<path class="st0" d="M449.4,664.6c5.1-1.6,8.9-2.4,12.6-0.3c3.6,2.2,5.1,6.2,4.6,10.4c-1.1,8.3-11.1,13-12.8,21.2
		c-1,4.6,1.1,9.6,4.9,12.2s9.4,2.6,13.2-0.1c4.9-3.4,6.5-10,6.5-16c0-6-1.2-12-0.1-17.9c0.5-2.9,1.6-5.9,3.7-8s5.2-3.5,8.1-2.8
		c3.9,0.8,7,3.5,8.2,7.3c1.3,4,0.7,8.8-0.4,12.6"/>
	<path class="st0" d="M493.8,644.2c8.7-4.9,14.9-6,22.1-6.2c7.2-0.2,14.6,1.6,20.2,6c5,3.9,8.4,10,8.5,16.3c0.1,6.3-3.3,12.8-9,15.6
		c-5.3,2.7-12.2,1.8-16.7-2.1c-4.5-3.9-6.3-9.6-4.3-15.2c1.2-3.4,3.9-5.4,7.4-6.1s7.9,2.6,9.2,5.9"/>
	<path class="st0" d="M539.1,646.8c5.5,1.6,10.9,0.3,14.6-2.4c3.7-2.7,6.2-7.2,6-11.8c-0.1-2.3-0.9-4.6-2.3-6.4"/>
	<path class="st0" d="M555,643.4c2.1,12.8,13.3,17.5,18.3,18.4c7.1,1.3,14.7-0.6,20.3-5.1c4.2-3.3,7.3-8.1,7.7-13.3
		c0.4-5.3-2.3-10.9-7.1-13.1c-4.8-2.2-11.4,0-13.3,4.9c-1.1,2.9-0.4,6.5,2,8.5s6.5,1.6,8.2-1"/>
	<line class="st0" x1="624.7" y1="141.4" x2="624.7" y2="129"/>
	<line class="st0" x1="611.3" y1="142.4" x2="611.3" y2="114.9"/>
	<line class="st0" x1="597.9" y1="141.4" x2="597.9" y2="124"/>
	<line class="st0" x1="386.7" y1="406.6" x2="344.5" y2="406.6"/>
	<line class="st0" x1="405.2" y1="511" x2="424.2" y2="573.5"/>
	<line class="st0" x1="391" y1="509.7" x2="415.1" y2="588.8"/>
	<line class="st0" x1="381.7" y1="523.5" x2="399.7" y2="582.7"/>
	<path class="st0" d="M409.2,357.9l10.1-29.2l8.1,37.3c22.8-40.3-10.9-85.6,14.1-111.2c18.1-18.6,32.9,2.7,32.9,2.7l17.3-37.6
		c3.1-6.8,0.3-14.8-6.4-18.1l-22.8-11.4c-4.6-2.3-6.4-7.9-4.1-12.4v0c2.2-4.4,0.6-9.7-3.7-12.2l-54.2-30.6l-54.2,30.6
		c-4.3,2.4-5.9,7.8-3.7,12.2v0c2.3,4.6,0.4,10.1-4.1,12.4l-22.8,11.4c-6.6,3.3-9.5,11.3-6.4,18.1l17.3,37.6c0,0,14.8-21.3,32.9-2.7
		c25,25.6-10.1,70.9,12.8,111.2l8.1-37.3l10.1,29.2l10.1-31.6L409.2,357.9z"/>
	<path class="st0" d="M389.8,204.6c1.3,2.6,2.1,5.5,2.1,8.7c0,10.4-8.5,18.9-18.9,18.9c-10.4,0-18.9-8.5-18.9-18.9
		c0-9.1,6.5-16.8,15.1-18.5"/>
	<circle class="st0" cx="427" cy="213.3" r="18.9"/>
	<path class="st0" d="M400,313.2c0,0,22.8-25.8,13.6-42.2c-2.5-4.9-7.7-8.3-13.6-8.3s-11.1,3.4-13.6,8.3
		C377.2,287.4,400,313.2,400,313.2z"/>
	<path class="st0" d="M339.2,190.1c4.9-2.6,10.3-7.7,14.9-9.6c4.6-1.9,9.8-2.6,14.6-1c8.1,2.7,11.6,10,12.2,16.2
		c0.7,6.4-2.4,13.1-6.4,18.2c-3.9,4.9-10.7,8.9-17.1,10"/>
	<polyline class="st0" points="309,265.4 302.4,282.7 320.2,278.5 	"/>
	<polyline class="st0" points="324.4,282.7 318,305.9 339.2,294.6 	"/>
	<polyline class="st0" points="342.9,297.7 339.2,327.1 360.1,305.5 	"/>
	<polyline class="st0" points="492,265.4 498.6,282.7 480.8,278.5 	"/>
	<polyline class="st0" points="476.6,282.7 483,305.9 461.8,294.6 	"/>
	<polyline class="st0" points="458.1,297.7 461.8,327.1 440.9,305.5 	"/>
	<line class="st0" x1="352.3" y1="425.9" x2="362.3" y2="458.1"/>
	<path class="st0" d="M465.7,498.4c-0.5,0-0.9,0-1.4,0c-12.1,0-21.9-9.8-21.9-21.9c0-9.5,6.1-17.6,14.6-20.6"/>
	<path class="st0" d="M572.7,488.5c16.6-47.8,19-95.3,16.5-129.8c-4.8,1.5-10,2.3-15.3,2.3c-28.5,0-51.7-23.1-51.7-51.7
		c0-18.8,10.1-35.3,25.1-44.3l-59.4-36.9"/>
	<path class="st0" d="M313,227.6c-23.7,14.7-46.5,28.9-60.2,37.4c15,9,25.1,25.5,25.1,44.3c0,28.5-23.1,51.7-51.7,51.7
		c-5.3,0-10.5-0.8-15.3-2.3c-2.6,34.8-0.5,82.8,16.4,130.9"/>
	<line class="st0" x1="431.3" y1="231.7" x2="436.9" y2="241.5"/>
	<line class="st0" x1="398.3" y1="174.5" x2="413.2" y2="200.3"/>
	<line class="st0" x1="441.4" y1="225.6" x2="446.9" y2="235.2"/>
	<line class="st0" x1="414" y1="178" x2="423.5" y2="194.6"/>
	<path class="st0" d="M320.2,243.2l-39.4,24.5c9,11.8,14.1,26.5,14.1,41.7c0,37.6-30.4,68.2-67.9,68.7c-0.4,25.5,2.6,55.8,11.4,86.9
		"/>
	<path class="st0" d="M479.8,243.2l39.4,24.5c-9,11.8-14.1,26.5-14.1,41.7c0,37.6,30.4,68.2,67.9,68.7c0.4,25.5-2.6,55.8-11.4,86.9"
		/>
	<path class="st0" d="M304.7,442c4.9-9.3,11.1-19.4,17.1-25.1l-42.5-1.4l-13.2-26.2c-11.5,14-20.5,29.5-26.9,45.7l15.7,6.2"/>
	<path class="st0" d="M289.5,495.3l14.9,0.8c0.7-17.1,5.1-31.9,14.4-45.9L263.5,418c-4,11-11.3,29.7-16.9,48.7"/>
	<path class="st0" d="M274.7,551.4l23.4-9.8c-8.7-20.8-10.8-43.6-6.2-65.4l-61.1-12.8c-7.1,34.1-2.1,68.5,11.5,101"/>
	<path class="st0" d="M292.2,523.2l13-3.2c0,0,11,34.8,40.5,57l-8.8,12.5"/>
	<path class="st0" d="M286.9,611.9c0,0-4.4-5.6-11.9-14.5"/>
	<polyline class="st0" points="367.2,663 363,688.6 383.8,699.5 	"/>
	<line class="st0" x1="409.2" y1="640" x2="387.5" y2="640"/>
	<polyline class="st0" points="412.9,699.5 433.7,688.6 429.5,663 	"/>
	<path class="st0" d="M430.5,669.1c33.6-6,65.8-22,91.8-48L478.2,577l0,0c-43.2,43.2-113.1,43.2-156.3,0l-44.2,44.2
		c25.1,25.1,56,40.9,88.4,47.3"/>
	<path class="st0" d="M507.8,523.2l-13-3.2c0,0-11,34.8-40.5,57l8.8,12.5"/>
	<path class="st0" d="M512,610.8c0,0,6-5.3,13.3-13.9"/>
	<path class="st0" d="M525.4,551.4l-23.4-9.8c8.7-20.8,10.8-43.6,6.2-65.4l52.6-11"/>
	<path class="st0" d="M560.8,465.1l8.5-1.8c7.1,34.1,2.1,69.9-11.5,102.4"/>
	<path class="st0" d="M510.5,495.3l-14.9,0.8c-0.7-17.1-5.1-31.9-14.4-45.9l55.3-32.2c4,11,11.3,29.7,16.9,48.7"/>
	<path class="st0" d="M495.3,442c-4.9-9.3-11.1-19.4-17.1-25.1l42.5-1.4l13.2-26.2c11.5,14,20.5,29.5,26.9,45.7l-15.7,6.2"/>
	<path class="st0" d="M366.3,307.8c-33-10.8-59.2-36.7-70.3-69.6"/>
	<path class="st0" d="M504.9,238.6c-11.3,32.9-37.7,58.8-70.9,69.4"/>
	<path class="st0" d="M439.1,157.1c-3.8-3.2-6.5-8-7.9-12.9c-1.9-6.5-0.8-13.9,3-19.5c4.1-6.1,10.9-10.1,14.6-16.5
		c4-6.9,3.4-16.6-2.4-22.1c-5.8-5.5-16.7-4.8-20.9,2"/>
</g>
</svg>
